<svg width="201" height="193" viewBox="0 0 201 193" fill="none" xmlns="http://www.w3.org/2000/svg">
<path d="M187 148.006C187 148.031 186.986 148.068 186.986 148.093C186.986 148.106 186.986 148.131 186.972 148.143C186.959 148.181 186.959 148.218 186.945 148.256C186.945 148.268 186.945 148.268 186.945 148.281C186.931 148.331 186.917 148.368 186.889 148.418C186.889 148.431 186.876 148.443 186.876 148.456C186.862 148.493 186.848 148.518 186.82 148.556C186.806 148.568 186.807 148.593 186.793 148.606C186.779 148.631 186.765 148.668 186.737 148.693C186.724 148.706 186.71 148.731 186.71 148.743C186.696 148.768 186.668 148.806 186.654 148.831C186.641 148.843 186.627 148.868 186.613 148.881C186.585 148.906 186.572 148.943 186.544 148.968C186.53 148.981 186.516 149.006 186.502 149.018C186.475 149.043 186.447 149.081 186.419 149.106C186.406 149.118 186.392 149.131 186.378 149.144C186.35 149.181 186.309 149.206 186.267 149.244C186.254 149.256 186.254 149.269 186.24 149.269C186.198 149.319 186.143 149.356 186.088 149.406C186.032 149.456 185.977 149.494 185.922 149.544C185.908 149.544 185.908 149.556 185.894 149.556C185.839 149.594 185.798 149.631 185.742 149.669C185.728 149.681 185.715 149.694 185.701 149.706C185.659 149.744 185.604 149.769 185.563 149.806C185.549 149.819 185.521 149.831 185.507 149.844C185.466 149.869 185.41 149.906 185.369 149.931C185.341 149.944 185.328 149.956 185.3 149.969C185.245 149.994 185.203 150.031 185.148 150.056C185.12 150.069 185.106 150.081 185.079 150.094C185.023 150.119 184.968 150.156 184.913 150.181C184.885 150.194 184.871 150.206 184.844 150.219C184.788 150.256 184.719 150.281 184.664 150.319C184.636 150.332 184.623 150.344 184.595 150.357C184.512 150.394 184.443 150.432 184.36 150.469C184.346 150.469 184.346 150.482 184.332 150.482C184.236 150.532 184.139 150.569 184.042 150.619C183.945 150.657 183.849 150.707 183.752 150.744C183.724 150.757 183.697 150.769 183.683 150.769C183.6 150.807 183.531 150.832 183.448 150.869C183.42 150.882 183.379 150.894 183.351 150.907C183.282 150.932 183.213 150.969 183.13 150.994C183.088 151.007 183.047 151.019 183.019 151.044C182.95 151.069 182.867 151.107 182.798 151.132C182.757 151.144 182.715 151.157 182.674 151.182C182.591 151.207 182.508 151.244 182.439 151.269C182.397 151.282 182.37 151.294 182.328 151.307C182.218 151.344 182.093 151.394 181.983 151.432C181.983 151.432 181.969 151.432 181.969 151.445C181.844 151.482 181.72 151.532 181.582 151.57C181.54 151.582 181.499 151.595 181.457 151.607C181.361 151.632 181.278 151.67 181.181 151.695C181.126 151.707 181.084 151.732 181.029 151.745C180.946 151.77 180.863 151.795 180.766 151.82C180.711 151.832 180.656 151.857 180.6 151.87C180.504 151.895 180.407 151.932 180.296 151.957C180.241 151.97 180.2 151.982 180.144 151.995C180.006 152.032 179.882 152.07 179.743 152.107C179.73 152.107 179.702 152.12 179.688 152.12C179.536 152.157 179.37 152.207 179.218 152.245C179.177 152.257 179.135 152.27 179.094 152.282C178.969 152.32 178.845 152.345 178.721 152.382C178.665 152.395 178.624 152.407 178.569 152.42C178.43 152.457 178.292 152.495 178.154 152.52C178.113 152.532 178.071 152.545 178.016 152.557C177.836 152.608 177.643 152.645 177.463 152.695C177.269 152.745 177.076 152.783 176.882 152.833C176.841 152.845 176.799 152.845 176.758 152.858C176.592 152.895 176.44 152.933 176.274 152.97C176.233 152.983 176.191 152.983 176.15 152.995C175.929 153.045 175.707 153.095 175.486 153.133C175.265 153.183 175.03 153.233 174.809 153.27C174.768 153.283 174.726 153.283 174.698 153.295C174.477 153.345 174.27 153.383 174.049 153.433C174.035 153.433 174.021 153.433 174.007 153.445C173.759 153.495 173.524 153.545 173.275 153.583C173.247 153.583 173.22 153.595 173.206 153.595C172.943 153.645 172.68 153.695 172.418 153.745C172.404 153.745 172.376 153.758 172.363 153.758C172.086 153.808 171.81 153.858 171.519 153.908C171.478 153.908 171.45 153.921 171.409 153.921C171.132 153.971 170.842 154.021 170.552 154.071C170.552 154.071 170.552 154.071 170.538 154.071C170.248 154.121 169.958 154.171 169.653 154.221C169.612 154.233 169.571 154.233 169.515 154.246C169.184 154.296 168.852 154.346 168.52 154.408C168.492 154.408 168.465 154.421 168.437 154.421C168.092 154.471 167.746 154.521 167.401 154.583C167.387 154.583 167.387 154.583 167.373 154.583C167.027 154.633 166.682 154.683 166.322 154.733C166.267 154.746 166.212 154.746 166.17 154.758C165.825 154.808 165.493 154.858 165.134 154.908C165.037 154.921 164.926 154.934 164.83 154.946C164.733 154.959 164.622 154.971 164.526 154.984C164.401 154.996 164.277 155.021 164.152 155.034C164.056 155.046 163.959 155.059 163.848 155.071C163.724 155.084 163.586 155.109 163.461 155.121C163.365 155.134 163.268 155.146 163.171 155.159C163.019 155.184 162.867 155.196 162.715 155.221C162.632 155.234 162.549 155.246 162.466 155.246C162.273 155.271 162.065 155.296 161.858 155.321C161.816 155.321 161.789 155.334 161.747 155.334C161.512 155.359 161.277 155.396 161.056 155.421C160.628 155.471 160.199 155.521 159.771 155.571C159.729 155.571 159.674 155.584 159.633 155.584C159.218 155.634 158.817 155.671 158.402 155.721C158.347 155.734 158.292 155.734 158.237 155.746C157.822 155.796 157.393 155.834 156.965 155.884C156.923 155.884 156.882 155.896 156.841 155.896C156.398 155.946 155.942 155.996 155.486 156.034C155.002 156.084 154.518 156.134 154.021 156.184C153.592 156.222 153.164 156.272 152.735 156.309C152.694 156.309 152.653 156.322 152.611 156.322C152.183 156.359 151.74 156.397 151.298 156.434C150.856 156.472 150.4 156.509 149.957 156.547C149.93 156.547 149.902 156.547 149.874 156.559C149.432 156.597 148.976 156.634 148.52 156.672C148.492 156.672 148.451 156.672 148.423 156.684C147.981 156.722 147.552 156.759 147.11 156.784C146.668 156.822 146.225 156.847 145.783 156.884C145.728 156.884 145.672 156.897 145.631 156.897C145.189 156.934 144.746 156.959 144.304 156.997C143.862 157.034 143.419 157.059 142.977 157.084C142.908 157.084 142.853 157.097 142.784 157.097C142.258 157.134 141.733 157.172 141.208 157.197C141.139 157.197 141.084 157.209 141.014 157.209C140.489 157.247 139.95 157.272 139.411 157.31C139.356 157.31 139.287 157.322 139.231 157.322C138.679 157.36 138.14 157.385 137.587 157.422C137.545 157.422 137.518 157.422 137.476 157.422C136.909 157.46 136.356 157.485 135.79 157.522C135.762 157.522 135.748 157.522 135.721 157.522C135.665 157.522 135.61 157.522 135.541 157.535C134.988 157.56 134.435 157.597 133.882 157.622C133.689 157.635 133.482 157.647 133.288 157.647C132.86 157.672 132.445 157.685 132.016 157.71C131.795 157.722 131.574 157.735 131.367 157.735C130.924 157.76 130.482 157.772 130.026 157.797C129.846 157.81 129.653 157.81 129.473 157.822C128.865 157.847 128.257 157.872 127.635 157.897C127.441 157.91 127.234 157.91 127.04 157.922C126.598 157.935 126.17 157.96 125.727 157.972C125.465 157.985 125.202 157.997 124.953 157.997C124.566 158.01 124.179 158.022 123.792 158.035C123.516 158.047 123.253 158.047 122.977 158.06C122.452 158.072 121.926 158.097 121.401 158.11C121.332 158.11 121.249 158.11 121.18 158.122C121.042 158.122 120.917 158.135 120.779 158.135C120.295 158.147 119.798 158.16 119.314 158.172C119.065 158.185 118.816 158.185 118.581 158.197C118.139 158.21 117.711 158.222 117.268 158.235C117.061 158.235 116.84 158.247 116.633 158.247C115.983 158.26 115.333 158.272 114.684 158.285H114.67C114.587 158.285 114.49 158.285 114.407 158.285C113.785 158.297 113.149 158.31 112.527 158.322C112.417 158.322 112.293 158.322 112.182 158.322C111.56 158.335 110.924 158.347 110.302 158.347C110.205 158.347 110.109 158.347 110.026 158.347C109.335 158.36 108.657 158.36 107.952 158.372C107.883 158.372 107.814 158.372 107.745 158.372C107.04 158.385 106.321 158.385 105.603 158.385H105.589C105.575 158.385 105.561 158.385 105.534 158.385C104.815 158.385 104.082 158.398 103.35 158.398C103.308 158.398 103.267 158.398 103.225 158.398C102.479 158.398 101.719 158.398 100.972 158.398C100.212 158.398 99.452 158.398 98.6917 158.398C98.6641 158.398 98.6365 158.398 98.6088 158.398C97.8901 158.398 97.1852 158.398 96.4664 158.385C96.4111 158.385 96.3558 158.385 96.3005 158.385C95.5956 158.385 94.8907 158.372 94.1858 158.372C94.1029 158.372 94.0338 158.372 93.9508 158.372C93.2874 158.36 92.6377 158.36 91.9743 158.347C91.8914 158.347 91.8084 158.347 91.7393 158.347C91.0482 158.335 90.3709 158.322 89.6937 158.322C89.5969 158.322 89.5002 158.322 89.4034 158.322C88.7814 158.31 88.1733 158.297 87.5651 158.285C87.4269 158.285 87.2887 158.285 87.1643 158.272C86.5699 158.26 85.9894 158.247 85.3951 158.235C85.2568 158.235 85.1324 158.235 84.9942 158.222C84.3999 158.21 83.8055 158.197 83.225 158.185C83.1006 158.185 82.9762 158.172 82.8518 158.172C82.2437 158.16 81.6355 158.135 81.0273 158.122C80.9167 158.122 80.82 158.122 80.7094 158.11C80.1013 158.097 79.4793 158.072 78.8711 158.047C78.7743 158.047 78.6776 158.047 78.5808 158.035C78.567 158.035 78.5532 158.035 78.5532 158.035C77.945 158.01 77.3369 157.997 76.7287 157.972C76.632 157.972 76.5352 157.96 76.4523 157.96C75.8441 157.935 75.2359 157.91 74.6278 157.885C74.531 157.885 74.4343 157.872 74.3375 157.872C73.7293 157.847 73.135 157.822 72.5407 157.797C72.4439 157.797 72.3472 157.785 72.2366 157.785C71.6422 157.76 71.0617 157.735 70.4812 157.71C70.3706 157.71 70.26 157.697 70.1633 157.697C69.5828 157.672 69.0023 157.647 68.4217 157.61C68.325 157.61 68.2144 157.597 68.1176 157.597C67.5371 157.572 66.9566 157.535 66.3761 157.51C66.1688 157.497 65.9752 157.485 65.7679 157.472C65.6435 157.46 65.5191 157.46 65.3947 157.447C65.1183 157.435 64.8419 157.422 64.5654 157.397C64.4963 157.397 64.4272 157.385 64.3581 157.385C63.9987 157.36 63.6532 157.347 63.3076 157.322C63.28 157.322 63.2385 157.322 63.2109 157.322C62.893 157.297 62.5889 157.285 62.271 157.26C62.188 157.26 62.1051 157.247 62.0084 157.247C61.7457 157.235 61.4831 157.209 61.2205 157.197C61.1238 157.184 61.0132 157.184 60.9164 157.172C60.6676 157.159 60.4188 157.134 60.17 157.122C60.0733 157.109 59.9765 157.109 59.866 157.097C59.6033 157.084 59.3545 157.059 59.0919 157.047C59.009 157.047 58.9261 157.034 58.8431 157.034C58.5529 157.009 58.2626 156.997 57.9724 156.972C57.9309 156.972 57.8756 156.959 57.8341 156.959C57.4748 156.934 57.1016 156.909 56.7422 156.884C56.3828 156.859 56.0235 156.834 55.6779 156.809C55.6364 156.809 55.595 156.809 55.5535 156.797C55.2356 156.772 54.9315 156.747 54.6275 156.722C54.5722 156.722 54.5169 156.709 54.4616 156.709C54.1575 156.684 53.8534 156.659 53.5493 156.634C53.5079 156.634 53.4664 156.622 53.4249 156.622C53.0656 156.597 52.7062 156.559 52.3468 156.534C51.9875 156.509 51.6143 156.472 51.2549 156.447C51.2273 156.447 51.2134 156.447 51.1858 156.447C50.8679 156.422 50.5362 156.384 50.2183 156.359C50.163 156.359 50.1215 156.347 50.0662 156.347C49.7483 156.322 49.4166 156.284 49.0987 156.259C49.0849 156.259 49.071 156.259 49.0434 156.259C48.6702 156.222 48.297 156.184 47.9238 156.159C47.5783 156.122 47.2327 156.097 46.8872 156.059C46.8319 156.059 46.7766 156.046 46.7213 156.046C46.3896 156.009 46.0717 155.984 45.74 155.946C45.7261 155.946 45.7123 155.946 45.6985 155.946C45.3529 155.909 45.0074 155.871 44.6618 155.834C44.6204 155.834 44.5789 155.821 44.5374 155.821C44.2057 155.784 43.8878 155.746 43.5699 155.721C43.5146 155.709 43.4455 155.709 43.3902 155.696C43.0447 155.659 42.6853 155.621 42.3536 155.584C42.3121 155.584 42.2568 155.571 42.2154 155.571C41.9113 155.534 41.621 155.496 41.3169 155.471C41.2478 155.459 41.1787 155.459 41.0958 155.446C40.7641 155.409 40.4323 155.371 40.1144 155.321C40.073 155.321 40.0315 155.309 39.99 155.309C39.6168 155.259 39.2575 155.221 38.8981 155.171C38.8566 155.171 38.8152 155.159 38.7875 155.159C38.4143 155.109 38.055 155.059 37.6956 155.021C37.6403 155.009 37.5712 155.009 37.5159 154.996C37.1565 154.946 36.811 154.896 36.4654 154.846C36.4102 154.833 36.3549 154.833 36.2996 154.821C35.9402 154.771 35.5947 154.721 35.2353 154.671C35.1938 154.658 35.1385 154.658 35.0971 154.646C34.9036 154.621 34.7239 154.596 34.5304 154.558C34.4613 154.546 34.406 154.533 34.3369 154.533C34.171 154.508 33.9913 154.483 33.8255 154.458C33.7564 154.446 33.6872 154.433 33.6181 154.421C33.4523 154.396 33.2864 154.371 33.1344 154.346C33.0653 154.333 32.9961 154.321 32.927 154.308C32.7612 154.283 32.5953 154.258 32.4294 154.233C32.3742 154.221 32.305 154.208 32.2498 154.208C32.0701 154.183 31.8904 154.146 31.7107 154.121C31.6692 154.108 31.6278 154.108 31.5863 154.096C31.3652 154.058 31.1578 154.021 30.9367 153.983C30.4944 153.908 30.0659 153.833 29.6374 153.758C29.6236 153.758 29.6098 153.758 29.5959 153.745C29.3195 153.695 29.0569 153.645 28.7943 153.595C28.7666 153.595 28.739 153.583 28.7252 153.583C28.4626 153.533 28.1861 153.483 27.9235 153.433C27.8959 153.433 27.8682 153.42 27.8406 153.42C27.5918 153.37 27.343 153.32 27.0942 153.27C27.0804 153.27 27.0665 153.27 27.0527 153.258C26.8039 153.208 26.5551 153.158 26.3063 153.095C26.2649 153.083 26.2372 153.083 26.1958 153.07C25.712 152.97 25.242 152.858 24.7859 152.758C24.7445 152.745 24.703 152.733 24.6615 152.733C24.4404 152.683 24.2192 152.633 23.9981 152.57C23.9843 152.57 23.9842 152.57 23.9704 152.57C23.7631 152.52 23.5558 152.47 23.3623 152.42C23.3208 152.407 23.2793 152.395 23.2379 152.395C23.0305 152.345 22.837 152.295 22.6435 152.245C22.6159 152.232 22.5882 152.232 22.5606 152.22C22.3947 152.17 22.215 152.132 22.0492 152.082C22.0077 152.07 21.9663 152.057 21.9386 152.045C21.7589 151.995 21.5792 151.945 21.3995 151.895C21.3581 151.882 21.3304 151.87 21.3028 151.87C21.1508 151.82 20.9987 151.782 20.8467 151.732C20.819 151.72 20.7914 151.72 20.7637 151.707C20.5979 151.657 20.432 151.607 20.28 151.545C20.2385 151.532 20.2109 151.52 20.1832 151.507C20.0312 151.457 19.8791 151.407 19.7271 151.344H19.7133C19.5612 151.294 19.4092 151.232 19.2572 151.182C19.2295 151.169 19.2019 151.157 19.1742 151.144C19.0222 151.094 18.884 151.032 18.7457 150.982C18.7319 150.982 18.7181 150.969 18.7043 150.969C18.5799 150.919 18.4555 150.869 18.3311 150.807C18.3034 150.794 18.2896 150.782 18.262 150.782C18.1376 150.732 18.0132 150.669 17.8888 150.619C17.875 150.607 17.8611 150.607 17.8335 150.594C17.7229 150.544 17.6123 150.494 17.5018 150.432C17.4879 150.419 17.4741 150.419 17.4603 150.407C17.3497 150.344 17.2392 150.294 17.1286 150.231C17.1148 150.219 17.0871 150.206 17.0733 150.206C16.9627 150.144 16.866 150.094 16.7692 150.031C16.6725 149.969 16.5757 149.919 16.4928 149.856C16.4789 149.844 16.4651 149.831 16.4513 149.831C16.3684 149.769 16.2716 149.719 16.1887 149.656C16.1058 149.594 16.0366 149.544 15.9675 149.481C15.9537 149.469 15.9399 149.456 15.9261 149.456C15.857 149.394 15.7878 149.344 15.7326 149.281C15.7187 149.269 15.7187 149.269 15.7049 149.256C15.6496 149.206 15.5943 149.156 15.5529 149.093C15.5391 149.081 15.5391 149.068 15.5252 149.068C15.4699 149.006 15.4285 148.956 15.387 148.893C15.3732 148.881 15.3732 148.868 15.3594 148.868C15.3179 148.818 15.2903 148.768 15.2488 148.718C15.2488 148.706 15.235 148.706 15.235 148.693C15.1935 148.631 15.1659 148.581 15.1382 148.518C15.1382 148.506 15.1244 148.493 15.1244 148.481C15.0968 148.431 15.0829 148.381 15.0553 148.318V148.306C15.0415 148.243 15.0276 148.193 15.0138 148.131C15.0138 148.118 15.0138 148.106 15.0138 148.093C15 148.031 15 147.98 15 147.918L15.6358 179.056C15.6358 179.131 15.6496 179.206 15.6496 179.282C15.6496 179.294 15.6496 179.319 15.6635 179.332C15.6773 179.407 15.6911 179.482 15.7049 179.557C15.7049 179.569 15.7049 179.569 15.7049 179.582C15.7187 179.657 15.7464 179.719 15.774 179.794C15.774 179.807 15.7879 179.832 15.7879 179.844C15.8155 179.919 15.8431 179.994 15.8846 180.069C15.8846 180.082 15.8984 180.094 15.8984 180.107C15.9261 180.169 15.9675 180.244 16.009 180.307C16.0228 180.319 16.0228 180.332 16.0366 180.344C16.0781 180.42 16.1334 180.495 16.1887 180.57C16.2025 180.582 16.2025 180.595 16.2163 180.607C16.2716 180.682 16.3131 180.745 16.3684 180.82C16.3822 180.832 16.3822 180.832 16.396 180.845C16.4513 180.92 16.5204 180.995 16.5895 181.07L16.6033 181.082C16.6172 181.095 16.6172 181.095 16.631 181.107C16.7001 181.182 16.783 181.257 16.8521 181.332C16.9351 181.407 17.018 181.482 17.1009 181.57C17.1148 181.583 17.1286 181.595 17.1424 181.608C17.2392 181.683 17.3221 181.758 17.4188 181.845C17.5156 181.92 17.6123 181.995 17.7229 182.07C17.7367 182.083 17.7506 182.095 17.7782 182.108C17.8888 182.183 17.9994 182.258 18.1099 182.333C18.1238 182.345 18.1376 182.345 18.1514 182.358C18.262 182.433 18.3726 182.495 18.4831 182.57C18.4969 182.583 18.5108 182.595 18.5384 182.608C18.6628 182.683 18.7872 182.758 18.9116 182.833C18.9392 182.846 18.9531 182.858 18.9807 182.871C19.1051 182.946 19.2295 183.008 19.3539 183.083C19.3677 183.083 19.3677 183.096 19.3816 183.096C19.3816 183.096 19.3815 183.096 19.3954 183.096C19.5336 183.171 19.6718 183.246 19.8239 183.321C19.8515 183.333 19.8791 183.346 19.9068 183.371C20.0588 183.446 20.197 183.521 20.3629 183.596C20.3629 183.596 20.3767 183.596 20.3767 183.608C20.5288 183.683 20.6808 183.746 20.8329 183.821C20.8743 183.833 20.902 183.846 20.9434 183.871C21.0955 183.946 21.2613 184.009 21.4272 184.084C21.4548 184.096 21.4825 184.109 21.5101 184.121C21.5931 184.159 21.6622 184.184 21.7451 184.221C21.8142 184.246 21.8971 184.284 21.9662 184.309C22.0077 184.321 22.0354 184.334 22.0768 184.346C22.2565 184.421 22.4224 184.484 22.6021 184.559C22.6435 184.571 22.685 184.584 22.7126 184.609C22.8785 184.671 23.0444 184.734 23.2102 184.796C23.2379 184.809 23.2655 184.821 23.2932 184.821C23.4867 184.896 23.6802 184.959 23.8737 185.034C23.8875 185.034 23.9013 185.047 23.929 185.047C23.9566 185.059 23.9704 185.059 23.9981 185.072C24.1916 185.134 24.3989 185.209 24.6062 185.272C24.6201 185.272 24.6201 185.272 24.6339 185.284C24.855 185.359 25.0624 185.422 25.2835 185.497C25.325 185.509 25.3664 185.522 25.4079 185.534C25.864 185.672 26.3202 185.809 26.8039 185.947C26.8454 185.959 26.873 185.972 26.9145 185.972C27.1633 186.047 27.3983 186.109 27.6471 186.184C27.6609 186.184 27.6747 186.197 27.6885 186.197C27.9373 186.26 28.1861 186.335 28.4349 186.397C28.4626 186.41 28.4902 186.41 28.5178 186.422C28.7805 186.485 29.0431 186.56 29.3057 186.622C29.3333 186.635 29.361 186.635 29.3748 186.647C29.6374 186.71 29.9 186.785 30.1627 186.847C30.1765 186.847 30.1765 186.847 30.1903 186.86H30.2041C30.8261 187.01 31.4757 187.16 32.1392 187.31C32.1806 187.322 32.2221 187.322 32.2636 187.335C32.4433 187.373 32.6091 187.41 32.7888 187.448C32.8165 187.448 32.8303 187.46 32.8579 187.46C32.8994 187.473 32.9409 187.473 32.9685 187.485C33.1344 187.523 33.3002 187.56 33.4523 187.585C33.5214 187.598 33.5905 187.61 33.6596 187.623C33.8255 187.66 33.9775 187.685 34.1434 187.723C34.1848 187.735 34.2263 187.735 34.2678 187.748C34.2954 187.748 34.323 187.76 34.3507 187.76C34.5166 187.798 34.6824 187.823 34.8483 187.86C34.9174 187.873 34.9865 187.885 35.0418 187.898C35.2215 187.935 35.415 187.973 35.5947 188.01C35.6361 188.023 35.6776 188.023 35.7191 188.035H35.7329C36.0784 188.098 36.424 188.173 36.7833 188.235C36.811 188.235 36.8525 188.248 36.8801 188.248C36.9077 188.248 36.9354 188.26 36.9492 188.26C37.2948 188.323 37.6403 188.385 37.9859 188.448C38.0135 188.448 38.0411 188.46 38.0688 188.46C38.1103 188.46 38.1379 188.473 38.1794 188.473C38.5111 188.536 38.8566 188.598 39.2022 188.648C39.2298 188.648 39.2436 188.661 39.2713 188.661C39.2851 188.661 39.2989 188.661 39.2989 188.661C39.3266 188.661 39.3542 188.673 39.3819 188.673C39.7412 188.736 40.1006 188.798 40.46 188.861C40.4876 188.861 40.5153 188.873 40.5429 188.873C40.5567 188.873 40.5706 188.873 40.5844 188.886C40.9023 188.936 41.234 188.986 41.5519 189.048C41.5796 189.048 41.6072 189.061 41.6348 189.061C41.6763 189.073 41.7316 189.073 41.7731 189.086C42.0633 189.136 42.3536 189.173 42.6577 189.223C42.6991 189.223 42.7268 189.236 42.7682 189.236C42.7821 189.236 42.7959 189.236 42.8097 189.248C43.1553 189.298 43.5008 189.348 43.8464 189.398C43.874 189.398 43.8878 189.411 43.9155 189.411C43.9569 189.411 43.9984 189.423 44.026 189.423C44.3439 189.473 44.6618 189.511 44.9936 189.561C45.0212 189.561 45.0489 189.573 45.0765 189.573C45.0903 189.573 45.1041 189.573 45.118 189.573C45.4497 189.623 45.7952 189.674 46.1408 189.711H46.1546C46.1684 189.711 46.1823 189.711 46.1961 189.724C46.514 189.761 46.8319 189.811 47.1498 189.849C47.1774 189.849 47.2051 189.861 47.2465 189.861C47.2742 189.861 47.3018 189.874 47.3295 189.874C47.6612 189.924 48.0068 189.961 48.3385 190.011C48.3385 190.011 48.3385 190.011 48.3523 190.011C48.7117 190.061 49.0849 190.111 49.458 190.149H49.4719C49.4857 190.149 49.4995 190.149 49.5133 190.149C49.8312 190.186 50.1491 190.224 50.467 190.261C50.4947 190.261 50.5223 190.261 50.5362 190.274C50.5638 190.274 50.5914 190.274 50.6191 190.286C50.937 190.324 51.2549 190.361 51.5866 190.399C51.6004 190.399 51.6143 190.399 51.6281 190.399H51.6419C52.3468 190.486 53.0656 190.561 53.7843 190.636C53.7981 190.636 53.812 190.636 53.8258 190.636C53.8534 190.636 53.8811 190.636 53.9087 190.649C54.2128 190.686 54.5031 190.711 54.8071 190.749C54.8348 190.749 54.8624 190.761 54.9039 190.761C54.9315 190.761 54.9592 190.761 54.9868 190.774C55.2909 190.812 55.595 190.837 55.8991 190.874C55.9267 190.874 55.9544 190.874 55.982 190.887C55.9958 190.887 56.0096 190.887 56.0235 190.887C56.7284 190.962 57.4471 191.024 58.1659 191.099C58.1797 191.099 58.1797 191.099 58.1935 191.099C58.2212 191.099 58.2626 191.112 58.2903 191.112C58.5805 191.137 58.8708 191.162 59.161 191.199C59.1887 191.199 59.2163 191.199 59.244 191.212C59.2993 191.212 59.3545 191.224 59.4098 191.224C59.6586 191.249 59.9212 191.274 60.17 191.299C60.2253 191.299 60.2668 191.312 60.3221 191.312C60.3774 191.312 60.4188 191.324 60.4741 191.324C60.7229 191.349 60.9717 191.362 61.2205 191.387C61.2896 191.387 61.3449 191.399 61.414 191.399C61.4555 191.399 61.4831 191.412 61.5246 191.412C61.7872 191.437 62.036 191.449 62.2986 191.474C62.3677 191.474 62.4368 191.487 62.5059 191.487C62.5336 191.487 62.5474 191.487 62.5751 191.487C62.8653 191.512 63.1556 191.537 63.4458 191.562C63.4873 191.562 63.5426 191.574 63.5841 191.574H63.5979C63.9434 191.599 64.289 191.624 64.6345 191.662C64.6483 191.662 64.6483 191.662 64.6622 191.662C64.7313 191.662 64.8142 191.674 64.8833 191.674C65.1459 191.699 65.3947 191.712 65.6573 191.737C65.685 191.737 65.7126 191.737 65.7541 191.749C65.8509 191.762 65.9476 191.762 66.0582 191.774C66.224 191.787 66.3761 191.799 66.542 191.812C66.5696 191.812 66.6111 191.812 66.6387 191.824C66.7078 191.824 66.7769 191.837 66.8599 191.837C67.2192 191.862 67.5786 191.887 67.9518 191.912C68.09 191.924 68.242 191.937 68.3803 191.937C68.477 191.949 68.5876 191.949 68.6843 191.962C68.8087 191.975 68.9193 191.974 69.0437 191.987C69.4031 192.012 69.7763 192.037 70.1495 192.062C70.2324 192.062 70.3292 192.075 70.4121 192.075C70.5227 192.087 70.6332 192.087 70.73 192.1C70.9097 192.112 71.0755 192.125 71.2552 192.137C71.6146 192.162 71.9601 192.175 72.3195 192.2C72.3748 192.2 72.4163 192.2 72.4715 192.212C72.5683 192.212 72.6651 192.225 72.7756 192.225C72.983 192.237 73.1903 192.25 73.3976 192.262C73.757 192.287 74.1164 192.3 74.4757 192.325C74.5034 192.325 74.531 192.325 74.5448 192.325C74.6416 192.325 74.7384 192.337 74.8351 192.337C75.0701 192.35 75.3189 192.362 75.5538 192.375C75.8994 192.387 76.2588 192.412 76.6181 192.425C76.6319 192.425 76.632 192.425 76.6458 192.425C76.7425 192.425 76.8393 192.437 76.9222 192.437C77.171 192.45 77.4336 192.462 77.6824 192.475C78.028 192.487 78.3735 192.512 78.7329 192.525C78.8296 192.525 78.9402 192.537 79.0508 192.537C79.3134 192.55 79.576 192.562 79.8386 192.575C80.1704 192.587 80.5159 192.6 80.8615 192.612C80.972 192.612 81.0826 192.625 81.1932 192.625C81.4282 192.637 81.6769 192.65 81.9119 192.65C82.2575 192.662 82.603 192.675 82.9624 192.687C82.9762 192.687 82.99 192.687 83.0039 192.687C83.1283 192.687 83.2527 192.7 83.3771 192.7C83.5844 192.712 83.8055 192.712 84.0129 192.725C84.3308 192.737 84.6625 192.75 84.9942 192.762C85.0357 192.762 85.091 192.762 85.1324 192.762C85.2568 192.762 85.3951 192.775 85.5194 192.775C85.6715 192.775 85.8235 192.787 85.9618 192.787C86.2935 192.8 86.6114 192.812 86.9431 192.812C87.0537 192.812 87.1643 192.812 87.2748 192.825C87.4131 192.825 87.5374 192.837 87.6757 192.837C87.7586 192.837 87.8554 192.837 87.9383 192.85C88.2562 192.862 88.5741 192.862 88.892 192.875C89.0993 192.875 89.3066 192.887 89.514 192.887C89.6107 192.887 89.7075 192.887 89.8042 192.9C89.8181 192.9 89.8319 192.9 89.8457 192.9C90.1636 192.912 90.4815 192.912 90.7994 192.925C91.1173 192.925 91.4352 192.937 91.7531 192.937C91.7808 192.937 91.8084 192.937 91.8222 192.937C91.9052 192.937 91.9881 192.937 92.0572 192.937C92.2507 192.937 92.4442 192.95 92.6377 192.95C92.9418 192.95 93.2321 192.962 93.5362 192.962C93.702 192.962 93.8541 192.962 94.0199 192.975C94.1029 192.975 94.172 192.975 94.2549 192.975C94.3102 192.975 94.3655 192.975 94.4346 192.975C94.7387 192.975 95.0289 192.987 95.333 192.987C95.6233 192.987 95.9135 192.987 96.19 193C96.2453 193 96.3005 193 96.342 193C96.3973 193 96.4526 193 96.5079 193C96.6876 193 96.8672 193 97.0469 193C97.3372 193 97.6275 193 97.9177 193C98.1527 193 98.3877 193 98.6365 193C98.6641 193 98.6917 193 98.7194 193C98.747 193 98.7608 193 98.7885 193C98.9682 193 99.1479 193 99.3414 193C99.521 193 99.7007 193 99.8942 193C100.074 193 100.254 193 100.447 193C100.627 193 100.806 193 101 193C101.111 193 101.207 193 101.318 193C101.428 193 101.525 193 101.636 193C101.746 193 101.843 193 101.94 193C102.037 193 102.147 193 102.244 193C102.52 193 102.797 193 103.087 193C103.142 193 103.198 193 103.239 193C103.281 193 103.322 193 103.377 193C103.557 193 103.737 193 103.93 193C104.207 193 104.483 193 104.76 193C105.022 193 105.285 193 105.534 193C105.561 193 105.575 193 105.603 193C105.879 193 106.142 193 106.418 192.987C106.695 192.987 106.971 192.987 107.248 192.975C107.4 192.975 107.565 192.975 107.717 192.975C107.787 192.975 107.856 192.975 107.925 192.975C107.98 192.975 108.022 192.975 108.077 192.975C108.353 192.975 108.63 192.962 108.906 192.962C109.224 192.962 109.542 192.95 109.86 192.95C109.901 192.95 109.943 192.95 109.97 192.95C110.067 192.95 110.164 192.95 110.247 192.95C110.427 192.95 110.62 192.937 110.8 192.937C111.118 192.937 111.436 192.925 111.753 192.925C111.878 192.925 111.988 192.925 112.113 192.912C112.237 192.912 112.348 192.912 112.472 192.9C112.555 192.9 112.624 192.9 112.707 192.9C113.025 192.887 113.343 192.887 113.647 192.875C113.868 192.875 114.103 192.862 114.324 192.862C114.421 192.862 114.518 192.862 114.615 192.85C114.919 192.837 115.223 192.837 115.527 192.825C115.845 192.812 116.149 192.812 116.467 192.8C116.494 192.8 116.522 192.8 116.55 192.8C116.757 192.787 116.964 192.787 117.172 192.775C117.448 192.762 117.725 192.762 118.015 192.75C118.167 192.75 118.319 192.737 118.485 192.737C118.734 192.725 118.968 192.725 119.217 192.712C119.328 192.712 119.438 192.7 119.549 192.7C119.922 192.687 120.295 192.675 120.669 192.662C120.876 192.65 121.083 192.65 121.277 192.637C121.705 192.625 122.134 192.6 122.562 192.587C122.659 192.587 122.742 192.575 122.839 192.575C123.115 192.562 123.378 192.55 123.64 192.537C124.027 192.525 124.401 192.5 124.788 192.487C125.05 192.475 125.313 192.462 125.575 192.45C125.686 192.45 125.783 192.437 125.893 192.437C126.225 192.425 126.543 192.4 126.875 192.387C127.068 192.375 127.262 192.362 127.455 192.362C128.022 192.337 128.589 192.3 129.155 192.262C129.197 192.262 129.238 192.262 129.28 192.25C129.459 192.237 129.653 192.225 129.833 192.212C130.275 192.187 130.717 192.162 131.159 192.137C131.381 192.125 131.602 192.112 131.809 192.1C131.989 192.087 132.182 192.075 132.362 192.062C132.597 192.05 132.832 192.025 133.067 192.012C133.26 192 133.468 191.987 133.661 191.974C134.214 191.937 134.753 191.899 135.306 191.862C135.347 191.862 135.403 191.849 135.444 191.849C135.458 191.849 135.458 191.849 135.472 191.849H135.486C135.5 191.849 135.513 191.849 135.541 191.849C136.108 191.812 136.661 191.762 137.227 191.724C137.255 191.724 137.269 191.724 137.296 191.724C137.31 191.724 137.31 191.724 137.324 191.724C137.877 191.687 138.416 191.637 138.969 191.599C139.01 191.599 139.038 191.599 139.079 191.587C139.093 191.587 139.121 191.587 139.135 191.587C139.66 191.549 140.199 191.499 140.71 191.449C140.752 191.449 140.78 191.449 140.821 191.437C140.849 191.437 140.876 191.437 140.904 191.424C141.429 191.374 141.941 191.337 142.466 191.287C142.493 191.287 142.521 191.287 142.549 191.274C142.59 191.274 142.618 191.262 142.659 191.262C143.544 191.174 144.428 191.099 145.299 191.012C145.327 191.012 145.355 191.012 145.382 190.999C145.41 190.999 145.424 190.999 145.451 190.987C146.336 190.899 147.207 190.812 148.064 190.711C148.091 190.711 148.105 190.711 148.133 190.699C148.147 190.699 148.16 190.699 148.174 190.699C148.63 190.649 149.073 190.599 149.515 190.549C149.529 190.549 149.529 190.549 149.543 190.549C149.556 190.549 149.57 190.549 149.598 190.549C150.482 190.449 151.367 190.349 152.238 190.236C152.266 190.236 152.279 190.236 152.307 190.224C152.321 190.224 152.348 190.224 152.362 190.211C152.791 190.161 153.219 190.099 153.648 190.049C154.601 189.924 155.527 189.799 156.44 189.674C156.467 189.674 156.495 189.661 156.523 189.661C156.536 189.661 156.55 189.661 156.578 189.648C157.006 189.586 157.421 189.523 157.836 189.461C157.863 189.461 157.891 189.448 157.919 189.448C157.946 189.448 157.974 189.436 158.002 189.436C158.416 189.373 158.817 189.311 159.232 189.248C159.246 189.248 159.259 189.248 159.287 189.236C159.315 189.236 159.342 189.223 159.37 189.223C159.798 189.161 160.227 189.086 160.642 189.023H160.655C160.669 189.023 160.683 189.023 160.697 189.011C161.112 188.948 161.526 188.873 161.941 188.811C161.955 188.811 161.982 188.798 161.996 188.798C162.01 188.798 162.024 188.798 162.038 188.798C162.121 188.786 162.203 188.773 162.286 188.761C162.438 188.736 162.59 188.711 162.743 188.686C162.756 188.686 162.784 188.673 162.798 188.673C162.867 188.661 162.95 188.648 163.019 188.636C163.116 188.623 163.226 188.598 163.323 188.586C163.351 188.586 163.378 188.573 163.42 188.573C163.517 188.561 163.613 188.536 163.71 188.523C163.834 188.498 163.959 188.473 164.083 188.46C164.18 188.448 164.291 188.423 164.387 188.41C164.456 188.398 164.526 188.385 164.608 188.373C164.636 188.373 164.664 188.36 164.691 188.36C165.037 188.298 165.383 188.235 165.714 188.173C165.742 188.173 165.756 188.16 165.783 188.16C165.811 188.16 165.839 188.148 165.88 188.148C166.226 188.085 166.571 188.01 166.917 187.948C166.917 187.948 166.917 187.948 166.931 187.948H166.944C167.29 187.873 167.635 187.81 167.981 187.735C167.995 187.735 168.022 187.723 168.036 187.723C168.05 187.723 168.05 187.723 168.064 187.723C168.396 187.648 168.727 187.585 169.045 187.51C169.073 187.51 169.087 187.498 169.114 187.498C169.142 187.498 169.156 187.485 169.184 187.485C169.474 187.423 169.778 187.36 170.054 187.285C170.345 187.222 170.621 187.16 170.897 187.085C170.925 187.085 170.939 187.072 170.967 187.072C170.98 187.072 170.994 187.06 171.008 187.06C171.284 186.997 171.561 186.922 171.837 186.86H171.851C171.865 186.86 171.879 186.847 171.893 186.847C172.155 186.785 172.418 186.722 172.667 186.647C172.68 186.647 172.694 186.635 172.708 186.635C172.722 186.635 172.722 186.635 172.736 186.622C172.985 186.56 173.22 186.497 173.468 186.435H173.482C173.496 186.435 173.51 186.435 173.51 186.422C173.731 186.36 173.952 186.31 174.159 186.247C174.187 186.247 174.201 186.235 174.229 186.235C174.242 186.235 174.256 186.222 174.284 186.222C174.74 186.097 175.182 185.972 175.611 185.847C175.625 185.847 175.638 185.834 175.666 185.834C175.694 185.822 175.721 185.822 175.735 185.809C175.901 185.759 176.053 185.709 176.219 185.659C176.247 185.647 176.274 185.647 176.302 185.634C176.316 185.634 176.329 185.622 176.343 185.622C176.73 185.509 177.104 185.384 177.477 185.259C177.491 185.259 177.504 185.247 177.518 185.247C177.546 185.234 177.573 185.222 177.601 185.222C177.739 185.172 177.878 185.134 178.016 185.084C178.043 185.072 178.071 185.059 178.099 185.059C178.126 185.047 178.14 185.047 178.168 185.034C178.292 184.996 178.417 184.946 178.541 184.909C178.569 184.896 178.61 184.884 178.638 184.871C178.652 184.871 178.652 184.859 178.665 184.859C178.831 184.796 178.983 184.746 179.135 184.684C179.149 184.684 179.163 184.671 179.177 184.671C179.315 184.621 179.439 184.571 179.578 184.521C179.591 184.521 179.605 184.509 179.619 184.509C179.647 184.496 179.688 184.484 179.716 184.471C179.813 184.434 179.909 184.396 180.006 184.359C180.034 184.346 180.061 184.334 180.089 184.334C180.117 184.321 180.144 184.309 180.172 184.296C180.213 184.284 180.255 184.259 180.283 184.246C180.324 184.221 180.379 184.209 180.421 184.184C180.448 184.171 180.49 184.159 180.518 184.146C180.531 184.134 180.559 184.134 180.573 184.121C180.67 184.084 180.752 184.046 180.849 184.009C180.877 183.996 180.918 183.984 180.946 183.971C180.96 183.971 180.96 183.959 180.974 183.959C181.098 183.896 181.236 183.846 181.361 183.783C181.361 183.783 181.374 183.783 181.374 183.771C181.499 183.721 181.609 183.658 181.72 183.608C181.734 183.608 181.734 183.596 181.748 183.596C181.775 183.583 181.803 183.571 181.831 183.558C181.914 183.521 181.996 183.483 182.066 183.446C182.079 183.433 182.093 183.433 182.107 183.421C182.135 183.408 182.148 183.396 182.176 183.383C182.245 183.346 182.328 183.308 182.397 183.271C182.411 183.258 182.439 183.246 182.453 183.246C182.466 183.233 182.494 183.221 182.508 183.221C182.577 183.183 182.66 183.146 182.729 183.108C182.757 183.096 182.77 183.083 182.798 183.071C182.812 183.058 182.826 183.058 182.826 183.046C182.909 183.008 182.978 182.958 183.061 182.921C183.075 182.908 183.102 182.896 183.116 182.883C183.116 182.883 183.13 182.883 183.13 182.871C183.323 182.758 183.517 182.645 183.697 182.52C183.71 182.52 183.71 182.508 183.71 182.508C183.793 182.458 183.876 182.408 183.945 182.358L183.959 182.345C183.973 182.333 183.987 182.32 184.001 182.308C184.07 182.27 184.125 182.22 184.18 182.183C184.194 182.183 184.194 182.17 184.208 182.17C184.222 182.158 184.236 182.145 184.249 182.133C184.305 182.095 184.36 182.058 184.415 182.008C184.429 181.995 184.443 181.995 184.443 181.983C184.457 181.97 184.471 181.958 184.484 181.958C184.54 181.92 184.581 181.883 184.636 181.845C184.65 181.833 184.664 181.82 184.678 181.82C184.692 181.808 184.692 181.808 184.706 181.795C184.761 181.758 184.802 181.72 184.844 181.67C184.858 181.658 184.871 181.645 184.885 181.633L184.899 181.62C184.954 181.583 184.996 181.532 185.037 181.495C185.051 181.482 185.065 181.47 185.079 181.457L185.093 181.445C185.148 181.395 185.189 181.345 185.245 181.295C185.245 181.282 185.258 181.282 185.258 181.27C185.369 181.157 185.48 181.032 185.576 180.92C185.59 180.907 185.59 180.895 185.604 180.882C185.645 180.832 185.673 180.795 185.715 180.745L185.728 180.732C185.742 180.72 185.742 180.707 185.756 180.695C185.784 180.657 185.811 180.62 185.839 180.57C185.839 180.557 185.853 180.557 185.853 180.545C185.867 180.532 185.867 180.52 185.88 180.507C185.908 180.47 185.922 180.432 185.95 180.395C185.95 180.382 185.963 180.369 185.963 180.357C185.963 180.344 185.977 180.332 185.977 180.319C185.991 180.282 186.019 180.244 186.032 180.207C186.032 180.194 186.046 180.182 186.06 180.169C186.06 180.157 186.074 180.157 186.074 180.144C186.088 180.107 186.102 180.069 186.129 180.032C186.129 180.019 186.143 180.007 186.143 179.982V179.969C186.157 179.919 186.171 179.882 186.198 179.832C186.198 179.819 186.212 179.807 186.212 179.794C186.212 179.794 186.212 179.794 186.212 179.782C186.226 179.719 186.254 179.657 186.267 179.594C186.267 179.582 186.267 179.569 186.267 179.569C186.281 179.519 186.295 179.469 186.295 179.419V179.407C186.295 179.394 186.295 179.369 186.295 179.357C186.295 179.319 186.309 179.282 186.309 179.244C186.309 179.231 186.309 179.231 186.309 179.219C186.309 179.206 186.309 179.206 186.309 179.194C186.309 179.181 186.309 179.181 186.309 179.169C186.309 179.156 186.309 179.156 186.309 179.144C186.309 179.131 186.309 179.131 186.309 179.119L186.945 147.98C187 147.943 187 147.968 187 148.006Z" fill="url(#paint0_linear)"/>
<path d="M101.014 138C111.586 138 121.73 138.238 131.072 138.663C140.525 139.101 149.259 139.726 156.86 140.527C164.613 141.34 171.274 142.328 176.332 143.454C181.528 144.617 185.08 145.918 186.42 147.331C187.802 148.795 186.683 150.233 183.394 151.584C180.008 152.973 174.328 154.249 166.741 155.362C158.988 156.488 149.3 157.426 138.189 158.076C126.926 158.739 114.322 159.114 101 159.114C87.6777 159.114 75.0741 158.739 63.8109 158.076C52.6998 157.426 43.0121 156.488 35.2592 155.362C27.6722 154.261 22.006 152.973 18.6064 151.584C15.3173 150.233 14.1979 148.795 15.5798 147.331C16.9204 145.918 20.472 144.605 25.6683 143.454C30.7263 142.328 37.3875 141.34 45.1404 140.527C52.7551 139.726 61.4892 139.088 70.9281 138.663C80.2979 138.238 90.4417 138 101.014 138Z" fill="url(#paint1_linear)"/>
<ellipse cx="101.5" cy="151.5" rx="47.5" ry="5.5" fill="url(#paint2_radial)"/>
<g filter="url(#filter0_dd)">
<path d="M139.489 30H61.5108L30 54.7273V54.9091V60.3636V60.5455L100.282 146H100.573L171 60.5455V60.3636V54.9091V54.7273L139.489 30Z" fill="url(#paint3_linear)"/>
<path d="M170.709 54.9088C169.403 55.4543 167.66 55.6361 165.917 55.6361C162.432 55.6361 159.383 54.5452 158.947 53.0906L148.347 37.2725L170.709 54.9088Z" fill="url(#paint4_linear)"/>
<path d="M158.657 53.2728C157.931 54.7273 154.591 55.6364 150.525 55.6364C146.459 55.6364 142.829 54.5455 142.248 53.0909L148.056 37.4546L158.657 53.2728Z" fill="url(#paint5_linear)"/>
<path opacity="0.5" d="M139.491 30.3633L147.768 36.9087L132.811 30.3633H139.491Z" fill="url(#paint6_linear)"/>
<path d="M147.91 37.2732L141.957 53.0913L119.74 39.6368L132.518 30.5459L147.91 37.2732Z" fill="url(#paint7_linear)"/>
<path d="M119.74 40L141.957 53.4546C140.94 54.7273 136.584 55.6364 131.792 55.6364C126.564 55.6364 122.208 54.5455 121.482 53.2727C121.482 53.2727 121.482 53.2727 121.482 53.0909L119.74 40Z" fill="url(#paint8_linear)"/>
<path d="M121.193 53.0906C120.466 54.5451 116.11 55.636 110.883 55.636C105.945 55.636 101.589 54.5451 100.718 53.2724L119.595 39.8179L121.193 53.0906Z" fill="url(#paint9_linear)"/>
<path d="M132.229 30.3633L119.596 39.4542L100.863 30.3633H132.229Z" fill="url(#paint10_linear)"/>
<path d="M119.305 39.6361L100.427 53.0907L81.6951 39.818L100.573 30.7271L119.305 39.6361Z" fill="url(#paint11_linear)"/>
<path d="M79.5174 53.0909C78.7914 54.5454 74.435 55.6364 69.2074 55.6364C64.125 55.6364 59.7687 54.5455 58.8975 53.2727L81.26 40L79.5174 53.0909Z" fill="url(#paint12_linear)"/>
<path d="M79.6621 53.0906L81.4047 39.8179L100.282 53.0906C99.4108 54.3633 95.0545 55.4542 89.9721 55.4542C84.7445 55.636 80.3882 54.5451 79.6621 53.0906Z" fill="url(#paint13_linear)"/>
<path d="M100.138 30.3633L81.4054 39.4542L68.772 30.3633H100.138Z" fill="url(#paint14_linear)"/>
<path opacity="0.6" d="M61.657 30.3633H68.0463L53.5251 36.7269L61.657 30.3633Z" fill="url(#paint15_linear)"/>
<path d="M68.4807 30.5459L81.1141 39.6368L58.7516 52.9095L52.9431 37.2732L68.4807 30.5459Z" fill="url(#paint16_linear)"/>
<path d="M58.6073 53.0909C58.0265 54.5455 54.5414 55.6364 50.3303 55.6364C46.2644 55.6364 42.7793 54.5455 42.1985 53.2728L52.7989 37.4546L58.6073 53.0909Z" fill="url(#paint17_linear)"/>
<path d="M52.5064 37.4546L42.0512 53.0909C41.6156 54.5455 38.5661 55.6364 35.0811 55.6364C33.3385 55.6364 31.7412 55.4546 30.4343 54.9091L52.5064 37.4546Z" fill="url(#paint18_linear)"/>
<path opacity="0.6" d="M30.1443 60.3635C31.4512 59.818 33.1937 59.6362 34.9363 59.6362C38.4213 59.6362 41.4708 60.7271 41.9064 62.1817L84.4532 126.545L30.1443 60.3635Z" fill="url(#paint19_linear)"/>
<path d="M42.1985 62.0004C42.9245 60.7276 46.2644 59.6367 50.3303 59.6367C54.3962 59.6367 58.0265 60.7276 58.6073 62.1822L85.3262 127.273L42.1985 62.0004Z" fill="#23AE88"/>
<path d="M79.5171 62.1822C78.7911 60.7276 74.2896 59.6367 69.062 59.6367C63.9796 59.6367 59.6232 60.7276 58.752 62.0004L91.134 109.273L79.5171 62.1822Z" fill="url(#paint20_linear)"/>
<path d="M79.8066 62.0004C80.6779 60.7276 85.0342 59.6367 89.9714 59.6367C95.0538 59.6367 99.5554 60.7276 100.281 62.1822L91.4235 109.273L79.8066 62.0004Z" fill="url(#paint21_linear)"/>
<path d="M86.0494 128.364L59.1853 63.0908L91.277 109.818H91.4222L100.28 145.636L86.0494 128.364Z" fill="url(#paint22_linear)"/>
<path d="M100.427 145.273L91.5696 109.637L100.427 62.7275L109.285 109.818L100.427 145.273Z" fill="url(#paint23_linear)"/>
<path opacity="0.4" d="M141.958 62.0004C141.232 60.5458 136.731 59.6367 131.648 59.6367C126.566 59.6367 122.064 60.7276 121.338 62.0004L109.721 109.091L141.958 62.0004Z" fill="url(#paint24_linear)"/>
<path d="M109.43 109.273L100.572 62.1822C101.298 60.7276 105.8 59.6367 110.882 59.6367C116.11 59.6367 120.466 60.7276 121.192 62.1822L109.43 109.273Z" fill="url(#paint25_linear)"/>
<path d="M114.948 128.364L100.718 145.636L109.576 109.818L141.667 63.0908L114.948 128.364Z" fill="url(#paint26_linear)"/>
<path d="M142.248 62.0004C142.828 60.5458 146.459 59.6367 150.379 59.6367C154.445 59.6367 157.93 60.7276 158.511 62.0004L115.384 127.273L142.248 62.0004Z" fill="#1C9B75"/>
<path d="M116.402 126.546L158.949 62.1822C159.385 60.7276 162.434 59.6367 165.919 59.6367C167.807 59.6367 169.404 60.0004 170.856 60.5458L116.402 126.546Z" fill="url(#paint27_linear)"/>
<path d="M170.854 60.182C169.547 59.6366 167.804 59.273 165.917 59.273C162.432 59.273 159.527 60.3639 158.801 61.6366C157.93 60.1821 154.59 59.273 150.524 59.273C146.313 59.273 142.973 60.3639 142.247 61.8184C141.231 60.3639 137.02 59.273 131.792 59.273C126.564 59.273 122.353 60.3639 121.337 61.8184C120.32 60.3639 116.109 59.273 110.882 59.273C105.654 59.273 101.443 60.3639 100.426 61.8184C99.5552 60.3639 95.1989 59.273 89.9713 59.273C84.7437 59.273 80.5325 60.3639 79.5161 61.8184C78.4996 60.3639 74.2885 59.273 69.0609 59.273C63.8333 59.273 59.6221 60.3639 58.6057 61.8184C57.8796 60.3639 54.3945 59.273 50.3286 59.273C46.2627 59.273 42.9229 60.3639 42.0516 61.6366C41.3256 60.1821 38.4213 59.273 34.9363 59.273C33.1937 59.273 31.4512 59.6366 30.1443 60.0002V55.0911C31.4512 55.6366 33.1937 55.8184 34.9363 55.8184C38.4213 55.8184 41.3256 54.7275 42.0516 53.4548C42.9229 54.9093 46.2627 55.8184 50.3286 55.8184C54.5397 55.8184 57.8796 54.7275 58.6057 53.2729C59.6221 54.7275 63.8333 55.8184 69.0609 55.8184C74.2885 55.8184 78.4996 54.7275 79.5161 53.2729C80.5325 54.7275 84.7437 55.8184 89.9713 55.8184C95.1989 55.8184 99.41 54.7275 100.426 53.2729C101.298 54.7275 105.654 55.8184 110.882 55.8184C116.109 55.8184 120.32 54.7275 121.337 53.2729C122.353 54.7275 126.564 55.8184 131.792 55.8184C137.02 55.8184 141.231 54.7275 142.247 53.2729C142.973 54.7275 146.458 55.8184 150.524 55.8184C154.59 55.8184 157.93 54.7275 158.801 53.4548C159.527 54.9093 162.432 55.8184 165.917 55.8184C167.804 55.8184 169.547 55.4548 170.854 54.9093V60.182Z" fill="url(#paint28_radial)"/>
</g>
<defs>
<filter id="filter0_dd" x="0" y="0" width="201" height="181.314" filterUnits="userSpaceOnUse" color-interpolation-filters="sRGB">
<feFlood flood-opacity="0" result="BackgroundImageFix"/>
<feColorMatrix in="SourceAlpha" type="matrix" values="0 0 0 0 0 0 0 0 0 0 0 0 0 0 0 0 0 0 127 0" result="hardAlpha"/>
<feOffset/>
<feGaussianBlur stdDeviation="15"/>
<feColorMatrix type="matrix" values="0 0 0 0 1 0 0 0 0 1 0 0 0 0 1 0 0 0 0.2 0"/>
<feBlend mode="normal" in2="BackgroundImageFix" result="effect1_dropShadow"/>
<feColorMatrix in="SourceAlpha" type="matrix" values="0 0 0 0 0 0 0 0 0 0 0 0 0 0 0 0 0 0 127 0" result="hardAlpha"/>
<feOffset dy="5.31447"/>
<feGaussianBlur stdDeviation="15"/>
<feColorMatrix type="matrix" values="0 0 0 0 1 0 0 0 0 1 0 0 0 0 1 0 0 0 0.2 0"/>
<feBlend mode="normal" in2="effect1_dropShadow" result="effect2_dropShadow"/>
<feBlend mode="normal" in="SourceGraphic" in2="effect2_dropShadow" result="shape"/>
</filter>
<linearGradient id="paint0_linear" x1="14.9965" y1="170.457" x2="187.001" y2="170.457" gradientUnits="userSpaceOnUse">
<stop stop-color="#1F1E2D"/>
<stop offset="0.494792" stop-color="#1E1B30"/>
<stop offset="1" stop-color="#1F1E2D"/>
</linearGradient>
<linearGradient id="paint1_linear" x1="101.013" y1="138.004" x2="101.013" y2="163.025" gradientUnits="userSpaceOnUse">
<stop stop-color="#1F1E2D"/>
<stop offset="1" stop-color="#2C2A45"/>
</linearGradient>
<radialGradient id="paint2_radial" cx="0" cy="0" r="1" gradientUnits="userSpaceOnUse" gradientTransform="translate(101.5 151.5) rotate(90) scale(5.5 47.5)">
<stop stop-color="#010105"/>
<stop offset="1" stop-color="#1D1C25" stop-opacity="0"/>
</radialGradient>
<linearGradient id="paint3_linear" x1="100.485" y1="27.2698" x2="100.485" y2="148.67" gradientUnits="userSpaceOnUse">
<stop stop-color="#28BA93"/>
<stop offset="1" stop-color="#006147"/>
</linearGradient>
<linearGradient id="paint4_linear" x1="148.311" y1="46.4676" x2="170.647" y2="46.4676" gradientUnits="userSpaceOnUse">
<stop stop-color="#B5F8D1"/>
<stop offset="1" stop-color="#48EFB3"/>
</linearGradient>
<linearGradient id="paint5_linear" x1="142.209" y1="46.5288" x2="158.655" y2="46.5288" gradientUnits="userSpaceOnUse">
<stop stop-color="#28BA93"/>
<stop offset="1" stop-color="#006147"/>
</linearGradient>
<linearGradient id="paint6_linear" x1="143.208" y1="17.3773" x2="135.821" y2="43.6322" gradientUnits="userSpaceOnUse">
<stop stop-color="#FEFFFE"/>
<stop offset="1" stop-color="#78FFDE"/>
</linearGradient>
<linearGradient id="paint7_linear" x1="133.828" y1="28.0279" x2="133.828" y2="56.0913" gradientUnits="userSpaceOnUse">
<stop stop-color="#FEFFFE"/>
<stop offset="1" stop-color="#78FFDE"/>
</linearGradient>
<linearGradient id="paint8_linear" x1="114.988" y1="38.4524" x2="178.24" y2="74.4421" gradientUnits="userSpaceOnUse">
<stop stop-color="#28BA93"/>
<stop offset="1" stop-color="#006147"/>
</linearGradient>
<linearGradient id="paint9_linear" x1="94.2461" y1="104.645" x2="127.173" y2="39.8489" gradientUnits="userSpaceOnUse">
<stop stop-color="#28BA93"/>
<stop offset="1" stop-color="#006147"/>
</linearGradient>
<linearGradient id="paint10_linear" x1="116.312" y1="29.6638" x2="131.126" y2="63.1611" gradientUnits="userSpaceOnUse">
<stop stop-color="#28BA93"/>
<stop offset="1" stop-color="#006147"/>
</linearGradient>
<linearGradient id="paint11_linear" x1="100.455" y1="28.0269" x2="100.455" y2="56.0907" gradientUnits="userSpaceOnUse">
<stop stop-color="#FEFFFE"/>
<stop offset="1" stop-color="#78FFDE"/>
</linearGradient>
<linearGradient id="paint12_linear" x1="53.9386" y1="60.7235" x2="82.3673" y2="51.1098" gradientUnits="userSpaceOnUse">
<stop stop-color="#28BA93"/>
<stop offset="1" stop-color="#006147"/>
</linearGradient>
<linearGradient id="paint13_linear" x1="92.6469" y1="55.4219" x2="120.589" y2="69.5448" gradientUnits="userSpaceOnUse">
<stop stop-color="#28BA93"/>
<stop offset="1" stop-color="#006147"/>
</linearGradient>
<linearGradient id="paint14_linear" x1="84.4021" y1="30.3515" x2="84.4021" y2="39.4691" gradientUnits="userSpaceOnUse">
<stop stop-color="#9BFFD7"/>
<stop offset="1" stop-color="#51BF9A"/>
</linearGradient>
<linearGradient id="paint15_linear" x1="46.9198" y1="15.846" x2="57.4977" y2="24.472" gradientUnits="userSpaceOnUse">
<stop stop-color="#28BA93"/>
<stop offset="1" stop-color="#006147"/>
</linearGradient>
<linearGradient id="paint16_linear" x1="67.0759" y1="28.0279" x2="67.0759" y2="56.0914" gradientUnits="userSpaceOnUse">
<stop stop-color="#FEFFFE"/>
<stop offset="1" stop-color="#78FFDE"/>
</linearGradient>
<linearGradient id="paint17_linear" x1="46.5155" y1="44.6404" x2="80.2297" y2="61.9964" gradientUnits="userSpaceOnUse">
<stop stop-color="#30E0B0"/>
<stop offset="1" stop-color="#008762"/>
</linearGradient>
<linearGradient id="paint18_linear" x1="30.2807" y1="46.5748" x2="52.4509" y2="46.5748" gradientUnits="userSpaceOnUse">
<stop stop-color="#48EFB3"/>
<stop offset="1" stop-color="#B5F8D1"/>
</linearGradient>
<linearGradient id="paint19_linear" x1="22.7363" y1="118.461" x2="88.7946" y2="88.0172" gradientUnits="userSpaceOnUse">
<stop stop-color="#B5F8D1"/>
<stop offset="1" stop-color="#48EFB3"/>
</linearGradient>
<linearGradient id="paint20_linear" x1="68.9782" y1="61.4931" x2="94.4862" y2="107.435" gradientUnits="userSpaceOnUse">
<stop stop-color="#24D49F"/>
<stop offset="1" stop-color="#B5F8D1"/>
</linearGradient>
<linearGradient id="paint21_linear" x1="108.615" y1="80.8396" x2="80.9996" y2="84.053" gradientUnits="userSpaceOnUse">
<stop stop-color="#1B9C7A"/>
<stop offset="0.123" stop-color="#179372"/>
<stop offset="0.6954" stop-color="#066F53"/>
<stop offset="1" stop-color="#006147"/>
</linearGradient>
<linearGradient id="paint22_linear" x1="101.091" y1="140.977" x2="46.2892" y2="79.0517" gradientUnits="userSpaceOnUse">
<stop stop-color="#5CBBA0"/>
<stop offset="1" stop-color="#006147"/>
</linearGradient>
<linearGradient id="paint23_linear" x1="100.466" y1="143.634" x2="100.466" y2="70.2185" gradientUnits="userSpaceOnUse">
<stop stop-color="#D4FFD8"/>
<stop offset="1" stop-color="#37C69F"/>
</linearGradient>
<linearGradient id="paint24_linear" x1="111.566" y1="110.279" x2="137.181" y2="71.1863" gradientUnits="userSpaceOnUse">
<stop stop-color="#B5F8D1"/>
<stop offset="1" stop-color="#48EFB3"/>
</linearGradient>
<linearGradient id="paint25_linear" x1="100.399" y1="81.7629" x2="146.324" y2="88.5118" gradientUnits="userSpaceOnUse">
<stop stop-color="#28BA93"/>
<stop offset="1" stop-color="#006147"/>
</linearGradient>
<linearGradient id="paint26_linear" x1="60.9129" y1="195.691" x2="165.112" y2="96.4535" gradientUnits="userSpaceOnUse">
<stop stop-color="#1B9E7B"/>
<stop offset="1" stop-color="#006147"/>
</linearGradient>
<linearGradient id="paint27_linear" x1="92.1026" y1="47.1078" x2="149.063" y2="79.862" gradientUnits="userSpaceOnUse">
<stop stop-color="#28BA93"/>
<stop offset="1" stop-color="#006147"/>
</linearGradient>
<radialGradient id="paint28_radial" cx="0" cy="0" r="1" gradientUnits="userSpaceOnUse" gradientTransform="translate(75.0778 52.7242) scale(111.098 139.106)">
<stop stop-color="#FEFFFE"/>
<stop offset="0.4868" stop-color="#78FFDE"/>
<stop offset="0.5863" stop-color="#6CF0CF"/>
<stop offset="0.7786" stop-color="#4EC7A9"/>
<stop offset="1" stop-color="#259276"/>
</radialGradient>
</defs>
</svg>
