<svg width="172" height="193" viewBox="0 0 172 193" fill="none" xmlns="http://www.w3.org/2000/svg">
<path d="M172 148.006C172 148.031 171.986 148.068 171.986 148.093C171.986 148.106 171.986 148.131 171.972 148.143C171.959 148.181 171.959 148.218 171.945 148.256C171.945 148.268 171.945 148.268 171.945 148.281C171.931 148.331 171.917 148.368 171.889 148.418C171.889 148.431 171.876 148.443 171.876 148.456C171.862 148.493 171.848 148.518 171.82 148.556C171.806 148.568 171.807 148.593 171.793 148.606C171.779 148.631 171.765 148.668 171.737 148.693C171.724 148.706 171.71 148.731 171.71 148.743C171.696 148.768 171.668 148.806 171.654 148.831C171.641 148.843 171.627 148.868 171.613 148.881C171.585 148.906 171.572 148.943 171.544 148.968C171.53 148.981 171.516 149.006 171.502 149.018C171.475 149.043 171.447 149.081 171.419 149.106C171.406 149.118 171.392 149.131 171.378 149.144C171.35 149.181 171.309 149.206 171.267 149.244C171.254 149.256 171.254 149.269 171.24 149.269C171.198 149.319 171.143 149.356 171.088 149.406C171.032 149.456 170.977 149.494 170.922 149.544C170.908 149.544 170.908 149.556 170.894 149.556C170.839 149.594 170.798 149.631 170.742 149.669C170.728 149.681 170.715 149.694 170.701 149.706C170.659 149.744 170.604 149.769 170.563 149.806C170.549 149.819 170.521 149.831 170.507 149.844C170.466 149.869 170.41 149.906 170.369 149.931C170.341 149.944 170.328 149.956 170.3 149.969C170.245 149.994 170.203 150.031 170.148 150.056C170.12 150.069 170.106 150.081 170.079 150.094C170.023 150.119 169.968 150.156 169.913 150.181C169.885 150.194 169.871 150.206 169.844 150.219C169.788 150.256 169.719 150.281 169.664 150.319C169.636 150.332 169.623 150.344 169.595 150.357C169.512 150.394 169.443 150.432 169.36 150.469C169.346 150.469 169.346 150.482 169.332 150.482C169.236 150.532 169.139 150.569 169.042 150.619C168.945 150.657 168.849 150.707 168.752 150.744C168.724 150.757 168.697 150.769 168.683 150.769C168.6 150.807 168.531 150.832 168.448 150.869C168.42 150.882 168.379 150.894 168.351 150.907C168.282 150.932 168.213 150.969 168.13 150.994C168.088 151.007 168.047 151.019 168.019 151.044C167.95 151.069 167.867 151.107 167.798 151.132C167.757 151.144 167.715 151.157 167.674 151.182C167.591 151.207 167.508 151.244 167.439 151.269C167.397 151.282 167.37 151.294 167.328 151.307C167.218 151.344 167.093 151.394 166.983 151.432C166.983 151.432 166.969 151.432 166.969 151.445C166.844 151.482 166.72 151.532 166.582 151.57C166.54 151.582 166.499 151.595 166.457 151.607C166.361 151.632 166.278 151.67 166.181 151.695C166.126 151.707 166.084 151.732 166.029 151.745C165.946 151.77 165.863 151.795 165.766 151.82C165.711 151.832 165.656 151.857 165.6 151.87C165.504 151.895 165.407 151.932 165.296 151.957C165.241 151.97 165.2 151.982 165.144 151.995C165.006 152.032 164.882 152.07 164.743 152.107C164.73 152.107 164.702 152.12 164.688 152.12C164.536 152.157 164.37 152.207 164.218 152.245C164.177 152.257 164.135 152.27 164.094 152.282C163.969 152.32 163.845 152.345 163.721 152.382C163.665 152.395 163.624 152.407 163.569 152.42C163.43 152.457 163.292 152.495 163.154 152.52C163.113 152.532 163.071 152.545 163.016 152.557C162.836 152.608 162.643 152.645 162.463 152.695C162.269 152.745 162.076 152.783 161.882 152.833C161.841 152.845 161.799 152.845 161.758 152.858C161.592 152.895 161.44 152.933 161.274 152.97C161.233 152.983 161.191 152.983 161.15 152.995C160.929 153.045 160.707 153.095 160.486 153.133C160.265 153.183 160.03 153.233 159.809 153.27C159.768 153.283 159.726 153.283 159.698 153.295C159.477 153.345 159.27 153.383 159.049 153.433C159.035 153.433 159.021 153.433 159.007 153.445C158.759 153.495 158.524 153.545 158.275 153.583C158.247 153.583 158.22 153.595 158.206 153.595C157.943 153.645 157.68 153.695 157.418 153.745C157.404 153.745 157.376 153.758 157.363 153.758C157.086 153.808 156.81 153.858 156.519 153.908C156.478 153.908 156.45 153.921 156.409 153.921C156.132 153.971 155.842 154.021 155.552 154.071C155.552 154.071 155.552 154.071 155.538 154.071C155.248 154.121 154.958 154.171 154.653 154.221C154.612 154.233 154.571 154.233 154.515 154.246C154.184 154.296 153.852 154.346 153.52 154.408C153.492 154.408 153.465 154.421 153.437 154.421C153.092 154.471 152.746 154.521 152.401 154.583C152.387 154.583 152.387 154.583 152.373 154.583C152.027 154.633 151.682 154.683 151.322 154.733C151.267 154.746 151.212 154.746 151.17 154.758C150.825 154.808 150.493 154.858 150.134 154.908C150.037 154.921 149.926 154.934 149.83 154.946C149.733 154.959 149.622 154.971 149.526 154.984C149.401 154.996 149.277 155.021 149.152 155.034C149.056 155.046 148.959 155.059 148.848 155.071C148.724 155.084 148.586 155.109 148.461 155.121C148.365 155.134 148.268 155.146 148.171 155.159C148.019 155.184 147.867 155.196 147.715 155.221C147.632 155.234 147.549 155.246 147.466 155.246C147.273 155.271 147.065 155.296 146.858 155.321C146.816 155.321 146.789 155.334 146.747 155.334C146.512 155.359 146.277 155.396 146.056 155.421C145.628 155.471 145.199 155.521 144.771 155.571C144.729 155.571 144.674 155.584 144.633 155.584C144.218 155.634 143.817 155.671 143.402 155.721C143.347 155.734 143.292 155.734 143.237 155.746C142.822 155.796 142.393 155.834 141.965 155.884C141.923 155.884 141.882 155.896 141.841 155.896C141.398 155.946 140.942 155.996 140.486 156.034C140.002 156.084 139.518 156.134 139.021 156.184C138.592 156.222 138.164 156.272 137.735 156.309C137.694 156.309 137.653 156.322 137.611 156.322C137.183 156.359 136.74 156.397 136.298 156.434C135.856 156.472 135.4 156.509 134.957 156.547C134.93 156.547 134.902 156.547 134.874 156.559C134.432 156.597 133.976 156.634 133.52 156.672C133.492 156.672 133.451 156.672 133.423 156.684C132.981 156.722 132.552 156.759 132.11 156.784C131.668 156.822 131.225 156.847 130.783 156.884C130.728 156.884 130.672 156.897 130.631 156.897C130.189 156.934 129.746 156.959 129.304 156.997C128.862 157.034 128.419 157.059 127.977 157.084C127.908 157.084 127.853 157.097 127.784 157.097C127.258 157.134 126.733 157.172 126.208 157.197C126.139 157.197 126.084 157.209 126.014 157.209C125.489 157.247 124.95 157.272 124.411 157.31C124.356 157.31 124.287 157.322 124.231 157.322C123.679 157.36 123.14 157.385 122.587 157.422C122.545 157.422 122.518 157.422 122.476 157.422C121.909 157.46 121.356 157.485 120.79 157.522C120.762 157.522 120.748 157.522 120.721 157.522C120.665 157.522 120.61 157.522 120.541 157.535C119.988 157.56 119.435 157.597 118.882 157.622C118.689 157.635 118.482 157.647 118.288 157.647C117.86 157.672 117.445 157.685 117.016 157.71C116.795 157.722 116.574 157.735 116.367 157.735C115.924 157.76 115.482 157.772 115.026 157.797C114.846 157.81 114.653 157.81 114.473 157.822C113.865 157.847 113.257 157.872 112.635 157.897C112.441 157.91 112.234 157.91 112.04 157.922C111.598 157.935 111.17 157.96 110.727 157.972C110.465 157.985 110.202 157.997 109.953 157.997C109.566 158.01 109.179 158.022 108.792 158.035C108.516 158.047 108.253 158.047 107.977 158.06C107.452 158.072 106.926 158.097 106.401 158.11C106.332 158.11 106.249 158.11 106.18 158.122C106.042 158.122 105.917 158.135 105.779 158.135C105.295 158.147 104.798 158.16 104.314 158.172C104.065 158.185 103.816 158.185 103.581 158.197C103.139 158.21 102.711 158.222 102.268 158.235C102.061 158.235 101.84 158.247 101.633 158.247C100.983 158.26 100.333 158.272 99.6837 158.285H99.6699C99.5869 158.285 99.4902 158.285 99.4073 158.285C98.7853 158.297 98.1495 158.31 97.5275 158.322C97.4169 158.322 97.2925 158.322 97.1819 158.322C96.5599 158.335 95.9241 158.347 95.3022 158.347C95.2054 158.347 95.1087 158.347 95.0257 158.347C94.3346 158.36 93.6573 158.36 92.9524 158.372C92.8833 158.372 92.8142 158.372 92.7451 158.372C92.0402 158.385 91.3214 158.385 90.6027 158.385H90.5889C90.5751 158.385 90.5612 158.385 90.5336 158.385C89.8148 158.385 89.0823 158.398 88.3497 158.398C88.3083 158.398 88.2668 158.398 88.2253 158.398C87.479 158.398 86.7187 158.398 85.9724 158.398C85.2122 158.398 84.452 158.398 83.6917 158.398C83.6641 158.398 83.6365 158.398 83.6088 158.398C82.8901 158.398 82.1852 158.398 81.4664 158.385C81.4111 158.385 81.3558 158.385 81.3005 158.385C80.5956 158.385 79.8907 158.372 79.1858 158.372C79.1029 158.372 79.0338 158.372 78.9508 158.372C78.2874 158.36 77.6377 158.36 76.9743 158.347C76.8914 158.347 76.8084 158.347 76.7393 158.347C76.0482 158.335 75.3709 158.322 74.6937 158.322C74.5969 158.322 74.5002 158.322 74.4034 158.322C73.7814 158.31 73.1733 158.297 72.5651 158.285C72.4269 158.285 72.2887 158.285 72.1643 158.272C71.5699 158.26 70.9894 158.247 70.3951 158.235C70.2568 158.235 70.1324 158.235 69.9942 158.222C69.3999 158.21 68.8055 158.197 68.225 158.185C68.1006 158.185 67.9762 158.172 67.8518 158.172C67.2437 158.16 66.6355 158.135 66.0273 158.122C65.9167 158.122 65.82 158.122 65.7094 158.11C65.1013 158.097 64.4793 158.072 63.8711 158.047C63.7743 158.047 63.6776 158.047 63.5808 158.035C63.567 158.035 63.5532 158.035 63.5532 158.035C62.945 158.01 62.3369 157.997 61.7287 157.972C61.632 157.972 61.5352 157.96 61.4523 157.96C60.8441 157.935 60.2359 157.91 59.6278 157.885C59.531 157.885 59.4343 157.872 59.3375 157.872C58.7293 157.847 58.135 157.822 57.5407 157.797C57.4439 157.797 57.3472 157.785 57.2366 157.785C56.6422 157.76 56.0617 157.735 55.4812 157.71C55.3706 157.71 55.26 157.697 55.1633 157.697C54.5828 157.672 54.0023 157.647 53.4217 157.61C53.325 157.61 53.2144 157.597 53.1176 157.597C52.5371 157.572 51.9566 157.535 51.3761 157.51C51.1688 157.497 50.9752 157.485 50.7679 157.472C50.6435 157.46 50.5191 157.46 50.3947 157.447C50.1183 157.435 49.8419 157.422 49.5654 157.397C49.4963 157.397 49.4272 157.385 49.3581 157.385C48.9987 157.36 48.6532 157.347 48.3076 157.322C48.28 157.322 48.2385 157.322 48.2109 157.322C47.893 157.297 47.5889 157.285 47.271 157.26C47.188 157.26 47.1051 157.247 47.0084 157.247C46.7457 157.235 46.4831 157.209 46.2205 157.197C46.1238 157.184 46.0132 157.184 45.9164 157.172C45.6676 157.159 45.4188 157.134 45.17 157.122C45.0733 157.109 44.9765 157.109 44.866 157.097C44.6033 157.084 44.3545 157.059 44.0919 157.047C44.009 157.047 43.9261 157.034 43.8431 157.034C43.5529 157.009 43.2626 156.997 42.9724 156.972C42.9309 156.972 42.8756 156.959 42.8341 156.959C42.4748 156.934 42.1016 156.909 41.7422 156.884C41.3828 156.859 41.0235 156.834 40.6779 156.809C40.6364 156.809 40.595 156.809 40.5535 156.797C40.2356 156.772 39.9315 156.747 39.6275 156.722C39.5722 156.722 39.5169 156.709 39.4616 156.709C39.1575 156.684 38.8534 156.659 38.5493 156.634C38.5079 156.634 38.4664 156.622 38.4249 156.622C38.0656 156.597 37.7062 156.559 37.3468 156.534C36.9875 156.509 36.6143 156.472 36.2549 156.447C36.2273 156.447 36.2134 156.447 36.1858 156.447C35.8679 156.422 35.5362 156.384 35.2183 156.359C35.163 156.359 35.1215 156.347 35.0662 156.347C34.7483 156.322 34.4166 156.284 34.0987 156.259C34.0849 156.259 34.071 156.259 34.0434 156.259C33.6702 156.222 33.297 156.184 32.9238 156.159C32.5783 156.122 32.2327 156.097 31.8872 156.059C31.8319 156.059 31.7766 156.046 31.7213 156.046C31.3896 156.009 31.0717 155.984 30.74 155.946C30.7261 155.946 30.7123 155.946 30.6985 155.946C30.3529 155.909 30.0074 155.871 29.6618 155.834C29.6204 155.834 29.5789 155.821 29.5374 155.821C29.2057 155.784 28.8878 155.746 28.5699 155.721C28.5146 155.709 28.4455 155.709 28.3902 155.696C28.0447 155.659 27.6853 155.621 27.3536 155.584C27.3121 155.584 27.2568 155.571 27.2154 155.571C26.9113 155.534 26.621 155.496 26.3169 155.471C26.2478 155.459 26.1787 155.459 26.0958 155.446C25.7641 155.409 25.4323 155.371 25.1144 155.321C25.073 155.321 25.0315 155.309 24.99 155.309C24.6168 155.259 24.2575 155.221 23.8981 155.171C23.8566 155.171 23.8152 155.159 23.7875 155.159C23.4143 155.109 23.055 155.059 22.6956 155.021C22.6403 155.009 22.5712 155.009 22.5159 154.996C22.1565 154.946 21.811 154.896 21.4654 154.846C21.4102 154.833 21.3549 154.833 21.2996 154.821C20.9402 154.771 20.5947 154.721 20.2353 154.671C20.1938 154.658 20.1385 154.658 20.0971 154.646C19.9036 154.621 19.7239 154.596 19.5304 154.558C19.4613 154.546 19.406 154.533 19.3369 154.533C19.171 154.508 18.9913 154.483 18.8255 154.458C18.7564 154.446 18.6872 154.433 18.6181 154.421C18.4523 154.396 18.2864 154.371 18.1344 154.346C18.0653 154.333 17.9961 154.321 17.927 154.308C17.7612 154.283 17.5953 154.258 17.4294 154.233C17.3742 154.221 17.305 154.208 17.2498 154.208C17.0701 154.183 16.8904 154.146 16.7107 154.121C16.6692 154.108 16.6278 154.108 16.5863 154.096C16.3652 154.058 16.1578 154.021 15.9367 153.983C15.4944 153.908 15.0659 153.833 14.6374 153.758C14.6236 153.758 14.6098 153.758 14.5959 153.745C14.3195 153.695 14.0569 153.645 13.7943 153.595C13.7666 153.595 13.739 153.583 13.7252 153.583C13.4626 153.533 13.1861 153.483 12.9235 153.433C12.8959 153.433 12.8682 153.42 12.8406 153.42C12.5918 153.37 12.343 153.32 12.0942 153.27C12.0804 153.27 12.0665 153.27 12.0527 153.258C11.8039 153.208 11.5551 153.158 11.3063 153.095C11.2649 153.083 11.2372 153.083 11.1958 153.07C10.712 152.97 10.242 152.858 9.78592 152.758C9.74445 152.745 9.70299 152.733 9.66152 152.733C9.44037 152.683 9.21922 152.633 8.99807 152.57C8.98425 152.57 8.98425 152.57 8.97043 152.57C8.7631 152.52 8.55577 152.47 8.36226 152.42C8.3208 152.407 8.27933 152.395 8.23787 152.395C8.03054 152.345 7.83703 152.295 7.64352 152.245C7.61588 152.232 7.58824 152.232 7.56059 152.22C7.39473 152.17 7.21504 152.132 7.04918 152.082C7.00771 152.07 6.96625 152.057 6.93861 152.045C6.75892 151.995 6.57923 151.945 6.39955 151.895C6.35808 151.882 6.33044 151.87 6.3028 151.87C6.15076 151.82 5.99871 151.782 5.84667 151.732C5.81903 151.72 5.79139 151.72 5.76374 151.707C5.59788 151.657 5.43202 151.607 5.27998 151.545C5.23851 151.532 5.21086 151.52 5.18322 151.507C5.03118 151.457 4.87914 151.407 4.7271 151.344H4.71328C4.56124 151.294 4.40919 151.232 4.25715 151.182C4.22951 151.169 4.20187 151.157 4.17422 151.144C4.02218 151.094 3.88396 151.032 3.74574 150.982C3.73192 150.982 3.7181 150.969 3.70427 150.969C3.57988 150.919 3.45548 150.869 3.33108 150.807C3.30344 150.794 3.28962 150.782 3.26197 150.782C3.13758 150.732 3.01318 150.669 2.88878 150.619C2.87496 150.607 2.86114 150.607 2.83349 150.594C2.72292 150.544 2.61234 150.494 2.50177 150.432C2.48795 150.419 2.47412 150.419 2.4603 150.407C2.34973 150.344 2.23915 150.294 2.12858 150.231C2.11475 150.219 2.08711 150.206 2.07329 150.206C1.96271 150.144 1.86596 150.094 1.7692 150.031C1.67245 149.969 1.5757 149.919 1.49277 149.856C1.47894 149.844 1.46512 149.831 1.4513 149.831C1.36837 149.769 1.27162 149.719 1.18869 149.656C1.10575 149.594 1.03664 149.544 0.967535 149.481C0.953713 149.469 0.939892 149.456 0.92607 149.456C0.856961 149.394 0.787848 149.344 0.73256 149.281C0.718738 149.269 0.718741 149.269 0.704919 149.256C0.649631 149.206 0.594343 149.156 0.552877 149.093C0.539055 149.081 0.539053 149.068 0.525231 149.068C0.469944 149.006 0.428478 148.956 0.387012 148.893C0.37319 148.881 0.373193 148.868 0.359371 148.868C0.317905 148.818 0.290259 148.768 0.248793 148.718C0.248793 148.706 0.234974 148.706 0.234974 148.693C0.193509 148.631 0.165863 148.581 0.138219 148.518C0.138219 148.506 0.124396 148.493 0.124396 148.481C0.0967526 148.431 0.0829307 148.381 0.0552868 148.318V148.306C0.0414649 148.243 0.0276447 148.193 0.0138228 148.131C0.0138228 148.118 0.0138228 148.106 0.0138228 148.093C8.43778e-07 148.031 0 147.98 0 147.918L0.635809 179.056C0.635809 179.131 0.649632 179.206 0.649632 179.282C0.649632 179.294 0.649629 179.319 0.663451 179.332C0.677272 179.407 0.691097 179.482 0.704919 179.557C0.704919 179.569 0.704919 179.569 0.704919 179.582C0.718741 179.657 0.746385 179.719 0.774028 179.794C0.774028 179.807 0.787851 179.832 0.787851 179.844C0.815495 179.919 0.843136 179.994 0.884602 180.069C0.884602 180.082 0.898425 180.094 0.898425 180.107C0.926069 180.169 0.967533 180.244 1.009 180.307C1.02282 180.319 1.02282 180.332 1.03664 180.344C1.07811 180.42 1.1334 180.495 1.18869 180.57C1.20251 180.582 1.20251 180.595 1.21633 180.607C1.27162 180.682 1.31308 180.745 1.36837 180.82C1.38219 180.832 1.38219 180.832 1.39602 180.845C1.4513 180.92 1.52041 180.995 1.58952 181.07L1.60334 181.082C1.61717 181.095 1.61716 181.095 1.63099 181.107C1.70009 181.182 1.78303 181.257 1.85214 181.332C1.93507 181.407 2.018 181.482 2.10093 181.57C2.11476 181.583 2.12858 181.595 2.1424 181.608C2.23915 181.683 2.32208 181.758 2.41884 181.845C2.51559 181.92 2.61234 181.995 2.72292 182.07C2.73674 182.083 2.75056 182.095 2.77821 182.108C2.88878 182.183 2.99936 182.258 3.10993 182.333C3.12375 182.345 3.13757 182.345 3.1514 182.358C3.26197 182.433 3.37255 182.495 3.48313 182.57C3.49695 182.583 3.51077 182.595 3.53841 182.608C3.66281 182.683 3.7872 182.758 3.9116 182.833C3.93925 182.846 3.95307 182.858 3.98071 182.871C4.10511 182.946 4.22951 183.008 4.35391 183.083C4.36773 183.083 4.36773 183.096 4.38155 183.096C4.38155 183.096 4.38155 183.096 4.39537 183.096C4.53359 183.171 4.67181 183.246 4.82385 183.321C4.85149 183.333 4.87914 183.346 4.90678 183.371C5.05882 183.446 5.19704 183.521 5.3629 183.596C5.3629 183.596 5.37673 183.596 5.37673 183.608C5.52877 183.683 5.68081 183.746 5.83285 183.821C5.87432 183.833 5.90196 183.846 5.94343 183.871C6.09547 183.946 6.26133 184.009 6.42719 184.084C6.45484 184.096 6.48248 184.109 6.51013 184.121C6.59306 184.159 6.66216 184.184 6.7451 184.221C6.81421 184.246 6.89714 184.284 6.96625 184.309C7.00771 184.321 7.03536 184.334 7.07683 184.346C7.25651 184.421 7.42237 184.484 7.60206 184.559C7.64352 184.571 7.68499 184.584 7.71263 184.609C7.87849 184.671 8.04436 184.734 8.21022 184.796C8.23787 184.809 8.26551 184.821 8.29315 184.821C8.48666 184.896 8.68017 184.959 8.87368 185.034C8.8875 185.034 8.90132 185.047 8.92896 185.047C8.95661 185.059 8.97043 185.059 8.99807 185.072C9.19158 185.134 9.39891 185.209 9.60624 185.272C9.62006 185.272 9.62006 185.272 9.63388 185.284C9.85503 185.359 10.0624 185.422 10.2835 185.497C10.325 185.509 10.3664 185.522 10.4079 185.534C10.864 185.672 11.3202 185.809 11.8039 185.947C11.8454 185.959 11.873 185.972 11.9145 185.972C12.1633 186.047 12.3983 186.109 12.6471 186.184C12.6609 186.184 12.6747 186.197 12.6885 186.197C12.9373 186.26 13.1861 186.335 13.4349 186.397C13.4626 186.41 13.4902 186.41 13.5178 186.422C13.7805 186.485 14.0431 186.56 14.3057 186.622C14.3333 186.635 14.361 186.635 14.3748 186.647C14.6374 186.71 14.9 186.785 15.1627 186.847C15.1765 186.847 15.1765 186.847 15.1903 186.86H15.2041C15.8261 187.01 16.4757 187.16 17.1392 187.31C17.1806 187.322 17.2221 187.322 17.2636 187.335C17.4433 187.373 17.6091 187.41 17.7888 187.448C17.8165 187.448 17.8303 187.46 17.8579 187.46C17.8994 187.473 17.9409 187.473 17.9685 187.485C18.1344 187.523 18.3002 187.56 18.4523 187.585C18.5214 187.598 18.5905 187.61 18.6596 187.623C18.8255 187.66 18.9775 187.685 19.1434 187.723C19.1848 187.735 19.2263 187.735 19.2678 187.748C19.2954 187.748 19.323 187.76 19.3507 187.76C19.5166 187.798 19.6824 187.823 19.8483 187.86C19.9174 187.873 19.9865 187.885 20.0418 187.898C20.2215 187.935 20.415 187.973 20.5947 188.01C20.6361 188.023 20.6776 188.023 20.7191 188.035H20.7329C21.0784 188.098 21.424 188.173 21.7833 188.235C21.811 188.235 21.8525 188.248 21.8801 188.248C21.9077 188.248 21.9354 188.26 21.9492 188.26C22.2948 188.323 22.6403 188.385 22.9859 188.448C23.0135 188.448 23.0411 188.46 23.0688 188.46C23.1103 188.46 23.1379 188.473 23.1794 188.473C23.5111 188.536 23.8566 188.598 24.2022 188.648C24.2298 188.648 24.2436 188.661 24.2713 188.661C24.2851 188.661 24.2989 188.661 24.2989 188.661C24.3266 188.661 24.3542 188.673 24.3819 188.673C24.7412 188.736 25.1006 188.798 25.46 188.861C25.4876 188.861 25.5153 188.873 25.5429 188.873C25.5567 188.873 25.5706 188.873 25.5844 188.886C25.9023 188.936 26.234 188.986 26.5519 189.048C26.5796 189.048 26.6072 189.061 26.6348 189.061C26.6763 189.073 26.7316 189.073 26.7731 189.086C27.0633 189.136 27.3536 189.173 27.6577 189.223C27.6991 189.223 27.7268 189.236 27.7682 189.236C27.7821 189.236 27.7959 189.236 27.8097 189.248C28.1553 189.298 28.5008 189.348 28.8464 189.398C28.874 189.398 28.8878 189.411 28.9155 189.411C28.9569 189.411 28.9984 189.423 29.026 189.423C29.3439 189.473 29.6618 189.511 29.9936 189.561C30.0212 189.561 30.0489 189.573 30.0765 189.573C30.0903 189.573 30.1041 189.573 30.118 189.573C30.4497 189.623 30.7952 189.674 31.1408 189.711H31.1546C31.1684 189.711 31.1823 189.711 31.1961 189.724C31.514 189.761 31.8319 189.811 32.1498 189.849C32.1774 189.849 32.2051 189.861 32.2465 189.861C32.2742 189.861 32.3018 189.874 32.3295 189.874C32.6612 189.924 33.0068 189.961 33.3385 190.011C33.3385 190.011 33.3385 190.011 33.3523 190.011C33.7117 190.061 34.0849 190.111 34.458 190.149H34.4719C34.4857 190.149 34.4995 190.149 34.5133 190.149C34.8312 190.186 35.1491 190.224 35.467 190.261C35.4947 190.261 35.5223 190.261 35.5362 190.274C35.5638 190.274 35.5914 190.274 35.6191 190.286C35.937 190.324 36.2549 190.361 36.5866 190.399C36.6004 190.399 36.6143 190.399 36.6281 190.399H36.6419C37.3468 190.486 38.0656 190.561 38.7843 190.636C38.7981 190.636 38.812 190.636 38.8258 190.636C38.8534 190.636 38.8811 190.636 38.9087 190.649C39.2128 190.686 39.5031 190.711 39.8071 190.749C39.8348 190.749 39.8624 190.761 39.9039 190.761C39.9315 190.761 39.9592 190.761 39.9868 190.774C40.2909 190.812 40.595 190.837 40.8991 190.874C40.9267 190.874 40.9544 190.874 40.982 190.887C40.9958 190.887 41.0096 190.887 41.0235 190.887C41.7284 190.962 42.4471 191.024 43.1659 191.099C43.1797 191.099 43.1797 191.099 43.1935 191.099C43.2212 191.099 43.2626 191.112 43.2903 191.112C43.5805 191.137 43.8708 191.162 44.161 191.199C44.1887 191.199 44.2163 191.199 44.244 191.212C44.2993 191.212 44.3545 191.224 44.4098 191.224C44.6586 191.249 44.9212 191.274 45.17 191.299C45.2253 191.299 45.2668 191.312 45.3221 191.312C45.3774 191.312 45.4188 191.324 45.4741 191.324C45.7229 191.349 45.9717 191.362 46.2205 191.387C46.2896 191.387 46.3449 191.399 46.414 191.399C46.4555 191.399 46.4831 191.412 46.5246 191.412C46.7872 191.437 47.036 191.449 47.2986 191.474C47.3677 191.474 47.4368 191.487 47.5059 191.487C47.5336 191.487 47.5474 191.487 47.5751 191.487C47.8653 191.512 48.1556 191.537 48.4458 191.562C48.4873 191.562 48.5426 191.574 48.5841 191.574H48.5979C48.9434 191.599 49.289 191.624 49.6345 191.662C49.6483 191.662 49.6483 191.662 49.6622 191.662C49.7313 191.662 49.8142 191.674 49.8833 191.674C50.1459 191.699 50.3947 191.712 50.6573 191.737C50.685 191.737 50.7126 191.737 50.7541 191.749C50.8509 191.762 50.9476 191.762 51.0582 191.774C51.224 191.787 51.3761 191.799 51.542 191.812C51.5696 191.812 51.6111 191.812 51.6387 191.824C51.7078 191.824 51.7769 191.837 51.8599 191.837C52.2192 191.862 52.5786 191.887 52.9518 191.912C53.09 191.924 53.242 191.937 53.3803 191.937C53.477 191.949 53.5876 191.949 53.6843 191.962C53.8087 191.975 53.9193 191.974 54.0437 191.987C54.4031 192.012 54.7763 192.037 55.1495 192.062C55.2324 192.062 55.3292 192.075 55.4121 192.075C55.5227 192.087 55.6332 192.087 55.73 192.1C55.9097 192.112 56.0755 192.125 56.2552 192.137C56.6146 192.162 56.9601 192.175 57.3195 192.2C57.3748 192.2 57.4163 192.2 57.4715 192.212C57.5683 192.212 57.6651 192.225 57.7756 192.225C57.983 192.237 58.1903 192.25 58.3976 192.262C58.757 192.287 59.1164 192.3 59.4757 192.325C59.5034 192.325 59.531 192.325 59.5448 192.325C59.6416 192.325 59.7384 192.337 59.8351 192.337C60.0701 192.35 60.3189 192.362 60.5538 192.375C60.8994 192.387 61.2588 192.412 61.6181 192.425C61.6319 192.425 61.632 192.425 61.6458 192.425C61.7425 192.425 61.8393 192.437 61.9222 192.437C62.171 192.45 62.4336 192.462 62.6824 192.475C63.028 192.487 63.3735 192.512 63.7329 192.525C63.8296 192.525 63.9402 192.537 64.0508 192.537C64.3134 192.55 64.576 192.562 64.8386 192.575C65.1704 192.587 65.5159 192.6 65.8615 192.612C65.972 192.612 66.0826 192.625 66.1932 192.625C66.4282 192.637 66.6769 192.65 66.9119 192.65C67.2575 192.662 67.603 192.675 67.9624 192.687C67.9762 192.687 67.99 192.687 68.0039 192.687C68.1283 192.687 68.2527 192.7 68.3771 192.7C68.5844 192.712 68.8055 192.712 69.0129 192.725C69.3308 192.737 69.6625 192.75 69.9942 192.762C70.0357 192.762 70.091 192.762 70.1324 192.762C70.2568 192.762 70.3951 192.775 70.5194 192.775C70.6715 192.775 70.8235 192.787 70.9618 192.787C71.2935 192.8 71.6114 192.812 71.9431 192.812C72.0537 192.812 72.1643 192.812 72.2748 192.825C72.4131 192.825 72.5374 192.837 72.6757 192.837C72.7586 192.837 72.8554 192.837 72.9383 192.85C73.2562 192.862 73.5741 192.862 73.892 192.875C74.0993 192.875 74.3066 192.887 74.514 192.887C74.6107 192.887 74.7075 192.887 74.8042 192.9C74.8181 192.9 74.8319 192.9 74.8457 192.9C75.1636 192.912 75.4815 192.912 75.7994 192.925C76.1173 192.925 76.4352 192.937 76.7531 192.937C76.7808 192.937 76.8084 192.937 76.8222 192.937C76.9052 192.937 76.9881 192.937 77.0572 192.937C77.2507 192.937 77.4442 192.95 77.6377 192.95C77.9418 192.95 78.2321 192.962 78.5362 192.962C78.702 192.962 78.8541 192.962 79.0199 192.975C79.1029 192.975 79.172 192.975 79.2549 192.975C79.3102 192.975 79.3655 192.975 79.4346 192.975C79.7387 192.975 80.0289 192.987 80.333 192.987C80.6233 192.987 80.9135 192.987 81.19 193C81.2453 193 81.3005 193 81.342 193C81.3973 193 81.4526 193 81.5079 193C81.6876 193 81.8672 193 82.0469 193C82.3372 193 82.6275 193 82.9177 193C83.1527 193 83.3877 193 83.6365 193C83.6641 193 83.6917 193 83.7194 193C83.747 193 83.7608 193 83.7885 193C83.9682 193 84.1479 193 84.3414 193C84.521 193 84.7007 193 84.8942 193C85.0739 193 85.2536 193 85.4471 193C85.6268 193 85.8065 193 86 193C86.1106 193 86.2073 193 86.3179 193C86.4285 193 86.5252 193 86.6358 193C86.7464 193 86.8431 193 86.9399 193C87.0366 193 87.1472 193 87.244 193C87.5204 193 87.7969 193 88.0871 193C88.1424 193 88.1977 193 88.2392 193C88.2806 193 88.3221 193 88.3774 193C88.5571 193 88.7367 193 88.9303 193C89.2067 193 89.4831 193 89.7596 193C90.0222 193 90.2848 193 90.5336 193C90.5612 193 90.5751 193 90.6027 193C90.8791 193 91.1418 193 91.4182 192.987C91.6946 192.987 91.9711 192.987 92.2475 192.975C92.3996 192.975 92.5654 192.975 92.7175 192.975C92.7866 192.975 92.8557 192.975 92.9248 192.975C92.9801 192.975 93.0215 192.975 93.0768 192.975C93.3533 192.975 93.6297 192.962 93.9061 192.962C94.224 192.962 94.542 192.95 94.8599 192.95C94.9013 192.95 94.9428 192.95 94.9704 192.95C95.0672 192.95 95.1639 192.95 95.2469 192.95C95.4266 192.95 95.62 192.937 95.7997 192.937C96.1176 192.937 96.4356 192.925 96.7535 192.925C96.8779 192.925 96.9884 192.925 97.1128 192.912C97.2372 192.912 97.3478 192.912 97.4722 192.9C97.5551 192.9 97.6242 192.9 97.7072 192.9C98.0251 192.887 98.343 192.887 98.647 192.875C98.8682 192.875 99.1032 192.862 99.3243 192.862C99.4211 192.862 99.5178 192.862 99.6146 192.85C99.9187 192.837 100.223 192.837 100.527 192.825C100.845 192.812 101.149 192.812 101.467 192.8C101.494 192.8 101.522 192.8 101.55 192.8C101.757 192.787 101.964 192.787 102.172 192.775C102.448 192.762 102.725 192.762 103.015 192.75C103.167 192.75 103.319 192.737 103.485 192.737C103.734 192.725 103.968 192.725 104.217 192.712C104.328 192.712 104.438 192.7 104.549 192.7C104.922 192.687 105.295 192.675 105.669 192.662C105.876 192.65 106.083 192.65 106.277 192.637C106.705 192.625 107.134 192.6 107.562 192.587C107.659 192.587 107.742 192.575 107.839 192.575C108.115 192.562 108.378 192.55 108.64 192.537C109.027 192.525 109.401 192.5 109.788 192.487C110.05 192.475 110.313 192.462 110.575 192.45C110.686 192.45 110.783 192.437 110.893 192.437C111.225 192.425 111.543 192.4 111.875 192.387C112.068 192.375 112.262 192.362 112.455 192.362C113.022 192.337 113.589 192.3 114.155 192.262C114.197 192.262 114.238 192.262 114.28 192.25C114.459 192.237 114.653 192.225 114.833 192.212C115.275 192.187 115.717 192.162 116.159 192.137C116.381 192.125 116.602 192.112 116.809 192.1C116.989 192.087 117.182 192.075 117.362 192.062C117.597 192.05 117.832 192.025 118.067 192.012C118.26 192 118.468 191.987 118.661 191.974C119.214 191.937 119.753 191.899 120.306 191.862C120.347 191.862 120.403 191.849 120.444 191.849C120.458 191.849 120.458 191.849 120.472 191.849H120.486C120.5 191.849 120.513 191.849 120.541 191.849C121.108 191.812 121.661 191.762 122.227 191.724C122.255 191.724 122.269 191.724 122.296 191.724C122.31 191.724 122.31 191.724 122.324 191.724C122.877 191.687 123.416 191.637 123.969 191.599C124.01 191.599 124.038 191.599 124.079 191.587C124.093 191.587 124.121 191.587 124.135 191.587C124.66 191.549 125.199 191.499 125.71 191.449C125.752 191.449 125.78 191.449 125.821 191.437C125.849 191.437 125.876 191.437 125.904 191.424C126.429 191.374 126.941 191.337 127.466 191.287C127.493 191.287 127.521 191.287 127.549 191.274C127.59 191.274 127.618 191.262 127.659 191.262C128.544 191.174 129.428 191.099 130.299 191.012C130.327 191.012 130.355 191.012 130.382 190.999C130.41 190.999 130.424 190.999 130.451 190.987C131.336 190.899 132.207 190.812 133.064 190.711C133.091 190.711 133.105 190.711 133.133 190.699C133.147 190.699 133.16 190.699 133.174 190.699C133.63 190.649 134.073 190.599 134.515 190.549C134.529 190.549 134.529 190.549 134.543 190.549C134.556 190.549 134.57 190.549 134.598 190.549C135.482 190.449 136.367 190.349 137.238 190.236C137.266 190.236 137.279 190.236 137.307 190.224C137.321 190.224 137.348 190.224 137.362 190.211C137.791 190.161 138.219 190.099 138.648 190.049C139.601 189.924 140.527 189.799 141.44 189.674C141.467 189.674 141.495 189.661 141.523 189.661C141.536 189.661 141.55 189.661 141.578 189.648C142.006 189.586 142.421 189.523 142.836 189.461C142.863 189.461 142.891 189.448 142.919 189.448C142.946 189.448 142.974 189.436 143.002 189.436C143.416 189.373 143.817 189.311 144.232 189.248C144.246 189.248 144.259 189.248 144.287 189.236C144.315 189.236 144.342 189.223 144.37 189.223C144.798 189.161 145.227 189.086 145.642 189.023H145.655C145.669 189.023 145.683 189.023 145.697 189.011C146.112 188.948 146.526 188.873 146.941 188.811C146.955 188.811 146.982 188.798 146.996 188.798C147.01 188.798 147.024 188.798 147.038 188.798C147.121 188.786 147.203 188.773 147.286 188.761C147.438 188.736 147.59 188.711 147.743 188.686C147.756 188.686 147.784 188.673 147.798 188.673C147.867 188.661 147.95 188.648 148.019 188.636C148.116 188.623 148.226 188.598 148.323 188.586C148.351 188.586 148.378 188.573 148.42 188.573C148.517 188.561 148.613 188.536 148.71 188.523C148.834 188.498 148.959 188.473 149.083 188.46C149.18 188.448 149.291 188.423 149.387 188.41C149.456 188.398 149.526 188.385 149.608 188.373C149.636 188.373 149.664 188.36 149.691 188.36C150.037 188.298 150.383 188.235 150.714 188.173C150.742 188.173 150.756 188.16 150.783 188.16C150.811 188.16 150.839 188.148 150.88 188.148C151.226 188.085 151.571 188.01 151.917 187.948C151.917 187.948 151.917 187.948 151.931 187.948H151.944C152.29 187.873 152.635 187.81 152.981 187.735C152.995 187.735 153.022 187.723 153.036 187.723C153.05 187.723 153.05 187.723 153.064 187.723C153.396 187.648 153.727 187.585 154.045 187.51C154.073 187.51 154.087 187.498 154.114 187.498C154.142 187.498 154.156 187.485 154.184 187.485C154.474 187.423 154.778 187.36 155.054 187.285C155.345 187.222 155.621 187.16 155.897 187.085C155.925 187.085 155.939 187.072 155.967 187.072C155.98 187.072 155.994 187.06 156.008 187.06C156.284 186.997 156.561 186.922 156.837 186.86H156.851C156.865 186.86 156.879 186.847 156.893 186.847C157.155 186.785 157.418 186.722 157.667 186.647C157.68 186.647 157.694 186.635 157.708 186.635C157.722 186.635 157.722 186.635 157.736 186.622C157.985 186.56 158.22 186.497 158.468 186.435H158.482C158.496 186.435 158.51 186.435 158.51 186.422C158.731 186.36 158.952 186.31 159.159 186.247C159.187 186.247 159.201 186.235 159.229 186.235C159.242 186.235 159.256 186.222 159.284 186.222C159.74 186.097 160.182 185.972 160.611 185.847C160.625 185.847 160.638 185.834 160.666 185.834C160.694 185.822 160.721 185.822 160.735 185.809C160.901 185.759 161.053 185.709 161.219 185.659C161.247 185.647 161.274 185.647 161.302 185.634C161.316 185.634 161.329 185.622 161.343 185.622C161.73 185.509 162.104 185.384 162.477 185.259C162.491 185.259 162.504 185.247 162.518 185.247C162.546 185.234 162.573 185.222 162.601 185.222C162.739 185.172 162.878 185.134 163.016 185.084C163.043 185.072 163.071 185.059 163.099 185.059C163.126 185.047 163.14 185.047 163.168 185.034C163.292 184.996 163.417 184.946 163.541 184.909C163.569 184.896 163.61 184.884 163.638 184.871C163.652 184.871 163.652 184.859 163.665 184.859C163.831 184.796 163.983 184.746 164.135 184.684C164.149 184.684 164.163 184.671 164.177 184.671C164.315 184.621 164.439 184.571 164.578 184.521C164.591 184.521 164.605 184.509 164.619 184.509C164.647 184.496 164.688 184.484 164.716 184.471C164.813 184.434 164.909 184.396 165.006 184.359C165.034 184.346 165.061 184.334 165.089 184.334C165.117 184.321 165.144 184.309 165.172 184.296C165.213 184.284 165.255 184.259 165.283 184.246C165.324 184.221 165.379 184.209 165.421 184.184C165.448 184.171 165.49 184.159 165.518 184.146C165.531 184.134 165.559 184.134 165.573 184.121C165.67 184.084 165.752 184.046 165.849 184.009C165.877 183.996 165.918 183.984 165.946 183.971C165.96 183.971 165.96 183.959 165.974 183.959C166.098 183.896 166.236 183.846 166.361 183.783C166.361 183.783 166.374 183.783 166.374 183.771C166.499 183.721 166.609 183.658 166.72 183.608C166.734 183.608 166.734 183.596 166.748 183.596C166.775 183.583 166.803 183.571 166.831 183.558C166.914 183.521 166.996 183.483 167.066 183.446C167.079 183.433 167.093 183.433 167.107 183.421C167.135 183.408 167.148 183.396 167.176 183.383C167.245 183.346 167.328 183.308 167.397 183.271C167.411 183.258 167.439 183.246 167.453 183.246C167.466 183.233 167.494 183.221 167.508 183.221C167.577 183.183 167.66 183.146 167.729 183.108C167.757 183.096 167.77 183.083 167.798 183.071C167.812 183.058 167.826 183.058 167.826 183.046C167.909 183.008 167.978 182.958 168.061 182.921C168.075 182.908 168.102 182.896 168.116 182.883C168.116 182.883 168.13 182.883 168.13 182.871C168.323 182.758 168.517 182.645 168.697 182.52C168.71 182.52 168.71 182.508 168.71 182.508C168.793 182.458 168.876 182.408 168.945 182.358L168.959 182.345C168.973 182.333 168.987 182.32 169.001 182.308C169.07 182.27 169.125 182.22 169.18 182.183C169.194 182.183 169.194 182.17 169.208 182.17C169.222 182.158 169.236 182.145 169.249 182.133C169.305 182.095 169.36 182.058 169.415 182.008C169.429 181.995 169.443 181.995 169.443 181.983C169.457 181.97 169.471 181.958 169.484 181.958C169.54 181.92 169.581 181.883 169.636 181.845C169.65 181.833 169.664 181.82 169.678 181.82C169.692 181.808 169.692 181.808 169.706 181.795C169.761 181.758 169.802 181.72 169.844 181.67C169.858 181.658 169.871 181.645 169.885 181.633L169.899 181.62C169.954 181.583 169.996 181.532 170.037 181.495C170.051 181.482 170.065 181.47 170.079 181.457L170.093 181.445C170.148 181.395 170.189 181.345 170.245 181.295C170.245 181.282 170.258 181.282 170.258 181.27C170.369 181.157 170.48 181.032 170.576 180.92C170.59 180.907 170.59 180.895 170.604 180.882C170.645 180.832 170.673 180.795 170.715 180.745L170.728 180.732C170.742 180.72 170.742 180.707 170.756 180.695C170.784 180.657 170.811 180.62 170.839 180.57C170.839 180.557 170.853 180.557 170.853 180.545C170.867 180.532 170.867 180.52 170.88 180.507C170.908 180.47 170.922 180.432 170.95 180.395C170.95 180.382 170.963 180.369 170.963 180.357C170.963 180.344 170.977 180.332 170.977 180.319C170.991 180.282 171.019 180.244 171.032 180.207C171.032 180.194 171.046 180.182 171.06 180.169C171.06 180.157 171.074 180.157 171.074 180.144C171.088 180.107 171.102 180.069 171.129 180.032C171.129 180.019 171.143 180.007 171.143 179.982V179.969C171.157 179.919 171.171 179.882 171.198 179.832C171.198 179.819 171.212 179.807 171.212 179.794C171.212 179.794 171.212 179.794 171.212 179.782C171.226 179.719 171.254 179.657 171.267 179.594C171.267 179.582 171.267 179.569 171.267 179.569C171.281 179.519 171.295 179.469 171.295 179.419V179.407C171.295 179.394 171.295 179.369 171.295 179.357C171.295 179.319 171.309 179.282 171.309 179.244C171.309 179.231 171.309 179.231 171.309 179.219C171.309 179.206 171.309 179.206 171.309 179.194C171.309 179.181 171.309 179.181 171.309 179.169C171.309 179.156 171.309 179.156 171.309 179.144C171.309 179.131 171.309 179.131 171.309 179.119L171.945 147.98C172 147.943 172 147.968 172 148.006Z" fill="url(#paint0_linear)"/>
<path d="M86.0138 138C96.586 138 106.73 138.238 116.072 138.663C125.525 139.101 134.259 139.726 141.86 140.527C149.613 141.34 156.274 142.328 161.332 143.454C166.528 144.617 170.08 145.918 171.42 147.331C172.802 148.795 171.683 150.233 168.394 151.584C165.008 152.973 159.328 154.249 151.741 155.362C143.988 156.488 134.3 157.426 123.189 158.076C111.926 158.739 99.3223 159.114 86 159.114C72.6777 159.114 60.0741 158.739 48.8109 158.076C37.6998 157.426 28.0121 156.488 20.2592 155.362C12.6722 154.261 7.00604 152.973 3.60637 151.584C0.317258 150.233 -0.802145 148.795 0.579835 147.331C1.92036 145.918 5.47204 144.605 10.6683 143.454C15.7263 142.328 22.3875 141.34 30.1404 140.527C37.7551 139.726 46.4892 139.088 55.9281 138.663C65.2979 138.238 75.4417 138 86.0138 138Z" fill="url(#paint1_linear)"/>
<ellipse cx="86.5" cy="151.5" rx="47.5" ry="5.5" fill="url(#paint2_radial)"/>
<g filter="url(#filter0_dd)">
<path d="M125.325 56.6436C122.568 48.8516 117.682 42.3164 111.292 37.792C101.77 31.0054 91.4963 30 86.2341 30H85.9835H85.7329C80.4707 30 70.1969 31.1311 60.6748 37.792C54.285 42.3164 49.3987 48.8516 46.6423 56.6436C43.8859 64.1842 43.2595 72.4789 44.8882 80.3965C49.3987 103.395 72.5774 131.296 85.9835 146C85.9835 146 85.9835 146 86.1088 146H86.2341C99.5149 131.421 122.568 103.521 127.204 80.3965C128.708 72.4789 128.081 64.1842 125.325 56.6436Z" fill="url(#paint3_linear)"/>
<path opacity="0.7" d="M127.705 71.5991L115.927 55.3867L124.698 55.6381C126.702 60.6652 127.705 66.0693 127.705 71.5991Z" fill="url(#paint4_linear)"/>
<path opacity="0.7" d="M56.666 55.3867L70.9491 54.7583L62.3041 71.7247L56.666 55.3867Z" fill="url(#paint5_linear)"/>
<path d="M71.3246 98.3687C71.3246 98.3687 71.3246 98.243 71.3246 98.3687L55.7886 85.1726L62.3037 72.3535L71.3246 98.3687Z" fill="url(#paint6_linear)"/>
<path d="M62.1791 72.1021L55.5387 84.9211L44.5132 71.9764L56.4158 55.5127L62.1791 72.1021Z" fill="url(#paint7_linear)"/>
<path opacity="0.4" d="M71.074 98.4943L73.9557 120.865L56.9162 107.417L55.7886 85.4238L71.074 98.4943Z" fill="url(#paint8_linear)"/>
<path opacity="0.4" d="M71.3237 98.3682L85.8574 115.209L74.2054 120.99L71.3237 98.3682Z" fill="url(#paint9_linear)"/>
<path d="M71.5749 98.2425L62.4287 72.1017L71.3243 54.7582L85.858 47.9717L100.642 54.7582L109.538 72.1017L100.392 98.2425L86.1086 115.083L71.5749 98.2425Z" fill="url(#paint10_linear)"/>
<path d="M88.3645 49.103C79.9701 57.5234 71.5756 65.9438 63.1812 74.3641L66.1881 82.7845C76.2114 72.7303 86.2346 62.6762 96.2578 52.622L88.3645 49.103Z" fill="url(#paint11_linear)"/>
<path d="M107.158 79.0143L109.539 72.1021L106.907 66.5723C95.6313 77.7575 84.4804 89.0685 73.3296 100.254L79.2182 107.166L107.158 79.0143Z" fill="url(#paint12_linear)"/>
<path d="M102.021 93.8439L104.778 85.9263L81.2231 109.428L83.729 112.193L102.021 93.8439Z" fill="url(#paint13_linear)"/>
<path d="M71.3237 54.5071L74.9572 40.0542L85.7321 47.8462L71.3237 54.5071Z" fill="url(#paint14_linear)"/>
<path d="M86.2339 47.8462L97.2594 40.0542L100.768 54.5071L86.2339 47.8462Z" fill="url(#paint15_linear)"/>
<path d="M109.79 71.7247L101.145 54.7583L115.428 55.3867L109.79 71.7247Z" fill="url(#paint16_linear)"/>
<path opacity="0.8" d="M109.788 72.3535L116.303 85.1726L100.767 98.3687L109.788 72.3535Z" fill="url(#paint17_linear)"/>
<path opacity="0.5" d="M100.642 98.4941L97.8859 120.99L86.2339 115.209L100.642 98.4941Z" fill="url(#paint18_linear)"/>
<path opacity="0.4" d="M100.893 98.4943L116.304 85.4238L115.302 107.292L98.1367 120.865L100.893 98.4943Z" fill="url(#paint19_linear)"/>
<path d="M109.914 72.1021L115.677 55.5127L127.705 71.8507L116.554 84.9211L109.914 72.1021Z" fill="url(#paint20_linear)"/>
<path opacity="0.3" d="M124.573 55.5126L115.677 55.2612L113.923 40.3057C118.684 44.3273 122.317 49.6058 124.573 55.5126Z" fill="url(#paint21_linear)"/>
<path opacity="0.6" d="M115.553 55.1353L101.02 54.507L97.3862 39.8027L113.674 40.0541L115.553 55.1353Z" fill="url(#paint22_linear)"/>
<path d="M111.167 37.9182C112.044 38.5466 112.796 39.1749 113.673 39.8033L97.5107 39.552L100.017 32.2627C103.65 33.5195 107.409 35.2789 111.167 37.9182Z" fill="url(#paint23_linear)"/>
<path d="M99.7654 32.2625L97.1344 39.6774L86.3594 30.126C89.4916 30.126 94.378 30.503 99.7654 32.2625Z" fill="url(#paint24_linear)"/>
<path d="M85.9833 30.126L97.0088 39.9288L85.9833 47.7208L75.083 39.9288L85.9833 30.126Z" fill="url(#paint25_linear)"/>
<path opacity="0.3" d="M85.7337 30.126L74.9587 39.8031L72.3276 32.2625C77.7151 30.503 82.6014 30.126 85.7337 30.126Z" fill="url(#paint26_linear)"/>
<path opacity="0.8" d="M60.9252 37.9175C64.5587 35.2783 68.4427 33.5188 71.9508 32.3877L74.5819 39.9283H58.4194C59.1712 39.1743 60.0482 38.5459 60.9252 37.9175Z" fill="url(#paint27_linear)"/>
<path d="M74.5823 40.1797L71.0742 54.5069L56.5405 55.1353L58.4199 40.1797H74.5823Z" fill="url(#paint28_linear)"/>
<path opacity="0.3" d="M58.1682 40.0542L56.2889 55.1355L47.5186 55.2611C49.8991 49.3543 53.5325 44.2015 58.1682 40.0542Z" fill="url(#paint29_linear)"/>
<path d="M47.3937 55.5124L56.164 55.3867L44.3867 71.7247C44.3867 66.0693 45.389 60.6652 47.3937 55.5124Z" fill="url(#paint30_linear)"/>
<path d="M45.1385 80.3966C44.6373 77.6317 44.3867 74.9924 44.3867 72.2275L55.4123 85.1723L47.519 88.6912C46.5167 85.8007 45.7649 83.0358 45.1385 80.3966Z" fill="url(#paint31_linear)"/>
<path opacity="0.3" d="M47.645 88.9428L55.5383 85.4238L56.6659 107.292C52.9072 101.133 49.775 94.9753 47.645 88.9428Z" fill="url(#paint32_linear)"/>
<path opacity="0.7" d="M56.916 107.668L73.9555 121.116L69.8209 126.143C65.1852 120.488 60.8 114.204 56.916 107.668Z" fill="url(#paint33_linear)"/>
<path opacity="0.3" d="M69.8218 126.52L73.9564 121.493L85.7337 145.497C81.2232 140.345 75.5851 133.81 69.8218 126.52Z" fill="url(#paint34_linear)"/>
<path d="M86.1091 145.372L74.2065 121.242L85.9838 115.335L97.8864 121.242L86.1091 145.372Z" fill="url(#paint35_linear)"/>
<path opacity="0.4" d="M86.4849 145.372L98.1369 121.493L102.397 126.646C96.6334 133.81 90.9953 140.345 86.4849 145.372Z" fill="url(#paint36_linear)"/>
<path d="M102.397 126.269L98.1367 121.116L115.302 107.543C111.417 114.078 106.907 120.488 102.397 126.269Z" fill="url(#paint37_linear)"/>
<path opacity="0.7" d="M115.553 107.166L116.68 85.2979L124.574 88.8168C122.318 94.975 119.186 101.133 115.553 107.166Z" fill="url(#paint38_linear)"/>
<path opacity="0.3" d="M126.954 80.3966C126.453 83.0358 125.576 85.9263 124.573 88.6912L116.68 85.1723L127.706 72.2275C127.706 74.9924 127.455 77.6317 126.954 80.3966Z" fill="url(#paint39_linear)"/>
</g>
<defs>
<filter id="filter0_dd" x="14" y="0" width="144" height="181.314" filterUnits="userSpaceOnUse" color-interpolation-filters="sRGB">
<feFlood flood-opacity="0" result="BackgroundImageFix"/>
<feColorMatrix in="SourceAlpha" type="matrix" values="0 0 0 0 0 0 0 0 0 0 0 0 0 0 0 0 0 0 127 0" result="hardAlpha"/>
<feOffset/>
<feGaussianBlur stdDeviation="15"/>
<feColorMatrix type="matrix" values="0 0 0 0 1 0 0 0 0 1 0 0 0 0 1 0 0 0 0.2 0"/>
<feBlend mode="normal" in2="BackgroundImageFix" result="effect1_dropShadow"/>
<feColorMatrix in="SourceAlpha" type="matrix" values="0 0 0 0 0 0 0 0 0 0 0 0 0 0 0 0 0 0 127 0" result="hardAlpha"/>
<feOffset dy="5.31447"/>
<feGaussianBlur stdDeviation="15"/>
<feColorMatrix type="matrix" values="0 0 0 0 1 0 0 0 0 1 0 0 0 0 1 0 0 0 0.2 0"/>
<feBlend mode="normal" in2="effect1_dropShadow" result="effect2_dropShadow"/>
<feBlend mode="normal" in="SourceGraphic" in2="effect2_dropShadow" result="shape"/>
</filter>
<linearGradient id="paint0_linear" x1="-0.00352459" y1="170.457" x2="172.001" y2="170.457" gradientUnits="userSpaceOnUse">
<stop stop-color="#1F1E2D"/>
<stop offset="0.494792" stop-color="#1E1B30"/>
<stop offset="1" stop-color="#1F1E2D"/>
</linearGradient>
<linearGradient id="paint1_linear" x1="86.0126" y1="138.004" x2="86.0126" y2="163.025" gradientUnits="userSpaceOnUse">
<stop stop-color="#1F1E2D"/>
<stop offset="1" stop-color="#2C2A45"/>
</linearGradient>
<radialGradient id="paint2_radial" cx="0" cy="0" r="1" gradientUnits="userSpaceOnUse" gradientTransform="translate(86.5 151.5) rotate(90) scale(5.5 47.5)">
<stop stop-color="#010105"/>
<stop offset="1" stop-color="#1D1C25" stop-opacity="0"/>
</radialGradient>
<linearGradient id="paint3_linear" x1="52.536" y1="45.2098" x2="119.802" y2="112.269" gradientUnits="userSpaceOnUse">
<stop stop-color="#5FCAFF"/>
<stop offset="1" stop-color="#33D2FF"/>
</linearGradient>
<linearGradient id="paint4_linear" x1="91.6513" y1="79.0336" x2="117.404" y2="65.8501" gradientUnits="userSpaceOnUse">
<stop stop-color="#33D2FF"/>
<stop offset="1" stop-color="#00538F"/>
</linearGradient>
<linearGradient id="paint5_linear" x1="34.7762" y1="37.2668" x2="54.2874" y2="53.0709" gradientUnits="userSpaceOnUse">
<stop stop-color="#33D2FF"/>
<stop offset="1" stop-color="#00538F"/>
</linearGradient>
<linearGradient id="paint6_linear" x1="91.043" y1="70.2071" x2="69.8052" y2="83.3965" gradientUnits="userSpaceOnUse">
<stop stop-color="#5FCAFF"/>
<stop offset="1" stop-color="#33D2FF"/>
</linearGradient>
<linearGradient id="paint7_linear" x1="19.2573" y1="61.8505" x2="56.6311" y2="70.3421" gradientUnits="userSpaceOnUse">
<stop stop-color="#CFF1FF"/>
<stop offset="1" stop-color="#9BE1FF"/>
</linearGradient>
<linearGradient id="paint8_linear" x1="54.1529" y1="108.978" x2="106.012" y2="80.8728" gradientUnits="userSpaceOnUse">
<stop stop-color="#CFF1FF"/>
<stop offset="1" stop-color="#9BE1FF"/>
</linearGradient>
<linearGradient id="paint9_linear" x1="53.3231" y1="117.235" x2="70.3673" y2="110.647" gradientUnits="userSpaceOnUse">
<stop stop-color="#33D2FF"/>
<stop offset="1" stop-color="#00538F"/>
</linearGradient>
<linearGradient id="paint10_linear" x1="77.7308" y1="52.1038" x2="103.762" y2="118.463" gradientUnits="userSpaceOnUse">
<stop stop-color="#D6FFF8"/>
<stop offset="0.2086" stop-color="#CFFFF7"/>
<stop offset="0.5107" stop-color="#BCFFF4"/>
<stop offset="0.8682" stop-color="#9CFFEF"/>
<stop offset="1" stop-color="#8FFFED"/>
</linearGradient>
<linearGradient id="paint11_linear" x1="75.4609" y1="52.9947" x2="101.493" y2="119.355" gradientUnits="userSpaceOnUse">
<stop stop-color="#D6FFF8"/>
<stop offset="0.2086" stop-color="#CFFFF7"/>
<stop offset="0.5107" stop-color="#BCFFF4"/>
<stop offset="0.8682" stop-color="#9CFFEF"/>
<stop offset="1" stop-color="#8FFFED"/>
</linearGradient>
<linearGradient id="paint12_linear" x1="78.1421" y1="51.9437" x2="104.174" y2="118.303" gradientUnits="userSpaceOnUse">
<stop stop-color="#D6FFF8"/>
<stop offset="0.2086" stop-color="#CFFFF7"/>
<stop offset="0.5107" stop-color="#BCFFF4"/>
<stop offset="0.8682" stop-color="#9CFFEF"/>
<stop offset="1" stop-color="#8FFFED"/>
</linearGradient>
<linearGradient id="paint13_linear" x1="75.6148" y1="52.934" x2="101.647" y2="119.294" gradientUnits="userSpaceOnUse">
<stop stop-color="#D6FFF8"/>
<stop offset="0.2086" stop-color="#CFFFF7"/>
<stop offset="0.5107" stop-color="#BCFFF4"/>
<stop offset="0.8682" stop-color="#9CFFEF"/>
<stop offset="1" stop-color="#8FFFED"/>
</linearGradient>
<linearGradient id="paint14_linear" x1="75.2402" y1="41.1622" x2="85.5504" y2="72.52" gradientUnits="userSpaceOnUse">
<stop stop-color="#5FCAFF"/>
<stop offset="1" stop-color="#33D2FF"/>
</linearGradient>
<linearGradient id="paint15_linear" x1="90.9404" y1="43.1956" x2="101.505" y2="53.7277" gradientUnits="userSpaceOnUse">
<stop stop-color="#5FCAFF"/>
<stop offset="1" stop-color="#33D2FF"/>
</linearGradient>
<linearGradient id="paint16_linear" x1="102.48" y1="53.3897" x2="115.301" y2="66.1715" gradientUnits="userSpaceOnUse">
<stop stop-color="#5FCAFF"/>
<stop offset="1" stop-color="#33D2FF"/>
</linearGradient>
<linearGradient id="paint17_linear" x1="89.0803" y1="73.1043" x2="102.491" y2="83.1751" gradientUnits="userSpaceOnUse">
<stop stop-color="#CFFFF4"/>
<stop offset="1" stop-color="#9AF7FF"/>
</linearGradient>
<linearGradient id="paint18_linear" x1="70.4132" y1="85.6194" x2="85.052" y2="98.997" gradientUnits="userSpaceOnUse">
<stop stop-color="#33D2FF"/>
<stop offset="1" stop-color="#007999"/>
</linearGradient>
<linearGradient id="paint19_linear" x1="58.387" y1="69.407" x2="94.4299" y2="94.1429" gradientUnits="userSpaceOnUse">
<stop stop-color="#CFF1FF"/>
<stop offset="1" stop-color="#9BE1FF"/>
</linearGradient>
<linearGradient id="paint20_linear" x1="78.2958" y1="70.4465" x2="110.966" y2="70.2733" gradientUnits="userSpaceOnUse">
<stop stop-color="#C4FFF5"/>
<stop offset="1" stop-color="#8FFFED"/>
</linearGradient>
<linearGradient id="paint21_linear" x1="128.569" y1="21.6662" x2="121.929" y2="40.3054" gradientUnits="userSpaceOnUse">
<stop stop-color="#33D2FF"/>
<stop offset="1" stop-color="#007999"/>
</linearGradient>
<linearGradient id="paint22_linear" x1="107.646" y1="33.7896" x2="103.843" y2="77.3222" gradientUnits="userSpaceOnUse">
<stop stop-color="#CFFFF4"/>
<stop offset="1" stop-color="#83F3FF"/>
</linearGradient>
<linearGradient id="paint23_linear" x1="102.418" y1="32.0424" x2="113.599" y2="59.3863" gradientUnits="userSpaceOnUse">
<stop stop-color="#CFF1FF"/>
<stop offset="1" stop-color="#73C9FF"/>
</linearGradient>
<linearGradient id="paint24_linear" x1="89.875" y1="14.6524" x2="92.3224" y2="27.3746" gradientUnits="userSpaceOnUse">
<stop stop-color="#5FCAFF"/>
<stop offset="1" stop-color="#33D2FF"/>
</linearGradient>
<linearGradient id="paint25_linear" x1="86.3139" y1="25.1515" x2="85.4398" y2="72.3901" gradientUnits="userSpaceOnUse">
<stop stop-color="#CFF1FF"/>
<stop offset="1" stop-color="#5CCEFF"/>
</linearGradient>
<linearGradient id="paint26_linear" x1="61.5659" y1="16.1783" x2="70.1073" y2="24.6934" gradientUnits="userSpaceOnUse">
<stop stop-color="#33D2FF"/>
<stop offset="1" stop-color="#007999"/>
</linearGradient>
<linearGradient id="paint27_linear" x1="60.9656" y1="25.6132" x2="65.1582" y2="35.8885" gradientUnits="userSpaceOnUse">
<stop stop-color="#5FCAFF"/>
<stop offset="1" stop-color="#33D2FF"/>
</linearGradient>
<linearGradient id="paint28_linear" x1="60.755" y1="38.3405" x2="91.6628" y2="97.1806" gradientUnits="userSpaceOnUse">
<stop stop-color="#F5FCFF"/>
<stop offset="1" stop-color="#84DAFF"/>
</linearGradient>
<linearGradient id="paint29_linear" x1="18.6332" y1="42.8814" x2="36.0133" y2="45.3071" gradientUnits="userSpaceOnUse">
<stop stop-color="#33D2FF"/>
<stop offset="1" stop-color="#007999"/>
</linearGradient>
<linearGradient id="paint30_linear" x1="27.0245" y1="40.9819" x2="44.1053" y2="57.489" gradientUnits="userSpaceOnUse">
<stop stop-color="#5FCAFF"/>
<stop offset="1" stop-color="#33D2FF"/>
</linearGradient>
<linearGradient id="paint31_linear" x1="57.4551" y1="63.2482" x2="50.8187" y2="76.6542" gradientUnits="userSpaceOnUse">
<stop stop-color="#5FCAFF"/>
<stop offset="1" stop-color="#33D2FF"/>
</linearGradient>
<linearGradient id="paint32_linear" x1="14.049" y1="92.1481" x2="36.8147" y2="94.4002" gradientUnits="userSpaceOnUse">
<stop stop-color="#33D2FF"/>
<stop offset="1" stop-color="#00538F"/>
</linearGradient>
<linearGradient id="paint33_linear" x1="71.3311" y1="93.6807" x2="66.9617" y2="108.839" gradientUnits="userSpaceOnUse">
<stop stop-color="#33D2FF"/>
<stop offset="1" stop-color="#00538F"/>
</linearGradient>
<linearGradient id="paint34_linear" x1="89.6519" y1="117.671" x2="71.8491" y2="145.076" gradientUnits="userSpaceOnUse">
<stop stop-color="#33D2FF"/>
<stop offset="1" stop-color="#007999"/>
</linearGradient>
<linearGradient id="paint35_linear" x1="86.0434" y1="88.3237" x2="86.0434" y2="112.397" gradientUnits="userSpaceOnUse">
<stop stop-color="#CFF1FF"/>
<stop offset="1" stop-color="#9BE1FF"/>
</linearGradient>
<linearGradient id="paint36_linear" x1="62.3754" y1="101.746" x2="78.2401" y2="118.431" gradientUnits="userSpaceOnUse">
<stop stop-color="#33D2FF"/>
<stop offset="1" stop-color="#00538F"/>
</linearGradient>
<linearGradient id="paint37_linear" x1="77.1571" y1="94.2903" x2="98.2275" y2="109.22" gradientUnits="userSpaceOnUse">
<stop stop-color="#33D2FF"/>
<stop offset="1" stop-color="#00538F"/>
</linearGradient>
<linearGradient id="paint38_linear" x1="83.1747" y1="92.934" x2="103.682" y2="95.013" gradientUnits="userSpaceOnUse">
<stop stop-color="#33D2FF"/>
<stop offset="1" stop-color="#00538F"/>
</linearGradient>
<linearGradient id="paint39_linear" x1="106.587" y1="63.445" x2="118.963" y2="75.4345" gradientUnits="userSpaceOnUse">
<stop stop-color="#33D2FF"/>
<stop offset="1" stop-color="#007999"/>
</linearGradient>
</defs>
</svg>
