<svg width="176" height="193" viewBox="0 0 176 193" fill="none" xmlns="http://www.w3.org/2000/svg">
<path d="M174 148.006C174 148.031 173.986 148.068 173.986 148.093C173.986 148.106 173.986 148.131 173.972 148.143C173.959 148.181 173.959 148.218 173.945 148.256C173.945 148.268 173.945 148.268 173.945 148.281C173.931 148.331 173.917 148.368 173.889 148.418C173.889 148.431 173.876 148.443 173.876 148.456C173.862 148.493 173.848 148.518 173.82 148.556C173.806 148.568 173.807 148.593 173.793 148.606C173.779 148.631 173.765 148.668 173.737 148.693C173.724 148.706 173.71 148.731 173.71 148.743C173.696 148.768 173.668 148.806 173.654 148.831C173.641 148.843 173.627 148.868 173.613 148.881C173.585 148.906 173.572 148.943 173.544 148.968C173.53 148.981 173.516 149.006 173.502 149.018C173.475 149.043 173.447 149.081 173.419 149.106C173.406 149.118 173.392 149.131 173.378 149.144C173.35 149.181 173.309 149.206 173.267 149.244C173.254 149.256 173.254 149.269 173.24 149.269C173.198 149.319 173.143 149.356 173.088 149.406C173.032 149.456 172.977 149.494 172.922 149.544C172.908 149.544 172.908 149.556 172.894 149.556C172.839 149.594 172.798 149.631 172.742 149.669C172.728 149.681 172.715 149.694 172.701 149.706C172.659 149.744 172.604 149.769 172.563 149.806C172.549 149.819 172.521 149.831 172.507 149.844C172.466 149.869 172.41 149.906 172.369 149.931C172.341 149.944 172.328 149.956 172.3 149.969C172.245 149.994 172.203 150.031 172.148 150.056C172.12 150.069 172.106 150.081 172.079 150.094C172.023 150.119 171.968 150.156 171.913 150.181C171.885 150.194 171.871 150.206 171.844 150.219C171.788 150.256 171.719 150.281 171.664 150.319C171.636 150.332 171.623 150.344 171.595 150.357C171.512 150.394 171.443 150.432 171.36 150.469C171.346 150.469 171.346 150.482 171.332 150.482C171.236 150.532 171.139 150.569 171.042 150.619C170.945 150.657 170.849 150.707 170.752 150.744C170.724 150.757 170.697 150.769 170.683 150.769C170.6 150.807 170.531 150.832 170.448 150.869C170.42 150.882 170.379 150.894 170.351 150.907C170.282 150.932 170.213 150.969 170.13 150.994C170.088 151.007 170.047 151.019 170.019 151.044C169.95 151.069 169.867 151.107 169.798 151.132C169.757 151.144 169.715 151.157 169.674 151.182C169.591 151.207 169.508 151.244 169.439 151.269C169.397 151.282 169.37 151.294 169.328 151.307C169.218 151.344 169.093 151.394 168.983 151.432C168.983 151.432 168.969 151.432 168.969 151.445C168.844 151.482 168.72 151.532 168.582 151.57C168.54 151.582 168.499 151.595 168.457 151.607C168.361 151.632 168.278 151.67 168.181 151.695C168.126 151.707 168.084 151.732 168.029 151.745C167.946 151.77 167.863 151.795 167.766 151.82C167.711 151.832 167.656 151.857 167.6 151.87C167.504 151.895 167.407 151.932 167.296 151.957C167.241 151.97 167.2 151.982 167.144 151.995C167.006 152.032 166.882 152.07 166.743 152.107C166.73 152.107 166.702 152.12 166.688 152.12C166.536 152.157 166.37 152.207 166.218 152.245C166.177 152.257 166.135 152.27 166.094 152.282C165.969 152.32 165.845 152.345 165.721 152.382C165.665 152.395 165.624 152.407 165.569 152.42C165.43 152.457 165.292 152.495 165.154 152.52C165.113 152.532 165.071 152.545 165.016 152.557C164.836 152.608 164.643 152.645 164.463 152.695C164.269 152.745 164.076 152.783 163.882 152.833C163.841 152.845 163.799 152.845 163.758 152.858C163.592 152.895 163.44 152.933 163.274 152.97C163.233 152.983 163.191 152.983 163.15 152.995C162.929 153.045 162.707 153.095 162.486 153.133C162.265 153.183 162.03 153.233 161.809 153.27C161.768 153.283 161.726 153.283 161.698 153.295C161.477 153.345 161.27 153.383 161.049 153.433C161.035 153.433 161.021 153.433 161.007 153.445C160.759 153.495 160.524 153.545 160.275 153.583C160.247 153.583 160.22 153.595 160.206 153.595C159.943 153.645 159.68 153.695 159.418 153.745C159.404 153.745 159.376 153.758 159.363 153.758C159.086 153.808 158.81 153.858 158.519 153.908C158.478 153.908 158.45 153.921 158.409 153.921C158.132 153.971 157.842 154.021 157.552 154.071C157.552 154.071 157.552 154.071 157.538 154.071C157.248 154.121 156.958 154.171 156.653 154.221C156.612 154.233 156.571 154.233 156.515 154.246C156.184 154.296 155.852 154.346 155.52 154.408C155.492 154.408 155.465 154.421 155.437 154.421C155.092 154.471 154.746 154.521 154.401 154.583C154.387 154.583 154.387 154.583 154.373 154.583C154.027 154.633 153.682 154.683 153.322 154.733C153.267 154.746 153.212 154.746 153.17 154.758C152.825 154.808 152.493 154.858 152.134 154.908C152.037 154.921 151.926 154.934 151.83 154.946C151.733 154.959 151.622 154.971 151.526 154.984C151.401 154.996 151.277 155.021 151.152 155.034C151.056 155.046 150.959 155.059 150.848 155.071C150.724 155.084 150.586 155.109 150.461 155.121C150.365 155.134 150.268 155.146 150.171 155.159C150.019 155.184 149.867 155.196 149.715 155.221C149.632 155.234 149.549 155.246 149.466 155.246C149.273 155.271 149.065 155.296 148.858 155.321C148.816 155.321 148.789 155.334 148.747 155.334C148.512 155.359 148.277 155.396 148.056 155.421C147.628 155.471 147.199 155.521 146.771 155.571C146.729 155.571 146.674 155.584 146.633 155.584C146.218 155.634 145.817 155.671 145.402 155.721C145.347 155.734 145.292 155.734 145.237 155.746C144.822 155.796 144.393 155.834 143.965 155.884C143.923 155.884 143.882 155.896 143.841 155.896C143.398 155.946 142.942 155.996 142.486 156.034C142.002 156.084 141.518 156.134 141.021 156.184C140.592 156.222 140.164 156.272 139.735 156.309C139.694 156.309 139.653 156.322 139.611 156.322C139.183 156.359 138.74 156.397 138.298 156.434C137.856 156.472 137.4 156.509 136.957 156.547C136.93 156.547 136.902 156.547 136.874 156.559C136.432 156.597 135.976 156.634 135.52 156.672C135.492 156.672 135.451 156.672 135.423 156.684C134.981 156.722 134.552 156.759 134.11 156.784C133.668 156.822 133.225 156.847 132.783 156.884C132.728 156.884 132.672 156.897 132.631 156.897C132.189 156.934 131.746 156.959 131.304 156.997C130.862 157.034 130.419 157.059 129.977 157.084C129.908 157.084 129.853 157.097 129.784 157.097C129.258 157.134 128.733 157.172 128.208 157.197C128.139 157.197 128.084 157.209 128.014 157.209C127.489 157.247 126.95 157.272 126.411 157.31C126.356 157.31 126.287 157.322 126.231 157.322C125.679 157.36 125.14 157.385 124.587 157.422C124.545 157.422 124.518 157.422 124.476 157.422C123.909 157.46 123.356 157.485 122.79 157.522C122.762 157.522 122.748 157.522 122.721 157.522C122.665 157.522 122.61 157.522 122.541 157.535C121.988 157.56 121.435 157.597 120.882 157.622C120.689 157.635 120.482 157.647 120.288 157.647C119.86 157.672 119.445 157.685 119.016 157.71C118.795 157.722 118.574 157.735 118.367 157.735C117.924 157.76 117.482 157.772 117.026 157.797C116.846 157.81 116.653 157.81 116.473 157.822C115.865 157.847 115.257 157.872 114.635 157.897C114.441 157.91 114.234 157.91 114.04 157.922C113.598 157.935 113.17 157.96 112.727 157.972C112.465 157.985 112.202 157.997 111.953 157.997C111.566 158.01 111.179 158.022 110.792 158.035C110.516 158.047 110.253 158.047 109.977 158.06C109.452 158.072 108.926 158.097 108.401 158.11C108.332 158.11 108.249 158.11 108.18 158.122C108.042 158.122 107.917 158.135 107.779 158.135C107.295 158.147 106.798 158.16 106.314 158.172C106.065 158.185 105.816 158.185 105.581 158.197C105.139 158.21 104.711 158.222 104.268 158.235C104.061 158.235 103.84 158.247 103.633 158.247C102.983 158.26 102.333 158.272 101.684 158.285H101.67C101.587 158.285 101.49 158.285 101.407 158.285C100.785 158.297 100.149 158.31 99.5275 158.322C99.4169 158.322 99.2925 158.322 99.1819 158.322C98.5599 158.335 97.9241 158.347 97.3022 158.347C97.2054 158.347 97.1087 158.347 97.0257 158.347C96.3346 158.36 95.6573 158.36 94.9524 158.372C94.8833 158.372 94.8142 158.372 94.7451 158.372C94.0402 158.385 93.3214 158.385 92.6027 158.385H92.5889C92.5751 158.385 92.5612 158.385 92.5336 158.385C91.8148 158.385 91.0823 158.398 90.3497 158.398C90.3083 158.398 90.2668 158.398 90.2253 158.398C89.479 158.398 88.7187 158.398 87.9724 158.398C87.2122 158.398 86.452 158.398 85.6917 158.398C85.6641 158.398 85.6365 158.398 85.6088 158.398C84.8901 158.398 84.1852 158.398 83.4664 158.385C83.4111 158.385 83.3558 158.385 83.3005 158.385C82.5956 158.385 81.8907 158.372 81.1858 158.372C81.1029 158.372 81.0338 158.372 80.9508 158.372C80.2874 158.36 79.6377 158.36 78.9743 158.347C78.8914 158.347 78.8084 158.347 78.7393 158.347C78.0482 158.335 77.3709 158.322 76.6937 158.322C76.5969 158.322 76.5002 158.322 76.4034 158.322C75.7814 158.31 75.1733 158.297 74.5651 158.285C74.4269 158.285 74.2887 158.285 74.1643 158.272C73.5699 158.26 72.9894 158.247 72.3951 158.235C72.2568 158.235 72.1324 158.235 71.9942 158.222C71.3999 158.21 70.8055 158.197 70.225 158.185C70.1006 158.185 69.9762 158.172 69.8518 158.172C69.2437 158.16 68.6355 158.135 68.0273 158.122C67.9167 158.122 67.82 158.122 67.7094 158.11C67.1013 158.097 66.4793 158.072 65.8711 158.047C65.7743 158.047 65.6776 158.047 65.5808 158.035C65.567 158.035 65.5532 158.035 65.5532 158.035C64.945 158.01 64.3369 157.997 63.7287 157.972C63.632 157.972 63.5352 157.96 63.4523 157.96C62.8441 157.935 62.2359 157.91 61.6278 157.885C61.531 157.885 61.4343 157.872 61.3375 157.872C60.7293 157.847 60.135 157.822 59.5407 157.797C59.4439 157.797 59.3472 157.785 59.2366 157.785C58.6422 157.76 58.0617 157.735 57.4812 157.71C57.3706 157.71 57.26 157.697 57.1633 157.697C56.5828 157.672 56.0023 157.647 55.4217 157.61C55.325 157.61 55.2144 157.597 55.1176 157.597C54.5371 157.572 53.9566 157.535 53.3761 157.51C53.1688 157.497 52.9752 157.485 52.7679 157.472C52.6435 157.46 52.5191 157.46 52.3947 157.447C52.1183 157.435 51.8419 157.422 51.5654 157.397C51.4963 157.397 51.4272 157.385 51.3581 157.385C50.9987 157.36 50.6532 157.347 50.3076 157.322C50.28 157.322 50.2385 157.322 50.2109 157.322C49.893 157.297 49.5889 157.285 49.271 157.26C49.188 157.26 49.1051 157.247 49.0084 157.247C48.7457 157.235 48.4831 157.209 48.2205 157.197C48.1238 157.184 48.0132 157.184 47.9164 157.172C47.6676 157.159 47.4188 157.134 47.17 157.122C47.0733 157.109 46.9765 157.109 46.866 157.097C46.6033 157.084 46.3545 157.059 46.0919 157.047C46.009 157.047 45.9261 157.034 45.8431 157.034C45.5529 157.009 45.2626 156.997 44.9724 156.972C44.9309 156.972 44.8756 156.959 44.8341 156.959C44.4748 156.934 44.1016 156.909 43.7422 156.884C43.3828 156.859 43.0235 156.834 42.6779 156.809C42.6364 156.809 42.595 156.809 42.5535 156.797C42.2356 156.772 41.9315 156.747 41.6275 156.722C41.5722 156.722 41.5169 156.709 41.4616 156.709C41.1575 156.684 40.8534 156.659 40.5493 156.634C40.5079 156.634 40.4664 156.622 40.4249 156.622C40.0656 156.597 39.7062 156.559 39.3468 156.534C38.9875 156.509 38.6143 156.472 38.2549 156.447C38.2273 156.447 38.2134 156.447 38.1858 156.447C37.8679 156.422 37.5362 156.384 37.2183 156.359C37.163 156.359 37.1215 156.347 37.0662 156.347C36.7483 156.322 36.4166 156.284 36.0987 156.259C36.0849 156.259 36.071 156.259 36.0434 156.259C35.6702 156.222 35.297 156.184 34.9238 156.159C34.5783 156.122 34.2327 156.097 33.8872 156.059C33.8319 156.059 33.7766 156.046 33.7213 156.046C33.3896 156.009 33.0717 155.984 32.74 155.946C32.7261 155.946 32.7123 155.946 32.6985 155.946C32.3529 155.909 32.0074 155.871 31.6618 155.834C31.6204 155.834 31.5789 155.821 31.5374 155.821C31.2057 155.784 30.8878 155.746 30.5699 155.721C30.5146 155.709 30.4455 155.709 30.3902 155.696C30.0447 155.659 29.6853 155.621 29.3536 155.584C29.3121 155.584 29.2568 155.571 29.2154 155.571C28.9113 155.534 28.621 155.496 28.3169 155.471C28.2478 155.459 28.1787 155.459 28.0958 155.446C27.7641 155.409 27.4323 155.371 27.1144 155.321C27.073 155.321 27.0315 155.309 26.99 155.309C26.6168 155.259 26.2575 155.221 25.8981 155.171C25.8566 155.171 25.8152 155.159 25.7875 155.159C25.4143 155.109 25.055 155.059 24.6956 155.021C24.6403 155.009 24.5712 155.009 24.5159 154.996C24.1565 154.946 23.811 154.896 23.4654 154.846C23.4102 154.833 23.3549 154.833 23.2996 154.821C22.9402 154.771 22.5947 154.721 22.2353 154.671C22.1938 154.658 22.1385 154.658 22.0971 154.646C21.9036 154.621 21.7239 154.596 21.5304 154.558C21.4613 154.546 21.406 154.533 21.3369 154.533C21.171 154.508 20.9913 154.483 20.8255 154.458C20.7564 154.446 20.6872 154.433 20.6181 154.421C20.4523 154.396 20.2864 154.371 20.1344 154.346C20.0653 154.333 19.9961 154.321 19.927 154.308C19.7612 154.283 19.5953 154.258 19.4294 154.233C19.3742 154.221 19.305 154.208 19.2498 154.208C19.0701 154.183 18.8904 154.146 18.7107 154.121C18.6692 154.108 18.6278 154.108 18.5863 154.096C18.3652 154.058 18.1578 154.021 17.9367 153.983C17.4944 153.908 17.0659 153.833 16.6374 153.758C16.6236 153.758 16.6098 153.758 16.5959 153.745C16.3195 153.695 16.0569 153.645 15.7943 153.595C15.7666 153.595 15.739 153.583 15.7252 153.583C15.4626 153.533 15.1861 153.483 14.9235 153.433C14.8959 153.433 14.8682 153.42 14.8406 153.42C14.5918 153.37 14.343 153.32 14.0942 153.27C14.0804 153.27 14.0665 153.27 14.0527 153.258C13.8039 153.208 13.5551 153.158 13.3063 153.095C13.2649 153.083 13.2372 153.083 13.1958 153.07C12.712 152.97 12.242 152.858 11.7859 152.758C11.7445 152.745 11.703 152.733 11.6615 152.733C11.4404 152.683 11.2192 152.633 10.9981 152.57C10.9843 152.57 10.9842 152.57 10.9704 152.57C10.7631 152.52 10.5558 152.47 10.3623 152.42C10.3208 152.407 10.2793 152.395 10.2379 152.395C10.0305 152.345 9.83703 152.295 9.64352 152.245C9.61588 152.232 9.58824 152.232 9.56059 152.22C9.39473 152.17 9.21504 152.132 9.04918 152.082C9.00771 152.07 8.96625 152.057 8.93861 152.045C8.75892 151.995 8.57923 151.945 8.39955 151.895C8.35808 151.882 8.33044 151.87 8.3028 151.87C8.15076 151.82 7.99871 151.782 7.84667 151.732C7.81903 151.72 7.79139 151.72 7.76374 151.707C7.59788 151.657 7.43202 151.607 7.27998 151.545C7.23851 151.532 7.21086 151.52 7.18322 151.507C7.03118 151.457 6.87914 151.407 6.7271 151.344H6.71328C6.56124 151.294 6.40919 151.232 6.25715 151.182C6.22951 151.169 6.20187 151.157 6.17422 151.144C6.02218 151.094 5.88396 151.032 5.74574 150.982C5.73192 150.982 5.7181 150.969 5.70427 150.969C5.57988 150.919 5.45548 150.869 5.33108 150.807C5.30344 150.794 5.28962 150.782 5.26197 150.782C5.13758 150.732 5.01318 150.669 4.88878 150.619C4.87496 150.607 4.86114 150.607 4.83349 150.594C4.72292 150.544 4.61234 150.494 4.50177 150.432C4.48795 150.419 4.47412 150.419 4.4603 150.407C4.34973 150.344 4.23915 150.294 4.12858 150.231C4.11475 150.219 4.08711 150.206 4.07329 150.206C3.96271 150.144 3.86596 150.094 3.7692 150.031C3.67245 149.969 3.5757 149.919 3.49277 149.856C3.47894 149.844 3.46512 149.831 3.4513 149.831C3.36837 149.769 3.27162 149.719 3.18869 149.656C3.10575 149.594 3.03664 149.544 2.96753 149.481C2.95371 149.469 2.93989 149.456 2.92607 149.456C2.85696 149.394 2.78785 149.344 2.73256 149.281C2.71874 149.269 2.71874 149.269 2.70492 149.256C2.64963 149.206 2.59434 149.156 2.55288 149.093C2.53905 149.081 2.53905 149.068 2.52523 149.068C2.46994 149.006 2.42848 148.956 2.38701 148.893C2.37319 148.881 2.37319 148.868 2.35937 148.868C2.31791 148.818 2.29026 148.768 2.24879 148.718C2.24879 148.706 2.23497 148.706 2.23497 148.693C2.19351 148.631 2.16586 148.581 2.13822 148.518C2.13822 148.506 2.1244 148.493 2.1244 148.481C2.09675 148.431 2.08293 148.381 2.05529 148.318V148.306C2.04146 148.243 2.02764 148.193 2.01382 148.131C2.01382 148.118 2.01382 148.106 2.01382 148.093C2 148.031 2 147.98 2 147.918L2.63581 179.056C2.63581 179.131 2.64963 179.206 2.64963 179.282C2.64963 179.294 2.64963 179.319 2.66345 179.332C2.67727 179.407 2.6911 179.482 2.70492 179.557C2.70492 179.569 2.70492 179.569 2.70492 179.582C2.71874 179.657 2.74638 179.719 2.77403 179.794C2.77403 179.807 2.78785 179.832 2.78785 179.844C2.8155 179.919 2.84314 179.994 2.8846 180.069C2.8846 180.082 2.89842 180.094 2.89842 180.107C2.92607 180.169 2.96753 180.244 3.009 180.307C3.02282 180.319 3.02282 180.332 3.03664 180.344C3.07811 180.42 3.1334 180.495 3.18869 180.57C3.20251 180.582 3.20251 180.595 3.21633 180.607C3.27162 180.682 3.31308 180.745 3.36837 180.82C3.38219 180.832 3.38219 180.832 3.39602 180.845C3.4513 180.92 3.52041 180.995 3.58952 181.07L3.60334 181.082C3.61717 181.095 3.61716 181.095 3.63099 181.107C3.70009 181.182 3.78303 181.257 3.85214 181.332C3.93507 181.407 4.018 181.482 4.10093 181.57C4.11476 181.583 4.12858 181.595 4.1424 181.608C4.23915 181.683 4.32208 181.758 4.41884 181.845C4.51559 181.92 4.61234 181.995 4.72292 182.07C4.73674 182.083 4.75056 182.095 4.77821 182.108C4.88878 182.183 4.99936 182.258 5.10993 182.333C5.12375 182.345 5.13757 182.345 5.1514 182.358C5.26197 182.433 5.37255 182.495 5.48313 182.57C5.49695 182.583 5.51077 182.595 5.53841 182.608C5.66281 182.683 5.7872 182.758 5.9116 182.833C5.93925 182.846 5.95307 182.858 5.98071 182.871C6.10511 182.946 6.22951 183.008 6.35391 183.083C6.36773 183.083 6.36773 183.096 6.38155 183.096C6.38155 183.096 6.38155 183.096 6.39537 183.096C6.53359 183.171 6.67181 183.246 6.82385 183.321C6.85149 183.333 6.87914 183.346 6.90678 183.371C7.05882 183.446 7.19704 183.521 7.3629 183.596C7.3629 183.596 7.37673 183.596 7.37673 183.608C7.52877 183.683 7.68081 183.746 7.83285 183.821C7.87432 183.833 7.90196 183.846 7.94343 183.871C8.09547 183.946 8.26133 184.009 8.42719 184.084C8.45484 184.096 8.48248 184.109 8.51013 184.121C8.59306 184.159 8.66216 184.184 8.7451 184.221C8.81421 184.246 8.89714 184.284 8.96625 184.309C9.00771 184.321 9.03536 184.334 9.07683 184.346C9.25651 184.421 9.42237 184.484 9.60206 184.559C9.64352 184.571 9.68499 184.584 9.71263 184.609C9.87849 184.671 10.0444 184.734 10.2102 184.796C10.2379 184.809 10.2655 184.821 10.2932 184.821C10.4867 184.896 10.6802 184.959 10.8737 185.034C10.8875 185.034 10.9013 185.047 10.929 185.047C10.9566 185.059 10.9704 185.059 10.9981 185.072C11.1916 185.134 11.3989 185.209 11.6062 185.272C11.6201 185.272 11.6201 185.272 11.6339 185.284C11.855 185.359 12.0624 185.422 12.2835 185.497C12.325 185.509 12.3664 185.522 12.4079 185.534C12.864 185.672 13.3202 185.809 13.8039 185.947C13.8454 185.959 13.873 185.972 13.9145 185.972C14.1633 186.047 14.3983 186.109 14.6471 186.184C14.6609 186.184 14.6747 186.197 14.6885 186.197C14.9373 186.26 15.1861 186.335 15.4349 186.397C15.4626 186.41 15.4902 186.41 15.5178 186.422C15.7805 186.485 16.0431 186.56 16.3057 186.622C16.3333 186.635 16.361 186.635 16.3748 186.647C16.6374 186.71 16.9 186.785 17.1627 186.847C17.1765 186.847 17.1765 186.847 17.1903 186.86H17.2041C17.8261 187.01 18.4757 187.16 19.1392 187.31C19.1806 187.322 19.2221 187.322 19.2636 187.335C19.4433 187.373 19.6091 187.41 19.7888 187.448C19.8165 187.448 19.8303 187.46 19.8579 187.46C19.8994 187.473 19.9409 187.473 19.9685 187.485C20.1344 187.523 20.3002 187.56 20.4523 187.585C20.5214 187.598 20.5905 187.61 20.6596 187.623C20.8255 187.66 20.9775 187.685 21.1434 187.723C21.1848 187.735 21.2263 187.735 21.2678 187.748C21.2954 187.748 21.323 187.76 21.3507 187.76C21.5166 187.798 21.6824 187.823 21.8483 187.86C21.9174 187.873 21.9865 187.885 22.0418 187.898C22.2215 187.935 22.415 187.973 22.5947 188.01C22.6361 188.023 22.6776 188.023 22.7191 188.035H22.7329C23.0784 188.098 23.424 188.173 23.7833 188.235C23.811 188.235 23.8525 188.248 23.8801 188.248C23.9077 188.248 23.9354 188.26 23.9492 188.26C24.2948 188.323 24.6403 188.385 24.9859 188.448C25.0135 188.448 25.0411 188.46 25.0688 188.46C25.1103 188.46 25.1379 188.473 25.1794 188.473C25.5111 188.536 25.8566 188.598 26.2022 188.648C26.2298 188.648 26.2436 188.661 26.2713 188.661C26.2851 188.661 26.2989 188.661 26.2989 188.661C26.3266 188.661 26.3542 188.673 26.3819 188.673C26.7412 188.736 27.1006 188.798 27.46 188.861C27.4876 188.861 27.5153 188.873 27.5429 188.873C27.5567 188.873 27.5706 188.873 27.5844 188.886C27.9023 188.936 28.234 188.986 28.5519 189.048C28.5796 189.048 28.6072 189.061 28.6348 189.061C28.6763 189.073 28.7316 189.073 28.7731 189.086C29.0633 189.136 29.3536 189.173 29.6577 189.223C29.6991 189.223 29.7268 189.236 29.7682 189.236C29.7821 189.236 29.7959 189.236 29.8097 189.248C30.1553 189.298 30.5008 189.348 30.8464 189.398C30.874 189.398 30.8878 189.411 30.9155 189.411C30.9569 189.411 30.9984 189.423 31.026 189.423C31.3439 189.473 31.6618 189.511 31.9936 189.561C32.0212 189.561 32.0489 189.573 32.0765 189.573C32.0903 189.573 32.1041 189.573 32.118 189.573C32.4497 189.623 32.7952 189.674 33.1408 189.711H33.1546C33.1684 189.711 33.1823 189.711 33.1961 189.724C33.514 189.761 33.8319 189.811 34.1498 189.849C34.1774 189.849 34.2051 189.861 34.2465 189.861C34.2742 189.861 34.3018 189.874 34.3295 189.874C34.6612 189.924 35.0068 189.961 35.3385 190.011C35.3385 190.011 35.3385 190.011 35.3523 190.011C35.7117 190.061 36.0849 190.111 36.458 190.149H36.4719C36.4857 190.149 36.4995 190.149 36.5133 190.149C36.8312 190.186 37.1491 190.224 37.467 190.261C37.4947 190.261 37.5223 190.261 37.5362 190.274C37.5638 190.274 37.5914 190.274 37.6191 190.286C37.937 190.324 38.2549 190.361 38.5866 190.399C38.6004 190.399 38.6143 190.399 38.6281 190.399H38.6419C39.3468 190.486 40.0656 190.561 40.7843 190.636C40.7981 190.636 40.812 190.636 40.8258 190.636C40.8534 190.636 40.8811 190.636 40.9087 190.649C41.2128 190.686 41.5031 190.711 41.8071 190.749C41.8348 190.749 41.8624 190.761 41.9039 190.761C41.9315 190.761 41.9592 190.761 41.9868 190.774C42.2909 190.812 42.595 190.837 42.8991 190.874C42.9267 190.874 42.9544 190.874 42.982 190.887C42.9958 190.887 43.0096 190.887 43.0235 190.887C43.7284 190.962 44.4471 191.024 45.1659 191.099C45.1797 191.099 45.1797 191.099 45.1935 191.099C45.2212 191.099 45.2626 191.112 45.2903 191.112C45.5805 191.137 45.8708 191.162 46.161 191.199C46.1887 191.199 46.2163 191.199 46.244 191.212C46.2993 191.212 46.3545 191.224 46.4098 191.224C46.6586 191.249 46.9212 191.274 47.17 191.299C47.2253 191.299 47.2668 191.312 47.3221 191.312C47.3774 191.312 47.4188 191.324 47.4741 191.324C47.7229 191.349 47.9717 191.362 48.2205 191.387C48.2896 191.387 48.3449 191.399 48.414 191.399C48.4555 191.399 48.4831 191.412 48.5246 191.412C48.7872 191.437 49.036 191.449 49.2986 191.474C49.3677 191.474 49.4368 191.487 49.5059 191.487C49.5336 191.487 49.5474 191.487 49.5751 191.487C49.8653 191.512 50.1556 191.537 50.4458 191.562C50.4873 191.562 50.5426 191.574 50.5841 191.574H50.5979C50.9434 191.599 51.289 191.624 51.6345 191.662C51.6483 191.662 51.6483 191.662 51.6622 191.662C51.7313 191.662 51.8142 191.674 51.8833 191.674C52.1459 191.699 52.3947 191.712 52.6573 191.737C52.685 191.737 52.7126 191.737 52.7541 191.749C52.8509 191.762 52.9476 191.762 53.0582 191.774C53.224 191.787 53.3761 191.799 53.542 191.812C53.5696 191.812 53.6111 191.812 53.6387 191.824C53.7078 191.824 53.7769 191.837 53.8599 191.837C54.2192 191.862 54.5786 191.887 54.9518 191.912C55.09 191.924 55.242 191.937 55.3803 191.937C55.477 191.949 55.5876 191.949 55.6843 191.962C55.8087 191.975 55.9193 191.974 56.0437 191.987C56.4031 192.012 56.7763 192.037 57.1495 192.062C57.2324 192.062 57.3292 192.075 57.4121 192.075C57.5227 192.087 57.6332 192.087 57.73 192.1C57.9097 192.112 58.0755 192.125 58.2552 192.137C58.6146 192.162 58.9601 192.175 59.3195 192.2C59.3748 192.2 59.4163 192.2 59.4715 192.212C59.5683 192.212 59.6651 192.225 59.7756 192.225C59.983 192.237 60.1903 192.25 60.3976 192.262C60.757 192.287 61.1164 192.3 61.4757 192.325C61.5034 192.325 61.531 192.325 61.5448 192.325C61.6416 192.325 61.7384 192.337 61.8351 192.337C62.0701 192.35 62.3189 192.362 62.5538 192.375C62.8994 192.387 63.2588 192.412 63.6181 192.425C63.6319 192.425 63.632 192.425 63.6458 192.425C63.7425 192.425 63.8393 192.437 63.9222 192.437C64.171 192.45 64.4336 192.462 64.6824 192.475C65.028 192.487 65.3735 192.512 65.7329 192.525C65.8296 192.525 65.9402 192.537 66.0508 192.537C66.3134 192.55 66.576 192.562 66.8386 192.575C67.1704 192.587 67.5159 192.6 67.8615 192.612C67.972 192.612 68.0826 192.625 68.1932 192.625C68.4282 192.637 68.6769 192.65 68.9119 192.65C69.2575 192.662 69.603 192.675 69.9624 192.687C69.9762 192.687 69.99 192.687 70.0039 192.687C70.1283 192.687 70.2527 192.7 70.3771 192.7C70.5844 192.712 70.8055 192.712 71.0129 192.725C71.3308 192.737 71.6625 192.75 71.9942 192.762C72.0357 192.762 72.091 192.762 72.1324 192.762C72.2568 192.762 72.3951 192.775 72.5194 192.775C72.6715 192.775 72.8235 192.787 72.9618 192.787C73.2935 192.8 73.6114 192.812 73.9431 192.812C74.0537 192.812 74.1643 192.812 74.2748 192.825C74.4131 192.825 74.5374 192.837 74.6757 192.837C74.7586 192.837 74.8554 192.837 74.9383 192.85C75.2562 192.862 75.5741 192.862 75.892 192.875C76.0993 192.875 76.3066 192.887 76.514 192.887C76.6107 192.887 76.7075 192.887 76.8042 192.9C76.8181 192.9 76.8319 192.9 76.8457 192.9C77.1636 192.912 77.4815 192.912 77.7994 192.925C78.1173 192.925 78.4352 192.937 78.7531 192.937C78.7808 192.937 78.8084 192.937 78.8222 192.937C78.9052 192.937 78.9881 192.937 79.0572 192.937C79.2507 192.937 79.4442 192.95 79.6377 192.95C79.9418 192.95 80.2321 192.962 80.5362 192.962C80.702 192.962 80.8541 192.962 81.0199 192.975C81.1029 192.975 81.172 192.975 81.2549 192.975C81.3102 192.975 81.3655 192.975 81.4346 192.975C81.7387 192.975 82.0289 192.987 82.333 192.987C82.6233 192.987 82.9135 192.987 83.19 193C83.2453 193 83.3005 193 83.342 193C83.3973 193 83.4526 193 83.5079 193C83.6876 193 83.8672 193 84.0469 193C84.3372 193 84.6275 193 84.9177 193C85.1527 193 85.3877 193 85.6365 193C85.6641 193 85.6917 193 85.7194 193C85.747 193 85.7608 193 85.7885 193C85.9682 193 86.1479 193 86.3414 193C86.521 193 86.7007 193 86.8942 193C87.0739 193 87.2536 193 87.4471 193C87.6268 193 87.8065 193 88 193C88.1106 193 88.2073 193 88.3179 193C88.4285 193 88.5252 193 88.6358 193C88.7464 193 88.8431 193 88.9399 193C89.0366 193 89.1472 193 89.244 193C89.5204 193 89.7969 193 90.0871 193C90.1424 193 90.1977 193 90.2392 193C90.2806 193 90.3221 193 90.3774 193C90.5571 193 90.7367 193 90.9303 193C91.2067 193 91.4831 193 91.7596 193C92.0222 193 92.2848 193 92.5336 193C92.5612 193 92.5751 193 92.6027 193C92.8791 193 93.1418 193 93.4182 192.987C93.6946 192.987 93.9711 192.987 94.2475 192.975C94.3996 192.975 94.5654 192.975 94.7175 192.975C94.7866 192.975 94.8557 192.975 94.9248 192.975C94.9801 192.975 95.0215 192.975 95.0768 192.975C95.3533 192.975 95.6297 192.962 95.9061 192.962C96.224 192.962 96.542 192.95 96.8599 192.95C96.9013 192.95 96.9428 192.95 96.9704 192.95C97.0672 192.95 97.1639 192.95 97.2469 192.95C97.4266 192.95 97.62 192.937 97.7997 192.937C98.1176 192.937 98.4356 192.925 98.7535 192.925C98.8779 192.925 98.9884 192.925 99.1128 192.912C99.2372 192.912 99.3478 192.912 99.4722 192.9C99.5551 192.9 99.6242 192.9 99.7072 192.9C100.025 192.887 100.343 192.887 100.647 192.875C100.868 192.875 101.103 192.862 101.324 192.862C101.421 192.862 101.518 192.862 101.615 192.85C101.919 192.837 102.223 192.837 102.527 192.825C102.845 192.812 103.149 192.812 103.467 192.8C103.494 192.8 103.522 192.8 103.55 192.8C103.757 192.787 103.964 192.787 104.172 192.775C104.448 192.762 104.725 192.762 105.015 192.75C105.167 192.75 105.319 192.737 105.485 192.737C105.734 192.725 105.968 192.725 106.217 192.712C106.328 192.712 106.438 192.7 106.549 192.7C106.922 192.687 107.295 192.675 107.669 192.662C107.876 192.65 108.083 192.65 108.277 192.637C108.705 192.625 109.134 192.6 109.562 192.587C109.659 192.587 109.742 192.575 109.839 192.575C110.115 192.562 110.378 192.55 110.64 192.537C111.027 192.525 111.401 192.5 111.788 192.487C112.05 192.475 112.313 192.462 112.575 192.45C112.686 192.45 112.783 192.437 112.893 192.437C113.225 192.425 113.543 192.4 113.875 192.387C114.068 192.375 114.262 192.362 114.455 192.362C115.022 192.337 115.589 192.3 116.155 192.262C116.197 192.262 116.238 192.262 116.28 192.25C116.459 192.237 116.653 192.225 116.833 192.212C117.275 192.187 117.717 192.162 118.159 192.137C118.381 192.125 118.602 192.112 118.809 192.1C118.989 192.087 119.182 192.075 119.362 192.062C119.597 192.05 119.832 192.025 120.067 192.012C120.26 192 120.468 191.987 120.661 191.974C121.214 191.937 121.753 191.899 122.306 191.862C122.347 191.862 122.403 191.849 122.444 191.849C122.458 191.849 122.458 191.849 122.472 191.849H122.486C122.5 191.849 122.513 191.849 122.541 191.849C123.108 191.812 123.661 191.762 124.227 191.724C124.255 191.724 124.269 191.724 124.296 191.724C124.31 191.724 124.31 191.724 124.324 191.724C124.877 191.687 125.416 191.637 125.969 191.599C126.01 191.599 126.038 191.599 126.079 191.587C126.093 191.587 126.121 191.587 126.135 191.587C126.66 191.549 127.199 191.499 127.71 191.449C127.752 191.449 127.78 191.449 127.821 191.437C127.849 191.437 127.876 191.437 127.904 191.424C128.429 191.374 128.941 191.337 129.466 191.287C129.493 191.287 129.521 191.287 129.549 191.274C129.59 191.274 129.618 191.262 129.659 191.262C130.544 191.174 131.428 191.099 132.299 191.012C132.327 191.012 132.355 191.012 132.382 190.999C132.41 190.999 132.424 190.999 132.451 190.987C133.336 190.899 134.207 190.812 135.064 190.711C135.091 190.711 135.105 190.711 135.133 190.699C135.147 190.699 135.16 190.699 135.174 190.699C135.63 190.649 136.073 190.599 136.515 190.549C136.529 190.549 136.529 190.549 136.543 190.549C136.556 190.549 136.57 190.549 136.598 190.549C137.482 190.449 138.367 190.349 139.238 190.236C139.266 190.236 139.279 190.236 139.307 190.224C139.321 190.224 139.348 190.224 139.362 190.211C139.791 190.161 140.219 190.099 140.648 190.049C141.601 189.924 142.527 189.799 143.44 189.674C143.467 189.674 143.495 189.661 143.523 189.661C143.536 189.661 143.55 189.661 143.578 189.648C144.006 189.586 144.421 189.523 144.836 189.461C144.863 189.461 144.891 189.448 144.919 189.448C144.946 189.448 144.974 189.436 145.002 189.436C145.416 189.373 145.817 189.311 146.232 189.248C146.246 189.248 146.259 189.248 146.287 189.236C146.315 189.236 146.342 189.223 146.37 189.223C146.798 189.161 147.227 189.086 147.642 189.023H147.655C147.669 189.023 147.683 189.023 147.697 189.011C148.112 188.948 148.526 188.873 148.941 188.811C148.955 188.811 148.982 188.798 148.996 188.798C149.01 188.798 149.024 188.798 149.038 188.798C149.121 188.786 149.203 188.773 149.286 188.761C149.438 188.736 149.59 188.711 149.743 188.686C149.756 188.686 149.784 188.673 149.798 188.673C149.867 188.661 149.95 188.648 150.019 188.636C150.116 188.623 150.226 188.598 150.323 188.586C150.351 188.586 150.378 188.573 150.42 188.573C150.517 188.561 150.613 188.536 150.71 188.523C150.834 188.498 150.959 188.473 151.083 188.46C151.18 188.448 151.291 188.423 151.387 188.41C151.456 188.398 151.526 188.385 151.608 188.373C151.636 188.373 151.664 188.36 151.691 188.36C152.037 188.298 152.383 188.235 152.714 188.173C152.742 188.173 152.756 188.16 152.783 188.16C152.811 188.16 152.839 188.148 152.88 188.148C153.226 188.085 153.571 188.01 153.917 187.948C153.917 187.948 153.917 187.948 153.931 187.948H153.944C154.29 187.873 154.635 187.81 154.981 187.735C154.995 187.735 155.022 187.723 155.036 187.723C155.05 187.723 155.05 187.723 155.064 187.723C155.396 187.648 155.727 187.585 156.045 187.51C156.073 187.51 156.087 187.498 156.114 187.498C156.142 187.498 156.156 187.485 156.184 187.485C156.474 187.423 156.778 187.36 157.054 187.285C157.345 187.222 157.621 187.16 157.897 187.085C157.925 187.085 157.939 187.072 157.967 187.072C157.98 187.072 157.994 187.06 158.008 187.06C158.284 186.997 158.561 186.922 158.837 186.86H158.851C158.865 186.86 158.879 186.847 158.893 186.847C159.155 186.785 159.418 186.722 159.667 186.647C159.68 186.647 159.694 186.635 159.708 186.635C159.722 186.635 159.722 186.635 159.736 186.622C159.985 186.56 160.22 186.497 160.468 186.435H160.482C160.496 186.435 160.51 186.435 160.51 186.422C160.731 186.36 160.952 186.31 161.159 186.247C161.187 186.247 161.201 186.235 161.229 186.235C161.242 186.235 161.256 186.222 161.284 186.222C161.74 186.097 162.182 185.972 162.611 185.847C162.625 185.847 162.638 185.834 162.666 185.834C162.694 185.822 162.721 185.822 162.735 185.809C162.901 185.759 163.053 185.709 163.219 185.659C163.247 185.647 163.274 185.647 163.302 185.634C163.316 185.634 163.329 185.622 163.343 185.622C163.73 185.509 164.104 185.384 164.477 185.259C164.491 185.259 164.504 185.247 164.518 185.247C164.546 185.234 164.573 185.222 164.601 185.222C164.739 185.172 164.878 185.134 165.016 185.084C165.043 185.072 165.071 185.059 165.099 185.059C165.126 185.047 165.14 185.047 165.168 185.034C165.292 184.996 165.417 184.946 165.541 184.909C165.569 184.896 165.61 184.884 165.638 184.871C165.652 184.871 165.652 184.859 165.665 184.859C165.831 184.796 165.983 184.746 166.135 184.684C166.149 184.684 166.163 184.671 166.177 184.671C166.315 184.621 166.439 184.571 166.578 184.521C166.591 184.521 166.605 184.509 166.619 184.509C166.647 184.496 166.688 184.484 166.716 184.471C166.813 184.434 166.909 184.396 167.006 184.359C167.034 184.346 167.061 184.334 167.089 184.334C167.117 184.321 167.144 184.309 167.172 184.296C167.213 184.284 167.255 184.259 167.283 184.246C167.324 184.221 167.379 184.209 167.421 184.184C167.448 184.171 167.49 184.159 167.518 184.146C167.531 184.134 167.559 184.134 167.573 184.121C167.67 184.084 167.752 184.046 167.849 184.009C167.877 183.996 167.918 183.984 167.946 183.971C167.96 183.971 167.96 183.959 167.974 183.959C168.098 183.896 168.236 183.846 168.361 183.783C168.361 183.783 168.374 183.783 168.374 183.771C168.499 183.721 168.609 183.658 168.72 183.608C168.734 183.608 168.734 183.596 168.748 183.596C168.775 183.583 168.803 183.571 168.831 183.558C168.914 183.521 168.996 183.483 169.066 183.446C169.079 183.433 169.093 183.433 169.107 183.421C169.135 183.408 169.148 183.396 169.176 183.383C169.245 183.346 169.328 183.308 169.397 183.271C169.411 183.258 169.439 183.246 169.453 183.246C169.466 183.233 169.494 183.221 169.508 183.221C169.577 183.183 169.66 183.146 169.729 183.108C169.757 183.096 169.77 183.083 169.798 183.071C169.812 183.058 169.826 183.058 169.826 183.046C169.909 183.008 169.978 182.958 170.061 182.921C170.075 182.908 170.102 182.896 170.116 182.883C170.116 182.883 170.13 182.883 170.13 182.871C170.323 182.758 170.517 182.645 170.697 182.52C170.71 182.52 170.71 182.508 170.71 182.508C170.793 182.458 170.876 182.408 170.945 182.358L170.959 182.345C170.973 182.333 170.987 182.32 171.001 182.308C171.07 182.27 171.125 182.22 171.18 182.183C171.194 182.183 171.194 182.17 171.208 182.17C171.222 182.158 171.236 182.145 171.249 182.133C171.305 182.095 171.36 182.058 171.415 182.008C171.429 181.995 171.443 181.995 171.443 181.983C171.457 181.97 171.471 181.958 171.484 181.958C171.54 181.92 171.581 181.883 171.636 181.845C171.65 181.833 171.664 181.82 171.678 181.82C171.692 181.808 171.692 181.808 171.706 181.795C171.761 181.758 171.802 181.72 171.844 181.67C171.858 181.658 171.871 181.645 171.885 181.633L171.899 181.62C171.954 181.583 171.996 181.532 172.037 181.495C172.051 181.482 172.065 181.47 172.079 181.457L172.093 181.445C172.148 181.395 172.189 181.345 172.245 181.295C172.245 181.282 172.258 181.282 172.258 181.27C172.369 181.157 172.48 181.032 172.576 180.92C172.59 180.907 172.59 180.895 172.604 180.882C172.645 180.832 172.673 180.795 172.715 180.745L172.728 180.732C172.742 180.72 172.742 180.707 172.756 180.695C172.784 180.657 172.811 180.62 172.839 180.57C172.839 180.557 172.853 180.557 172.853 180.545C172.867 180.532 172.867 180.52 172.88 180.507C172.908 180.47 172.922 180.432 172.95 180.395C172.95 180.382 172.963 180.369 172.963 180.357C172.963 180.344 172.977 180.332 172.977 180.319C172.991 180.282 173.019 180.244 173.032 180.207C173.032 180.194 173.046 180.182 173.06 180.169C173.06 180.157 173.074 180.157 173.074 180.144C173.088 180.107 173.102 180.069 173.129 180.032C173.129 180.019 173.143 180.007 173.143 179.982V179.969C173.157 179.919 173.171 179.882 173.198 179.832C173.198 179.819 173.212 179.807 173.212 179.794C173.212 179.794 173.212 179.794 173.212 179.782C173.226 179.719 173.254 179.657 173.267 179.594C173.267 179.582 173.267 179.569 173.267 179.569C173.281 179.519 173.295 179.469 173.295 179.419V179.407C173.295 179.394 173.295 179.369 173.295 179.357C173.295 179.319 173.309 179.282 173.309 179.244C173.309 179.231 173.309 179.231 173.309 179.219C173.309 179.206 173.309 179.206 173.309 179.194C173.309 179.181 173.309 179.181 173.309 179.169C173.309 179.156 173.309 179.156 173.309 179.144C173.309 179.131 173.309 179.131 173.309 179.119L173.945 147.98C174 147.943 174 147.968 174 148.006Z" fill="url(#paint0_linear)"/>
<path d="M88.0138 138C98.586 138 108.73 138.238 118.072 138.663C127.525 139.101 136.259 139.726 143.86 140.527C151.613 141.34 158.274 142.328 163.332 143.454C168.528 144.617 172.08 145.918 173.42 147.331C174.802 148.795 173.683 150.233 170.394 151.584C167.008 152.973 161.328 154.249 153.741 155.362C145.988 156.488 136.3 157.426 125.189 158.076C113.926 158.739 101.322 159.114 88 159.114C74.6777 159.114 62.0741 158.739 50.8109 158.076C39.6998 157.426 30.0121 156.488 22.2592 155.362C14.6722 154.261 9.00604 152.973 5.60637 151.584C2.31726 150.233 1.19786 148.795 2.57983 147.331C3.92036 145.918 7.47204 144.605 12.6683 143.454C17.7263 142.328 24.3875 141.34 32.1404 140.527C39.7551 139.726 48.4892 139.088 57.9281 138.663C67.2979 138.238 77.4417 138 88.0138 138Z" fill="url(#paint1_linear)"/>
<ellipse cx="88.5" cy="151.5" rx="47.5" ry="5.5" fill="url(#paint2_radial)"/>
<g filter="url(#filter0_dd)">
<path d="M88 30C55.9701 30 30 55.9701 30 88C30 120.03 55.9701 146 88 146C120.03 146 146 120.03 146 88C146 55.9701 119.857 30 88 30Z" fill="url(#paint3_linear)"/>
<path opacity="0.4" d="M145.48 87.8268H130.071L141.152 66.1851C143.922 72.7642 145.48 80.2089 145.48 87.8268Z" fill="url(#paint4_linear)"/>
<path d="M58.3945 58.5674L73.4572 60.2987L60.299 73.6301L58.3945 58.5674Z" fill="url(#paint5_linear)"/>
<path opacity="0.5" d="M61.5104 88.0001L59.9522 101.851L46.4478 88.1732L59.9522 74.4956L61.5104 88.0001Z" fill="url(#paint6_linear)"/>
<path d="M59.9528 73.9763L46.2752 87.8271L35.0215 65.839L58.0484 58.5674L59.9528 73.9763Z" fill="url(#paint7_linear)"/>
<path opacity="0.5" d="M46.2752 88.5195L59.9528 102.37L58.3946 117.26L35.0215 109.988L46.2752 88.5195Z" fill="url(#paint8_linear)"/>
<path d="M60.298 102.716L72.5905 114.836L58.7397 117.26L60.298 102.716Z" fill="url(#paint9_linear)"/>
<path d="M60.2991 102.197L61.8573 87.9998L60.126 74.1491L73.8036 60.2983L87.8275 61.8565L101.678 60.2983L115.702 74.3222L114.49 87.9998L115.702 101.677L102.544 114.836L87.6544 112.239L72.7648 114.663L60.2991 102.197Z" fill="url(#paint10_linear)"/>
<path d="M60.4712 101.851C74.3219 87.9998 88.1727 74.1491 102.023 60.2983L88.1727 61.8565L84.5369 61.5103C76.919 69.1282 69.3011 76.7461 61.6832 84.364L62.0294 87.9998L60.4712 101.851Z" fill="url(#paint11_linear)"/>
<path d="M113.105 71.3789L105.314 63.5879C91.4635 77.4386 77.4396 91.4625 63.5889 105.313L71.3799 113.104C85.2307 99.2536 99.0814 85.2297 113.105 71.3789Z" fill="url(#paint12_linear)"/>
<path d="M88.0006 112.412L90.4245 112.932C98.5618 104.794 106.699 96.6569 114.836 88.5196V88.1734L116.048 75.0151L76.5737 114.49L88.0006 112.412Z" fill="url(#paint13_linear)"/>
<path d="M116.395 74.1495L117.78 58.5674L140.806 66.0122L129.899 87.654L116.395 74.1495Z" fill="url(#paint14_linear)"/>
<path d="M129.726 88.0003L116.395 101.332L115.183 88.0003L116.395 74.6689L129.726 88.0003Z" fill="url(#paint15_linear)"/>
<path opacity="0.4" d="M116.048 73.8032L102.544 60.2987L117.434 58.5674L116.048 73.8032Z" fill="url(#paint16_linear)"/>
<path d="M116.048 102.197L117.434 117.433L103.41 115.009L116.048 102.197Z" fill="url(#paint17_linear)"/>
<path d="M116.395 101.851L129.899 88.3462L140.806 109.815L117.78 117.26L116.395 101.851Z" fill="#EA661D"/>
<path opacity="0.2" d="M140.979 65.6659L117.952 58.2211L128.686 47.4868C134.054 52.6808 138.209 58.9137 140.979 65.6659Z" fill="url(#paint18_linear)"/>
<path d="M128.513 47.1402L117.605 58.0476C117.605 58.0476 117.605 58.0477 117.605 57.8745L110.161 34.8477C117.086 37.7909 123.319 41.9461 128.513 47.1402Z" fill="url(#paint19_linear)"/>
<path d="M117.433 58.0474L102.197 59.9519L88.3467 46.1011L109.988 35.0205L117.433 58.0474Z" fill="url(#paint20_linear)"/>
<path opacity="0.5" d="M88.1724 30.3462C95.7903 30.3462 103.062 31.9044 109.814 34.6745L88.1724 45.7552V30.3462Z" fill="url(#paint21_linear)"/>
<path d="M87.9994 46.2744L101.677 59.952L87.9994 61.5102L74.3218 59.952L87.9994 46.2744Z" fill="url(#paint22_linear)"/>
<path opacity="0.5" d="M87.827 30.3462V45.582L66.3584 34.5014C72.9375 31.9044 80.2091 30.5193 87.827 30.3462Z" fill="url(#paint23_linear)"/>
<path d="M87.654 46.1011L73.9763 59.9519L58.5674 58.2205L66.0122 35.0205L87.654 46.1011Z" fill="url(#paint24_linear)"/>
<path d="M65.6657 34.8477L58.2209 57.8745V58.0476L47.3135 47.1402C52.5075 41.9461 58.7403 37.7909 65.6657 34.8477Z" fill="url(#paint25_linear)"/>
<path d="M46.9671 47.4868L57.8745 58.3943L34.8477 65.4928C37.7909 58.7405 41.9462 52.6808 46.9671 47.4868Z" fill="url(#paint26_linear)"/>
<path d="M34.6739 66.0122L45.7545 88.0003H30.1724C30.3455 80.2092 31.9037 72.7644 34.6739 66.0122Z" fill="url(#paint27_linear)"/>
<path d="M30.3467 88.1733H45.9288L34.675 109.642C31.9049 103.236 30.3467 95.9644 30.3467 88.1733Z" fill="url(#paint28_linear)"/>
<path d="M34.8477 110.334L58.2208 117.779L47.1402 128.859C41.9461 123.492 37.7909 117.259 34.8477 110.334Z" fill="url(#paint29_linear)"/>
<path d="M47.4858 128.86L58.5665 117.952L65.8381 141.152C58.9127 138.209 52.6799 134.054 47.4858 128.86Z" fill="url(#paint30_linear)"/>
<path d="M58.7397 117.606L72.9368 115.182L87.8263 130.072L66.1845 140.979L58.7397 117.606Z" fill="#EA661D"/>
<path opacity="0.4" d="M87.827 145.654C80.2091 145.654 72.9375 144.095 66.3584 141.498L87.827 130.764V145.654Z" fill="url(#paint31_linear)"/>
<path d="M73.2837 115.182L88.0001 112.758L102.543 115.182L88.0001 129.899L73.2837 115.182Z" fill="url(#paint32_linear)"/>
<path opacity="0.5" d="M88.1724 145.654V130.591L109.641 141.326C103.062 144.096 95.7903 145.481 88.1724 145.654Z" fill="url(#paint33_linear)"/>
<path opacity="0.6" d="M88.1724 130.245L103.062 115.355L117.432 117.779L109.814 140.979L88.1724 130.245Z" fill="url(#paint34_linear)"/>
<path d="M110.161 141.152L117.779 118.125L128.513 128.859C123.319 134.053 117.086 138.209 110.161 141.152Z" fill="url(#paint35_linear)"/>
<path opacity="0.7" d="M128.687 128.513L117.779 117.606L140.979 110.161C138.209 117.087 134.054 123.319 128.687 128.513Z" fill="url(#paint36_linear)"/>
<path d="M141.152 109.815L130.071 88.1733H145.48C145.48 95.7913 143.922 103.236 141.152 109.815Z" fill="url(#paint37_linear)"/>
<path opacity="0.3" d="M129.725 87.8269L91.8081 86.4419L117.432 58.5672V58.3941C117.432 58.3941 117.259 58.3941 117.086 58.3941L89.3843 84.1911L87.826 46.2747C87.826 46.1015 87.6529 46.1016 87.6529 46.1016C87.4798 46.1016 87.4798 46.1015 87.4798 46.2747L86.0947 84.1911L58.2201 58.5672C58.2201 58.5672 58.0469 58.5672 57.8738 58.5672C57.8738 58.5672 57.8738 58.7404 57.8738 58.9135L83.6708 86.615L45.9275 88.1732C45.7544 88.1732 45.7544 88.3463 45.7544 88.3463C45.7544 88.5195 45.7544 88.5195 45.9275 88.5195L83.6708 89.9046L58.0469 117.779C58.0469 117.779 58.0469 117.952 58.0469 118.125C58.0469 118.125 58.2201 118.125 58.3932 118.125L86.0947 92.3284L87.6529 130.245C87.6529 130.418 87.6529 130.418 87.826 130.418C87.9992 130.418 87.9992 130.418 87.9992 130.245L89.3843 92.3284L117.259 117.952H117.432C117.605 117.952 117.605 117.952 117.605 117.779C117.605 117.779 117.605 117.606 117.432 117.606L91.635 89.9046L129.551 88.3463C129.725 88.3463 129.725 88.1732 129.725 88.1732C129.898 87.8269 129.898 87.8269 129.725 87.8269Z" fill="url(#paint38_linear)"/>
</g>
<defs>
<filter id="filter0_dd" x="0" y="0" width="176" height="181.314" filterUnits="userSpaceOnUse" color-interpolation-filters="sRGB">
<feFlood flood-opacity="0" result="BackgroundImageFix"/>
<feColorMatrix in="SourceAlpha" type="matrix" values="0 0 0 0 0 0 0 0 0 0 0 0 0 0 0 0 0 0 127 0" result="hardAlpha"/>
<feOffset/>
<feGaussianBlur stdDeviation="15"/>
<feColorMatrix type="matrix" values="0 0 0 0 1 0 0 0 0 1 0 0 0 0 1 0 0 0 0.2 0"/>
<feBlend mode="normal" in2="BackgroundImageFix" result="effect1_dropShadow"/>
<feColorMatrix in="SourceAlpha" type="matrix" values="0 0 0 0 0 0 0 0 0 0 0 0 0 0 0 0 0 0 127 0" result="hardAlpha"/>
<feOffset dy="5.31447"/>
<feGaussianBlur stdDeviation="15"/>
<feColorMatrix type="matrix" values="0 0 0 0 1 0 0 0 0 1 0 0 0 0 1 0 0 0 0.2 0"/>
<feBlend mode="normal" in2="effect1_dropShadow" result="effect2_dropShadow"/>
<feBlend mode="normal" in="SourceGraphic" in2="effect2_dropShadow" result="shape"/>
</filter>
<linearGradient id="paint0_linear" x1="1.99648" y1="170.457" x2="174.001" y2="170.457" gradientUnits="userSpaceOnUse">
<stop stop-color="#1F1E2D"/>
<stop offset="0.494792" stop-color="#1E1B30"/>
<stop offset="1" stop-color="#1F1E2D"/>
</linearGradient>
<linearGradient id="paint1_linear" x1="88.0126" y1="138.004" x2="88.0126" y2="163.025" gradientUnits="userSpaceOnUse">
<stop stop-color="#1F1E2D"/>
<stop offset="1" stop-color="#2C2A45"/>
</linearGradient>
<radialGradient id="paint2_radial" cx="0" cy="0" r="1" gradientUnits="userSpaceOnUse" gradientTransform="translate(88.5 151.5) rotate(90) scale(5.5 47.5)">
<stop stop-color="#010105"/>
<stop offset="1" stop-color="#1D1C25" stop-opacity="0"/>
</radialGradient>
<linearGradient id="paint3_linear" x1="29.9709" y1="88.0012" x2="145.92" y2="88.0012" gradientUnits="userSpaceOnUse">
<stop stop-color="#FFC936"/>
<stop offset="1" stop-color="#FF7438"/>
</linearGradient>
<linearGradient id="paint4_linear" x1="98.2769" y1="49.8227" x2="129.871" y2="72.766" gradientUnits="userSpaceOnUse">
<stop stop-color="#FF7438"/>
<stop offset="1" stop-color="#991E00"/>
</linearGradient>
<linearGradient id="paint5_linear" x1="58.4473" y1="66.0714" x2="73.5358" y2="66.0714" gradientUnits="userSpaceOnUse">
<stop stop-color="#FFC936"/>
<stop offset="1" stop-color="#FF7438"/>
</linearGradient>
<linearGradient id="paint6_linear" x1="35.2167" y1="57.941" x2="70.7603" y2="104.204" gradientUnits="userSpaceOnUse">
<stop stop-color="#FFC936"/>
<stop offset="1" stop-color="#FF7438"/>
</linearGradient>
<linearGradient id="paint7_linear" x1="30.5553" y1="42.5909" x2="62.9016" y2="88.4777" gradientUnits="userSpaceOnUse">
<stop stop-color="#FFEACF"/>
<stop offset="1" stop-color="#FFD278"/>
</linearGradient>
<linearGradient id="paint8_linear" x1="6.83901" y1="127.869" x2="52.7274" y2="102.668" gradientUnits="userSpaceOnUse">
<stop stop-color="#FFEACF"/>
<stop offset="1" stop-color="#FFD278"/>
</linearGradient>
<linearGradient id="paint9_linear" x1="58.7017" y1="109.957" x2="72.5457" y2="109.957" gradientUnits="userSpaceOnUse">
<stop stop-color="#FFC936"/>
<stop offset="1" stop-color="#FF7438"/>
</linearGradient>
<linearGradient id="paint10_linear" x1="63.3506" y1="61.7547" x2="136.886" y2="140.18" gradientUnits="userSpaceOnUse">
<stop stop-color="#FFEACF"/>
<stop offset="1" stop-color="#FFD278"/>
</linearGradient>
<linearGradient id="paint11_linear" x1="63.1934" y1="61.9035" x2="136.723" y2="140.322" gradientUnits="userSpaceOnUse">
<stop stop-color="#FFEACF"/>
<stop offset="1" stop-color="#FFD278"/>
</linearGradient>
<linearGradient id="paint12_linear" x1="63.3536" y1="61.7572" x2="136.882" y2="140.175" gradientUnits="userSpaceOnUse">
<stop stop-color="#FFEACF"/>
<stop offset="1" stop-color="#FFD278"/>
</linearGradient>
<linearGradient id="paint13_linear" x1="64.4973" y1="60.6838" x2="138.028" y2="139.104" gradientUnits="userSpaceOnUse">
<stop stop-color="#FFEACF"/>
<stop offset="1" stop-color="#FFD278"/>
</linearGradient>
<linearGradient id="paint14_linear" x1="117.131" y1="37.9121" x2="137.63" y2="95.2708" gradientUnits="userSpaceOnUse">
<stop stop-color="#FFC936"/>
<stop offset="1" stop-color="#FF7438"/>
</linearGradient>
<linearGradient id="paint15_linear" x1="117.641" y1="78.962" x2="136.636" y2="134.629" gradientUnits="userSpaceOnUse">
<stop stop-color="#FFC936"/>
<stop offset="1" stop-color="#FF7438"/>
</linearGradient>
<linearGradient id="paint16_linear" x1="111.208" y1="38.757" x2="108.449" y2="84.5204" gradientUnits="userSpaceOnUse">
<stop stop-color="#FF7438"/>
<stop offset="1" stop-color="#991E00"/>
</linearGradient>
<linearGradient id="paint17_linear" x1="94.769" y1="91.7988" x2="129.938" y2="131.482" gradientUnits="userSpaceOnUse">
<stop stop-color="#FFC936"/>
<stop offset="1" stop-color="#FF7438"/>
</linearGradient>
<linearGradient id="paint18_linear" x1="95.8633" y1="32.8338" x2="122.004" y2="51.8278" gradientUnits="userSpaceOnUse">
<stop stop-color="#FF7438"/>
<stop offset="1" stop-color="#991E00"/>
</linearGradient>
<linearGradient id="paint19_linear" x1="110.268" y1="46.4835" x2="128.562" y2="46.4835" gradientUnits="userSpaceOnUse">
<stop stop-color="#FFC936"/>
<stop offset="1" stop-color="#FF7438"/>
</linearGradient>
<linearGradient id="paint20_linear" x1="97.4373" y1="37.2354" x2="132.229" y2="106.443" gradientUnits="userSpaceOnUse">
<stop stop-color="#FFE981"/>
<stop offset="1" stop-color="#F8ECFF"/>
</linearGradient>
<linearGradient id="paint21_linear" x1="72.814" y1="91.8186" x2="103.468" y2="22.235" gradientUnits="userSpaceOnUse">
<stop stop-color="#FFEACF"/>
<stop offset="1" stop-color="#FFD278"/>
</linearGradient>
<linearGradient id="paint22_linear" x1="79.079" y1="31.9692" x2="90.1122" y2="66.5734" gradientUnits="userSpaceOnUse">
<stop stop-color="#FFC936"/>
<stop offset="1" stop-color="#FF7438"/>
</linearGradient>
<linearGradient id="paint23_linear" x1="77.7058" y1="28.4118" x2="74.3205" y2="86.1483" gradientUnits="userSpaceOnUse">
<stop stop-color="#FFEACF"/>
<stop offset="1" stop-color="#FFD278"/>
</linearGradient>
<linearGradient id="paint24_linear" x1="60.5448" y1="32.1619" x2="97.2181" y2="90.4632" gradientUnits="userSpaceOnUse">
<stop stop-color="#FFEACF"/>
<stop offset="1" stop-color="#FFD278"/>
</linearGradient>
<linearGradient id="paint25_linear" x1="51.7836" y1="34.8364" x2="96.9177" y2="94.0748" gradientUnits="userSpaceOnUse">
<stop stop-color="#FFC936"/>
<stop offset="1" stop-color="#FF7438"/>
</linearGradient>
<linearGradient id="paint26_linear" x1="34.9316" y1="56.4877" x2="57.8871" y2="56.4877" gradientUnits="userSpaceOnUse">
<stop stop-color="#FFC936"/>
<stop offset="1" stop-color="#FF7438"/>
</linearGradient>
<linearGradient id="paint27_linear" x1="30.3507" y1="76.9765" x2="45.8634" y2="76.9765" gradientUnits="userSpaceOnUse">
<stop stop-color="#FFC936"/>
<stop offset="1" stop-color="#FF7438"/>
</linearGradient>
<linearGradient id="paint28_linear" x1="30.3536" y1="99.051" x2="45.8967" y2="99.051" gradientUnits="userSpaceOnUse">
<stop stop-color="#FFC936"/>
<stop offset="1" stop-color="#FF7438"/>
</linearGradient>
<linearGradient id="paint29_linear" x1="34.8369" y1="119.481" x2="58.227" y2="119.481" gradientUnits="userSpaceOnUse">
<stop stop-color="#FFC936"/>
<stop offset="1" stop-color="#FF7438"/>
</linearGradient>
<linearGradient id="paint30_linear" x1="47.4765" y1="129.544" x2="65.6894" y2="129.544" gradientUnits="userSpaceOnUse">
<stop stop-color="#FFC936"/>
<stop offset="1" stop-color="#FF7438"/>
</linearGradient>
<linearGradient id="paint31_linear" x1="69.7106" y1="118.126" x2="77.6095" y2="137.309" gradientUnits="userSpaceOnUse">
<stop stop-color="#FFC936"/>
<stop offset="1" stop-color="#FF7438"/>
</linearGradient>
<linearGradient id="paint32_linear" x1="87.4137" y1="102.039" x2="88.5422" y2="130.436" gradientUnits="userSpaceOnUse">
<stop stop-color="#FFC936"/>
<stop offset="1" stop-color="#FF7438"/>
</linearGradient>
<linearGradient id="paint33_linear" x1="98.3975" y1="100.517" x2="98.9618" y2="147.159" gradientUnits="userSpaceOnUse">
<stop stop-color="#FF7438"/>
<stop offset="1" stop-color="#991E00"/>
</linearGradient>
<linearGradient id="paint34_linear" x1="85.169" y1="81.5752" x2="109.995" y2="141.382" gradientUnits="userSpaceOnUse">
<stop stop-color="#FF7438"/>
<stop offset="1" stop-color="#991E00"/>
</linearGradient>
<linearGradient id="paint35_linear" x1="81.1572" y1="106.898" x2="109.933" y2="126.834" gradientUnits="userSpaceOnUse">
<stop stop-color="#FF7438"/>
<stop offset="1" stop-color="#991E00"/>
</linearGradient>
<linearGradient id="paint36_linear" x1="127.099" y1="95.2659" x2="129.857" y2="116.83" gradientUnits="userSpaceOnUse">
<stop stop-color="#FF7438"/>
<stop offset="1" stop-color="#991E00"/>
</linearGradient>
<linearGradient id="paint37_linear" x1="95.4676" y1="91.7655" x2="140.229" y2="98.5361" gradientUnits="userSpaceOnUse">
<stop stop-color="#FF7438"/>
<stop offset="1" stop-color="#991E00"/>
</linearGradient>
<linearGradient id="paint38_linear" x1="81.5783" y1="78.915" x2="159.814" y2="191.254" gradientUnits="userSpaceOnUse">
<stop stop-color="#FFEACF"/>
<stop offset="1" stop-color="#FFD278"/>
</linearGradient>
</defs>
</svg>
