<svg width="182" height="193" viewBox="0 0 182 193" fill="none" xmlns="http://www.w3.org/2000/svg">
<path d="M177 148.006C177 148.031 176.986 148.068 176.986 148.093C176.986 148.106 176.986 148.131 176.972 148.143C176.959 148.181 176.959 148.218 176.945 148.256C176.945 148.268 176.945 148.268 176.945 148.281C176.931 148.331 176.917 148.368 176.889 148.418C176.889 148.431 176.876 148.443 176.876 148.456C176.862 148.493 176.848 148.518 176.82 148.556C176.806 148.568 176.807 148.593 176.793 148.606C176.779 148.631 176.765 148.668 176.737 148.693C176.724 148.706 176.71 148.731 176.71 148.743C176.696 148.768 176.668 148.806 176.654 148.831C176.641 148.843 176.627 148.868 176.613 148.881C176.585 148.906 176.572 148.943 176.544 148.968C176.53 148.981 176.516 149.006 176.502 149.018C176.475 149.043 176.447 149.081 176.419 149.106C176.406 149.118 176.392 149.131 176.378 149.144C176.35 149.181 176.309 149.206 176.267 149.244C176.254 149.256 176.254 149.269 176.24 149.269C176.198 149.319 176.143 149.356 176.088 149.406C176.032 149.456 175.977 149.494 175.922 149.544C175.908 149.544 175.908 149.556 175.894 149.556C175.839 149.594 175.798 149.631 175.742 149.669C175.728 149.681 175.715 149.694 175.701 149.706C175.659 149.744 175.604 149.769 175.563 149.806C175.549 149.819 175.521 149.831 175.507 149.844C175.466 149.869 175.41 149.906 175.369 149.931C175.341 149.944 175.328 149.956 175.3 149.969C175.245 149.994 175.203 150.031 175.148 150.056C175.12 150.069 175.106 150.081 175.079 150.094C175.023 150.119 174.968 150.156 174.913 150.181C174.885 150.194 174.871 150.206 174.844 150.219C174.788 150.256 174.719 150.281 174.664 150.319C174.636 150.332 174.623 150.344 174.595 150.357C174.512 150.394 174.443 150.432 174.36 150.469C174.346 150.469 174.346 150.482 174.332 150.482C174.236 150.532 174.139 150.569 174.042 150.619C173.945 150.657 173.849 150.707 173.752 150.744C173.724 150.757 173.697 150.769 173.683 150.769C173.6 150.807 173.531 150.832 173.448 150.869C173.42 150.882 173.379 150.894 173.351 150.907C173.282 150.932 173.213 150.969 173.13 150.994C173.088 151.007 173.047 151.019 173.019 151.044C172.95 151.069 172.867 151.107 172.798 151.132C172.757 151.144 172.715 151.157 172.674 151.182C172.591 151.207 172.508 151.244 172.439 151.269C172.397 151.282 172.37 151.294 172.328 151.307C172.218 151.344 172.093 151.394 171.983 151.432C171.983 151.432 171.969 151.432 171.969 151.445C171.844 151.482 171.72 151.532 171.582 151.57C171.54 151.582 171.499 151.595 171.457 151.607C171.361 151.632 171.278 151.67 171.181 151.695C171.126 151.707 171.084 151.732 171.029 151.745C170.946 151.77 170.863 151.795 170.766 151.82C170.711 151.832 170.656 151.857 170.6 151.87C170.504 151.895 170.407 151.932 170.296 151.957C170.241 151.97 170.2 151.982 170.144 151.995C170.006 152.032 169.882 152.07 169.743 152.107C169.73 152.107 169.702 152.12 169.688 152.12C169.536 152.157 169.37 152.207 169.218 152.245C169.177 152.257 169.135 152.27 169.094 152.282C168.969 152.32 168.845 152.345 168.721 152.382C168.665 152.395 168.624 152.407 168.569 152.42C168.43 152.457 168.292 152.495 168.154 152.52C168.113 152.532 168.071 152.545 168.016 152.557C167.836 152.608 167.643 152.645 167.463 152.695C167.269 152.745 167.076 152.783 166.882 152.833C166.841 152.845 166.799 152.845 166.758 152.858C166.592 152.895 166.44 152.933 166.274 152.97C166.233 152.983 166.191 152.983 166.15 152.995C165.929 153.045 165.707 153.095 165.486 153.133C165.265 153.183 165.03 153.233 164.809 153.27C164.768 153.283 164.726 153.283 164.698 153.295C164.477 153.345 164.27 153.383 164.049 153.433C164.035 153.433 164.021 153.433 164.007 153.445C163.759 153.495 163.524 153.545 163.275 153.583C163.247 153.583 163.22 153.595 163.206 153.595C162.943 153.645 162.68 153.695 162.418 153.745C162.404 153.745 162.376 153.758 162.363 153.758C162.086 153.808 161.81 153.858 161.519 153.908C161.478 153.908 161.45 153.921 161.409 153.921C161.132 153.971 160.842 154.021 160.552 154.071C160.552 154.071 160.552 154.071 160.538 154.071C160.248 154.121 159.958 154.171 159.653 154.221C159.612 154.233 159.571 154.233 159.515 154.246C159.184 154.296 158.852 154.346 158.52 154.408C158.492 154.408 158.465 154.421 158.437 154.421C158.092 154.471 157.746 154.521 157.401 154.583C157.387 154.583 157.387 154.583 157.373 154.583C157.027 154.633 156.682 154.683 156.322 154.733C156.267 154.746 156.212 154.746 156.17 154.758C155.825 154.808 155.493 154.858 155.134 154.908C155.037 154.921 154.926 154.934 154.83 154.946C154.733 154.959 154.622 154.971 154.526 154.984C154.401 154.996 154.277 155.021 154.152 155.034C154.056 155.046 153.959 155.059 153.848 155.071C153.724 155.084 153.586 155.109 153.461 155.121C153.365 155.134 153.268 155.146 153.171 155.159C153.019 155.184 152.867 155.196 152.715 155.221C152.632 155.234 152.549 155.246 152.466 155.246C152.273 155.271 152.065 155.296 151.858 155.321C151.816 155.321 151.789 155.334 151.747 155.334C151.512 155.359 151.277 155.396 151.056 155.421C150.628 155.471 150.199 155.521 149.771 155.571C149.729 155.571 149.674 155.584 149.633 155.584C149.218 155.634 148.817 155.671 148.402 155.721C148.347 155.734 148.292 155.734 148.237 155.746C147.822 155.796 147.393 155.834 146.965 155.884C146.923 155.884 146.882 155.896 146.841 155.896C146.398 155.946 145.942 155.996 145.486 156.034C145.002 156.084 144.518 156.134 144.021 156.184C143.592 156.222 143.164 156.272 142.735 156.309C142.694 156.309 142.653 156.322 142.611 156.322C142.183 156.359 141.74 156.397 141.298 156.434C140.856 156.472 140.4 156.509 139.957 156.547C139.93 156.547 139.902 156.547 139.874 156.559C139.432 156.597 138.976 156.634 138.52 156.672C138.492 156.672 138.451 156.672 138.423 156.684C137.981 156.722 137.552 156.759 137.11 156.784C136.668 156.822 136.225 156.847 135.783 156.884C135.728 156.884 135.672 156.897 135.631 156.897C135.189 156.934 134.746 156.959 134.304 156.997C133.862 157.034 133.419 157.059 132.977 157.084C132.908 157.084 132.853 157.097 132.784 157.097C132.258 157.134 131.733 157.172 131.208 157.197C131.139 157.197 131.084 157.209 131.014 157.209C130.489 157.247 129.95 157.272 129.411 157.31C129.356 157.31 129.287 157.322 129.231 157.322C128.679 157.36 128.14 157.385 127.587 157.422C127.545 157.422 127.518 157.422 127.476 157.422C126.909 157.46 126.356 157.485 125.79 157.522C125.762 157.522 125.748 157.522 125.721 157.522C125.665 157.522 125.61 157.522 125.541 157.535C124.988 157.56 124.435 157.597 123.882 157.622C123.689 157.635 123.482 157.647 123.288 157.647C122.86 157.672 122.445 157.685 122.016 157.71C121.795 157.722 121.574 157.735 121.367 157.735C120.924 157.76 120.482 157.772 120.026 157.797C119.846 157.81 119.653 157.81 119.473 157.822C118.865 157.847 118.257 157.872 117.635 157.897C117.441 157.91 117.234 157.91 117.04 157.922C116.598 157.935 116.17 157.96 115.727 157.972C115.465 157.985 115.202 157.997 114.953 157.997C114.566 158.01 114.179 158.022 113.792 158.035C113.516 158.047 113.253 158.047 112.977 158.06C112.452 158.072 111.926 158.097 111.401 158.11C111.332 158.11 111.249 158.11 111.18 158.122C111.042 158.122 110.917 158.135 110.779 158.135C110.295 158.147 109.798 158.16 109.314 158.172C109.065 158.185 108.816 158.185 108.581 158.197C108.139 158.21 107.711 158.222 107.268 158.235C107.061 158.235 106.84 158.247 106.633 158.247C105.983 158.26 105.333 158.272 104.684 158.285H104.67C104.587 158.285 104.49 158.285 104.407 158.285C103.785 158.297 103.149 158.31 102.527 158.322C102.417 158.322 102.293 158.322 102.182 158.322C101.56 158.335 100.924 158.347 100.302 158.347C100.205 158.347 100.109 158.347 100.026 158.347C99.3346 158.36 98.6573 158.36 97.9524 158.372C97.8833 158.372 97.8142 158.372 97.7451 158.372C97.0402 158.385 96.3214 158.385 95.6027 158.385H95.5889C95.5751 158.385 95.5612 158.385 95.5336 158.385C94.8148 158.385 94.0823 158.398 93.3497 158.398C93.3083 158.398 93.2668 158.398 93.2253 158.398C92.479 158.398 91.7187 158.398 90.9724 158.398C90.2122 158.398 89.452 158.398 88.6917 158.398C88.6641 158.398 88.6365 158.398 88.6088 158.398C87.8901 158.398 87.1852 158.398 86.4664 158.385C86.4111 158.385 86.3558 158.385 86.3005 158.385C85.5956 158.385 84.8907 158.372 84.1858 158.372C84.1029 158.372 84.0338 158.372 83.9508 158.372C83.2874 158.36 82.6377 158.36 81.9743 158.347C81.8914 158.347 81.8084 158.347 81.7393 158.347C81.0482 158.335 80.3709 158.322 79.6937 158.322C79.5969 158.322 79.5002 158.322 79.4034 158.322C78.7814 158.31 78.1733 158.297 77.5651 158.285C77.4269 158.285 77.2887 158.285 77.1643 158.272C76.5699 158.26 75.9894 158.247 75.3951 158.235C75.2568 158.235 75.1324 158.235 74.9942 158.222C74.3999 158.21 73.8055 158.197 73.225 158.185C73.1006 158.185 72.9762 158.172 72.8518 158.172C72.2437 158.16 71.6355 158.135 71.0273 158.122C70.9167 158.122 70.82 158.122 70.7094 158.11C70.1013 158.097 69.4793 158.072 68.8711 158.047C68.7743 158.047 68.6776 158.047 68.5808 158.035C68.567 158.035 68.5532 158.035 68.5532 158.035C67.945 158.01 67.3369 157.997 66.7287 157.972C66.632 157.972 66.5352 157.96 66.4523 157.96C65.8441 157.935 65.2359 157.91 64.6278 157.885C64.531 157.885 64.4343 157.872 64.3375 157.872C63.7293 157.847 63.135 157.822 62.5407 157.797C62.4439 157.797 62.3472 157.785 62.2366 157.785C61.6422 157.76 61.0617 157.735 60.4812 157.71C60.3706 157.71 60.26 157.697 60.1633 157.697C59.5828 157.672 59.0023 157.647 58.4217 157.61C58.325 157.61 58.2144 157.597 58.1176 157.597C57.5371 157.572 56.9566 157.535 56.3761 157.51C56.1688 157.497 55.9752 157.485 55.7679 157.472C55.6435 157.46 55.5191 157.46 55.3947 157.447C55.1183 157.435 54.8419 157.422 54.5654 157.397C54.4963 157.397 54.4272 157.385 54.3581 157.385C53.9987 157.36 53.6532 157.347 53.3076 157.322C53.28 157.322 53.2385 157.322 53.2109 157.322C52.893 157.297 52.5889 157.285 52.271 157.26C52.188 157.26 52.1051 157.247 52.0084 157.247C51.7457 157.235 51.4831 157.209 51.2205 157.197C51.1238 157.184 51.0132 157.184 50.9164 157.172C50.6676 157.159 50.4188 157.134 50.17 157.122C50.0733 157.109 49.9765 157.109 49.866 157.097C49.6033 157.084 49.3545 157.059 49.0919 157.047C49.009 157.047 48.9261 157.034 48.8431 157.034C48.5529 157.009 48.2626 156.997 47.9724 156.972C47.9309 156.972 47.8756 156.959 47.8341 156.959C47.4748 156.934 47.1016 156.909 46.7422 156.884C46.3828 156.859 46.0235 156.834 45.6779 156.809C45.6364 156.809 45.595 156.809 45.5535 156.797C45.2356 156.772 44.9315 156.747 44.6275 156.722C44.5722 156.722 44.5169 156.709 44.4616 156.709C44.1575 156.684 43.8534 156.659 43.5493 156.634C43.5079 156.634 43.4664 156.622 43.4249 156.622C43.0656 156.597 42.7062 156.559 42.3468 156.534C41.9875 156.509 41.6143 156.472 41.2549 156.447C41.2273 156.447 41.2134 156.447 41.1858 156.447C40.8679 156.422 40.5362 156.384 40.2183 156.359C40.163 156.359 40.1215 156.347 40.0662 156.347C39.7483 156.322 39.4166 156.284 39.0987 156.259C39.0849 156.259 39.071 156.259 39.0434 156.259C38.6702 156.222 38.297 156.184 37.9238 156.159C37.5783 156.122 37.2327 156.097 36.8872 156.059C36.8319 156.059 36.7766 156.046 36.7213 156.046C36.3896 156.009 36.0717 155.984 35.74 155.946C35.7261 155.946 35.7123 155.946 35.6985 155.946C35.3529 155.909 35.0074 155.871 34.6618 155.834C34.6204 155.834 34.5789 155.821 34.5374 155.821C34.2057 155.784 33.8878 155.746 33.5699 155.721C33.5146 155.709 33.4455 155.709 33.3902 155.696C33.0447 155.659 32.6853 155.621 32.3536 155.584C32.3121 155.584 32.2568 155.571 32.2154 155.571C31.9113 155.534 31.621 155.496 31.3169 155.471C31.2478 155.459 31.1787 155.459 31.0958 155.446C30.7641 155.409 30.4323 155.371 30.1144 155.321C30.073 155.321 30.0315 155.309 29.99 155.309C29.6168 155.259 29.2575 155.221 28.8981 155.171C28.8566 155.171 28.8152 155.159 28.7875 155.159C28.4143 155.109 28.055 155.059 27.6956 155.021C27.6403 155.009 27.5712 155.009 27.5159 154.996C27.1565 154.946 26.811 154.896 26.4654 154.846C26.4102 154.833 26.3549 154.833 26.2996 154.821C25.9402 154.771 25.5947 154.721 25.2353 154.671C25.1938 154.658 25.1385 154.658 25.0971 154.646C24.9036 154.621 24.7239 154.596 24.5304 154.558C24.4613 154.546 24.406 154.533 24.3369 154.533C24.171 154.508 23.9913 154.483 23.8255 154.458C23.7564 154.446 23.6872 154.433 23.6181 154.421C23.4523 154.396 23.2864 154.371 23.1344 154.346C23.0653 154.333 22.9961 154.321 22.927 154.308C22.7612 154.283 22.5953 154.258 22.4294 154.233C22.3742 154.221 22.305 154.208 22.2498 154.208C22.0701 154.183 21.8904 154.146 21.7107 154.121C21.6692 154.108 21.6278 154.108 21.5863 154.096C21.3652 154.058 21.1578 154.021 20.9367 153.983C20.4944 153.908 20.0659 153.833 19.6374 153.758C19.6236 153.758 19.6098 153.758 19.5959 153.745C19.3195 153.695 19.0569 153.645 18.7943 153.595C18.7666 153.595 18.739 153.583 18.7252 153.583C18.4626 153.533 18.1861 153.483 17.9235 153.433C17.8959 153.433 17.8682 153.42 17.8406 153.42C17.5918 153.37 17.343 153.32 17.0942 153.27C17.0804 153.27 17.0665 153.27 17.0527 153.258C16.8039 153.208 16.5551 153.158 16.3063 153.095C16.2649 153.083 16.2372 153.083 16.1958 153.07C15.712 152.97 15.242 152.858 14.7859 152.758C14.7445 152.745 14.703 152.733 14.6615 152.733C14.4404 152.683 14.2192 152.633 13.9981 152.57C13.9843 152.57 13.9842 152.57 13.9704 152.57C13.7631 152.52 13.5558 152.47 13.3623 152.42C13.3208 152.407 13.2793 152.395 13.2379 152.395C13.0305 152.345 12.837 152.295 12.6435 152.245C12.6159 152.232 12.5882 152.232 12.5606 152.22C12.3947 152.17 12.215 152.132 12.0492 152.082C12.0077 152.07 11.9663 152.057 11.9386 152.045C11.7589 151.995 11.5792 151.945 11.3995 151.895C11.3581 151.882 11.3304 151.87 11.3028 151.87C11.1508 151.82 10.9987 151.782 10.8467 151.732C10.819 151.72 10.7914 151.72 10.7637 151.707C10.5979 151.657 10.432 151.607 10.28 151.545C10.2385 151.532 10.2109 151.52 10.1832 151.507C10.0312 151.457 9.87914 151.407 9.7271 151.344H9.71328C9.56124 151.294 9.40919 151.232 9.25715 151.182C9.22951 151.169 9.20187 151.157 9.17422 151.144C9.02218 151.094 8.88396 151.032 8.74574 150.982C8.73192 150.982 8.7181 150.969 8.70427 150.969C8.57988 150.919 8.45548 150.869 8.33108 150.807C8.30344 150.794 8.28962 150.782 8.26197 150.782C8.13758 150.732 8.01318 150.669 7.88878 150.619C7.87496 150.607 7.86114 150.607 7.83349 150.594C7.72292 150.544 7.61234 150.494 7.50177 150.432C7.48795 150.419 7.47412 150.419 7.4603 150.407C7.34973 150.344 7.23915 150.294 7.12858 150.231C7.11475 150.219 7.08711 150.206 7.07329 150.206C6.96271 150.144 6.86596 150.094 6.7692 150.031C6.67245 149.969 6.5757 149.919 6.49277 149.856C6.47894 149.844 6.46512 149.831 6.4513 149.831C6.36837 149.769 6.27162 149.719 6.18869 149.656C6.10575 149.594 6.03664 149.544 5.96753 149.481C5.95371 149.469 5.93989 149.456 5.92607 149.456C5.85696 149.394 5.78785 149.344 5.73256 149.281C5.71874 149.269 5.71874 149.269 5.70492 149.256C5.64963 149.206 5.59434 149.156 5.55288 149.093C5.53905 149.081 5.53905 149.068 5.52523 149.068C5.46994 149.006 5.42848 148.956 5.38701 148.893C5.37319 148.881 5.37319 148.868 5.35937 148.868C5.31791 148.818 5.29026 148.768 5.24879 148.718C5.24879 148.706 5.23497 148.706 5.23497 148.693C5.19351 148.631 5.16586 148.581 5.13822 148.518C5.13822 148.506 5.1244 148.493 5.1244 148.481C5.09675 148.431 5.08293 148.381 5.05529 148.318V148.306C5.04146 148.243 5.02764 148.193 5.01382 148.131C5.01382 148.118 5.01382 148.106 5.01382 148.093C5 148.031 5 147.98 5 147.918L5.63581 179.056C5.63581 179.131 5.64963 179.206 5.64963 179.282C5.64963 179.294 5.64963 179.319 5.66345 179.332C5.67727 179.407 5.6911 179.482 5.70492 179.557C5.70492 179.569 5.70492 179.569 5.70492 179.582C5.71874 179.657 5.74638 179.719 5.77403 179.794C5.77403 179.807 5.78785 179.832 5.78785 179.844C5.8155 179.919 5.84314 179.994 5.8846 180.069C5.8846 180.082 5.89842 180.094 5.89842 180.107C5.92607 180.169 5.96753 180.244 6.009 180.307C6.02282 180.319 6.02282 180.332 6.03664 180.344C6.07811 180.42 6.1334 180.495 6.18869 180.57C6.20251 180.582 6.20251 180.595 6.21633 180.607C6.27162 180.682 6.31308 180.745 6.36837 180.82C6.38219 180.832 6.38219 180.832 6.39602 180.845C6.4513 180.92 6.52041 180.995 6.58952 181.07L6.60334 181.082C6.61717 181.095 6.61716 181.095 6.63099 181.107C6.70009 181.182 6.78303 181.257 6.85214 181.332C6.93507 181.407 7.018 181.482 7.10093 181.57C7.11476 181.583 7.12858 181.595 7.1424 181.608C7.23915 181.683 7.32208 181.758 7.41884 181.845C7.51559 181.92 7.61234 181.995 7.72292 182.07C7.73674 182.083 7.75056 182.095 7.77821 182.108C7.88878 182.183 7.99936 182.258 8.10993 182.333C8.12375 182.345 8.13757 182.345 8.1514 182.358C8.26197 182.433 8.37255 182.495 8.48313 182.57C8.49695 182.583 8.51077 182.595 8.53841 182.608C8.66281 182.683 8.7872 182.758 8.9116 182.833C8.93925 182.846 8.95307 182.858 8.98071 182.871C9.10511 182.946 9.22951 183.008 9.35391 183.083C9.36773 183.083 9.36773 183.096 9.38155 183.096C9.38155 183.096 9.38155 183.096 9.39537 183.096C9.53359 183.171 9.67181 183.246 9.82385 183.321C9.85149 183.333 9.87914 183.346 9.90678 183.371C10.0588 183.446 10.197 183.521 10.3629 183.596C10.3629 183.596 10.3767 183.596 10.3767 183.608C10.5288 183.683 10.6808 183.746 10.8329 183.821C10.8743 183.833 10.902 183.846 10.9434 183.871C11.0955 183.946 11.2613 184.009 11.4272 184.084C11.4548 184.096 11.4825 184.109 11.5101 184.121C11.5931 184.159 11.6622 184.184 11.7451 184.221C11.8142 184.246 11.8971 184.284 11.9662 184.309C12.0077 184.321 12.0354 184.334 12.0768 184.346C12.2565 184.421 12.4224 184.484 12.6021 184.559C12.6435 184.571 12.685 184.584 12.7126 184.609C12.8785 184.671 13.0444 184.734 13.2102 184.796C13.2379 184.809 13.2655 184.821 13.2932 184.821C13.4867 184.896 13.6802 184.959 13.8737 185.034C13.8875 185.034 13.9013 185.047 13.929 185.047C13.9566 185.059 13.9704 185.059 13.9981 185.072C14.1916 185.134 14.3989 185.209 14.6062 185.272C14.6201 185.272 14.6201 185.272 14.6339 185.284C14.855 185.359 15.0624 185.422 15.2835 185.497C15.325 185.509 15.3664 185.522 15.4079 185.534C15.864 185.672 16.3202 185.809 16.8039 185.947C16.8454 185.959 16.873 185.972 16.9145 185.972C17.1633 186.047 17.3983 186.109 17.6471 186.184C17.6609 186.184 17.6747 186.197 17.6885 186.197C17.9373 186.26 18.1861 186.335 18.4349 186.397C18.4626 186.41 18.4902 186.41 18.5178 186.422C18.7805 186.485 19.0431 186.56 19.3057 186.622C19.3333 186.635 19.361 186.635 19.3748 186.647C19.6374 186.71 19.9 186.785 20.1627 186.847C20.1765 186.847 20.1765 186.847 20.1903 186.86H20.2041C20.8261 187.01 21.4757 187.16 22.1392 187.31C22.1806 187.322 22.2221 187.322 22.2636 187.335C22.4433 187.373 22.6091 187.41 22.7888 187.448C22.8165 187.448 22.8303 187.46 22.8579 187.46C22.8994 187.473 22.9409 187.473 22.9685 187.485C23.1344 187.523 23.3002 187.56 23.4523 187.585C23.5214 187.598 23.5905 187.61 23.6596 187.623C23.8255 187.66 23.9775 187.685 24.1434 187.723C24.1848 187.735 24.2263 187.735 24.2678 187.748C24.2954 187.748 24.323 187.76 24.3507 187.76C24.5166 187.798 24.6824 187.823 24.8483 187.86C24.9174 187.873 24.9865 187.885 25.0418 187.898C25.2215 187.935 25.415 187.973 25.5947 188.01C25.6361 188.023 25.6776 188.023 25.7191 188.035H25.7329C26.0784 188.098 26.424 188.173 26.7833 188.235C26.811 188.235 26.8525 188.248 26.8801 188.248C26.9077 188.248 26.9354 188.26 26.9492 188.26C27.2948 188.323 27.6403 188.385 27.9859 188.448C28.0135 188.448 28.0411 188.46 28.0688 188.46C28.1103 188.46 28.1379 188.473 28.1794 188.473C28.5111 188.536 28.8566 188.598 29.2022 188.648C29.2298 188.648 29.2436 188.661 29.2713 188.661C29.2851 188.661 29.2989 188.661 29.2989 188.661C29.3266 188.661 29.3542 188.673 29.3819 188.673C29.7412 188.736 30.1006 188.798 30.46 188.861C30.4876 188.861 30.5153 188.873 30.5429 188.873C30.5567 188.873 30.5706 188.873 30.5844 188.886C30.9023 188.936 31.234 188.986 31.5519 189.048C31.5796 189.048 31.6072 189.061 31.6348 189.061C31.6763 189.073 31.7316 189.073 31.7731 189.086C32.0633 189.136 32.3536 189.173 32.6577 189.223C32.6991 189.223 32.7268 189.236 32.7682 189.236C32.7821 189.236 32.7959 189.236 32.8097 189.248C33.1553 189.298 33.5008 189.348 33.8464 189.398C33.874 189.398 33.8878 189.411 33.9155 189.411C33.9569 189.411 33.9984 189.423 34.026 189.423C34.3439 189.473 34.6618 189.511 34.9936 189.561C35.0212 189.561 35.0489 189.573 35.0765 189.573C35.0903 189.573 35.1041 189.573 35.118 189.573C35.4497 189.623 35.7952 189.674 36.1408 189.711H36.1546C36.1684 189.711 36.1823 189.711 36.1961 189.724C36.514 189.761 36.8319 189.811 37.1498 189.849C37.1774 189.849 37.2051 189.861 37.2465 189.861C37.2742 189.861 37.3018 189.874 37.3295 189.874C37.6612 189.924 38.0068 189.961 38.3385 190.011C38.3385 190.011 38.3385 190.011 38.3523 190.011C38.7117 190.061 39.0849 190.111 39.458 190.149H39.4719C39.4857 190.149 39.4995 190.149 39.5133 190.149C39.8312 190.186 40.1491 190.224 40.467 190.261C40.4947 190.261 40.5223 190.261 40.5362 190.274C40.5638 190.274 40.5914 190.274 40.6191 190.286C40.937 190.324 41.2549 190.361 41.5866 190.399C41.6004 190.399 41.6143 190.399 41.6281 190.399H41.6419C42.3468 190.486 43.0656 190.561 43.7843 190.636C43.7981 190.636 43.812 190.636 43.8258 190.636C43.8534 190.636 43.8811 190.636 43.9087 190.649C44.2128 190.686 44.5031 190.711 44.8071 190.749C44.8348 190.749 44.8624 190.761 44.9039 190.761C44.9315 190.761 44.9592 190.761 44.9868 190.774C45.2909 190.812 45.595 190.837 45.8991 190.874C45.9267 190.874 45.9544 190.874 45.982 190.887C45.9958 190.887 46.0096 190.887 46.0235 190.887C46.7284 190.962 47.4471 191.024 48.1659 191.099C48.1797 191.099 48.1797 191.099 48.1935 191.099C48.2212 191.099 48.2626 191.112 48.2903 191.112C48.5805 191.137 48.8708 191.162 49.161 191.199C49.1887 191.199 49.2163 191.199 49.244 191.212C49.2993 191.212 49.3545 191.224 49.4098 191.224C49.6586 191.249 49.9212 191.274 50.17 191.299C50.2253 191.299 50.2668 191.312 50.3221 191.312C50.3774 191.312 50.4188 191.324 50.4741 191.324C50.7229 191.349 50.9717 191.362 51.2205 191.387C51.2896 191.387 51.3449 191.399 51.414 191.399C51.4555 191.399 51.4831 191.412 51.5246 191.412C51.7872 191.437 52.036 191.449 52.2986 191.474C52.3677 191.474 52.4368 191.487 52.5059 191.487C52.5336 191.487 52.5474 191.487 52.5751 191.487C52.8653 191.512 53.1556 191.537 53.4458 191.562C53.4873 191.562 53.5426 191.574 53.5841 191.574H53.5979C53.9434 191.599 54.289 191.624 54.6345 191.662C54.6483 191.662 54.6483 191.662 54.6622 191.662C54.7313 191.662 54.8142 191.674 54.8833 191.674C55.1459 191.699 55.3947 191.712 55.6573 191.737C55.685 191.737 55.7126 191.737 55.7541 191.749C55.8509 191.762 55.9476 191.762 56.0582 191.774C56.224 191.787 56.3761 191.799 56.542 191.812C56.5696 191.812 56.6111 191.812 56.6387 191.824C56.7078 191.824 56.7769 191.837 56.8599 191.837C57.2192 191.862 57.5786 191.887 57.9518 191.912C58.09 191.924 58.242 191.937 58.3803 191.937C58.477 191.949 58.5876 191.949 58.6843 191.962C58.8087 191.975 58.9193 191.974 59.0437 191.987C59.4031 192.012 59.7763 192.037 60.1495 192.062C60.2324 192.062 60.3292 192.075 60.4121 192.075C60.5227 192.087 60.6332 192.087 60.73 192.1C60.9097 192.112 61.0755 192.125 61.2552 192.137C61.6146 192.162 61.9601 192.175 62.3195 192.2C62.3748 192.2 62.4163 192.2 62.4715 192.212C62.5683 192.212 62.6651 192.225 62.7756 192.225C62.983 192.237 63.1903 192.25 63.3976 192.262C63.757 192.287 64.1164 192.3 64.4757 192.325C64.5034 192.325 64.531 192.325 64.5448 192.325C64.6416 192.325 64.7384 192.337 64.8351 192.337C65.0701 192.35 65.3189 192.362 65.5538 192.375C65.8994 192.387 66.2588 192.412 66.6181 192.425C66.6319 192.425 66.632 192.425 66.6458 192.425C66.7425 192.425 66.8393 192.437 66.9222 192.437C67.171 192.45 67.4336 192.462 67.6824 192.475C68.028 192.487 68.3735 192.512 68.7329 192.525C68.8296 192.525 68.9402 192.537 69.0508 192.537C69.3134 192.55 69.576 192.562 69.8386 192.575C70.1704 192.587 70.5159 192.6 70.8615 192.612C70.972 192.612 71.0826 192.625 71.1932 192.625C71.4282 192.637 71.6769 192.65 71.9119 192.65C72.2575 192.662 72.603 192.675 72.9624 192.687C72.9762 192.687 72.99 192.687 73.0039 192.687C73.1283 192.687 73.2527 192.7 73.3771 192.7C73.5844 192.712 73.8055 192.712 74.0129 192.725C74.3308 192.737 74.6625 192.75 74.9942 192.762C75.0357 192.762 75.091 192.762 75.1324 192.762C75.2568 192.762 75.3951 192.775 75.5194 192.775C75.6715 192.775 75.8235 192.787 75.9618 192.787C76.2935 192.8 76.6114 192.812 76.9431 192.812C77.0537 192.812 77.1643 192.812 77.2748 192.825C77.4131 192.825 77.5374 192.837 77.6757 192.837C77.7586 192.837 77.8554 192.837 77.9383 192.85C78.2562 192.862 78.5741 192.862 78.892 192.875C79.0993 192.875 79.3066 192.887 79.514 192.887C79.6107 192.887 79.7075 192.887 79.8042 192.9C79.8181 192.9 79.8319 192.9 79.8457 192.9C80.1636 192.912 80.4815 192.912 80.7994 192.925C81.1173 192.925 81.4352 192.937 81.7531 192.937C81.7808 192.937 81.8084 192.937 81.8222 192.937C81.9052 192.937 81.9881 192.937 82.0572 192.937C82.2507 192.937 82.4442 192.95 82.6377 192.95C82.9418 192.95 83.2321 192.962 83.5362 192.962C83.702 192.962 83.8541 192.962 84.0199 192.975C84.1029 192.975 84.172 192.975 84.2549 192.975C84.3102 192.975 84.3655 192.975 84.4346 192.975C84.7387 192.975 85.0289 192.987 85.333 192.987C85.6233 192.987 85.9135 192.987 86.19 193C86.2453 193 86.3005 193 86.342 193C86.3973 193 86.4526 193 86.5079 193C86.6876 193 86.8672 193 87.0469 193C87.3372 193 87.6275 193 87.9177 193C88.1527 193 88.3877 193 88.6365 193C88.6641 193 88.6917 193 88.7194 193C88.747 193 88.7608 193 88.7885 193C88.9682 193 89.1479 193 89.3414 193C89.521 193 89.7007 193 89.8942 193C90.0739 193 90.2536 193 90.4471 193C90.6268 193 90.8065 193 91 193C91.1106 193 91.2073 193 91.3179 193C91.4285 193 91.5252 193 91.6358 193C91.7464 193 91.8431 193 91.9399 193C92.0366 193 92.1472 193 92.244 193C92.5204 193 92.7969 193 93.0871 193C93.1424 193 93.1977 193 93.2392 193C93.2806 193 93.3221 193 93.3774 193C93.5571 193 93.7367 193 93.9303 193C94.2067 193 94.4831 193 94.7596 193C95.0222 193 95.2848 193 95.5336 193C95.5612 193 95.5751 193 95.6027 193C95.8791 193 96.1418 193 96.4182 192.987C96.6946 192.987 96.9711 192.987 97.2475 192.975C97.3996 192.975 97.5654 192.975 97.7175 192.975C97.7866 192.975 97.8557 192.975 97.9248 192.975C97.9801 192.975 98.0215 192.975 98.0768 192.975C98.3533 192.975 98.6297 192.962 98.9061 192.962C99.224 192.962 99.542 192.95 99.8599 192.95C99.9013 192.95 99.9428 192.95 99.9704 192.95C100.067 192.95 100.164 192.95 100.247 192.95C100.427 192.95 100.62 192.937 100.8 192.937C101.118 192.937 101.436 192.925 101.753 192.925C101.878 192.925 101.988 192.925 102.113 192.912C102.237 192.912 102.348 192.912 102.472 192.9C102.555 192.9 102.624 192.9 102.707 192.9C103.025 192.887 103.343 192.887 103.647 192.875C103.868 192.875 104.103 192.862 104.324 192.862C104.421 192.862 104.518 192.862 104.615 192.85C104.919 192.837 105.223 192.837 105.527 192.825C105.845 192.812 106.149 192.812 106.467 192.8C106.494 192.8 106.522 192.8 106.55 192.8C106.757 192.787 106.964 192.787 107.172 192.775C107.448 192.762 107.725 192.762 108.015 192.75C108.167 192.75 108.319 192.737 108.485 192.737C108.734 192.725 108.968 192.725 109.217 192.712C109.328 192.712 109.438 192.7 109.549 192.7C109.922 192.687 110.295 192.675 110.669 192.662C110.876 192.65 111.083 192.65 111.277 192.637C111.705 192.625 112.134 192.6 112.562 192.587C112.659 192.587 112.742 192.575 112.839 192.575C113.115 192.562 113.378 192.55 113.64 192.537C114.027 192.525 114.401 192.5 114.788 192.487C115.05 192.475 115.313 192.462 115.575 192.45C115.686 192.45 115.783 192.437 115.893 192.437C116.225 192.425 116.543 192.4 116.875 192.387C117.068 192.375 117.262 192.362 117.455 192.362C118.022 192.337 118.589 192.3 119.155 192.262C119.197 192.262 119.238 192.262 119.28 192.25C119.459 192.237 119.653 192.225 119.833 192.212C120.275 192.187 120.717 192.162 121.159 192.137C121.381 192.125 121.602 192.112 121.809 192.1C121.989 192.087 122.182 192.075 122.362 192.062C122.597 192.05 122.832 192.025 123.067 192.012C123.26 192 123.468 191.987 123.661 191.974C124.214 191.937 124.753 191.899 125.306 191.862C125.347 191.862 125.403 191.849 125.444 191.849C125.458 191.849 125.458 191.849 125.472 191.849H125.486C125.5 191.849 125.513 191.849 125.541 191.849C126.108 191.812 126.661 191.762 127.227 191.724C127.255 191.724 127.269 191.724 127.296 191.724C127.31 191.724 127.31 191.724 127.324 191.724C127.877 191.687 128.416 191.637 128.969 191.599C129.01 191.599 129.038 191.599 129.079 191.587C129.093 191.587 129.121 191.587 129.135 191.587C129.66 191.549 130.199 191.499 130.71 191.449C130.752 191.449 130.78 191.449 130.821 191.437C130.849 191.437 130.876 191.437 130.904 191.424C131.429 191.374 131.941 191.337 132.466 191.287C132.493 191.287 132.521 191.287 132.549 191.274C132.59 191.274 132.618 191.262 132.659 191.262C133.544 191.174 134.428 191.099 135.299 191.012C135.327 191.012 135.355 191.012 135.382 190.999C135.41 190.999 135.424 190.999 135.451 190.987C136.336 190.899 137.207 190.812 138.064 190.711C138.091 190.711 138.105 190.711 138.133 190.699C138.147 190.699 138.16 190.699 138.174 190.699C138.63 190.649 139.073 190.599 139.515 190.549C139.529 190.549 139.529 190.549 139.543 190.549C139.556 190.549 139.57 190.549 139.598 190.549C140.482 190.449 141.367 190.349 142.238 190.236C142.266 190.236 142.279 190.236 142.307 190.224C142.321 190.224 142.348 190.224 142.362 190.211C142.791 190.161 143.219 190.099 143.648 190.049C144.601 189.924 145.527 189.799 146.44 189.674C146.467 189.674 146.495 189.661 146.523 189.661C146.536 189.661 146.55 189.661 146.578 189.648C147.006 189.586 147.421 189.523 147.836 189.461C147.863 189.461 147.891 189.448 147.919 189.448C147.946 189.448 147.974 189.436 148.002 189.436C148.416 189.373 148.817 189.311 149.232 189.248C149.246 189.248 149.259 189.248 149.287 189.236C149.315 189.236 149.342 189.223 149.37 189.223C149.798 189.161 150.227 189.086 150.642 189.023H150.655C150.669 189.023 150.683 189.023 150.697 189.011C151.112 188.948 151.526 188.873 151.941 188.811C151.955 188.811 151.982 188.798 151.996 188.798C152.01 188.798 152.024 188.798 152.038 188.798C152.121 188.786 152.203 188.773 152.286 188.761C152.438 188.736 152.59 188.711 152.743 188.686C152.756 188.686 152.784 188.673 152.798 188.673C152.867 188.661 152.95 188.648 153.019 188.636C153.116 188.623 153.226 188.598 153.323 188.586C153.351 188.586 153.378 188.573 153.42 188.573C153.517 188.561 153.613 188.536 153.71 188.523C153.834 188.498 153.959 188.473 154.083 188.46C154.18 188.448 154.291 188.423 154.387 188.41C154.456 188.398 154.526 188.385 154.608 188.373C154.636 188.373 154.664 188.36 154.691 188.36C155.037 188.298 155.383 188.235 155.714 188.173C155.742 188.173 155.756 188.16 155.783 188.16C155.811 188.16 155.839 188.148 155.88 188.148C156.226 188.085 156.571 188.01 156.917 187.948C156.917 187.948 156.917 187.948 156.931 187.948H156.944C157.29 187.873 157.635 187.81 157.981 187.735C157.995 187.735 158.022 187.723 158.036 187.723C158.05 187.723 158.05 187.723 158.064 187.723C158.396 187.648 158.727 187.585 159.045 187.51C159.073 187.51 159.087 187.498 159.114 187.498C159.142 187.498 159.156 187.485 159.184 187.485C159.474 187.423 159.778 187.36 160.054 187.285C160.345 187.222 160.621 187.16 160.897 187.085C160.925 187.085 160.939 187.072 160.967 187.072C160.98 187.072 160.994 187.06 161.008 187.06C161.284 186.997 161.561 186.922 161.837 186.86H161.851C161.865 186.86 161.879 186.847 161.893 186.847C162.155 186.785 162.418 186.722 162.667 186.647C162.68 186.647 162.694 186.635 162.708 186.635C162.722 186.635 162.722 186.635 162.736 186.622C162.985 186.56 163.22 186.497 163.468 186.435H163.482C163.496 186.435 163.51 186.435 163.51 186.422C163.731 186.36 163.952 186.31 164.159 186.247C164.187 186.247 164.201 186.235 164.229 186.235C164.242 186.235 164.256 186.222 164.284 186.222C164.74 186.097 165.182 185.972 165.611 185.847C165.625 185.847 165.638 185.834 165.666 185.834C165.694 185.822 165.721 185.822 165.735 185.809C165.901 185.759 166.053 185.709 166.219 185.659C166.247 185.647 166.274 185.647 166.302 185.634C166.316 185.634 166.329 185.622 166.343 185.622C166.73 185.509 167.104 185.384 167.477 185.259C167.491 185.259 167.504 185.247 167.518 185.247C167.546 185.234 167.573 185.222 167.601 185.222C167.739 185.172 167.878 185.134 168.016 185.084C168.043 185.072 168.071 185.059 168.099 185.059C168.126 185.047 168.14 185.047 168.168 185.034C168.292 184.996 168.417 184.946 168.541 184.909C168.569 184.896 168.61 184.884 168.638 184.871C168.652 184.871 168.652 184.859 168.665 184.859C168.831 184.796 168.983 184.746 169.135 184.684C169.149 184.684 169.163 184.671 169.177 184.671C169.315 184.621 169.439 184.571 169.578 184.521C169.591 184.521 169.605 184.509 169.619 184.509C169.647 184.496 169.688 184.484 169.716 184.471C169.813 184.434 169.909 184.396 170.006 184.359C170.034 184.346 170.061 184.334 170.089 184.334C170.117 184.321 170.144 184.309 170.172 184.296C170.213 184.284 170.255 184.259 170.283 184.246C170.324 184.221 170.379 184.209 170.421 184.184C170.448 184.171 170.49 184.159 170.518 184.146C170.531 184.134 170.559 184.134 170.573 184.121C170.67 184.084 170.752 184.046 170.849 184.009C170.877 183.996 170.918 183.984 170.946 183.971C170.96 183.971 170.96 183.959 170.974 183.959C171.098 183.896 171.236 183.846 171.361 183.783C171.361 183.783 171.374 183.783 171.374 183.771C171.499 183.721 171.609 183.658 171.72 183.608C171.734 183.608 171.734 183.596 171.748 183.596C171.775 183.583 171.803 183.571 171.831 183.558C171.914 183.521 171.996 183.483 172.066 183.446C172.079 183.433 172.093 183.433 172.107 183.421C172.135 183.408 172.148 183.396 172.176 183.383C172.245 183.346 172.328 183.308 172.397 183.271C172.411 183.258 172.439 183.246 172.453 183.246C172.466 183.233 172.494 183.221 172.508 183.221C172.577 183.183 172.66 183.146 172.729 183.108C172.757 183.096 172.77 183.083 172.798 183.071C172.812 183.058 172.826 183.058 172.826 183.046C172.909 183.008 172.978 182.958 173.061 182.921C173.075 182.908 173.102 182.896 173.116 182.883C173.116 182.883 173.13 182.883 173.13 182.871C173.323 182.758 173.517 182.645 173.697 182.52C173.71 182.52 173.71 182.508 173.71 182.508C173.793 182.458 173.876 182.408 173.945 182.358L173.959 182.345C173.973 182.333 173.987 182.32 174.001 182.308C174.07 182.27 174.125 182.22 174.18 182.183C174.194 182.183 174.194 182.17 174.208 182.17C174.222 182.158 174.236 182.145 174.249 182.133C174.305 182.095 174.36 182.058 174.415 182.008C174.429 181.995 174.443 181.995 174.443 181.983C174.457 181.97 174.471 181.958 174.484 181.958C174.54 181.92 174.581 181.883 174.636 181.845C174.65 181.833 174.664 181.82 174.678 181.82C174.692 181.808 174.692 181.808 174.706 181.795C174.761 181.758 174.802 181.72 174.844 181.67C174.858 181.658 174.871 181.645 174.885 181.633L174.899 181.62C174.954 181.583 174.996 181.532 175.037 181.495C175.051 181.482 175.065 181.47 175.079 181.457L175.093 181.445C175.148 181.395 175.189 181.345 175.245 181.295C175.245 181.282 175.258 181.282 175.258 181.27C175.369 181.157 175.48 181.032 175.576 180.92C175.59 180.907 175.59 180.895 175.604 180.882C175.645 180.832 175.673 180.795 175.715 180.745L175.728 180.732C175.742 180.72 175.742 180.707 175.756 180.695C175.784 180.657 175.811 180.62 175.839 180.57C175.839 180.557 175.853 180.557 175.853 180.545C175.867 180.532 175.867 180.52 175.88 180.507C175.908 180.47 175.922 180.432 175.95 180.395C175.95 180.382 175.963 180.369 175.963 180.357C175.963 180.344 175.977 180.332 175.977 180.319C175.991 180.282 176.019 180.244 176.032 180.207C176.032 180.194 176.046 180.182 176.06 180.169C176.06 180.157 176.074 180.157 176.074 180.144C176.088 180.107 176.102 180.069 176.129 180.032C176.129 180.019 176.143 180.007 176.143 179.982V179.969C176.157 179.919 176.171 179.882 176.198 179.832C176.198 179.819 176.212 179.807 176.212 179.794C176.212 179.794 176.212 179.794 176.212 179.782C176.226 179.719 176.254 179.657 176.267 179.594C176.267 179.582 176.267 179.569 176.267 179.569C176.281 179.519 176.295 179.469 176.295 179.419V179.407C176.295 179.394 176.295 179.369 176.295 179.357C176.295 179.319 176.309 179.282 176.309 179.244C176.309 179.231 176.309 179.231 176.309 179.219C176.309 179.206 176.309 179.206 176.309 179.194C176.309 179.181 176.309 179.181 176.309 179.169C176.309 179.156 176.309 179.156 176.309 179.144C176.309 179.131 176.309 179.131 176.309 179.119L176.945 147.98C177 147.943 177 147.968 177 148.006Z" fill="url(#paint0_linear)"/>
<path d="M91.0138 138C101.586 138 111.73 138.238 121.072 138.663C130.525 139.101 139.259 139.726 146.86 140.527C154.613 141.34 161.274 142.328 166.332 143.454C171.528 144.617 175.08 145.918 176.42 147.331C177.802 148.795 176.683 150.233 173.394 151.584C170.008 152.973 164.328 154.249 156.741 155.362C148.988 156.488 139.3 157.426 128.189 158.076C116.926 158.739 104.322 159.114 91 159.114C77.6777 159.114 65.0741 158.739 53.8109 158.076C42.6998 157.426 33.0121 156.488 25.2592 155.362C17.6722 154.261 12.006 152.973 8.60637 151.584C5.31726 150.233 4.19786 148.795 5.57983 147.331C6.92036 145.918 10.472 144.605 15.6683 143.454C20.7263 142.328 27.3875 141.34 35.1404 140.527C42.7551 139.726 51.4892 139.088 60.9281 138.663C70.2979 138.238 80.4417 138 91.0138 138Z" fill="url(#paint1_linear)"/>
<ellipse cx="91.5" cy="151.5" rx="47.5" ry="5.5" fill="url(#paint2_radial)"/>
<g filter="url(#filter0_dd)">
<path d="M152 137.803C137.435 78.3367 91.7047 30.6027 91.2349 30.1205C91.0783 29.9598 90.9217 29.9598 90.7651 30.1205C90.2952 30.6027 44.5648 78.176 30 137.803C30 137.964 30 138.125 30.3132 138.285C30.6264 138.285 58.8164 146 94.5238 146C115.353 146 134.616 143.429 151.843 138.446C152 137.964 152 137.803 152 137.803Z" fill="url(#paint3_linear)"/>
<path opacity="0.6" d="M126.942 99.5513L128.352 81.8721L128.665 82.5149C132.111 88.4616 135.243 94.569 138.062 100.516L138.218 100.998L126.942 99.5513Z" fill="url(#paint4_linear)"/>
<path opacity="0.3" d="M125.376 122.535L126.943 99.7124L138.375 101.159L125.376 122.535Z" fill="url(#paint5_linear)"/>
<path d="M112.534 91.5156L126.942 99.7124L125.376 122.374C125.376 122.374 121.148 107.106 112.534 91.5156Z" fill="url(#paint6_linear)"/>
<path d="M112.534 91.3552L108.775 70.3008L128.351 81.8727L126.942 99.5519L112.534 91.3552Z" fill="url(#paint7_linear)"/>
<path opacity="0.5" d="M91.0781 62.1045L108.619 70.3012L101.258 74.3192C101.258 74.3192 95.15 66.1225 91.0781 62.1045Z" fill="url(#paint8_linear)"/>
<path opacity="0.1" d="M90.9224 61.943L113.005 58.5679L108.619 70.1398L90.9224 61.943Z" fill="url(#paint9_linear)"/>
<path opacity="0.9" d="M112.377 91.1944C108.462 83.962 101.258 74.3188 101.258 74.3188L108.619 70.3008L112.377 91.1944Z" fill="url(#paint10_linear)"/>
<path d="M108.775 70.14L113.317 58.0859L113.63 58.5681C118.798 65.9612 123.653 73.5151 128.038 81.0689L128.508 81.8725L108.775 70.14Z" fill="url(#paint11_linear)"/>
<path opacity="0.3" d="M91.0781 30.6025L91.548 31.0847C94.0537 33.6562 102.667 43.2995 113.16 57.925L113.474 58.2464L91.0781 61.7823V30.6025Z" fill="url(#paint12_linear)"/>
<path opacity="0.9" d="M92.9563 127.196C74.6328 127.196 59.7548 123.66 56.9358 123.018H56.6226V122.696C59.9114 109.196 66.6457 96.1772 73.3799 85.8911C82.4634 71.7477 90.7638 62.1045 90.7638 62.1045C97.1848 69.0155 106.895 82.1945 112.063 91.5163C120.99 107.91 125.218 122.696 125.218 122.696C125.218 122.696 113.316 127.036 92.9563 127.196Z" fill="url(#paint13_linear)"/>
<path d="M99.6907 72.7113C98.1246 70.6219 96.5585 68.5326 94.9923 66.7646L68.2119 94.2479C64.7664 100.516 61.4776 107.266 59.1284 114.338L99.6907 72.7113Z" fill="url(#paint14_linear)"/>
<path d="M108.776 85.7296C106.897 82.6759 104.704 79.4615 102.355 76.2471C87.1639 91.837 72.1293 107.266 56.938 122.856C58.3475 123.177 63.2024 124.303 70.0933 125.428L108.776 85.7296Z" fill="url(#paint15_linear)"/>
<path d="M115.039 96.9801C114.099 95.2121 113.16 93.4442 112.22 91.5156C111.907 90.8727 111.437 90.2298 111.124 89.5869C99.2214 101.802 87.3189 114.016 75.4165 126.231C78.5487 126.553 82.1508 126.874 85.7528 127.035L115.039 96.9801Z" fill="url(#paint16_linear)"/>
<path d="M92.9566 127.195C98.2814 127.195 102.823 126.874 106.895 126.392L121.303 111.606C120.05 108.552 118.641 105.016 116.761 101.159C108.304 109.838 99.8475 118.516 91.2339 127.356C92.0169 127.195 92.4868 127.195 92.9566 127.195Z" fill="url(#paint17_linear)"/>
<path opacity="0.4" d="M108.775 126.392H109.088C113.786 125.749 121.147 124.303 125.062 123.017L122.87 124.464L109.401 133.303L108.775 126.392Z" fill="url(#paint18_linear)"/>
<path d="M91.2339 127.356C96.2454 127.356 103.45 127.035 108.304 126.553H108.618L109.244 133.142L91.2339 127.356Z" fill="url(#paint19_linear)"/>
<path d="M73.2256 126.07C78.3937 126.713 85.5978 127.035 90.6094 127.195L72.5991 132.981L73.2256 126.07Z" fill="#FF509D"/>
<path opacity="0.6" d="M56.7793 123.017C56.7793 123.017 65.7061 125.267 73.0668 126.071L72.4404 133.142L56.7793 123.017Z" fill="url(#paint20_linear)"/>
<path d="M56.4669 122.696L54.7441 99.5518L69.6222 91.1943C63.5144 101.32 59.4425 111.124 56.9367 120.767L56.4669 122.696Z" fill="url(#paint21_linear)"/>
<path d="M68.6821 58.5679L90.7643 61.943L73.0672 70.1398L68.6821 58.5679Z" fill="url(#paint22_linear)"/>
<path d="M73.2241 70.1401L90.7646 61.9434C86.5361 66.6043 80.8981 74.3188 80.8981 74.3188L73.2241 70.1401Z" fill="url(#paint23_linear)"/>
<path opacity="0.1" d="M73.0676 70.3008L80.7416 74.6403C80.7416 74.6403 72.911 85.7299 69.7788 91.1944L73.0676 70.3008Z" fill="url(#paint24_linear)"/>
<path opacity="0.7" d="M68.5254 58.4076L68.8386 58.0862C79.3316 43.4606 87.9452 33.8173 90.4509 31.2458L90.9208 30.7637V61.7827L68.5254 58.4076Z" fill="url(#paint25_linear)"/>
<path d="M54.1191 80.747C58.3476 73.3538 63.2026 65.9607 68.2141 58.7283L68.5273 58.2461L72.9124 69.9787L53.4927 81.5506L54.1191 80.747Z" fill="url(#paint26_linear)"/>
<path d="M53.4927 82.0334L72.9124 70.3008L69.6236 91.0338L54.9022 99.5519L53.4927 82.0334Z" fill="url(#paint27_linear)"/>
<path d="M43.7811 100.516C46.6001 94.5694 49.5757 88.6227 52.8646 82.8368L53.3344 82.0332L54.7439 99.391L43.6245 100.998L43.7811 100.516Z" fill="url(#paint28_linear)"/>
<path d="M43.4678 101.159L54.7438 99.7124L56.4665 122.695L43.4678 101.159Z" fill="url(#paint29_linear)"/>
<path opacity="0.7" d="M30.6249 137C33.4439 125.588 37.6724 113.856 43.1538 101.963L43.3104 101.48L56.1525 122.856L30.4683 137.643L30.6249 137Z" fill="url(#paint30_linear)"/>
<path opacity="0.4" d="M63.6698 143.75C45.9728 141.821 33.4439 138.607 31.0947 138.125L30.4683 137.964L56.4657 123.017L64.2962 143.75H63.6698Z" fill="url(#paint31_linear)"/>
<path d="M56.4678 123.017L72.4421 133.303L64.1417 143.429L56.4678 123.017Z" fill="url(#paint32_linear)"/>
<path opacity="0.8" d="M89.6682 145.517C81.8377 145.357 73.3807 144.714 64.6105 143.75H64.1406L72.5976 133.303L90.7645 145.517H89.6682Z" fill="url(#paint33_linear)"/>
<path opacity="0.7" d="M90.9226 127.356L72.5991 133.303L90.9226 145.518C91.2358 145.357 108.306 133.625 108.463 133.464L108.933 133.142L90.9226 127.356Z" fill="url(#paint34_linear)"/>
<path d="M91.2339 145.518L109.088 133.143L117.388 144.393H116.918C109.714 145.036 102.04 145.518 94.3661 145.518H92.3302H91.2339Z" fill="url(#paint35_linear)"/>
<path d="M109.402 133.303L125.377 122.695L117.546 144.232L109.402 133.303Z" fill="url(#paint36_linear)"/>
<path opacity="0.4" d="M125.533 122.856L151.531 137.964L150.904 138.124C140.724 141.017 129.762 143.107 118.172 144.392H117.703L125.533 122.856Z" fill="url(#paint37_linear)"/>
<path opacity="0.4" d="M125.532 122.695L138.531 101.319L138.688 101.801C144.169 113.695 148.397 125.588 151.373 137.16L151.53 137.803L125.532 122.695Z" fill="url(#paint38_linear)"/>
</g>
<defs>
<filter id="filter0_dd" x="0" y="0" width="182" height="181.314" filterUnits="userSpaceOnUse" color-interpolation-filters="sRGB">
<feFlood flood-opacity="0" result="BackgroundImageFix"/>
<feColorMatrix in="SourceAlpha" type="matrix" values="0 0 0 0 0 0 0 0 0 0 0 0 0 0 0 0 0 0 127 0" result="hardAlpha"/>
<feOffset/>
<feGaussianBlur stdDeviation="15"/>
<feColorMatrix type="matrix" values="0 0 0 0 1 0 0 0 0 1 0 0 0 0 1 0 0 0 0.2 0"/>
<feBlend mode="normal" in2="BackgroundImageFix" result="effect1_dropShadow"/>
<feColorMatrix in="SourceAlpha" type="matrix" values="0 0 0 0 0 0 0 0 0 0 0 0 0 0 0 0 0 0 127 0" result="hardAlpha"/>
<feOffset dy="5.31447"/>
<feGaussianBlur stdDeviation="15"/>
<feColorMatrix type="matrix" values="0 0 0 0 1 0 0 0 0 1 0 0 0 0 1 0 0 0 0.2 0"/>
<feBlend mode="normal" in2="effect1_dropShadow" result="effect2_dropShadow"/>
<feBlend mode="normal" in="SourceGraphic" in2="effect2_dropShadow" result="shape"/>
</filter>
<linearGradient id="paint0_linear" x1="4.99648" y1="170.457" x2="177.001" y2="170.457" gradientUnits="userSpaceOnUse">
<stop stop-color="#1F1E2D"/>
<stop offset="0.494792" stop-color="#1E1B30"/>
<stop offset="1" stop-color="#1F1E2D"/>
</linearGradient>
<linearGradient id="paint1_linear" x1="91.0126" y1="138.004" x2="91.0126" y2="163.025" gradientUnits="userSpaceOnUse">
<stop stop-color="#1F1E2D"/>
<stop offset="1" stop-color="#2C2A45"/>
</linearGradient>
<radialGradient id="paint2_radial" cx="0" cy="0" r="1" gradientUnits="userSpaceOnUse" gradientTransform="translate(91.5 151.5) rotate(90) scale(5.5 47.5)">
<stop stop-color="#010105"/>
<stop offset="1" stop-color="#1D1C25" stop-opacity="0"/>
</radialGradient>
<linearGradient id="paint3_linear" x1="30.0002" y1="87.9722" x2="152.004" y2="87.9722" gradientUnits="userSpaceOnUse">
<stop stop-color="#FF5CAA"/>
<stop offset="0.11" stop-color="#FF56A6"/>
<stop offset="0.6681" stop-color="#FF3C92"/>
<stop offset="1" stop-color="#FF328B"/>
</linearGradient>
<linearGradient id="paint4_linear" x1="105.581" y1="65.1543" x2="124.62" y2="86.0034" gradientUnits="userSpaceOnUse">
<stop stop-color="#FF328B"/>
<stop offset="1" stop-color="#960049"/>
</linearGradient>
<linearGradient id="paint5_linear" x1="113.623" y1="82.7939" x2="125.866" y2="101.311" gradientUnits="userSpaceOnUse">
<stop stop-color="#FF328B"/>
<stop offset="1" stop-color="#960049"/>
</linearGradient>
<linearGradient id="paint6_linear" x1="118.75" y1="106.96" x2="153.229" y2="91.7203" gradientUnits="userSpaceOnUse">
<stop stop-color="#FF5CAA"/>
<stop offset="0.11" stop-color="#FF56A6"/>
<stop offset="0.6681" stop-color="#FF3C92"/>
<stop offset="1" stop-color="#FF328B"/>
</linearGradient>
<linearGradient id="paint7_linear" x1="109.579" y1="71.4798" x2="165.146" y2="145.155" gradientUnits="userSpaceOnUse">
<stop stop-color="#FFF0F7"/>
<stop offset="1" stop-color="#FF629D"/>
</linearGradient>
<linearGradient id="paint8_linear" x1="99.5362" y1="64.5143" x2="107.196" y2="109.297" gradientUnits="userSpaceOnUse">
<stop stop-color="#FFF0F7"/>
<stop offset="1" stop-color="#FF629D"/>
</linearGradient>
<linearGradient id="paint9_linear" x1="90.9415" y1="64.321" x2="112.998" y2="64.321" gradientUnits="userSpaceOnUse">
<stop stop-color="#FFF0F7"/>
<stop offset="1" stop-color="#FF629D"/>
</linearGradient>
<linearGradient id="paint10_linear" x1="107.006" y1="82.3394" x2="140.041" y2="68.4938" gradientUnits="userSpaceOnUse">
<stop stop-color="#FF5CAA"/>
<stop offset="0.11" stop-color="#FF56A6"/>
<stop offset="0.6681" stop-color="#FF3C92"/>
<stop offset="1" stop-color="#FF328B"/>
</linearGradient>
<linearGradient id="paint11_linear" x1="108.783" y1="69.9612" x2="128.379" y2="69.9612" gradientUnits="userSpaceOnUse">
<stop stop-color="#FF5CAA"/>
<stop offset="0.11" stop-color="#FF56A6"/>
<stop offset="0.6681" stop-color="#FF3C92"/>
<stop offset="1" stop-color="#FF328B"/>
</linearGradient>
<linearGradient id="paint12_linear" x1="86.2575" y1="6.66918" x2="96.8489" y2="40.2711" gradientUnits="userSpaceOnUse">
<stop stop-color="#FF5CAA"/>
<stop offset="0.11" stop-color="#FF56A6"/>
<stop offset="0.6681" stop-color="#FF3C92"/>
<stop offset="1" stop-color="#FF328B"/>
</linearGradient>
<linearGradient id="paint13_linear" x1="66.3793" y1="77.524" x2="125.133" y2="168.983" gradientUnits="userSpaceOnUse">
<stop stop-color="#FFF0F7"/>
<stop offset="1" stop-color="#FF629D"/>
</linearGradient>
<linearGradient id="paint14_linear" x1="68.7229" y1="76.0186" x2="127.475" y2="167.476" gradientUnits="userSpaceOnUse">
<stop stop-color="#FFF0F7"/>
<stop offset="1" stop-color="#FF629D"/>
</linearGradient>
<linearGradient id="paint15_linear" x1="66.4413" y1="77.4869" x2="125.193" y2="168.944" gradientUnits="userSpaceOnUse">
<stop stop-color="#FFF0F7"/>
<stop offset="1" stop-color="#FF629D"/>
</linearGradient>
<linearGradient id="paint16_linear" x1="72.3606" y1="73.6783" x2="131.118" y2="165.144" gradientUnits="userSpaceOnUse">
<stop stop-color="#FFF0F7"/>
<stop offset="1" stop-color="#FF629D"/>
</linearGradient>
<linearGradient id="paint17_linear" x1="77.5559" y1="70.3444" x2="136.309" y2="161.804" gradientUnits="userSpaceOnUse">
<stop stop-color="#FFF0F7"/>
<stop offset="1" stop-color="#FF629D"/>
</linearGradient>
<linearGradient id="paint18_linear" x1="111.06" y1="106.537" x2="115.742" y2="122.265" gradientUnits="userSpaceOnUse">
<stop stop-color="#FF328B"/>
<stop offset="1" stop-color="#960049"/>
</linearGradient>
<linearGradient id="paint19_linear" x1="99.4358" y1="132.213" x2="84.0797" y2="170.758" gradientUnits="userSpaceOnUse">
<stop stop-color="#FF5CAA"/>
<stop offset="0.11" stop-color="#FF56A6"/>
<stop offset="0.6681" stop-color="#FF3C92"/>
<stop offset="1" stop-color="#FF328B"/>
</linearGradient>
<linearGradient id="paint20_linear" x1="69.3354" y1="117.41" x2="58.1198" y2="141.417" gradientUnits="userSpaceOnUse">
<stop stop-color="#FF328B"/>
<stop offset="1" stop-color="#960049"/>
</linearGradient>
<linearGradient id="paint21_linear" x1="44.9113" y1="89.2776" x2="72.5315" y2="114.784" gradientUnits="userSpaceOnUse">
<stop stop-color="#FF5CAA"/>
<stop offset="0.11" stop-color="#FF56A6"/>
<stop offset="0.6681" stop-color="#FF3C92"/>
<stop offset="1" stop-color="#FF328B"/>
</linearGradient>
<linearGradient id="paint22_linear" x1="78.9201" y1="56.9472" x2="93.5303" y2="111.19" gradientUnits="userSpaceOnUse">
<stop stop-color="#FFF0F7"/>
<stop offset="1" stop-color="#FF629D"/>
</linearGradient>
<linearGradient id="paint23_linear" x1="78.6563" y1="62.213" x2="107.565" y2="94.6257" gradientUnits="userSpaceOnUse">
<stop stop-color="#FF5CAA"/>
<stop offset="1" stop-color="#FF328B"/>
</linearGradient>
<linearGradient id="paint24_linear" x1="66.6314" y1="76.9871" x2="108.746" y2="104.19" gradientUnits="userSpaceOnUse">
<stop stop-color="#FFF0F7"/>
<stop offset="1" stop-color="#FF629D"/>
</linearGradient>
<linearGradient id="paint25_linear" x1="74.0141" y1="36.0419" x2="126.542" y2="109.265" gradientUnits="userSpaceOnUse">
<stop stop-color="#FFF0F7"/>
<stop offset="1" stop-color="#FF629D"/>
</linearGradient>
<linearGradient id="paint26_linear" x1="47.8414" y1="54.5743" x2="68.0388" y2="77.0838" gradientUnits="userSpaceOnUse">
<stop stop-color="#FF5CAA"/>
<stop offset="0.11" stop-color="#FF56A6"/>
<stop offset="0.6681" stop-color="#FF3C92"/>
<stop offset="1" stop-color="#FF328B"/>
</linearGradient>
<linearGradient id="paint27_linear" x1="34.7341" y1="55.3416" x2="84.615" y2="103.419" gradientUnits="userSpaceOnUse">
<stop stop-color="#FFF0F7"/>
<stop offset="1" stop-color="#FF629D"/>
</linearGradient>
<linearGradient id="paint28_linear" x1="42.3982" y1="82.6962" x2="60.2732" y2="107.579" gradientUnits="userSpaceOnUse">
<stop stop-color="#FF5CAA"/>
<stop offset="0.11" stop-color="#FF56A6"/>
<stop offset="0.6681" stop-color="#FF3C92"/>
<stop offset="1" stop-color="#FF328B"/>
</linearGradient>
<linearGradient id="paint29_linear" x1="48.5442" y1="113.151" x2="82.8982" y2="85.6348" gradientUnits="userSpaceOnUse">
<stop stop-color="#FF5CAA"/>
<stop offset="1" stop-color="#FF328B"/>
</linearGradient>
<linearGradient id="paint30_linear" x1="56.155" y1="112.404" x2="125.813" y2="87.8781" gradientUnits="userSpaceOnUse">
<stop stop-color="#FF328B"/>
<stop offset="1" stop-color="#960049"/>
</linearGradient>
<linearGradient id="paint31_linear" x1="39.5539" y1="94.3269" x2="44.1867" y2="120.871" gradientUnits="userSpaceOnUse">
<stop stop-color="#FF328B"/>
<stop offset="1" stop-color="#960049"/>
</linearGradient>
<linearGradient id="paint32_linear" x1="56.522" y1="133.196" x2="72.3712" y2="133.196" gradientUnits="userSpaceOnUse">
<stop stop-color="#FF5CAA"/>
<stop offset="0.11" stop-color="#FF56A6"/>
<stop offset="0.6681" stop-color="#FF3C92"/>
<stop offset="1" stop-color="#FF328B"/>
</linearGradient>
<linearGradient id="paint33_linear" x1="78.0839" y1="119.719" x2="77.218" y2="149.132" gradientUnits="userSpaceOnUse">
<stop stop-color="#FF328B"/>
<stop offset="1" stop-color="#960049"/>
</linearGradient>
<linearGradient id="paint34_linear" x1="90.4373" y1="126.663" x2="92.9114" y2="175.843" gradientUnits="userSpaceOnUse">
<stop stop-color="#FF328B"/>
<stop offset="1" stop-color="#960049"/>
</linearGradient>
<linearGradient id="paint35_linear" x1="100.323" y1="117.575" x2="103.166" y2="136.119" gradientUnits="userSpaceOnUse">
<stop stop-color="#FF328B"/>
<stop offset="1" stop-color="#960049"/>
</linearGradient>
<linearGradient id="paint36_linear" x1="103.642" y1="114.263" x2="128.5" y2="139.779" gradientUnits="userSpaceOnUse">
<stop stop-color="#FF5CAA"/>
<stop offset="0.11" stop-color="#FF56A6"/>
<stop offset="0.6681" stop-color="#FF3C92"/>
<stop offset="1" stop-color="#FF328B"/>
</linearGradient>
<linearGradient id="paint37_linear" x1="112.561" y1="104.095" x2="121.708" y2="118.713" gradientUnits="userSpaceOnUse">
<stop stop-color="#FF328B"/>
<stop offset="1" stop-color="#960049"/>
</linearGradient>
<linearGradient id="paint38_linear" x1="115.921" y1="102.492" x2="190.154" y2="144.05" gradientUnits="userSpaceOnUse">
<stop stop-color="#FFF0F7"/>
<stop offset="1" stop-color="#FF629D"/>
</linearGradient>
</defs>
</svg>
