<svg width="62" height="77" viewBox="0 0 62 77" fill="none" xmlns="http://www.w3.org/2000/svg">
<path d="M50.9659 56.9683C56.773 46.0029 52.5915 32.4062 41.6261 26.5991C30.6608 20.7919 17.0641 24.9734 11.2569 35.9388C5.4498 46.9041 9.63133 60.5008 20.5966 66.308C31.562 72.1151 45.1587 67.9336 50.9659 56.9683Z" fill="#2E2C2D"/>
<path opacity="0.4" d="M31.1222 68.9383C43.5306 68.9383 53.5896 58.8792 53.5896 46.4708C53.5896 34.0624 43.5306 24.0034 31.1222 24.0034C18.7138 24.0034 8.65479 34.0624 8.65479 46.4708C8.65479 58.8792 18.7138 68.9383 31.1222 68.9383Z" fill="url(#paint0_radial)"/>
<path opacity="0.1" d="M32.447 63.8029C20.9779 59.0954 15.4573 45.9573 20.2076 34.4882C22.005 30.0804 25.0862 26.5284 28.8522 24.1318C20.8923 24.9449 13.5743 30.0376 10.3219 37.9546C5.61445 49.4237 11.0922 62.5618 22.5613 67.2693C29.6225 70.1793 37.2828 69.1951 43.2741 65.3863C39.6793 65.7287 35.999 65.2579 32.447 63.8029Z" fill="url(#paint1_radial)"/>
<path opacity="0.2" d="M20.34 29.2245C20.126 32.3914 23.892 34.8307 28.7706 34.1032C33.6492 33.4184 36.5593 29.9948 35.4894 27.042C34.5479 24.5171 30.9532 23.1476 27.2728 23.6612C23.5924 24.1747 20.5112 26.5284 20.34 29.2245Z" fill="url(#paint2_radial)"/>
<path d="M31.638 20.9224L33.307 26.1862C33.6494 27.2988 31.3385 28.6255 28.086 29.0962C24.8336 29.567 22.2231 28.9678 22.2659 27.7696L22.3515 22.249L31.638 20.9224Z" fill="#2E2C2D"/>
<path d="M22.3518 22.2493C22.3946 23.4476 24.6199 24.1323 27.316 23.7471C30.0121 23.362 31.9379 22.0353 31.6383 20.8798C31.3387 19.7672 29.1562 19.2108 26.7169 19.5532C24.2775 19.9812 22.309 21.1366 22.3518 22.2493Z" fill="#3F3F3F"/>
<path d="M24.2775 21.9928C24.3203 22.5063 25.6042 22.8059 27.1448 22.5491C28.6854 22.3351 29.8409 21.736 29.7125 21.1796C29.6269 20.6661 28.3431 20.4521 26.8452 20.6661C25.3902 20.8801 24.2347 21.4792 24.2775 21.9928Z" fill="black"/>
<path d="M24.1463 18.8682C24.1463 18.911 24.1891 18.9538 24.1891 18.9966C24.2747 19.2105 24.5742 19.2533 24.7026 19.0822C25.045 18.697 25.3018 18.3119 25.7297 17.7555C26.0293 17.3704 26.0721 16.8996 25.8153 16.4717C25.7725 16.4289 25.7725 16.3861 25.7297 16.3433C25.6013 16.1293 25.3445 16.1293 25.2162 16.3005C24.8738 16.7712 24.6598 17.0708 24.2319 17.6271C23.9751 18.0123 23.9323 18.483 24.1463 18.8682Z" fill="#A4653B"/>
<path d="M24.6599 20.1092C24.6599 20.152 24.7027 20.1948 24.7027 20.2376C24.7883 20.4516 25.0879 20.4943 25.2163 20.3232C25.5586 19.938 25.8582 19.5956 26.2861 19.0393C26.5857 18.6542 26.6713 18.1406 26.4573 17.7127C26.4573 17.6699 26.4145 17.6271 26.4145 17.6271C26.3289 17.4131 26.0294 17.3703 25.8582 17.5843C25.5158 18.055 25.2591 18.3974 24.8311 18.9109C24.5315 19.2533 24.4888 19.6812 24.6599 20.1092Z" fill="#AA6A2D"/>
<path d="M22.7773 16.5148C22.8201 16.5576 22.8629 16.6432 22.9057 16.686C23.0341 16.8572 23.2908 16.8572 23.4192 16.686C23.7616 16.2581 23.9755 15.9157 24.3179 15.4022C24.5747 15.0598 24.5319 14.5891 24.1895 14.2467C24.1039 14.1611 24.0611 14.1183 24.0183 14.0755C23.89 13.9043 23.6332 13.9471 23.5048 14.1183C23.248 14.5463 23.0341 14.8886 22.6917 15.4022C22.4777 15.7017 22.5205 16.1297 22.7773 16.5148Z" fill="#A4653B"/>
<path d="M23.5058 17.6701C23.5486 17.7129 23.5486 17.7557 23.5914 17.7985C23.7198 18.0125 23.9766 18.0125 24.105 17.8413C24.4473 17.4134 24.7041 17.071 25.0893 16.5147C25.346 16.1295 25.3888 15.7016 25.0893 15.3164C25.0465 15.2736 25.0037 15.188 24.9609 15.1452C24.8325 14.9741 24.5757 14.9741 24.4473 15.1452C24.1478 15.5732 23.9338 15.9155 23.5486 16.4291C23.2919 16.8142 23.2919 17.285 23.5058 17.6701Z" fill="#AA6A2D"/>
<path d="M20.9366 14.3746C21.0222 14.4602 21.065 14.503 21.1506 14.5886C21.279 14.717 21.5357 14.717 21.6213 14.5458C21.8781 14.1179 22.0921 13.7755 22.3488 13.262C22.5628 12.9196 22.4344 12.4917 22.0493 12.1065C21.9637 12.0209 21.8781 11.9353 21.7925 11.8925C21.6213 11.7641 21.4074 11.8069 21.3218 11.9781C21.1078 12.4061 20.9366 12.7484 20.637 13.262C20.4659 13.6043 20.5515 14.0323 20.9366 14.3746Z" fill="#A4653B"/>
<path d="M21.9207 15.4018C21.9635 15.4874 22.0491 15.5302 22.0918 15.573C22.2202 15.7442 22.477 15.7014 22.6054 15.5302C22.9049 15.1022 23.1189 14.7599 23.4185 14.2463C23.6325 13.904 23.5469 13.4332 23.2045 13.0909C23.1189 13.0053 23.0761 12.9625 22.9905 12.8769C22.8621 12.7485 22.6054 12.7913 22.477 12.9625C22.2202 13.3904 22.049 13.7328 21.7495 14.2463C21.5355 14.6315 21.6211 15.0594 21.9207 15.4018Z" fill="#AA6A2D"/>
<path d="M18.5839 12.4065C18.7123 12.4921 18.7551 12.5349 18.8406 12.6205C19.0118 12.7488 19.2258 12.706 19.3114 12.5349C19.5254 12.1069 19.6965 11.7646 19.9533 11.251C20.1245 10.9087 19.9533 10.4807 19.4826 10.1383C19.3542 10.0527 19.2686 9.96716 19.183 9.92436C19.0118 9.79598 18.7978 9.88157 18.7123 10.0527C18.4983 10.5235 18.3699 10.8231 18.1559 11.3794C18.0275 11.679 18.1987 12.0641 18.5839 12.4065Z" fill="#A4653B"/>
<path d="M19.7815 13.3475C19.8671 13.4331 19.9527 13.4759 20.0383 13.5615C20.2095 13.6899 20.4235 13.6471 20.5091 13.4759C20.7658 13.048 20.937 12.7056 21.1938 12.1921C21.365 11.8497 21.2366 11.4218 20.8086 11.0794C20.6803 10.9938 20.5947 10.9082 20.5519 10.8654C20.3807 10.737 20.1667 10.7798 20.0811 10.9938C19.8671 11.4646 19.7388 11.7641 19.482 12.2777C19.268 12.62 19.3964 13.048 19.7815 13.3475Z" fill="#AA6A2D"/>
<path d="M15.9736 10.5235C16.102 10.6091 16.1876 10.6519 16.2732 10.7375C16.4444 10.8659 16.6583 10.7803 16.7439 10.6091C16.9579 10.1384 17.0863 9.83881 17.3003 9.28248C17.4286 8.89732 17.2575 8.46937 16.7867 8.16981C16.6583 8.08422 16.5728 7.99862 16.4872 7.95583C16.316 7.82744 16.102 7.91303 16.0164 8.12701C15.8452 8.59775 15.7168 8.94012 15.5029 9.49645C15.3317 9.83881 15.5029 10.224 15.9736 10.5235Z" fill="#A4653B"/>
<path d="M17.2989 11.4645C17.4273 11.5501 17.5129 11.5929 17.5985 11.6785C17.7696 11.8068 17.9836 11.7212 18.0692 11.5501C18.2832 11.1221 18.4116 10.7798 18.6683 10.2234C18.8395 9.88106 18.6255 9.41032 18.1548 9.11075C18.0264 9.02516 17.9408 8.93957 17.8552 8.89678C17.684 8.76839 17.4701 8.85398 17.3845 9.02516C17.2133 9.49591 17.0849 9.83827 16.8281 10.3518C16.657 10.737 16.8709 11.1221 17.2989 11.4645Z" fill="#AA6A2D"/>
<path d="M13.1907 8.72582C13.3191 8.81141 13.4047 8.85421 13.5331 8.9398C13.7043 9.06818 13.9183 8.98259 14.0038 8.76862C14.175 8.29787 14.3034 7.95551 14.5174 7.39918C14.6458 7.01402 14.4318 6.58607 13.9611 6.2865C13.8327 6.20091 13.7471 6.15812 13.6615 6.07253C13.4903 5.94414 13.2763 6.02973 13.1907 6.24371C13.0196 6.75725 12.8912 7.09961 12.6772 7.65595C12.506 7.99831 12.72 8.42626 13.1907 8.72582Z" fill="#A4653B"/>
<path d="M14.6035 9.62443C14.7319 9.71002 14.8175 9.75282 14.9031 9.83841C15.0743 9.96679 15.2883 9.88121 15.3738 9.71003C15.545 9.23928 15.6734 8.89692 15.8874 8.34058C16.0158 7.95543 15.8018 7.52748 15.331 7.22791C15.2027 7.14232 15.1171 7.09952 15.0315 7.01393C14.8603 6.88555 14.6463 6.97114 14.5607 7.18512C14.3896 7.65586 14.2612 7.99822 14.0472 8.55456C13.9188 8.89692 14.1328 9.32487 14.6035 9.62443Z" fill="#AA6A2D"/>
<path d="M11.778 7.827C11.9064 7.91259 11.992 7.95538 12.0775 8.04097C12.2487 8.16936 12.4627 8.08377 12.5483 7.86979C12.7195 7.39905 12.8479 7.05668 13.0618 6.45755C13.1902 6.0724 13.019 5.64445 12.5483 5.34488C12.4199 5.25929 12.3343 5.2165 12.2487 5.13091C12.0776 5.00252 11.8636 5.08811 11.778 5.25929C11.6068 5.77283 11.4356 6.11519 11.2216 6.67153C11.1361 7.09948 11.3072 7.52743 11.778 7.827Z" fill="#AA6A2D"/>
<path d="M27.7408 22.4202C27.6552 22.4202 27.6124 22.463 27.5268 22.463C27.4841 22.463 27.4413 22.463 27.3557 22.5058C27.3129 22.5058 27.3129 22.5058 27.2701 22.5058C27.2273 22.5058 27.1417 22.5058 27.0989 22.5486C26.9705 22.5486 26.8849 22.5914 26.7565 22.5914C26.6709 22.5914 26.5854 22.5914 26.457 22.6342H26.4142C26.3286 22.6342 26.2858 22.6342 26.2002 22.6342C26.2858 22.5486 26.3714 22.4202 26.4998 22.3346L26.5426 22.2918L26.5854 22.249C26.6282 22.2062 26.6281 22.2062 26.6709 22.1635C26.6709 22.1635 26.6709 22.1635 26.7137 22.1207L26.7565 22.0779C26.7993 22.0351 26.8421 21.9923 26.8849 21.9495C26.9277 21.9067 26.9705 21.8639 27.0133 21.8211C27.0561 21.7783 27.0989 21.7355 27.1417 21.6927C27.1845 21.6499 27.1845 21.6071 27.2273 21.6071C27.3985 21.3931 27.698 21.4787 27.7836 21.7355C27.8264 21.8639 27.8264 21.9923 27.8264 22.0779C27.8264 22.1207 27.8264 22.1207 27.8264 22.1635C27.8264 22.2062 27.8264 22.2918 27.7836 22.3346C27.7836 22.3774 27.7836 22.3774 27.7836 22.4202C27.7836 22.3774 27.7836 22.4202 27.7408 22.4202Z" fill="#A4653B"/>
<path d="M25.0446 21.3503C25.0446 21.3931 25.0874 21.4359 25.0874 21.4787C25.173 21.6927 25.4297 21.7783 25.6009 21.6071C25.9433 21.2647 26.2428 20.8796 26.7136 20.3232C27.0559 19.8953 27.1415 19.3818 26.9704 18.9538C26.9704 18.911 26.9704 18.911 26.9276 18.8682C26.842 18.6542 26.5424 18.6114 26.3712 18.7826C25.9861 19.2534 25.7293 19.6385 25.2586 20.1093C25.0018 20.4944 24.9162 20.9224 25.0446 21.3503Z" fill="#A4653B"/>
<path d="M27.1001 21.6928C27.0573 21.7356 27.0145 21.8212 26.9717 21.864C26.8861 21.9924 26.8005 22.078 26.7149 22.1636C26.7149 22.1636 26.6721 22.2064 26.6721 22.2492L26.6293 22.2919L26.5866 22.3347C26.501 22.4203 26.4154 22.5487 26.3298 22.6343C26.2442 22.6343 26.1586 22.6343 26.073 22.6343C25.9446 22.6343 25.8162 22.6343 25.6879 22.6343C25.6023 22.6343 25.5595 22.6343 25.4739 22.5915C25.4739 22.5487 25.4739 22.5487 25.4739 22.5059C25.4739 22.4631 25.4739 22.4631 25.4739 22.4203C25.4739 22.3775 25.4739 22.3347 25.4739 22.3347C25.4739 22.2919 25.4739 22.2919 25.4739 22.2492C25.4739 22.2064 25.4739 22.1636 25.4739 22.1208C25.4739 22.078 25.4739 22.0352 25.5167 21.9496C25.5167 21.9068 25.5595 21.864 25.5595 21.864C25.5595 21.8212 25.6023 21.7784 25.6023 21.7356C25.6023 21.6928 25.6451 21.6928 25.6451 21.65C25.6451 21.6072 25.6879 21.6072 25.6879 21.5644C25.7306 21.5216 25.7306 21.5216 25.7734 21.4788C25.9446 21.3077 26.073 21.1365 26.2442 20.9653C26.3298 20.8797 26.4154 20.7513 26.501 20.6657C26.5865 20.5801 26.6721 20.4518 26.7577 20.3662C26.8005 20.3234 26.8433 20.2378 26.8861 20.195C27.0573 19.981 27.3569 20.0666 27.4425 20.2806V20.3234C27.528 20.7513 27.4424 21.2649 27.1001 21.6928Z" fill="#AA6A2D"/>
<path d="M24.1463 18.8682C24.1463 18.911 24.1891 18.9538 24.1891 18.9966C24.2747 19.2105 24.5742 19.2533 24.7026 19.0822C25.045 18.697 25.3018 18.3119 25.7297 17.7555C26.0293 17.3704 26.0721 16.8996 25.8153 16.4717C25.7725 16.4289 25.7725 16.3861 25.7297 16.3433C25.6013 16.1293 25.3445 16.1293 25.2162 16.3005C24.8738 16.7712 24.6598 17.0708 24.2319 17.6271C23.9751 18.0123 23.9323 18.483 24.1463 18.8682Z" fill="url(#paint3_linear)"/>
<path d="M24.6599 20.1092C24.6599 20.152 24.7027 20.1948 24.7027 20.2376C24.7883 20.4516 25.0879 20.4943 25.2163 20.3232C25.5586 19.938 25.8582 19.5956 26.2861 19.0393C26.5857 18.6542 26.6713 18.1406 26.4573 17.7127C26.4573 17.6699 26.4145 17.6271 26.4145 17.6271C26.3289 17.4131 26.0294 17.3703 25.8582 17.5843C25.5158 18.055 25.2591 18.3974 24.8311 18.9109C24.5315 19.2533 24.4888 19.6812 24.6599 20.1092Z" fill="url(#paint4_linear)"/>
<path d="M22.7773 16.5148C22.8201 16.5576 22.8629 16.6432 22.9057 16.686C23.0341 16.8572 23.2908 16.8572 23.4192 16.686C23.7616 16.2581 23.9755 15.9157 24.3179 15.4022C24.5747 15.0598 24.5319 14.5891 24.1895 14.2467C24.1039 14.1611 24.0611 14.1183 24.0183 14.0755C23.89 13.9043 23.6332 13.9471 23.5048 14.1183C23.248 14.5463 23.0341 14.8886 22.6917 15.4022C22.4777 15.7017 22.5205 16.1297 22.7773 16.5148Z" fill="url(#paint5_linear)"/>
<path d="M23.5058 17.6701C23.5486 17.7129 23.5486 17.7557 23.5914 17.7985C23.7198 18.0125 23.9766 18.0125 24.105 17.8413C24.4473 17.4134 24.7041 17.071 25.0893 16.5147C25.346 16.1295 25.3888 15.7016 25.0893 15.3164C25.0465 15.2736 25.0037 15.188 24.9609 15.1452C24.8325 14.9741 24.5757 14.9741 24.4473 15.1452C24.1478 15.5732 23.9338 15.9155 23.5486 16.4291C23.2919 16.8142 23.2919 17.285 23.5058 17.6701Z" fill="url(#paint6_linear)"/>
<path d="M20.9366 14.3746C21.0222 14.4602 21.065 14.503 21.1506 14.5886C21.279 14.717 21.5357 14.717 21.6213 14.5458C21.8781 14.1179 22.0921 13.7755 22.3488 13.262C22.5628 12.9196 22.4344 12.4917 22.0493 12.1065C21.9637 12.0209 21.8781 11.9353 21.7925 11.8925C21.6213 11.7641 21.4074 11.8069 21.3218 11.9781C21.1078 12.4061 20.9366 12.7484 20.637 13.262C20.4659 13.6043 20.5515 14.0323 20.9366 14.3746Z" fill="url(#paint7_linear)"/>
<path d="M21.9207 15.4018C21.9635 15.4874 22.0491 15.5302 22.0918 15.573C22.2202 15.7442 22.477 15.7014 22.6054 15.5302C22.9049 15.1022 23.1189 14.7599 23.4185 14.2463C23.6325 13.904 23.5469 13.4332 23.2045 13.0909C23.1189 13.0053 23.0761 12.9625 22.9905 12.8769C22.8621 12.7485 22.6054 12.7913 22.477 12.9625C22.2202 13.3904 22.049 13.7328 21.7495 14.2463C21.5355 14.6315 21.6211 15.0594 21.9207 15.4018Z" fill="url(#paint8_linear)"/>
<path d="M18.5839 12.4065C18.7123 12.4921 18.7551 12.5349 18.8406 12.6205C19.0118 12.7488 19.2258 12.706 19.3114 12.5349C19.5254 12.1069 19.6965 11.7646 19.9533 11.251C20.1245 10.9087 19.9533 10.4807 19.4826 10.1383C19.3542 10.0527 19.2686 9.96716 19.183 9.92436C19.0118 9.79598 18.7978 9.88157 18.7123 10.0527C18.4983 10.5235 18.3699 10.8231 18.1559 11.3794C18.0275 11.679 18.1987 12.0641 18.5839 12.4065Z" fill="url(#paint9_linear)"/>
<path d="M19.7815 13.3475C19.8671 13.4331 19.9527 13.4759 20.0383 13.5615C20.2095 13.6899 20.4235 13.6471 20.5091 13.4759C20.7658 13.048 20.937 12.7056 21.1938 12.1921C21.365 11.8497 21.2366 11.4218 20.8086 11.0794C20.6803 10.9938 20.5947 10.9082 20.5519 10.8654C20.3807 10.737 20.1667 10.7798 20.0811 10.9938C19.8671 11.4646 19.7388 11.7641 19.482 12.2777C19.268 12.62 19.3964 13.048 19.7815 13.3475Z" fill="url(#paint10_linear)"/>
<path d="M15.9736 10.5235C16.102 10.6091 16.1876 10.6519 16.2732 10.7375C16.4444 10.8659 16.6583 10.7803 16.7439 10.6091C16.9579 10.1384 17.0863 9.83881 17.3003 9.28248C17.4286 8.89732 17.2575 8.46937 16.7867 8.16981C16.6583 8.08422 16.5728 7.99862 16.4872 7.95583C16.316 7.82744 16.102 7.91303 16.0164 8.12701C15.8452 8.59775 15.7168 8.94012 15.5029 9.49645C15.3317 9.83881 15.5029 10.224 15.9736 10.5235Z" fill="url(#paint11_linear)"/>
<path d="M17.2989 11.4645C17.4273 11.5501 17.5129 11.5929 17.5985 11.6785C17.7696 11.8068 17.9836 11.7212 18.0692 11.5501C18.2832 11.1221 18.4116 10.7798 18.6683 10.2234C18.8395 9.88106 18.6255 9.41032 18.1548 9.11075C18.0264 9.02516 17.9408 8.93957 17.8552 8.89678C17.684 8.76839 17.4701 8.85398 17.3845 9.02516C17.2133 9.49591 17.0849 9.83827 16.8281 10.3518C16.657 10.737 16.8709 11.1221 17.2989 11.4645Z" fill="url(#paint12_linear)"/>
<path d="M13.1907 8.72582C13.3191 8.81141 13.4047 8.85421 13.5331 8.9398C13.7043 9.06818 13.9183 8.98259 14.0038 8.76862C14.175 8.29787 14.3034 7.95551 14.5174 7.39918C14.6458 7.01402 14.4318 6.58607 13.9611 6.2865C13.8327 6.20091 13.7471 6.15812 13.6615 6.07253C13.4903 5.94414 13.2763 6.02973 13.1907 6.24371C13.0196 6.75725 12.8912 7.09961 12.6772 7.65595C12.506 7.99831 12.72 8.42626 13.1907 8.72582Z" fill="url(#paint13_linear)"/>
<path d="M14.6035 9.62443C14.7319 9.71002 14.8175 9.75282 14.9031 9.83841C15.0743 9.96679 15.2883 9.88121 15.3738 9.71003C15.545 9.23928 15.6734 8.89692 15.8874 8.34058C16.0158 7.95543 15.8018 7.52748 15.331 7.22791C15.2027 7.14232 15.1171 7.09952 15.0315 7.01393C14.8603 6.88555 14.6463 6.97114 14.5607 7.18512C14.3896 7.65586 14.2612 7.99822 14.0472 8.55456C13.9188 8.89692 14.1328 9.32487 14.6035 9.62443Z" fill="url(#paint14_linear)"/>
<path d="M11.778 7.827C11.9064 7.91259 11.992 7.95538 12.0775 8.04097C12.2487 8.16936 12.4627 8.08377 12.5483 7.86979C12.7195 7.39905 12.8479 7.05668 13.0618 6.45755C13.1902 6.0724 13.019 5.64445 12.5483 5.34488C12.4199 5.25929 12.3343 5.2165 12.2487 5.13091C12.0776 5.00252 11.8636 5.08811 11.778 5.25929C11.6068 5.77283 11.4356 6.11519 11.2216 6.67153C11.1361 7.09948 11.3072 7.52743 11.778 7.827Z" fill="url(#paint15_linear)"/>
<path d="M27.7836 22.3777C27.7836 22.3349 27.7836 22.3349 27.7836 22.2922C27.7836 22.2494 27.7836 22.1638 27.8264 22.121C27.8264 22.0782 27.8264 22.0782 27.8264 22.0354C27.8264 21.907 27.8264 21.7786 27.7836 21.693C27.7408 21.4363 27.3985 21.3507 27.2273 21.5646C27.1845 21.6074 27.1845 21.6502 27.1417 21.6502C27.0989 21.693 27.0561 21.7358 27.0133 21.7786C26.9705 21.8214 26.9277 21.8642 26.8849 21.907C26.8421 21.9498 26.7993 21.9926 26.7565 22.0354L26.7137 22.0782C26.7137 22.0782 26.7137 22.0782 26.6709 22.121C26.6709 22.121 26.6709 22.121 26.6281 22.1638C26.6281 22.1638 26.5854 22.2066 26.5854 22.2494L26.5426 22.2922L26.4998 22.3349C26.4142 22.4205 26.3286 22.5061 26.2002 22.6345C26.2858 22.6345 26.3286 22.6345 26.4142 22.6345H26.457C26.5426 22.6345 26.6282 22.6345 26.7565 22.5917C26.8421 22.5917 26.9705 22.5489 27.0989 22.5489C27.1417 22.5489 27.2273 22.5489 27.2701 22.5061C27.3129 22.5061 27.3129 22.5061 27.3557 22.5061C27.3985 22.5061 27.4413 22.5061 27.5268 22.4633C27.6124 22.4633 27.6552 22.4205 27.7408 22.4205C27.7836 22.4205 27.7836 22.3777 27.7836 22.3777Z" fill="url(#paint16_linear)"/>
<path d="M25.0446 21.3503C25.0446 21.3931 25.0874 21.4359 25.0874 21.4787C25.173 21.6927 25.4297 21.7783 25.6009 21.6071C25.9433 21.2647 26.2428 20.8796 26.7136 20.3232C27.0559 19.8953 27.1415 19.3818 26.9704 18.9538C26.9704 18.911 26.9704 18.911 26.9276 18.8682C26.842 18.6542 26.5424 18.6114 26.3712 18.7826C25.9861 19.2534 25.7293 19.6385 25.2586 20.1093C25.0018 20.4944 24.9162 20.9224 25.0446 21.3503Z" fill="url(#paint17_linear)"/>
<path d="M27.1001 21.6928C27.0573 21.7356 27.0145 21.8212 26.9717 21.864C26.8861 21.9924 26.8005 22.078 26.7149 22.1636C26.7149 22.1636 26.6721 22.2064 26.6721 22.2492L26.6293 22.2919L26.5866 22.3347C26.501 22.4203 26.4154 22.5487 26.3298 22.6343C26.2442 22.6343 26.1586 22.6343 26.073 22.6343C25.9446 22.6343 25.8162 22.6343 25.6879 22.6343C25.6023 22.6343 25.5595 22.6343 25.4739 22.5915C25.4739 22.5487 25.4739 22.5487 25.4739 22.5059C25.4739 22.4631 25.4739 22.4631 25.4739 22.4203C25.4739 22.3775 25.4739 22.3347 25.4739 22.3347C25.4739 22.2919 25.4739 22.2919 25.4739 22.2492C25.4739 22.2064 25.4739 22.1636 25.4739 22.1208C25.4739 22.078 25.4739 22.0352 25.5167 21.9496C25.5167 21.9068 25.5595 21.864 25.5595 21.864C25.5595 21.8212 25.6023 21.7784 25.6023 21.7356C25.6023 21.6928 25.6451 21.6928 25.6451 21.65C25.6451 21.6072 25.6879 21.6072 25.6879 21.5644C25.7306 21.5216 25.7306 21.5216 25.7734 21.4788C25.9446 21.3077 26.073 21.1365 26.2442 20.9653C26.3298 20.8797 26.4154 20.7513 26.501 20.6657C26.5865 20.5801 26.6721 20.4518 26.7577 20.3662C26.8005 20.3234 26.8433 20.2378 26.8861 20.195C27.0573 19.981 27.3569 20.0666 27.4425 20.2806V20.3234C27.528 20.7513 27.4424 21.2649 27.1001 21.6928Z" fill="url(#paint18_linear)"/>
<path d="M27.7847 22.3775C27.7847 22.3347 27.7847 22.3347 27.7847 22.2919C27.7847 22.2491 27.7847 22.1635 27.8275 22.1207C27.8275 22.0779 27.8275 22.0779 27.8275 22.0352C27.8275 21.9068 27.8275 21.7784 27.7847 21.6928C27.7419 21.436 27.3996 21.3504 27.2284 21.5644C27.1856 21.6072 27.1856 21.65 27.1428 21.65C27.1 21.6928 27.0572 21.7356 27.0144 21.7784C26.9716 21.8212 26.9288 21.864 26.886 21.9068C26.8432 21.9496 26.8005 21.9924 26.7577 22.0352L26.7149 22.0779C26.7149 22.0779 26.7149 22.0779 26.6721 22.1207C26.6721 22.1207 26.6721 22.1207 26.6293 22.1635C26.7149 22.0779 26.8005 21.9496 26.886 21.864C26.9288 21.8212 26.9716 21.7356 27.0144 21.6928C27.3568 21.2648 27.4852 20.7513 27.3568 20.2806V20.2378C27.2712 19.981 26.9716 19.9382 26.8005 20.1522C27.0144 19.767 27.1 19.3391 26.9288 18.9539C26.9288 18.9111 26.9288 18.9111 26.886 18.8683C26.8005 18.6543 26.5437 18.6115 26.3725 18.7827C26.5437 18.4404 26.5865 18.0124 26.4153 17.6701C26.4153 17.6273 26.3725 17.5845 26.3725 17.5845C26.2869 17.3705 25.9873 17.3277 25.8162 17.5417L25.7734 17.5845C25.9445 17.2421 25.9873 16.8142 25.7734 16.4718C25.7306 16.429 25.7306 16.3862 25.6878 16.3434C25.5594 16.1294 25.3026 16.1294 25.1742 16.3006C24.9603 16.6002 24.7891 16.8142 24.5751 17.0709C24.7035 16.8997 24.8319 16.6858 25.0031 16.4718C25.1314 16.3006 25.1742 16.1294 25.217 15.9583C24.6179 16.215 23.976 16.4718 23.3341 16.6858C23.2485 16.9853 23.2913 17.3277 23.4624 17.5845C23.5052 17.6273 23.5052 17.6701 23.548 17.7128C23.6764 17.9268 23.9332 17.9268 24.0616 17.7556C24.1044 17.7128 24.1472 17.6273 24.19 17.5845C23.9332 17.9268 23.8904 18.3976 24.1044 18.7827C24.1044 18.8255 24.1472 18.8683 24.1472 18.9111C24.2328 19.1251 24.5323 19.1679 24.6607 18.9967C24.4895 19.3391 24.4467 19.6814 24.5751 20.0238C24.5751 20.0666 24.6179 20.1094 24.6179 20.1522C24.7035 20.3234 24.9175 20.4089 25.0887 20.3233C24.9175 20.6229 24.8747 20.9653 25.0031 21.3076C25.0031 21.3504 25.0459 21.3932 25.0459 21.436C25.1314 21.65 25.3882 21.7356 25.5594 21.6072C25.5166 21.65 25.5166 21.6928 25.5166 21.6928C25.4738 21.7356 25.4738 21.7784 25.4738 21.8212C25.4738 21.864 25.431 21.9068 25.431 21.9068C25.431 21.9496 25.3882 21.9924 25.3882 22.0779C25.3882 22.1207 25.3882 22.1635 25.3882 22.2063C25.3882 22.2491 25.3882 22.2491 25.3882 22.2919C25.3882 22.3347 25.3882 22.3775 25.3882 22.3775C25.3882 22.4203 25.3882 22.4203 25.3882 22.4631C25.3882 22.5059 25.3882 22.5059 25.3882 22.5487C25.4738 22.5487 25.5166 22.5487 25.6022 22.5915C25.7306 22.5915 25.859 22.5915 25.9873 22.5915C26.0729 22.5915 26.1585 22.5915 26.2441 22.5915C26.3297 22.5915 26.3725 22.5915 26.4581 22.5915H26.5009C26.5865 22.5915 26.6721 22.5915 26.8005 22.5487C26.8861 22.5487 27.0144 22.5059 27.1428 22.5059C27.1856 22.5059 27.2712 22.5059 27.314 22.4631C27.3568 22.4631 27.3568 22.4631 27.3996 22.4631C27.4424 22.4631 27.4852 22.4631 27.5708 22.4203C27.6564 22.4203 27.6992 22.3775 27.7847 22.3775C27.7847 22.3775 27.7847 22.4203 27.7847 22.3775Z" fill="url(#paint19_radial)"/>
<path opacity="0.22" d="M41.862 32.3482C40.2357 33.033 37.9676 33.8889 40.9633 37.3125C43.9589 40.7361 47.7249 52.8899 45.4995 59.138C45.4995 59.138 53.1171 50.0226 50.5922 40.8645C48.11 31.6635 43.1886 31.7919 41.862 32.3482Z" fill="url(#paint20_radial)"/>
<path opacity="0.22" d="M41.0904 30.893C40.5341 31.0642 39.935 31.2782 39.4214 31.535C38.9079 31.7917 38.3943 32.0913 37.838 32.2197C37.2817 32.3909 36.6397 32.3481 36.169 32.0057C35.955 31.8345 35.7838 31.6205 35.6126 31.4066C35.3559 31.0214 35.0991 30.5935 35.1419 30.0799C35.1847 29.224 36.1262 28.6677 36.9393 28.4537C38.3943 28.0685 39.9778 28.2397 41.3472 28.8389C41.7323 29.01 42.9734 29.5236 42.9306 30.1227C42.7594 30.893 41.5184 30.7646 41.0904 30.893Z" fill="url(#paint21_radial)"/>
<path d="M16.1375 7.08936L18.689 8.75267L15.5562 7.47692L16.1375 7.08936Z" fill="url(#paint22_linear)"/>
<path d="M10.5664 1.93812L10.1627 1.71204L10.1304 0.097168L10.5664 1.93812Z" fill="url(#paint23_linear)"/>
<path d="M7.59691 4.77975L7.25779 3.97231L4.81934 2.68042L7.59691 4.77975Z" fill="url(#paint24_linear)"/>
<path d="M7.70897 9.25293L6.04565 10.9485L8.11268 9.55975L7.70897 9.25293Z" fill="url(#paint25_linear)"/>
<path d="M12.3433 10.4161L13.4252 12.58L12.747 10.2708L12.3433 10.4161Z" fill="url(#paint26_linear)"/>
<path d="M14.8784 1.7925L15.8635 0L14.5393 1.72791L14.8784 1.7925Z" fill="url(#paint27_linear)"/>
<path d="M16.3203 5.84499C16.4452 5.84499 16.5464 5.74376 16.5464 5.6189C16.5464 5.49404 16.4452 5.39282 16.3203 5.39282C16.1955 5.39282 16.0942 5.49404 16.0942 5.6189C16.0942 5.74376 16.1955 5.84499 16.3203 5.84499Z" fill="url(#paint28_linear)"/>
<path d="M18.5455 3.79413C18.5455 4.02021 18.3518 4.214 18.1257 4.214C17.8996 4.214 17.7058 4.02021 17.7058 3.79413C17.7058 3.56805 17.8996 3.37427 18.1257 3.37427C18.3518 3.37427 18.5455 3.56805 18.5455 3.79413Z" fill="url(#paint29_linear)"/>
<path d="M9.31059 2.24399C9.5068 2.24399 9.66586 2.08493 9.66586 1.88872C9.66586 1.69251 9.5068 1.53345 9.31059 1.53345C9.11438 1.53345 8.95532 1.69251 8.95532 1.88872C8.95532 2.08493 9.11438 2.24399 9.31059 2.24399Z" fill="url(#paint30_linear)"/>
<path d="M12.3483 2.35739C12.3483 2.47043 12.2514 2.56733 12.1384 2.56733C12.0254 2.56733 11.9285 2.47043 11.9285 2.35739C11.9285 2.24435 12.0254 2.14746 12.1384 2.14746C12.2514 2.14746 12.3483 2.24435 12.3483 2.35739Z" fill="url(#paint31_linear)"/>
<path d="M15.9962 2.06645C15.9962 2.14719 15.9316 2.19563 15.867 2.19563C15.7862 2.19563 15.7378 2.13104 15.7378 2.06645C15.7378 1.9857 15.8024 1.93726 15.867 1.93726C15.9477 1.93726 15.9962 1.9857 15.9962 2.06645Z" fill="url(#paint32_linear)"/>
<path d="M13.0886 0.952163C13.2135 0.952163 13.3147 0.850943 13.3147 0.726081C13.3147 0.60122 13.2135 0.5 13.0886 0.5C12.9638 0.5 12.8625 0.60122 12.8625 0.726081C12.8625 0.850943 12.9638 0.952163 13.0886 0.952163Z" fill="url(#paint33_linear)"/>
<path d="M6.11378 10.0437C6.23864 10.0437 6.33986 9.9425 6.33986 9.81763C6.33986 9.69277 6.23864 9.59155 6.11378 9.59155C5.98891 9.59155 5.8877 9.69277 5.8877 9.81763C5.8877 9.9425 5.98891 10.0437 6.11378 10.0437Z" fill="url(#paint34_linear)"/>
<path d="M14.351 10.3834C14.5115 10.3834 14.6417 10.2532 14.6417 10.0927C14.6417 9.93214 14.5115 9.802 14.351 9.802C14.1904 9.802 14.0603 9.93214 14.0603 10.0927C14.0603 10.2532 14.1904 10.3834 14.351 10.3834Z" fill="url(#paint35_linear)"/>
<path d="M10.392 11.7395C10.392 11.8525 10.2951 11.9494 10.1821 11.9494C10.0691 11.9494 9.97217 11.8525 9.97217 11.7395C9.97217 11.6264 10.0691 11.5295 10.1821 11.5295C10.2951 11.5295 10.392 11.6264 10.392 11.7395Z" fill="url(#paint36_linear)"/>
<path d="M5.80818 6.26493C5.80818 6.34567 5.74359 6.39412 5.67899 6.39412C5.59825 6.39412 5.5498 6.32953 5.5498 6.26493C5.5498 6.18419 5.6144 6.13574 5.67899 6.13574C5.74359 6.13574 5.80818 6.20034 5.80818 6.26493Z" fill="url(#paint37_linear)"/>
<path d="M6.0327 4.47253C6.0327 4.68246 5.85507 4.8601 5.64514 4.8601C5.4352 4.8601 5.25757 4.68246 5.25757 4.47253C5.25757 4.2626 5.4352 4.08496 5.64514 4.08496C5.85507 4.08496 6.0327 4.2626 6.0327 4.47253Z" fill="url(#paint38_linear)"/>
<path d="M8.06719 6.37871L7.29205 5.49053L8.26097 5.19985L6.74299 2.30924L10.0696 3.50424L10.1019 2.42228L10.5218 3.31046L11.0062 1.76019L11.8137 3.71418L14.1068 1.67944L13.3639 3.53654L16.2546 3.13282L13.8161 5.42594L14.7366 6.23337L13.7838 6.34641L16.0285 8.49418L12.8633 8.55878L13.3317 9.86682L12.5565 9.4631L11.2646 12.0146L10.441 9.89912L9.32678 10.755L9.6982 9.4954L8.21252 10.1575L8.92306 8.54263L5.59644 7.79979L8.06719 6.37871Z" fill="url(#paint39_radial)"/>
<path d="M11.5508 5.15159L10.9371 3.71436L10.5334 4.79632L8.22414 3.74665L9.40299 5.5876L8.57941 5.84598L9.2738 6.60497L7.65894 7.81612L9.62907 7.89686L9.58063 8.84963L10.4042 8.33288L11.2762 10.3353L12.1321 7.65463L13.9892 7.50929L12.5843 6.36274L13.0687 5.92672L12.7296 5.76524L13.9892 4.05348L11.5508 5.15159Z" fill="url(#paint40_radial)"/>
<path d="M10.4862 6.39458L9.82414 5.07039L10.7285 5.76478L11.0837 5.02194L11.1645 6.12005L12.9247 4.92505L11.6974 6.47532L12.8116 7.3958L11.4552 7.10512L11.0999 9.01066L10.7123 7.49269L10.1148 7.9933L10.4701 7.28275L8.96826 7.3635L10.2763 6.7337L9.7757 6.45917L10.4862 6.39458Z" fill="url(#paint41_radial)"/>
<defs>
<radialGradient id="paint0_radial" cx="0" cy="0" r="1" gradientUnits="userSpaceOnUse" gradientTransform="translate(20.9582 57.2736) rotate(22.3281) scale(37.7618)">
<stop/>
<stop offset="0.0953546" stop-color="#1C1C1C"/>
<stop offset="0.304" stop-color="#575757"/>
<stop offset="0.3116" stop-color="#5A5A5A"/>
<stop offset="0.4843" stop-color="#949494"/>
<stop offset="0.6434" stop-color="#C2C2C2"/>
<stop offset="0.7838" stop-color="#E3E3E3"/>
<stop offset="0.9003" stop-color="#F8F8F8"/>
<stop offset="0.9785" stop-color="white"/>
</radialGradient>
<radialGradient id="paint1_radial" cx="0" cy="0" r="1" gradientUnits="userSpaceOnUse" gradientTransform="translate(19.3297 57.1561) rotate(22.3281) scale(34.4657)">
<stop/>
<stop offset="0.0953546" stop-color="#1C1C1C"/>
<stop offset="0.304" stop-color="#575757"/>
<stop offset="0.3116" stop-color="#5A5A5A"/>
<stop offset="0.4843" stop-color="#949494"/>
<stop offset="0.6434" stop-color="#C2C2C2"/>
<stop offset="0.7838" stop-color="#E3E3E3"/>
<stop offset="0.9003" stop-color="#F8F8F8"/>
<stop offset="0.9785" stop-color="white"/>
</radialGradient>
<radialGradient id="paint2_radial" cx="0" cy="0" r="1" gradientUnits="userSpaceOnUse" gradientTransform="translate(28.0014 28.909) rotate(171.781) scale(17.0888 3.94362)">
<stop/>
<stop offset="0.0468802" stop-color="#121212"/>
<stop offset="0.249" stop-color="#595959"/>
<stop offset="0.4396" stop-color="#949494"/>
<stop offset="0.6131" stop-color="#C2C2C2"/>
<stop offset="0.7663" stop-color="#E3E3E3"/>
<stop offset="0.8933" stop-color="#F8F8F8"/>
<stop offset="0.9785" stop-color="white"/>
</radialGradient>
<linearGradient id="paint3_linear" x1="25.6013" y1="16.2203" x2="24.3888" y2="19.1726" gradientUnits="userSpaceOnUse">
<stop stop-color="#FFD963" stop-opacity="0"/>
<stop offset="0.651" stop-color="#A79B77" stop-opacity="0.669"/>
<stop offset="0.9731" stop-color="#808080"/>
</linearGradient>
<linearGradient id="paint4_linear" x1="26.1866" y1="17.412" x2="24.947" y2="20.4302" gradientUnits="userSpaceOnUse">
<stop stop-color="#FFD963" stop-opacity="0"/>
<stop offset="0.651" stop-color="#A79B77" stop-opacity="0.669"/>
<stop offset="0.9731" stop-color="#808080"/>
</linearGradient>
<linearGradient id="paint5_linear" x1="24.0769" y1="14.0099" x2="22.949" y2="16.7562" gradientUnits="userSpaceOnUse">
<stop stop-color="#FFD963" stop-opacity="0"/>
<stop offset="0.651" stop-color="#A79B77" stop-opacity="0.669"/>
<stop offset="0.9731" stop-color="#808080"/>
</linearGradient>
<linearGradient id="paint6_linear" x1="24.9007" y1="15.0809" x2="23.7272" y2="17.938" gradientUnits="userSpaceOnUse">
<stop stop-color="#FFD963" stop-opacity="0"/>
<stop offset="0.651" stop-color="#A79B77" stop-opacity="0.669"/>
<stop offset="0.9731" stop-color="#808080"/>
</linearGradient>
<linearGradient id="paint7_linear" x1="22.0279" y1="11.9566" x2="20.9695" y2="14.5337" gradientUnits="userSpaceOnUse">
<stop stop-color="#FFD963" stop-opacity="0"/>
<stop offset="0.651" stop-color="#A79B77" stop-opacity="0.669"/>
<stop offset="0.9731" stop-color="#808080"/>
</linearGradient>
<linearGradient id="paint8_linear" x1="23.1041" y1="12.9613" x2="22.0155" y2="15.6119" gradientUnits="userSpaceOnUse">
<stop stop-color="#FFD963" stop-opacity="0"/>
<stop offset="0.651" stop-color="#A79B77" stop-opacity="0.669"/>
<stop offset="0.9731" stop-color="#808080"/>
</linearGradient>
<linearGradient id="paint9_linear" x1="19.583" y1="10.0048" x2="18.5614" y2="12.4923" gradientUnits="userSpaceOnUse">
<stop stop-color="#FFD963" stop-opacity="0"/>
<stop offset="0.651" stop-color="#A79B77" stop-opacity="0.669"/>
<stop offset="0.9731" stop-color="#808080"/>
</linearGradient>
<linearGradient id="paint10_linear" x1="20.8374" y1="10.964" x2="19.8017" y2="13.4858" gradientUnits="userSpaceOnUse">
<stop stop-color="#FFD963" stop-opacity="0"/>
<stop offset="0.651" stop-color="#A79B77" stop-opacity="0.669"/>
<stop offset="0.9731" stop-color="#808080"/>
</linearGradient>
<linearGradient id="paint11_linear" x1="16.8775" y1="8.1096" x2="15.8625" y2="10.5809" gradientUnits="userSpaceOnUse">
<stop stop-color="#FFD963" stop-opacity="0"/>
<stop offset="0.651" stop-color="#A79B77" stop-opacity="0.669"/>
<stop offset="0.9731" stop-color="#808080"/>
</linearGradient>
<linearGradient id="paint12_linear" x1="18.2454" y1="9.04636" x2="17.2305" y2="11.5175" gradientUnits="userSpaceOnUse">
<stop stop-color="#FFD963" stop-opacity="0"/>
<stop offset="0.651" stop-color="#A79B77" stop-opacity="0.669"/>
<stop offset="0.9731" stop-color="#808080"/>
</linearGradient>
<linearGradient id="paint13_linear" x1="14.0955" y1="6.25136" x2="13.0642" y2="8.76243" gradientUnits="userSpaceOnUse">
<stop stop-color="#FFD963" stop-opacity="0"/>
<stop offset="0.651" stop-color="#A79B77" stop-opacity="0.669"/>
<stop offset="0.9731" stop-color="#808080"/>
</linearGradient>
<linearGradient id="paint14_linear" x1="15.4789" y1="7.17218" x2="14.4581" y2="9.65775" gradientUnits="userSpaceOnUse">
<stop stop-color="#FFD963" stop-opacity="0"/>
<stop offset="0.651" stop-color="#A79B77" stop-opacity="0.669"/>
<stop offset="0.9731" stop-color="#808080"/>
</linearGradient>
<linearGradient id="paint15_linear" x1="12.7068" y1="5.31704" x2="11.6614" y2="7.86254" gradientUnits="userSpaceOnUse">
<stop stop-color="#FFD963" stop-opacity="0"/>
<stop offset="0.651" stop-color="#A79B77" stop-opacity="0.669"/>
<stop offset="0.9731" stop-color="#808080"/>
</linearGradient>
<linearGradient id="paint16_linear" x1="27.4775" y1="21.3777" x2="26.8599" y2="22.8815" gradientUnits="userSpaceOnUse">
<stop stop-color="#FFD963" stop-opacity="0"/>
<stop offset="0.651" stop-color="#A79B77" stop-opacity="0.669"/>
<stop offset="0.9731" stop-color="#808080"/>
</linearGradient>
<linearGradient id="paint17_linear" x1="26.6446" y1="18.6646" x2="25.3867" y2="21.7273" gradientUnits="userSpaceOnUse">
<stop stop-color="#FFD963" stop-opacity="0"/>
<stop offset="0.651" stop-color="#A79B77" stop-opacity="0.669"/>
<stop offset="0.9731" stop-color="#808080"/>
</linearGradient>
<linearGradient id="paint18_linear" x1="27.0469" y1="19.9696" x2="25.8873" y2="22.7933" gradientUnits="userSpaceOnUse">
<stop stop-color="#FFD963" stop-opacity="0"/>
<stop offset="0.651" stop-color="#A79B77" stop-opacity="0.669"/>
<stop offset="0.9731" stop-color="#808080"/>
</linearGradient>
<radialGradient id="paint19_radial" cx="0" cy="0" r="1" gradientUnits="userSpaceOnUse" gradientTransform="translate(25.3732 17.5452) rotate(22.3281) scale(4.42456)">
<stop stop-color="#FFD963" stop-opacity="0"/>
<stop offset="0.2899" stop-color="#C2AA5A" stop-opacity="0.2899"/>
<stop offset="0.7797" stop-color="#615F4C" stop-opacity="0.7797"/>
<stop offset="1" stop-color="#3A4146"/>
</radialGradient>
<radialGradient id="paint20_radial" cx="0" cy="0" r="1" gradientUnits="userSpaceOnUse" gradientTransform="translate(68.2401 68.7734) rotate(22.3281) scale(62.1252)">
<stop/>
<stop offset="0.1773" stop-color="#303030"/>
<stop offset="0.7353" stop-color="#C4C4C4"/>
<stop offset="0.9785" stop-color="white"/>
</radialGradient>
<radialGradient id="paint21_radial" cx="0" cy="0" r="1" gradientUnits="userSpaceOnUse" gradientTransform="translate(51.1169 38.3266) rotate(22.3281) scale(28.1665)">
<stop/>
<stop offset="0.1773" stop-color="#303030"/>
<stop offset="0.7353" stop-color="#C4C4C4"/>
<stop offset="0.9785" stop-color="white"/>
</radialGradient>
<linearGradient id="paint22_linear" x1="15.5494" y1="7.92226" x2="18.6923" y2="7.92226" gradientUnits="userSpaceOnUse">
<stop stop-color="#FFD71D"/>
<stop offset="1" stop-color="#FEB200"/>
</linearGradient>
<linearGradient id="paint23_linear" x1="10.1235" y1="1.01315" x2="10.5624" y2="1.01315" gradientUnits="userSpaceOnUse">
<stop stop-color="#FFD71D"/>
<stop offset="1" stop-color="#FEB200"/>
</linearGradient>
<linearGradient id="paint24_linear" x1="4.81365" y1="3.7301" x2="7.59563" y2="3.7301" gradientUnits="userSpaceOnUse">
<stop stop-color="#FFD71D"/>
<stop offset="1" stop-color="#FEB200"/>
</linearGradient>
<linearGradient id="paint25_linear" x1="6.04184" y1="10.0978" x2="8.12051" y2="10.0978" gradientUnits="userSpaceOnUse">
<stop stop-color="#FFD71D"/>
<stop offset="1" stop-color="#FEB200"/>
</linearGradient>
<linearGradient id="paint26_linear" x1="12.344" y1="11.4319" x2="13.4297" y2="11.4319" gradientUnits="userSpaceOnUse">
<stop stop-color="#FFD71D"/>
<stop offset="1" stop-color="#FEB200"/>
</linearGradient>
<linearGradient id="paint27_linear" x1="14.5321" y1="0.901048" x2="15.8664" y2="0.901048" gradientUnits="userSpaceOnUse">
<stop stop-color="#FFD71D"/>
<stop offset="1" stop-color="#FEB200"/>
</linearGradient>
<linearGradient id="paint28_linear" x1="16.0954" y1="5.61086" x2="16.544" y2="5.61086" gradientUnits="userSpaceOnUse">
<stop stop-color="#FFD71D"/>
<stop offset="1" stop-color="#FEB200"/>
</linearGradient>
<linearGradient id="paint29_linear" x1="17.716" y1="3.79392" x2="18.5506" y2="3.79392" gradientUnits="userSpaceOnUse">
<stop stop-color="#FFD71D"/>
<stop offset="1" stop-color="#FEB200"/>
</linearGradient>
<linearGradient id="paint30_linear" x1="8.96041" y1="1.89413" x2="9.6656" y2="1.89413" gradientUnits="userSpaceOnUse">
<stop stop-color="#FFD71D"/>
<stop offset="1" stop-color="#FEB200"/>
</linearGradient>
<linearGradient id="paint31_linear" x1="11.9325" y1="2.3588" x2="12.3499" y2="2.3588" gradientUnits="userSpaceOnUse">
<stop stop-color="#FFD71D"/>
<stop offset="1" stop-color="#FEB200"/>
</linearGradient>
<linearGradient id="paint32_linear" x1="15.7359" y1="2.06691" x2="16.0039" y2="2.06691" gradientUnits="userSpaceOnUse">
<stop stop-color="#FFD71D"/>
<stop offset="1" stop-color="#FEB200"/>
</linearGradient>
<linearGradient id="paint33_linear" x1="12.8632" y1="0.720978" x2="13.3119" y2="0.720978" gradientUnits="userSpaceOnUse">
<stop stop-color="#FFD71D"/>
<stop offset="1" stop-color="#FEB200"/>
</linearGradient>
<linearGradient id="paint34_linear" x1="5.89582" y1="9.81314" x2="6.34446" y2="9.81314" gradientUnits="userSpaceOnUse">
<stop stop-color="#FFD71D"/>
<stop offset="1" stop-color="#FEB200"/>
</linearGradient>
<linearGradient id="paint35_linear" x1="14.0509" y1="10.0978" x2="14.6421" y2="10.0978" gradientUnits="userSpaceOnUse">
<stop stop-color="#FFD71D"/>
<stop offset="1" stop-color="#FEB200"/>
</linearGradient>
<linearGradient id="paint36_linear" x1="9.97797" y1="11.7424" x2="10.3953" y2="11.7424" gradientUnits="userSpaceOnUse">
<stop stop-color="#FFD71D"/>
<stop offset="1" stop-color="#FEB200"/>
</linearGradient>
<linearGradient id="paint37_linear" x1="5.53871" y1="6.26894" x2="5.80676" y2="6.26894" gradientUnits="userSpaceOnUse">
<stop stop-color="#FFD71D"/>
<stop offset="1" stop-color="#FEB200"/>
</linearGradient>
<linearGradient id="paint38_linear" x1="5.2535" y1="4.4745" x2="6.02905" y2="4.4745" gradientUnits="userSpaceOnUse">
<stop stop-color="#FFD71D"/>
<stop offset="1" stop-color="#FEB200"/>
</linearGradient>
<radialGradient id="paint39_radial" cx="0" cy="0" r="1" gradientUnits="userSpaceOnUse" gradientTransform="translate(10.9244 6.84978) scale(5.25158)">
<stop stop-color="#FFD71D"/>
<stop offset="1" stop-color="#FEB200"/>
</radialGradient>
<radialGradient id="paint40_radial" cx="0" cy="0" r="1" gradientUnits="userSpaceOnUse" gradientTransform="translate(10.8244 7.02498) scale(3.23994)">
<stop stop-color="#FFF05B"/>
<stop offset="1" stop-color="#FFD53E"/>
</radialGradient>
<radialGradient id="paint41_radial" cx="0" cy="0" r="1" gradientUnits="userSpaceOnUse" gradientTransform="translate(10.3073 3.51508) scale(7.43034)">
<stop stop-color="#FFFF94"/>
<stop offset="1" stop-color="#FFD278"/>
</radialGradient>
</defs>
</svg>
