<svg width="151" height="182" viewBox="0 0 151 182" fill="none" xmlns="http://www.w3.org/2000/svg">
<g filter="url(#filter0_dd)">
<path d="M121 54L113.893 39.5385C113.893 39.5385 113.893 39.3846 113.739 39.3846L98.1341 30H97.9796H53.0204H52.8659L37.2614 39.3846L37.107 39.5385L30 54V54.1539V121.846V122L37.107 136.462C37.107 136.462 37.1069 136.615 37.2614 136.615L52.8659 146H53.0204H97.9796H98.1341L113.739 136.615L113.893 136.462L121 122V121.846V54Z" fill="url(#paint0_linear)"/>
<path opacity="0.4" d="M113.739 39.6924L120.537 53.8462L107.25 57.6924L113.739 39.6924Z" fill="url(#paint1_linear)"/>
<path d="M60.436 112.77L53.947 87.539L60.436 62.7697L75.4224 57.8467L90.4088 62.7697L96.8978 87.3851L90.4088 112.77L75.4224 117.539L60.436 112.77Z" fill="url(#paint2_linear)"/>
<path d="M83.3019 60.4614L77.4309 58.6152C70.3239 65.6922 63.0625 72.7691 55.9555 79.9998L53.947 87.5383L54.4105 89.2306L83.3019 60.4614Z" fill="url(#paint3_linear)"/>
<path d="M89.9459 62.6149L87.6284 61.8457C76.9679 72.4611 66.153 83.2303 55.4926 93.8457L56.1105 96.1534L89.9459 62.6149Z" fill="url(#paint4_linear)"/>
<path d="M61.3631 113.077L94.8894 79.6921L91.6449 66.9229C80.212 78.3075 68.9335 89.5382 57.5006 100.923L60.5906 112.923L61.3631 113.077Z" fill="url(#paint5_linear)"/>
<path d="M96.7435 88L96.898 87.3845L96.1255 84.3076L65.8436 114.461L69.0881 115.538L96.7435 88Z" fill="url(#paint6_linear)"/>
<path d="M77.1226 117.077L93.4995 100.769L94.7355 95.8462L73.5691 116.923L75.4231 117.539L77.1226 117.077Z" fill="url(#paint7_linear)"/>
<path opacity="0.6" d="M90.2551 62.7693L107.25 57.6924L96.8986 87.3847L90.2551 62.7693Z" fill="url(#paint8_linear)"/>
<path d="M96.8977 87.3847L107.249 57.6924L111.112 67.6924L96.8977 87.3847Z" fill="url(#paint9_linear)"/>
<path d="M75.4233 57.8461L97.5167 46.1538L90.4098 62.7692L75.4233 57.8461Z" fill="url(#paint10_linear)"/>
<path opacity="0.9" d="M75.4233 117.539L90.4098 112.77L97.5167 129.385L75.4233 117.539Z" fill="url(#paint11_linear)"/>
<path d="M90.4089 112.769L96.8979 87.3848L107.095 117.539L90.4089 112.769Z" fill="url(#paint12_linear)"/>
<path opacity="0.4" d="M96.8977 87.3848L111.112 107.692L107.095 117.692L96.8977 87.3848Z" fill="url(#paint13_linear)"/>
<path d="M107.096 117.692L111.113 107.692L120.692 121.692L107.096 117.692Z" fill="url(#paint14_linear)"/>
<path opacity="0.7" d="M96.8977 87.3847L111.112 67.6924L120.691 87.6924L111.112 107.692L96.8977 87.3847Z" fill="url(#paint15_linear)"/>
<path d="M107.25 57.6923L120.537 53.8462L111.112 67.6923L107.25 57.6923Z" fill="url(#paint16_linear)"/>
<path d="M97.8251 30.3076L113.739 39.6922L97.5161 46.1538L97.8251 30.3076Z" fill="url(#paint17_linear)"/>
<path opacity="0.3" d="M97.5159 46.1539L113.738 39.6924L107.249 57.6924L90.4089 62.7693L97.5159 46.1539Z" fill="url(#paint18_linear)"/>
<path opacity="0.4" d="M75.2686 30.3076H97.8254L97.5164 46.1538L75.2686 30.3076Z" fill="url(#paint19_linear)"/>
<path d="M53.3286 46.1538L75.422 30.4614L97.5153 46.1538L75.422 57.8461L53.3286 46.1538Z" fill="url(#paint20_linear)"/>
<path opacity="0.7" d="M53.3286 129.385L75.422 117.692L97.5153 129.385L75.422 145.539L53.3286 129.385Z" fill="url(#paint21_linear)"/>
<path d="M75.4233 145.539L97.5167 129.385L97.6712 145.539H75.4233Z" fill="url(#paint22_linear)"/>
<path d="M97.5159 129.385L90.4089 112.77L107.095 117.539L113.429 136L97.5159 129.385Z" fill="url(#paint23_linear)"/>
<path opacity="0.7" d="M97.5161 129.385L113.584 136.154L97.6706 145.692L97.5161 129.385Z" fill="url(#paint24_linear)"/>
<path opacity="0.7" d="M107.096 117.692L120.692 121.692L113.43 136.462L107.096 117.692Z" fill="url(#paint25_linear)"/>
<path opacity="0.7" d="M111.112 107.692L120.691 87.6924V121.692L111.112 107.692Z" fill="url(#paint26_linear)"/>
<path opacity="0.5" d="M111.112 67.6923L120.537 53.8462L120.691 87.6923L111.112 67.6923Z" fill="url(#paint27_linear)"/>
<path d="M37.2622 39.6924L30.3097 53.8462L43.5966 57.6924L37.2622 39.6924Z" fill="url(#paint28_linear)"/>
<path opacity="0.2" d="M60.5899 62.7693L43.595 57.6924L53.9464 87.3847L60.5899 62.7693Z" fill="url(#paint29_linear)"/>
<path d="M53.9476 87.3847L43.5961 57.6924L39.7336 67.6924L53.9476 87.3847Z" fill="url(#paint30_linear)"/>
<path opacity="0.1" d="M75.422 57.8461L53.3286 46.1538L60.4355 62.7692L75.422 57.8461Z" fill="url(#paint31_linear)"/>
<path opacity="0.3" d="M75.422 117.539L60.4355 112.77L53.3286 129.385L75.422 117.539Z" fill="url(#paint32_linear)"/>
<path opacity="0.7" d="M60.4366 112.769L53.9477 87.5381L43.7507 117.692L60.4366 112.769Z" fill="url(#paint33_linear)"/>
<path opacity="0.4" d="M53.9476 87.3848L39.7336 107.692L43.7506 117.692L53.9476 87.3848Z" fill="url(#paint34_linear)"/>
<path opacity="0.6" d="M43.75 117.692L39.733 107.539L30.1541 121.692L43.75 117.692Z" fill="url(#paint35_linear)"/>
<path opacity="0.9" d="M53.9469 87.3847L39.733 67.6924L30.1541 87.6924L39.733 107.539L53.9469 87.3847Z" fill="url(#paint36_linear)"/>
<path d="M43.5966 57.6923L30.3097 53.8462L39.7342 67.6923L43.5966 57.6923Z" fill="url(#paint37_linear)"/>
<path opacity="0.5" d="M53.1744 30.3076L37.261 39.6922L53.4834 46.1538L53.1744 30.3076Z" fill="url(#paint38_linear)"/>
<path opacity="0.9" d="M53.3289 46.1539L37.261 39.6924L43.5955 57.6924L60.4359 62.7693L53.3289 46.1539Z" fill="url(#paint39_linear)"/>
<path opacity="0.2" d="M75.5771 30.3076H53.1747L53.3292 46.1538L75.5771 30.3076Z" fill="url(#paint40_linear)"/>
<path opacity="0.8" d="M75.4226 145.539L53.3292 129.385L53.1747 145.539H75.4226Z" fill="url(#paint41_linear)"/>
<path opacity="0.6" d="M53.3289 129.385L60.4359 112.77L43.75 117.693L37.261 136.154L53.3289 129.385Z" fill="url(#paint42_linear)"/>
<path opacity="0.7" d="M53.3289 129.385L37.261 136.154L53.1744 145.539L53.3289 129.385Z" fill="url(#paint43_linear)"/>
<path d="M43.75 117.692L30.1541 121.692L37.261 136.154L43.75 117.692Z" fill="url(#paint44_linear)"/>
<path opacity="0.9" d="M39.733 107.538L30.1541 87.5381V121.692L39.733 107.538Z" fill="url(#paint45_linear)"/>
<path opacity="0.3" d="M39.733 67.6923L30.3085 53.8462L30.1541 87.6923L39.733 67.6923Z" fill="url(#paint46_linear)"/>
</g>
<defs>
<filter id="filter0_dd" x="0" y="0" width="151" height="181.314" filterUnits="userSpaceOnUse" color-interpolation-filters="sRGB">
<feFlood flood-opacity="0" result="BackgroundImageFix"/>
<feColorMatrix in="SourceAlpha" type="matrix" values="0 0 0 0 0 0 0 0 0 0 0 0 0 0 0 0 0 0 127 0" result="hardAlpha"/>
<feOffset/>
<feGaussianBlur stdDeviation="15"/>
<feColorMatrix type="matrix" values="0 0 0 0 1 0 0 0 0 1 0 0 0 0 1 0 0 0 0.2 0"/>
<feBlend mode="normal" in2="BackgroundImageFix" result="effect1_dropShadow"/>
<feColorMatrix in="SourceAlpha" type="matrix" values="0 0 0 0 0 0 0 0 0 0 0 0 0 0 0 0 0 0 127 0" result="hardAlpha"/>
<feOffset dy="5.31447"/>
<feGaussianBlur stdDeviation="15"/>
<feColorMatrix type="matrix" values="0 0 0 0 1 0 0 0 0 1 0 0 0 0 1 0 0 0 0.2 0"/>
<feBlend mode="normal" in2="effect1_dropShadow" result="effect2_dropShadow"/>
<feBlend mode="normal" in="SourceGraphic" in2="effect2_dropShadow" result="shape"/>
</filter>
<linearGradient id="paint0_linear" x1="13.2058" y1="22.5266" x2="125.117" y2="141.169" gradientUnits="userSpaceOnUse">
<stop stop-color="#615FFF"/>
<stop offset="1" stop-color="#2E56FF"/>
</linearGradient>
<linearGradient id="paint1_linear" x1="123.654" y1="31.7571" x2="115.829" y2="49.8992" gradientUnits="userSpaceOnUse">
<stop stop-color="#615FFF"/>
<stop offset="1" stop-color="#2E56FF"/>
</linearGradient>
<linearGradient id="paint2_linear" x1="53.185" y1="65.5921" x2="112.972" y2="125.632" gradientUnits="userSpaceOnUse">
<stop stop-color="#CFD0FF"/>
<stop offset="1" stop-color="#5C5CFF"/>
</linearGradient>
<linearGradient id="paint3_linear" x1="56.3952" y1="62.3915" x2="116.191" y2="122.441" gradientUnits="userSpaceOnUse">
<stop stop-color="#CFD0FF"/>
<stop offset="1" stop-color="#5C5CFF"/>
</linearGradient>
<linearGradient id="paint4_linear" x1="56.2195" y1="62.5755" x2="115.995" y2="122.605" gradientUnits="userSpaceOnUse">
<stop stop-color="#CFD0FF"/>
<stop offset="1" stop-color="#5C5CFF"/>
</linearGradient>
<linearGradient id="paint5_linear" x1="52.4106" y1="66.3609" x2="112.199" y2="126.403" gradientUnits="userSpaceOnUse">
<stop stop-color="#CFD0FF"/>
<stop offset="1" stop-color="#5C5CFF"/>
</linearGradient>
<linearGradient id="paint6_linear" x1="50.0637" y1="68.7018" x2="109.849" y2="128.741" gradientUnits="userSpaceOnUse">
<stop stop-color="#CFD0FF"/>
<stop offset="1" stop-color="#5C5CFF"/>
</linearGradient>
<linearGradient id="paint7_linear" x1="48.1424" y1="70.5891" x2="107.949" y2="130.65" gradientUnits="userSpaceOnUse">
<stop stop-color="#CFD0FF"/>
<stop offset="1" stop-color="#5C5CFF"/>
</linearGradient>
<linearGradient id="paint8_linear" x1="84.1311" y1="59.6104" x2="133.588" y2="95.8164" gradientUnits="userSpaceOnUse">
<stop stop-color="#CFD0FF"/>
<stop offset="1" stop-color="#5C5CFF"/>
</linearGradient>
<linearGradient id="paint9_linear" x1="91.546" y1="64.9231" x2="115.814" y2="82.8535" gradientUnits="userSpaceOnUse">
<stop stop-color="#615FFF"/>
<stop offset="1" stop-color="#2E56FF"/>
</linearGradient>
<linearGradient id="paint10_linear" x1="75.372" y1="54.4552" x2="97.4863" y2="54.4552" gradientUnits="userSpaceOnUse">
<stop stop-color="#615FFF"/>
<stop offset="1" stop-color="#2E56FF"/>
</linearGradient>
<linearGradient id="paint11_linear" x1="70.4455" y1="99.749" x2="75.6337" y2="106.233" gradientUnits="userSpaceOnUse">
<stop stop-color="#615FFF"/>
<stop offset="1" stop-color="#2E56FF"/>
</linearGradient>
<linearGradient id="paint12_linear" x1="78.1068" y1="97.5126" x2="116.801" y2="105.657" gradientUnits="userSpaceOnUse">
<stop stop-color="#615FFF"/>
<stop offset="1" stop-color="#2E56FF"/>
</linearGradient>
<linearGradient id="paint13_linear" x1="117.674" y1="68.8054" x2="107.202" y2="91.5732" gradientUnits="userSpaceOnUse">
<stop stop-color="#2E56FF"/>
<stop offset="1" stop-color="#002F99"/>
</linearGradient>
<linearGradient id="paint14_linear" x1="107.144" y1="114.724" x2="120.74" y2="114.724" gradientUnits="userSpaceOnUse">
<stop stop-color="#615FFF"/>
<stop offset="1" stop-color="#2E56FF"/>
</linearGradient>
<linearGradient id="paint15_linear" x1="91.2974" y1="76.8788" x2="154.795" y2="111.724" gradientUnits="userSpaceOnUse">
<stop stop-color="#2E56FF"/>
<stop offset="1" stop-color="#002F99"/>
</linearGradient>
<linearGradient id="paint16_linear" x1="110.276" y1="62.2627" x2="135.855" y2="51.4527" gradientUnits="userSpaceOnUse">
<stop stop-color="#615FFF"/>
<stop offset="1" stop-color="#2E56FF"/>
</linearGradient>
<linearGradient id="paint17_linear" x1="78.5033" y1="28.4198" x2="92.1255" y2="35.4777" gradientUnits="userSpaceOnUse">
<stop stop-color="#615FFF"/>
<stop offset="1" stop-color="#2E56FF"/>
</linearGradient>
<linearGradient id="paint18_linear" x1="95.9732" y1="44.609" x2="120.198" y2="71.138" gradientUnits="userSpaceOnUse">
<stop stop-color="#CFD0FF"/>
<stop offset="1" stop-color="#5C5CFF"/>
</linearGradient>
<linearGradient id="paint19_linear" x1="99.5342" y1="15.6953" x2="95.1297" y2="23.3275" gradientUnits="userSpaceOnUse">
<stop stop-color="#CFD0FF"/>
<stop offset="1" stop-color="#5C5CFF"/>
</linearGradient>
<linearGradient id="paint20_linear" x1="70.8417" y1="24.8145" x2="88.3151" y2="106.781" gradientUnits="userSpaceOnUse">
<stop stop-color="#CFD0FF"/>
<stop offset="1" stop-color="#5C5CFF"/>
</linearGradient>
<linearGradient id="paint21_linear" x1="75.3918" y1="101.143" x2="75.3918" y2="144.532" gradientUnits="userSpaceOnUse">
<stop stop-color="#2E56FF"/>
<stop offset="1" stop-color="#002F99"/>
</linearGradient>
<linearGradient id="paint22_linear" x1="75.1344" y1="107.645" x2="88.8235" y2="143.919" gradientUnits="userSpaceOnUse">
<stop stop-color="#2E56FF"/>
<stop offset="1" stop-color="#002F99"/>
</linearGradient>
<linearGradient id="paint23_linear" x1="98.3352" y1="111.222" x2="115.237" y2="174.267" gradientUnits="userSpaceOnUse">
<stop stop-color="#615FFF"/>
<stop offset="1" stop-color="#2E56FF"/>
</linearGradient>
<linearGradient id="paint24_linear" x1="104.384" y1="107.641" x2="105.418" y2="134.646" gradientUnits="userSpaceOnUse">
<stop stop-color="#615FFF"/>
<stop offset="1" stop-color="#2E56FF"/>
</linearGradient>
<linearGradient id="paint25_linear" x1="95.1952" y1="91.8762" x2="114.542" y2="125.009" gradientUnits="userSpaceOnUse">
<stop stop-color="#2E56FF"/>
<stop offset="1" stop-color="#002F99"/>
</linearGradient>
<linearGradient id="paint26_linear" x1="99.1654" y1="81.6719" x2="113.125" y2="96.733" gradientUnits="userSpaceOnUse">
<stop stop-color="#2E56FF"/>
<stop offset="1" stop-color="#002F99"/>
</linearGradient>
<linearGradient id="paint27_linear" x1="132.547" y1="50.1699" x2="124.946" y2="62.8353" gradientUnits="userSpaceOnUse">
<stop stop-color="#2E56FF"/>
<stop offset="1" stop-color="#002F99"/>
</linearGradient>
<linearGradient id="paint28_linear" x1="31.8749" y1="45.0655" x2="71.8737" y2="81.93" gradientUnits="userSpaceOnUse">
<stop stop-color="#615FFF"/>
<stop offset="1" stop-color="#2E56FF"/>
</linearGradient>
<linearGradient id="paint29_linear" x1="38.9073" y1="69.4716" x2="122.288" y2="95.2899" gradientUnits="userSpaceOnUse">
<stop stop-color="#CFD0FF"/>
<stop offset="1" stop-color="#5C5CFF"/>
</linearGradient>
<linearGradient id="paint30_linear" x1="27.3822" y1="90.3028" x2="58.5652" y2="64.3227" gradientUnits="userSpaceOnUse">
<stop stop-color="#615FFF"/>
<stop offset="1" stop-color="#2E56FF"/>
</linearGradient>
<linearGradient id="paint31_linear" x1="53.3485" y1="54.4552" x2="75.4643" y2="54.4552" gradientUnits="userSpaceOnUse">
<stop stop-color="#CFD0FF"/>
<stop offset="1" stop-color="#5C5CFF"/>
</linearGradient>
<linearGradient id="paint32_linear" x1="66.9258" y1="93.9757" x2="64.1678" y2="126.52" gradientUnits="userSpaceOnUse">
<stop stop-color="#615FFF"/>
<stop offset="1" stop-color="#2E56FF"/>
</linearGradient>
<linearGradient id="paint33_linear" x1="43.7897" y1="99.6826" x2="87.1579" y2="124.943" gradientUnits="userSpaceOnUse">
<stop stop-color="#615FFF"/>
<stop offset="1" stop-color="#2E56FF"/>
</linearGradient>
<linearGradient id="paint34_linear" x1="41.0909" y1="96.0415" x2="68.112" y2="119.09" gradientUnits="userSpaceOnUse">
<stop stop-color="#CFD0FF"/>
<stop offset="1" stop-color="#5C5CFF"/>
</linearGradient>
<linearGradient id="paint35_linear" x1="28.9198" y1="98.5326" x2="40.4806" y2="129.55" gradientUnits="userSpaceOnUse">
<stop stop-color="#2E56FF"/>
<stop offset="1" stop-color="#002F99"/>
</linearGradient>
<linearGradient id="paint36_linear" x1="28.6814" y1="84.2084" x2="97.1222" y2="105.491" gradientUnits="userSpaceOnUse">
<stop stop-color="#CFD0FF"/>
<stop offset="1" stop-color="#5C5CFF"/>
</linearGradient>
<linearGradient id="paint37_linear" x1="19.712" y1="84.8113" x2="32.4976" y2="64.5103" gradientUnits="userSpaceOnUse">
<stop stop-color="#615FFF"/>
<stop offset="1" stop-color="#2E56FF"/>
</linearGradient>
<linearGradient id="paint38_linear" x1="40.8213" y1="31.4339" x2="89.3272" y2="72.0272" gradientUnits="userSpaceOnUse">
<stop stop-color="#CFD0FF"/>
<stop offset="1" stop-color="#5C5CFF"/>
</linearGradient>
<linearGradient id="paint39_linear" x1="41.4606" y1="56.3338" x2="68.7346" y2="37.184" gradientUnits="userSpaceOnUse">
<stop stop-color="#CFD0FF"/>
<stop offset="1" stop-color="#5C5CFF"/>
</linearGradient>
<linearGradient id="paint40_linear" x1="56.7898" y1="21.735" x2="79.8802" y2="72.0539" gradientUnits="userSpaceOnUse">
<stop stop-color="#CFD0FF"/>
<stop offset="1" stop-color="#5C5CFF"/>
</linearGradient>
<linearGradient id="paint41_linear" x1="67.5596" y1="104.523" x2="65.1463" y2="129.624" gradientUnits="userSpaceOnUse">
<stop stop-color="#615FFF"/>
<stop offset="1" stop-color="#2E56FF"/>
</linearGradient>
<linearGradient id="paint42_linear" x1="35.3192" y1="106.719" x2="60.9086" y2="140.751" gradientUnits="userSpaceOnUse">
<stop stop-color="#2E56FF"/>
<stop offset="1" stop-color="#002F99"/>
</linearGradient>
<linearGradient id="paint43_linear" x1="45.9933" y1="115.247" x2="45.3039" y2="136.827" gradientUnits="userSpaceOnUse">
<stop stop-color="#2E56FF"/>
<stop offset="1" stop-color="#002F99"/>
</linearGradient>
<linearGradient id="paint44_linear" x1="30.0957" y1="126.956" x2="43.6912" y2="126.956" gradientUnits="userSpaceOnUse">
<stop stop-color="#615FFF"/>
<stop offset="1" stop-color="#2E56FF"/>
</linearGradient>
<linearGradient id="paint45_linear" x1="7.56217" y1="73.9165" x2="20.1826" y2="91.278" gradientUnits="userSpaceOnUse">
<stop stop-color="#615FFF"/>
<stop offset="1" stop-color="#2E56FF"/>
</linearGradient>
<linearGradient id="paint46_linear" x1="26.5307" y1="70.7683" x2="112.756" y2="70.5938" gradientUnits="userSpaceOnUse">
<stop stop-color="#615FFF"/>
<stop offset="1" stop-color="#2E56FF"/>
</linearGradient>
</defs>
</svg>
