<svg width="78" height="79" viewBox="0 0 78 79" fill="none" xmlns="http://www.w3.org/2000/svg">
<path opacity="0.87" d="M38.996 38.9998L11.3533 11.354C3.94896 19.2528 0 29.1263 0 39.4935L38.996 38.9998Z" fill="url(#paint0_linear)"/>
<path d="M38.5024 39L0 39.4937C0 49.3672 3.94896 59.2407 11.3533 67.1395L38.5024 39Z" fill="url(#paint1_linear)"/>
<path opacity="0.87" d="M39.0012 39.0003L66.6439 11.3545C58.746 3.9494 48.8736 0 38.5076 0L39.0012 39.0003Z" fill="url(#paint2_linear)"/>
<path opacity="0.87" d="M39.0009 39.494L38.5073 0C28.6349 0 18.7625 3.9494 11.3582 11.3545L39.0009 39.494Z" fill="url(#paint3_linear)"/>
<path opacity="0.87" d="M38.9995 38.9998H77.9955C77.9955 29.1263 74.0466 18.7591 66.6423 11.354L38.9995 38.9998Z" fill="url(#paint4_linear)"/>
<path d="M11.3582 66.6453C18.7625 74.0504 29.1285 77.9998 39.0009 77.9998V38.5059L11.3582 66.6453Z" fill="url(#paint5_linear)"/>
<path d="M66.6423 66.6458C74.0466 59.2407 77.9955 49.3672 77.9955 39H38.9995L66.6423 66.6458Z" fill="url(#paint6_linear)"/>
<path d="M38.9995 39V78.0003C48.8719 78.0003 59.238 74.0509 66.6423 66.1521L38.9995 39Z" fill="url(#paint7_linear)"/>
<path d="M39.0004 67.1395L23.2046 75.0383L19.2556 58.7471L39.0004 67.1395Z" fill="url(#paint8_linear)"/>
<path d="M19.2619 58.747L2.97241 54.3039L10.8703 39L19.2619 58.747Z" fill="url(#paint9_linear)"/>
<path d="M10.8648 39.4941L3.46045 23.2028L19.2563 19.7471L10.8648 39.4941Z" fill="url(#paint10_linear)"/>
<path d="M19.2556 19.7483L22.711 3.45703L39.0004 11.3558L19.2556 19.7483Z" fill="url(#paint11_linear)"/>
<path d="M38.9995 11.3558L54.7954 3.45703L58.7443 19.2546L38.9995 11.3558Z" fill="url(#paint12_linear)"/>
<path d="M58.7437 19.7471L75.0331 23.6965L66.6416 39.0004L58.7437 19.7471Z" fill="url(#paint13_linear)"/>
<path d="M66.6416 39L75.0331 54.3039L58.7437 58.747L66.6416 39Z" fill="url(#paint14_linear)"/>
<path d="M58.746 58.7471L55.2907 74.5447L38.5076 66.6459L58.746 58.7471Z" fill="url(#paint15_linear)"/>
<g opacity="0.26">
<path opacity="0.26" d="M48.8773 64.1782L39.0049 78.0011L28.1453 64.1782H48.8773Z" fill="url(#paint16_linear)"/>
<path opacity="0.26" d="M28.1515 64.1784L11.8621 66.1531L13.3429 49.3682L28.1515 64.1784Z" fill="url(#paint17_linear)"/>
<path opacity="0.26" d="M13.338 49.3691L0.503906 39.002L13.8317 28.1411L13.338 49.3691Z" fill="url(#paint18_linear)"/>
<path opacity="0.87" d="M13.8365 28.1394L11.8621 11.8481L29.1388 13.8228L13.8365 28.1394Z" fill="url(#paint19_linear)"/>
<path opacity="0.26" d="M28.6375 13.8238L38.5099 0.494629L49.8631 13.8238H28.6375Z" fill="url(#paint20_linear)"/>
<path opacity="0.26" d="M49.8657 13.8228L66.1552 11.8481L64.6743 29.1268L49.8657 13.8228Z" fill="url(#paint21_linear)"/>
<path opacity="0.26" d="M64.674 29.1265L77.5082 39L64.1804 49.8608L64.674 29.1265Z" fill="url(#paint22_linear)"/>
<path opacity="0.26" d="M64.1836 49.8623L66.1581 65.6599L48.8813 64.1789L64.1836 49.8623Z" fill="url(#paint23_linear)"/>
</g>
<path opacity="0.87" d="M19.2575 31.1006L10.866 39.4931L19.2575 38.9994V31.1006Z" fill="url(#paint24_linear)"/>
<path opacity="0.87" d="M38.9995 67.1395L47.3911 58.7471H38.9995V67.1395Z" fill="url(#paint25_linear)"/>
<path opacity="0.87" d="M10.866 39.4937L19.2575 47.3925V39L10.866 39.4937Z" fill="url(#paint26_linear)"/>
<path opacity="0.87" d="M58.2515 47.8861L66.643 39H58.7451L58.2515 47.8861Z" fill="url(#paint27_linear)"/>
<path opacity="0.87" d="M66.6416 38.9994L58.7437 31.1006V38.9994H66.6416Z" fill="url(#paint28_linear)"/>
<path opacity="0.87" d="M39 19.2528V11.354L31.1021 19.7465L39 19.2528Z" fill="url(#paint29_linear)"/>
<path opacity="0.8" d="M47.3911 19.7465L38.9995 11.354V19.2528L47.3911 19.7465Z" fill="url(#paint30_linear)"/>
<path opacity="0.87" d="M31.1021 58.7471L39 66.6459V67.1395V58.7471H31.1021Z" fill="url(#paint31_linear)"/>
<path opacity="0.87" d="M19.2556 47.3936V58.7481L25.1791 53.3177L19.2556 47.3936Z" fill="url(#paint32_linear)"/>
<path opacity="0.87" d="M30.1153 19.7471H31.1025H19.2556L25.1791 25.1775L30.1153 19.7471Z" fill="url(#paint33_linear)"/>
<path opacity="0.87" d="M25.1791 25.1775L19.2556 19.7471V31.1016L19.7492 30.6079L25.1791 25.1775Z" fill="url(#paint34_linear)"/>
<path opacity="0.87" d="M25.1791 53.3159L19.2556 58.7463H30.1153L30.6089 58.2527L25.1791 53.3159Z" fill="url(#paint35_linear)"/>
<path opacity="0.87" d="M58.2521 30.6079L58.7457 31.1016V19.7471L52.8223 25.1775L58.2521 30.6079Z" fill="url(#paint36_linear)"/>
<path opacity="0.87" d="M52.8254 25.1775L58.7488 19.7471H47.8892L52.8254 25.1775Z" fill="url(#paint37_linear)"/>
<path d="M52.8223 52.8244L58.7457 58.7485L58.2521 47.8877L52.8223 52.8244Z" fill="url(#paint38_linear)"/>
<path opacity="0.8" d="M47.3972 58.7463H58.7505L53.3207 53.3159L47.3972 58.7463Z" fill="url(#paint39_linear)"/>
<path opacity="0.63" d="M39.0062 39.0004L30.6146 19.7471L25.1848 25.1775L39.0062 39.0004Z" fill="white"/>
<path d="M25.1737 25.1782L19.7439 30.6086L38.9951 39.0011L25.1737 25.1782Z" fill="url(#paint40_linear)"/>
<path opacity="0.55" d="M25.1791 25.1782L19.2556 31.1023L39.0004 39.0011L25.1791 25.1782Z" fill="url(#paint41_linear)"/>
<path opacity="0.63" d="M58.2507 30.6086L52.8209 25.1782L38.9995 39.0011L58.2507 30.6086Z" fill="white"/>
<path opacity="0.55" d="M52.8209 25.1775L47.3911 19.7471L38.9995 39.0004L52.8209 25.1775Z" fill="url(#paint42_linear)"/>
<path opacity="0.55" d="M52.8209 52.8229L58.2507 47.8861L38.9995 39L52.8209 52.8229Z" fill="url(#paint43_linear)"/>
<path opacity="0.63" d="M39.0004 39H38.5068L19.2556 47.3925L25.1791 53.3166L39.0004 39Z" fill="white"/>
<path opacity="0.63" d="M47.8847 58.7475L53.3145 53.317L38.9995 39.4941L47.8847 58.7475Z" fill="white"/>
<path opacity="0.55" d="M38.9995 39.0014H58.7443V31.1026L58.2507 30.6089L38.9995 39.0014Z" fill="url(#paint44_linear)"/>
<path opacity="0.63" d="M38.5068 38.9994H39.0004L19.2556 31.1006V38.9994H38.5068Z" fill="white"/>
<path opacity="0.63" d="M39.0014 39L30.6099 58.2533L31.1035 58.747H39.0014V39Z" fill="white"/>
<path opacity="0.55" d="M38.9995 39V58.747H47.3911H47.8847L38.9995 39Z" fill="url(#paint45_linear)"/>
<path opacity="0.55" d="M39.0004 39H19.2556L19.7492 47.3925L39.0004 39Z" fill="url(#paint46_linear)"/>
<path opacity="0.63" d="M38.9995 38.9999L47.8847 19.7466L38.9995 19.2529V38.9999Z" fill="white"/>
<path opacity="0.63" d="M38.9995 39L58.2507 47.8861L58.7443 39H38.9995Z" fill="white"/>
<path opacity="0.55" d="M25.1848 53.3166L30.6146 58.2533L39.0062 39L25.1848 53.3166Z" fill="url(#paint47_linear)"/>
<path opacity="0.55" d="M39.0014 38.9999V19.2529L31.1035 19.7466H30.6099L39.0014 38.9999Z" fill="url(#paint48_linear)"/>
<path opacity="0.8" d="M31.1025 19.7471H47.8856L58.7453 31.1016L58.2516 47.8865L47.8856 58.7474H30.1153L19.7492 47.3929L19.2556 31.1016L31.1025 19.7471Z" fill="url(#paint49_linear)"/>
<path opacity="0.5" d="M17.7775 26.6584L9.8796 22.2153L5.43701 30.1141L17.7775 26.6584Z" fill="#101168"/>
<path opacity="0.5" d="M38.9995 57.2671V63.6849L43.9357 58.7481L38.9995 57.2671Z" fill="#565D9C"/>
<path opacity="0.5" d="M20.7365 39L19.2556 44.4304L23.2046 48.3798L20.7365 39Z" fill="#6E8EED"/>
<path opacity="0.5" d="M30.1216 54.7983L33.5769 58.7477L39.0068 57.2667L30.1216 54.7983Z" fill="#3D45F0"/>
<path opacity="0.5" d="M26.6572 60.7224L33.5679 58.7477L30.1126 54.7983L26.6572 60.7224Z" fill="#292AA1"/>
<path opacity="0.5" d="M30.1107 54.7969L24.6809 53.3159L26.6554 60.721L30.1107 54.7969Z" fill="#4E71E6"/>
<path opacity="0.5" d="M23.2085 48.3794L24.6894 53.3161L30.1192 54.7972L23.2085 48.3794Z" fill="#393A61"/>
<path opacity="0.5" d="M23.2091 48.3794L17.7793 51.3414L24.69 53.3161L23.2091 48.3794Z" fill="#4D54F1"/>
<path opacity="0.5" d="M9.8796 22.2154L5.43701 19.7471V30.1142L9.8796 22.2154Z" fill="#6379E9"/>
<path opacity="0.5" d="M38.9995 21.2279L44.4293 19.7468L38.9995 14.3164V21.2279Z" fill="#6E83EA"/>
<path opacity="0.5" d="M38.9995 57.2667L43.9357 58.7477L47.8847 54.7983L38.9995 57.2667Z" fill="#6D8DED"/>
<path opacity="0.5" d="M34.0615 19.7477L38.9977 14.3173L30.1126 5.43115L26.6572 17.773L34.0615 19.7477Z" fill="#5C639F"/>
<path opacity="0.5" d="M47.8892 23.697L53.319 24.6844L51.3445 17.7729L47.8892 23.697Z" fill="#5379E9"/>
<path opacity="0.5" d="M47.8801 23.697L51.3355 17.7729L44.4248 19.7476L47.8801 23.697Z" fill="#060762"/>
<path opacity="0.5" d="M14.3188 39L19.2551 44.4304L20.7359 39H14.3188Z" fill="#646AF3"/>
<path opacity="0.5" d="M51.34 17.773L48.3783 5.43115L38.9995 14.3173L44.4293 19.7477L51.34 17.773Z" fill="#18197C"/>
<path opacity="0.5" d="M19.752 34.0633L17.7775 26.6582L5.43701 30.1139L14.3222 39.0001L19.752 34.0633Z" fill="#18197C"/>
<path opacity="0.5" d="M23.2091 30.114L24.69 24.6836L17.7793 26.6583L23.2091 30.114Z" fill="#9AA8F1"/>
<path opacity="0.5" d="M30.1107 23.2034L26.6554 17.7729L24.6809 24.6844L30.1107 23.2034Z" fill="#646AA4"/>
<path opacity="0.5" d="M26.6594 17.7721L14.3188 14.3164L17.7742 26.6583L24.6849 24.6836L26.6594 17.7721Z" fill="#383981"/>
<path opacity="0.5" d="M54.7953 30.114L60.7188 26.6583L53.3145 24.6836L54.7953 30.114Z" fill="#252751"/>
<path opacity="0.5" d="M38.9995 14.3173L48.3783 5.43115H38.9995V14.3173Z" fill="#1414D8"/>
<path opacity="0.5" d="M30.1099 5.43115H19.7439L22.212 9.87423L30.1099 5.43115Z" fill="#6268A3"/>
<path opacity="0.5" d="M51.3431 17.773L55.7857 9.87423L48.3813 5.43115L51.3431 17.773Z" fill="#2D2DDC"/>
<path opacity="0.5" d="M30.1103 5.43115L22.2124 9.87423L26.655 17.773L30.1103 5.43115Z" fill="#22244F"/>
<path opacity="0.5" d="M39.0068 14.3173V5.43115H30.1216L39.0068 14.3173Z" fill="#171899"/>
<path opacity="0.5" d="M39.0068 5.43042V0L30.1216 5.43042H39.0068Z" fill="#3A3B83"/>
<path opacity="0.5" d="M5.43701 30.1147V39.0009H14.3222L5.43701 30.1147Z" fill="#7D8FEC"/>
<path opacity="0.5" d="M63.6787 14.3166L55.7807 9.87354L51.3381 17.7723L63.6787 14.3166Z" fill="#21229D"/>
<path opacity="0.5" d="M14.3158 39H5.43063L4.93701 47.8861L14.3158 39Z" fill="#21229D"/>
<path opacity="0.5" d="M60.2323 51.8363L58.7515 44.4312L54.8025 48.3806L60.2323 51.8363Z" fill="#1919D8"/>
<path opacity="0.5" d="M54.8025 30.1147L57.2706 39.0009L58.7515 34.0641L54.8025 30.1147Z" fill="#202181"/>
<path opacity="0.5" d="M63.6842 39.4934L58.748 34.063L57.2671 38.9997L63.6842 39.4934Z" fill="#3C448D"/>
<path opacity="0.5" d="M54.8025 48.3798L58.7515 44.4304L57.2706 39L54.8025 48.3798Z" fill="#3232DD"/>
<path opacity="0.5" d="M57.2671 39L58.748 44.4304L63.6842 39.4937L57.2671 39Z" fill="#2627A0"/>
<path opacity="0.5" d="M47.8892 54.7969L51.3445 60.721L53.319 53.3159L47.8892 54.7969Z" fill="#0E103F"/>
<path opacity="0.5" d="M51.3381 60.7221L63.6787 64.1778L60.2233 51.8359L53.3126 53.317L51.3381 60.7221Z" fill="#2E2FA3"/>
<path opacity="0.5" d="M47.8855 54.7983L43.9365 58.7477L51.3408 60.7224L47.8855 54.7983Z" fill="#697FEA"/>
<path opacity="0.5" d="M26.6594 17.7723L22.2168 9.87354L14.3188 14.3166L26.6594 17.7723Z" fill="#7084EB"/>
<path opacity="0.5" d="M58.7515 34.0633L60.7259 26.6582L54.8025 30.1139L58.7515 34.0633Z" fill="#666CF3"/>
<path opacity="0.5" d="M5.42983 30.1147L0 39.0009H5.42983V30.1147Z" fill="#6A70A8"/>
<path opacity="0.5" d="M17.772 26.6583L14.3166 14.3164L9.87402 22.2152L17.772 26.6583Z" fill="#A5B2F2"/>
<path opacity="0.5" d="M51.3381 17.7721L53.3126 24.6836L60.7169 26.6583L63.6787 14.3164L51.3381 17.7721Z" fill="#1717D8"/>
<path opacity="0.5" d="M54.7953 48.3794L53.3145 53.3161L60.2251 51.8351L54.7953 48.3794Z" fill="#565D9C"/>
<path opacity="0.5" d="M4.93701 58.7462L14.3158 63.683L9.87322 55.7842L4.93701 58.7462Z" fill="#6D8DED"/>
<path opacity="0.5" d="M54.7999 30.1136L53.319 24.6831L47.8892 23.6958L54.7999 30.1136Z" fill="#5C639F"/>
<path opacity="0.5" d="M26.6572 76.027C28.1381 76.5207 29.619 77.0144 31.0998 77.0144L30.1126 72.5713L26.6572 76.027Z" fill="#6379E9"/>
<path opacity="0.5" d="M0.5 46.8994C0.5 47.3931 0.993621 48.3804 0.993621 48.8741H1.48724H0.993621C0.993621 49.8615 1.48724 50.3551 1.48724 51.3425L4.94259 47.8868L0.5 46.8994Z" fill="#292A78"/>
<path opacity="0.5" d="M77.5048 47.3936L73.0623 48.3809L76.5176 51.8366C76.5176 50.3556 77.0112 48.8746 77.5048 47.3936Z" fill="#777DF5"/>
<path opacity="0.5" d="M14.3158 39L4.93701 47.8861L17.7711 51.3419L19.252 44.4304L14.3158 39Z" fill="#292A78"/>
<path opacity="0.5" d="M38.9995 77.9997L47.8847 73.063H38.9995V77.9997Z" fill="#7B98EE"/>
<path opacity="0.5" d="M77.9985 39.4946L73.0623 30.1147V39.4946H77.9985Z" fill="#6284EB"/>
<path opacity="0.5" d="M39.004 39H20.74L23.2081 48.3798L39.004 39Z" fill="#6A70A8"/>
<path opacity="0.5" d="M23.2081 30.1147L20.74 39.0009H39.004L23.2081 30.1147Z" fill="#2C2E57"/>
<path opacity="0.5" d="M23.2085 48.3798L30.1192 54.7976L39.0044 39L23.2085 48.3798Z" fill="#6066F3"/>
<path opacity="0.5" d="M19.7487 34.063L14.3188 38.9997H20.7359L19.7487 34.063Z" fill="#6B80EA"/>
<path opacity="0.5" d="M23.1992 30.1147L19.7439 34.0641L20.7311 39.0009L23.1992 30.1147Z" fill="#8B9CEE"/>
<path opacity="0.5" d="M39.0068 39L30.1216 54.7976L39.0068 57.266V39Z" fill="#646AA4"/>
<path opacity="0.5" d="M38.9995 39V57.266L47.8847 54.7976L38.9995 39Z" fill="#171899"/>
<path opacity="0.5" d="M57.2635 39.0009L54.7954 30.1147L38.9995 39.0009H57.2635Z" fill="#3C63E4"/>
<path opacity="0.5" d="M47.8847 23.6958L38.9995 38.9997L54.7954 30.1136L47.8847 23.6958Z" fill="#2F3089"/>
<path opacity="0.5" d="M38.9995 39L54.7954 48.3798L57.2635 39H38.9995Z" fill="#667CE9"/>
<path opacity="0.5" d="M38.9995 39L47.8847 54.7976L54.7954 48.3798L38.9995 39Z" fill="#6D8DED"/>
<path opacity="0.5" d="M23.2091 30.1139L17.7793 26.6582L19.7538 34.0633L23.2091 30.1139Z" fill="#4870E8"/>
<path opacity="0.5" d="M30.1192 23.2041L23.2085 30.1155L39.0044 39.0017L30.1192 23.2041Z" fill="#6A70A8"/>
<path opacity="0.5" d="M38.9995 38.9993L47.8847 23.6954L38.9995 21.2271V38.9993Z" fill="#17186D"/>
<path opacity="0.5" d="M47.8847 23.6965L44.4293 19.7471L38.9995 21.2281L47.8847 23.6965Z" fill="#2626DA"/>
<path opacity="0.5" d="M39.0068 21.2271L30.1216 23.2017L39.0068 38.9993V21.2271Z" fill="#7D8FEC"/>
<path opacity="0.5" d="M30.1192 23.2041L24.6894 24.6851L23.2085 30.1155L30.1192 23.2041Z" fill="#8E9EEF"/>
<path opacity="0.5" d="M34.0615 19.7476L26.6572 17.7729L30.1126 23.2034L34.0615 19.7476Z" fill="#040571"/>
<path opacity="0.5" d="M38.999 21.2279V14.3164L34.0627 19.7468L38.999 21.2279Z" fill="#2B2CA2"/>
<path opacity="0.5" d="M39.0068 21.2281L34.0705 19.7471L30.1216 23.2028L39.0068 21.2281Z" fill="#8092ED"/>
<path opacity="0.5" d="M47.8892 54.7972L53.319 53.3161L54.7999 48.3794L47.8892 54.7972Z" fill="#2D2DDC"/>
<path opacity="0.5" d="M60.72 26.6584L73.0605 30.1141L68.1243 22.2153L60.72 26.6584Z" fill="#8193ED"/>
<path opacity="0.5" d="M73.0615 30.1142V19.7471L68.1252 22.2154L73.0615 30.1142Z" fill="#17186D"/>
<path opacity="0.5" d="M77.0127 31.5954C77.0127 30.6081 76.519 30.1144 76.519 29.127C76.519 28.6334 76.0254 27.646 76.0254 27.1523L72.5701 30.6081L77.0127 31.5954Z" fill="#545B9B"/>
<path opacity="0.5" d="M73.0637 39.4941L72.5701 48.3803L77.9999 39.4941H73.0637Z" fill="#486CE6"/>
<path opacity="0.5" d="M68.123 22.2152L73.0592 19.7468L63.6804 14.3164L68.123 22.2152Z" fill="#212273"/>
<path opacity="0.5" d="M77.9999 39.495C77.9999 37.0267 77.5063 34.0646 77.0127 31.5962L72.5701 30.6089L77.9999 39.495Z" fill="#1C1D70"/>
<path opacity="0.5" d="M48.3813 5.4308H58.7474C56.2793 3.94977 54.3048 2.96242 51.8367 2.46875L48.3813 5.4308Z" fill="#8899EE"/>
<path opacity="0.5" d="M48.3769 5.43042L47.3896 0.98735C44.4279 0.493675 41.9598 0 39.4917 0L48.3769 5.43042Z" fill="#4268E5"/>
<path opacity="0.5" d="M63.6804 14.3166L68.123 13.3293C67.1358 12.3419 66.1485 10.8609 64.6677 9.87354L63.6804 14.3166Z" fill="#5177E9"/>
<path opacity="0.5" d="M63.6804 14.3179L73.0592 19.7483C71.5783 17.28 70.0975 15.3053 68.6166 13.3306L63.6804 14.3179Z" fill="#2C2E57"/>
<path opacity="0.5" d="M58.7437 5.43115L64.1735 14.3173L65.1607 9.87423C63.1862 8.3932 61.2118 6.91218 58.7437 5.43115Z" fill="#486CE6"/>
<path opacity="0.5" d="M47.8892 73.063L51.3445 76.5187C53.8126 75.5314 56.2807 74.544 58.2552 73.5567L47.8892 73.063Z" fill="#6268A3"/>
<path opacity="0.5" d="M46.8972 77.5061C47.8845 77.5061 48.3781 77.0124 49.3653 77.0124C49.8589 77.0124 50.8462 76.5187 51.3398 76.5187L47.8845 73.063L46.8972 77.5061Z" fill="#090A74"/>
<path opacity="0.5" d="M38.9967 73.063H29.6179L38.9967 77.9997V73.063Z" fill="#7177F4"/>
<path opacity="0.5" d="M55.783 68.6208L58.2511 73.0639L63.6809 64.1777L55.783 68.6208Z" fill="#6067A2"/>
<path opacity="0.5" d="M47.8847 73.063L38.9995 78.4934C41.4676 78.4934 43.9357 77.9997 46.8974 77.5061L47.8847 73.063Z" fill="#101196"/>
<path opacity="0.5" d="M60.2278 51.8351L68.1257 56.2782L72.5683 48.3794L60.2278 51.8351Z" fill="#4D74E9"/>
<path opacity="0.5" d="M72.5678 58.7466V48.3794L68.1252 56.2782L72.5678 58.7466Z" fill="#090A74"/>
<path opacity="0.5" d="M38.9967 63.6836L29.6179 73.0634H38.9967V63.6836Z" fill="#363E89"/>
<path opacity="0.5" d="M63.6804 64.178L68.123 65.659C69.6039 63.6843 71.0847 61.7096 72.5656 59.7349V59.2412L63.6804 64.178Z" fill="#090A74"/>
<path opacity="0.5" d="M63.6804 64.1771L72.5656 58.7467L68.123 56.2783L63.6804 64.1771Z" fill="#666CF3"/>
<path opacity="0.5" d="M63.6804 64.1777L64.6677 68.6208C65.6549 67.6335 67.1358 66.6461 68.123 65.1651L63.6804 64.1777Z" fill="#687DE9"/>
<path opacity="0.5" d="M72.5701 58.7471C72.5701 59.2407 73.0637 59.2407 72.5701 58.7471V58.7471Z" fill="#7186EB"/>
<path opacity="0.5" d="M63.6813 64.1777L58.2515 73.0639C60.7196 71.5829 62.6941 70.1018 64.6685 68.6208L63.6813 64.1777Z" fill="#4149F0"/>
<path opacity="0.5" d="M72.5701 48.3803L77.0127 47.3929C77.5063 44.9246 77.9999 42.4562 77.9999 39.4941L72.5701 48.3803Z" fill="#6083EB"/>
<path opacity="0.5" d="M73.0623 19.7471V30.1142L76.5176 26.6585C75.0367 24.6838 74.0495 22.2154 73.0623 19.7471Z" fill="#5E75E8"/>
<path opacity="0.5" d="M72.5701 48.3794V58.7466H73.0637C74.5446 56.7719 75.5318 54.3035 76.0254 51.8351L72.5701 48.3794Z" fill="#6067A2"/>
<path opacity="0.5" d="M29.6179 73.063L31.0988 77.5061C33.5669 77.9997 36.035 78.4934 38.9967 78.4934L29.6179 73.063Z" fill="#6D8DED"/>
<path opacity="0.5" d="M14.3222 14.3179L9.8796 13.3306C7.90512 14.8116 6.42425 17.28 5.43701 19.2547L14.3222 14.3179Z" fill="#92A1EF"/>
<path opacity="0.5" d="M14.3217 14.3173L19.7515 5.43115C17.2834 6.4185 15.309 7.89953 13.3345 9.87423L14.3217 14.3173Z" fill="#86A1F0"/>
<path opacity="0.5" d="M4.93948 47.8877L1.48413 51.3434C2.47137 53.8118 3.45861 56.2802 4.44585 58.2549L4.93948 47.8877Z" fill="#2828DB"/>
<path opacity="0.5" d="M0.49362 46.8988L4.93621 47.8861L0 39C0 41.4684 -4.78109e-07 44.4304 0.49362 46.8988Z" fill="#0B0C93"/>
<path opacity="0.5" d="M23.2091 48.3806L19.2602 44.4312L17.7793 51.3426L23.2091 48.3806Z" fill="#2626DA"/>
<path opacity="0.5" d="M29.6216 73.063H19.2556C21.7237 74.544 23.6982 75.5314 26.1663 76.5187L29.6216 73.063Z" fill="#1A1B9A"/>
<path opacity="0.5" d="M63.6831 64.1778L68.1257 56.279L60.2278 51.8359L63.6831 64.1778Z" fill="#111278"/>
<path opacity="0.5" d="M63.6799 39.4941L58.7437 44.4309L60.2245 51.836L72.565 48.3803L63.6799 39.4941Z" fill="#5C7DE8"/>
<path opacity="0.5" d="M47.8892 73.0631L55.7871 68.62L51.3445 60.7212L47.8892 73.0631Z" fill="#8193ED"/>
<path opacity="0.5" d="M55.7857 9.87423L58.7474 5.43115H48.3813L55.7857 9.87423Z" fill="#565D9C"/>
<path opacity="0.5" d="M51.3381 60.7212L55.7807 68.62L63.6787 64.1769L51.3381 60.7212Z" fill="#3E64E4"/>
<path opacity="0.5" d="M63.6809 14.3173L58.7447 5.43115L55.783 9.87423L63.6809 14.3173Z" fill="#98A7F0"/>
<path opacity="0.5" d="M60.72 26.6583L68.1243 22.2152L63.6817 14.3164L60.72 26.6583Z" fill="#95A4F0"/>
<path opacity="0.5" d="M63.6804 39.4946H73.0592V30.1147L63.6804 39.4946Z" fill="#0D0E94"/>
<path opacity="0.5" d="M58.7437 34.0633L63.6799 39.4937L73.0586 30.1139L60.7181 26.6582L58.7437 34.0633Z" fill="#070872"/>
<path opacity="0.5" d="M47.8892 73.0637H58.2552L55.7871 68.6206L47.8892 73.0637Z" fill="#101196"/>
<path opacity="0.5" d="M72.5656 48.3803L73.0592 39.4941H63.6804L72.5656 48.3803Z" fill="#080992"/>
<path opacity="0.5" d="M14.3188 63.6832L22.2168 68.62L26.6594 60.7212L14.3188 63.6832Z" fill="#1D1E7F"/>
<path opacity="0.5" d="M14.3188 63.6836L19.2551 73.0634L22.2168 68.6203L14.3188 63.6836Z" fill="#060791"/>
<path opacity="0.5" d="M17.772 51.3418L9.87402 55.7849L14.3166 63.6837L17.772 51.3418Z" fill="#1414D8"/>
<path opacity="0.5" d="M14.3188 63.6837L26.6594 60.7216L24.6849 53.3165L17.7742 51.3418L14.3188 63.6837Z" fill="#3031A4"/>
<path opacity="0.5" d="M47.8847 73.0636L51.34 60.7218L43.9357 58.7471L38.9995 63.6838L47.8847 73.0636Z" fill="#365EE3"/>
<path opacity="0.5" d="M38.9995 63.6836V73.0634H47.8847L38.9995 63.6836Z" fill="#7694EE"/>
<path opacity="0.5" d="M39.0004 57.2671L33.5706 58.7481L39.0004 63.6849V57.2671Z" fill="#565D9C"/>
<path opacity="0.5" d="M26.6572 60.7218L29.6189 73.0636L38.9977 63.6838L33.5679 58.7471L26.6572 60.7218Z" fill="#3A61E4"/>
<path opacity="0.5" d="M26.655 60.7212L22.2124 68.62L29.6167 73.0631L26.655 60.7212Z" fill="#788BEC"/>
<path opacity="0.5" d="M9.87322 55.7865L4.93701 47.8877V58.7485L9.87322 55.7865Z" fill="#31335B"/>
<path opacity="0.5" d="M17.7711 51.3434L4.93701 47.8877L9.87322 55.7865L17.7711 51.3434Z" fill="#4469E5"/>
<path opacity="0.5" d="M5.42983 30.1147L0.987241 31.1021C0.49362 33.5705 0 36.0388 0 39.0009L5.42983 30.1147Z" fill="#6C81EA"/>
<path opacity="0.5" d="M5.42983 39H0L4.93621 47.8861L5.42983 39Z" fill="#647BE9"/>
<path opacity="0.5" d="M1.98333 26.6582C1.48971 28.1392 0.996094 29.6203 0.996094 31.1013L5.43868 30.1139L1.98333 26.6582Z" fill="#7379F4"/>
<path opacity="0.5" d="M22.2173 68.6206L19.2556 73.0637H29.6216L22.2173 68.6206Z" fill="#5E65A1"/>
<path opacity="0.5" d="M14.3217 63.6836L13.3345 68.1267C15.309 70.1014 17.2834 71.5824 19.7515 72.5697L14.3217 63.6836Z" fill="#3A61E4"/>
<path opacity="0.5" d="M14.3222 63.6833L5.43701 58.2529C5.93063 59.2403 6.91787 60.7213 7.41149 61.7087C7.90512 62.696 8.89236 63.6834 9.8796 64.6707L14.3222 63.6833Z" fill="#466BE5"/>
<path opacity="0.5" d="M9.87402 65.1651C10.8613 66.1524 11.8485 67.6335 13.3294 68.6208L14.3166 64.1777L9.87402 65.1651Z" fill="#0B0C93"/>
<path opacity="0.5" d="M30.1099 5.43033L26.6546 1.97461C24.1865 2.96196 21.7184 3.94931 19.7439 4.93666L30.1099 5.43033Z" fill="#3E3F92"/>
<path opacity="0.5" d="M31.0998 0.98877C30.1126 0.98877 29.619 1.48244 28.6317 1.48244C28.1381 1.48244 27.1508 1.97612 26.6572 1.97612L30.1126 5.43184L31.0998 0.98877Z" fill="#5073E7"/>
<path opacity="0.5" d="M5.43166 30.1142V19.7471C3.9508 21.7218 2.96356 24.1901 1.97632 26.6585L5.43166 30.1142Z" fill="#101168"/>
<path opacity="0.5" d="M48.3845 5.43184L51.8398 1.97612C50.3589 1.48244 48.8781 0.98877 47.3972 0.98877L48.3845 5.43184Z" fill="#090B3B"/>
<path opacity="0.5" d="M38.9995 5.43042H48.3783L38.9995 0V5.43042Z" fill="#1F209C"/>
<path opacity="0.5" d="M30.1216 5.43042L39.0068 0C36.5387 0 34.0705 0 31.1088 0.98735L30.1216 5.43042Z" fill="#4A6EE6"/>
<path opacity="0.5" d="M9.8796 22.2152L14.3222 14.3164L5.43701 19.7468L9.8796 22.2152Z" fill="#070939"/>
<path opacity="0.5" d="M22.2168 9.87423L19.7487 5.43115L14.3188 14.3173L22.2168 9.87423Z" fill="#15166B"/>
<path opacity="0.5" d="M14.3166 14.3166L13.3294 9.87354C11.8485 10.8609 10.8613 11.8482 9.87402 13.3293L14.3166 14.3166Z" fill="#8D9DEF"/>
<defs>
<linearGradient id="paint0_linear" x1="14.6971" y1="11.6947" x2="19.455" y2="39.6218" gradientUnits="userSpaceOnUse">
<stop stop-color="white"/>
<stop offset="0.0024093" stop-color="#F9FFFF"/>
<stop offset="0.0215018" stop-color="#CBFBFC"/>
<stop offset="0.0429262" stop-color="#A0F8F9"/>
<stop offset="0.0660673" stop-color="#7AF5F7"/>
<stop offset="0.0912215" stop-color="#5AF3F5"/>
<stop offset="0.119" stop-color="#3EF0F4"/>
<stop offset="0.1504" stop-color="#28EFF2"/>
<stop offset="0.1871" stop-color="#17EEF1"/>
<stop offset="0.2324" stop-color="#0CEDF1"/>
<stop offset="0.296" stop-color="#05ECF0"/>
<stop offset="0.4725" stop-color="#03ECF0"/>
<stop offset="0.5705" stop-color="#02DFE8"/>
<stop offset="0.7503" stop-color="#00BED2"/>
<stop offset="0.7582" stop-color="#00BCD1"/>
</linearGradient>
<linearGradient id="paint1_linear" x1="17.8615" y1="20.9202" x2="21.0773" y2="62.5465" gradientUnits="userSpaceOnUse">
<stop stop-color="#00B9DC"/>
<stop offset="0.1482" stop-color="#00B4D7"/>
<stop offset="0.3296" stop-color="#00A6C8"/>
<stop offset="0.5282" stop-color="#008EAF"/>
<stop offset="0.7392" stop-color="#006E8C"/>
<stop offset="0.9579" stop-color="#004460"/>
<stop offset="1" stop-color="#003B57"/>
</linearGradient>
<linearGradient id="paint2_linear" x1="62.4934" y1="-18.2444" x2="44.6225" y2="25.2292" gradientUnits="userSpaceOnUse">
<stop stop-color="white"/>
<stop offset="0.0024093" stop-color="#F9FFFF"/>
<stop offset="0.0215018" stop-color="#CBFBFC"/>
<stop offset="0.0429262" stop-color="#A0F8F9"/>
<stop offset="0.0660673" stop-color="#7AF5F7"/>
<stop offset="0.0912215" stop-color="#5AF3F5"/>
<stop offset="0.119" stop-color="#3EF0F4"/>
<stop offset="0.1504" stop-color="#28EFF2"/>
<stop offset="0.1871" stop-color="#17EEF1"/>
<stop offset="0.2324" stop-color="#0CEDF1"/>
<stop offset="0.296" stop-color="#05ECF0"/>
<stop offset="0.4725" stop-color="#03ECF0"/>
<stop offset="0.5705" stop-color="#02DFE8"/>
<stop offset="0.7503" stop-color="#00BED2"/>
<stop offset="0.7582" stop-color="#00BCD1"/>
</linearGradient>
<linearGradient id="paint3_linear" x1="35.3787" y1="-9.94215" x2="24.5955" y2="27.7009" gradientUnits="userSpaceOnUse">
<stop stop-color="white"/>
<stop offset="0.0024093" stop-color="#F9FFFF"/>
<stop offset="0.0215018" stop-color="#CBFBFC"/>
<stop offset="0.0429262" stop-color="#A0F8F9"/>
<stop offset="0.0660673" stop-color="#7AF5F7"/>
<stop offset="0.0912215" stop-color="#5AF3F5"/>
<stop offset="0.119" stop-color="#3EF0F4"/>
<stop offset="0.1504" stop-color="#28EFF2"/>
<stop offset="0.1871" stop-color="#17EEF1"/>
<stop offset="0.2324" stop-color="#0CEDF1"/>
<stop offset="0.296" stop-color="#05ECF0"/>
<stop offset="0.4725" stop-color="#03ECF0"/>
<stop offset="0.5705" stop-color="#02DFE8"/>
<stop offset="0.7503" stop-color="#00BED2"/>
<stop offset="0.7582" stop-color="#00BCD1"/>
</linearGradient>
<linearGradient id="paint4_linear" x1="59.7615" y1="8.07644" x2="58.9079" y2="29.9951" gradientUnits="userSpaceOnUse">
<stop stop-color="white"/>
<stop offset="0.0024093" stop-color="#F9FFFF"/>
<stop offset="0.0215018" stop-color="#CBFBFC"/>
<stop offset="0.0429262" stop-color="#A0F8F9"/>
<stop offset="0.0660673" stop-color="#7AF5F7"/>
<stop offset="0.0912215" stop-color="#5AF3F5"/>
<stop offset="0.119" stop-color="#3EF0F4"/>
<stop offset="0.1504" stop-color="#28EFF2"/>
<stop offset="0.1871" stop-color="#17EEF1"/>
<stop offset="0.2324" stop-color="#0CEDF1"/>
<stop offset="0.296" stop-color="#05ECF0"/>
<stop offset="0.4725" stop-color="#03ECF0"/>
<stop offset="0.5705" stop-color="#02DFE8"/>
<stop offset="0.7503" stop-color="#00BED2"/>
<stop offset="0.7582" stop-color="#00BCD1"/>
</linearGradient>
<linearGradient id="paint5_linear" x1="7.28882" y1="58.1994" x2="39.2991" y2="58.625" gradientUnits="userSpaceOnUse">
<stop stop-color="#00B0B0"/>
<stop offset="0.1598" stop-color="#00ABAC"/>
<stop offset="0.3553" stop-color="#009CA1"/>
<stop offset="0.5695" stop-color="#00838E"/>
<stop offset="0.7952" stop-color="#006174"/>
<stop offset="1" stop-color="#003B57"/>
</linearGradient>
<linearGradient id="paint6_linear" x1="90.8801" y1="44.1676" x2="59.5003" y2="51.3505" gradientUnits="userSpaceOnUse">
<stop stop-color="#00B9DC"/>
<stop offset="0.1482" stop-color="#00B4D7"/>
<stop offset="0.3296" stop-color="#00A6C8"/>
<stop offset="0.5282" stop-color="#008EAF"/>
<stop offset="0.7392" stop-color="#006E8C"/>
<stop offset="0.9579" stop-color="#004460"/>
<stop offset="1" stop-color="#003B57"/>
</linearGradient>
<linearGradient id="paint7_linear" x1="36.0186" y1="57.5631" x2="67.0186" y2="69.8762" gradientUnits="userSpaceOnUse">
<stop stop-color="#00B0B0"/>
<stop offset="0.1598" stop-color="#00ABAC"/>
<stop offset="0.3553" stop-color="#009CA1"/>
<stop offset="0.5695" stop-color="#00838E"/>
<stop offset="0.7952" stop-color="#006174"/>
<stop offset="1" stop-color="#003B57"/>
</linearGradient>
<linearGradient id="paint8_linear" x1="34.893" y1="50.7098" x2="25.8541" y2="69.9214" gradientUnits="userSpaceOnUse">
<stop stop-color="#0AD7DF"/>
<stop offset="0.2204" stop-color="#08CAD5"/>
<stop offset="0.6246" stop-color="#04A9B9"/>
<stop offset="1" stop-color="#00849B"/>
</linearGradient>
<linearGradient id="paint9_linear" x1="19.2151" y1="46.9745" x2="3.18456" y2="55.3194" gradientUnits="userSpaceOnUse">
<stop stop-color="#0AD7DF"/>
<stop offset="0.2204" stop-color="#08CAD5"/>
<stop offset="0.6246" stop-color="#04A9B9"/>
<stop offset="1" stop-color="#00849B"/>
</linearGradient>
<linearGradient id="paint10_linear" x1="17.9819" y1="32.2589" x2="6.0956" y2="20.4476" gradientUnits="userSpaceOnUse">
<stop stop-color="#0AD7DF"/>
<stop offset="0.2204" stop-color="#08CAD5"/>
<stop offset="0.6246" stop-color="#04A9B9"/>
<stop offset="1" stop-color="#00849B"/>
</linearGradient>
<linearGradient id="paint11_linear" x1="36.8015" y1="28.9655" x2="18.9047" y2="-2.14937" gradientUnits="userSpaceOnUse">
<stop stop-color="#0AD7DF"/>
<stop offset="0.2204" stop-color="#08CAD5"/>
<stop offset="0.6246" stop-color="#04A9B9"/>
<stop offset="1" stop-color="#00849B"/>
</linearGradient>
<linearGradient id="paint12_linear" x1="45.8066" y1="24.0079" x2="55.2438" y2="-4.0941" gradientUnits="userSpaceOnUse">
<stop stop-color="#0AD7DF"/>
<stop offset="0.2204" stop-color="#08CAD5"/>
<stop offset="0.6246" stop-color="#04A9B9"/>
<stop offset="1" stop-color="#00849B"/>
</linearGradient>
<linearGradient id="paint13_linear" x1="60.734" y1="30.4917" x2="77.6489" y2="20.2824" gradientUnits="userSpaceOnUse">
<stop stop-color="#0AD7DF"/>
<stop offset="0.2204" stop-color="#08CAD5"/>
<stop offset="0.6246" stop-color="#04A9B9"/>
<stop offset="1" stop-color="#00849B"/>
</linearGradient>
<linearGradient id="paint14_linear" x1="71.6981" y1="57.7931" x2="59.8927" y2="46.0622" gradientUnits="userSpaceOnUse">
<stop stop-color="#0AD7DF"/>
<stop offset="0.2204" stop-color="#08CAD5"/>
<stop offset="0.6246" stop-color="#04A9B9"/>
<stop offset="1" stop-color="#00849B"/>
</linearGradient>
<linearGradient id="paint15_linear" x1="44.679" y1="53.5847" x2="56.8181" y2="80.858" gradientUnits="userSpaceOnUse">
<stop stop-color="#0AD7DF"/>
<stop offset="0.2204" stop-color="#08CAD5"/>
<stop offset="0.6246" stop-color="#04A9B9"/>
<stop offset="1" stop-color="#00849B"/>
</linearGradient>
<linearGradient id="paint16_linear" x1="39.4966" y1="50.8093" x2="38.1487" y2="72.0584" gradientUnits="userSpaceOnUse">
<stop stop-color="#0AD7DF"/>
<stop offset="0.2204" stop-color="#08CAD5"/>
<stop offset="0.6246" stop-color="#04A9B9"/>
<stop offset="1" stop-color="#00849B"/>
</linearGradient>
<linearGradient id="paint17_linear" x1="23.8457" y1="53.2998" x2="12.0816" y2="66.8631" gradientUnits="userSpaceOnUse">
<stop stop-color="#0AD7DF"/>
<stop offset="0.2204" stop-color="#08CAD5"/>
<stop offset="0.6246" stop-color="#04A9B9"/>
<stop offset="1" stop-color="#00849B"/>
</linearGradient>
<linearGradient id="paint18_linear" x1="17.3912" y1="40.3333" x2="2.66747" y2="34.0073" gradientUnits="userSpaceOnUse">
<stop stop-color="#0AD7DF"/>
<stop offset="0.2204" stop-color="#08CAD5"/>
<stop offset="0.6246" stop-color="#04A9B9"/>
<stop offset="1" stop-color="#00849B"/>
</linearGradient>
<linearGradient id="paint19_linear" x1="22.9851" y1="22.2573" x2="19.0044" y2="19.0609" gradientUnits="userSpaceOnUse">
<stop stop-color="white"/>
<stop offset="0.0808299" stop-color="#CDFBFC"/>
<stop offset="0.205" stop-color="#86F6F8"/>
<stop offset="0.3168" stop-color="#4EF2F4"/>
<stop offset="0.4122" stop-color="#25EFF2"/>
<stop offset="0.4874" stop-color="#0CEDF1"/>
<stop offset="0.533" stop-color="#03ECF0"/>
<stop offset="0.6931" stop-color="#02DFE8"/>
<stop offset="0.987" stop-color="#00BED2"/>
<stop offset="1" stop-color="#00BCD1"/>
</linearGradient>
<linearGradient id="paint20_linear" x1="39.8176" y1="22.9828" x2="38.2496" y2="-6.89918" gradientUnits="userSpaceOnUse">
<stop stop-color="#0AD7DF"/>
<stop offset="0.2204" stop-color="#08CAD5"/>
<stop offset="0.6246" stop-color="#04A9B9"/>
<stop offset="1" stop-color="#00849B"/>
</linearGradient>
<linearGradient id="paint21_linear" x1="55.7915" y1="23.2831" x2="67.6072" y2="7.78485" gradientUnits="userSpaceOnUse">
<stop stop-color="#0AD7DF"/>
<stop offset="0.2204" stop-color="#08CAD5"/>
<stop offset="0.6246" stop-color="#04A9B9"/>
<stop offset="1" stop-color="#00849B"/>
</linearGradient>
<linearGradient id="paint22_linear" x1="75.2397" y1="44.0707" x2="60.6529" y2="37.8035" gradientUnits="userSpaceOnUse">
<stop stop-color="#0AD7DF"/>
<stop offset="0.2204" stop-color="#08CAD5"/>
<stop offset="0.6246" stop-color="#04A9B9"/>
<stop offset="1" stop-color="#00849B"/>
</linearGradient>
<linearGradient id="paint23_linear" x1="49.5336" y1="50.2379" x2="70.2176" y2="70.5221" gradientUnits="userSpaceOnUse">
<stop stop-color="#0AD7DF"/>
<stop offset="0.2204" stop-color="#08CAD5"/>
<stop offset="0.6246" stop-color="#04A9B9"/>
<stop offset="1" stop-color="#00849B"/>
</linearGradient>
<linearGradient id="paint24_linear" x1="14.4927" y1="34.5788" x2="17.7005" y2="37.4122" gradientUnits="userSpaceOnUse">
<stop stop-color="white"/>
<stop offset="0.0808299" stop-color="#CDFBFC"/>
<stop offset="0.205" stop-color="#86F6F8"/>
<stop offset="0.3168" stop-color="#4EF2F4"/>
<stop offset="0.4122" stop-color="#25EFF2"/>
<stop offset="0.4874" stop-color="#0CEDF1"/>
<stop offset="0.533" stop-color="#03ECF0"/>
<stop offset="0.6931" stop-color="#02DFE8"/>
<stop offset="0.987" stop-color="#00BED2"/>
<stop offset="1" stop-color="#00BCD1"/>
</linearGradient>
<linearGradient id="paint25_linear" x1="40.026" y1="57.9363" x2="43.3623" y2="62.9116" gradientUnits="userSpaceOnUse">
<stop stop-color="white"/>
<stop offset="0.0808299" stop-color="#CDFBFC"/>
<stop offset="0.205" stop-color="#86F6F8"/>
<stop offset="0.3168" stop-color="#4EF2F4"/>
<stop offset="0.4122" stop-color="#25EFF2"/>
<stop offset="0.4874" stop-color="#0CEDF1"/>
<stop offset="0.533" stop-color="#03ECF0"/>
<stop offset="0.6931" stop-color="#02DFE8"/>
<stop offset="0.987" stop-color="#00BED2"/>
<stop offset="1" stop-color="#00BCD1"/>
</linearGradient>
<linearGradient id="paint26_linear" x1="14.0126" y1="44.6335" x2="20.4354" y2="37.8182" gradientUnits="userSpaceOnUse">
<stop stop-color="white"/>
<stop offset="0.0808299" stop-color="#CDFBFC"/>
<stop offset="0.205" stop-color="#86F6F8"/>
<stop offset="0.3168" stop-color="#4EF2F4"/>
<stop offset="0.4122" stop-color="#25EFF2"/>
<stop offset="0.4874" stop-color="#0CEDF1"/>
<stop offset="0.533" stop-color="#03ECF0"/>
<stop offset="0.6931" stop-color="#02DFE8"/>
<stop offset="0.987" stop-color="#00BED2"/>
<stop offset="1" stop-color="#00BCD1"/>
</linearGradient>
<linearGradient id="paint27_linear" x1="57.7876" y1="43.508" x2="63.5799" y2="42.4509" gradientUnits="userSpaceOnUse">
<stop stop-color="white"/>
<stop offset="0.0808299" stop-color="#CDFBFC"/>
<stop offset="0.205" stop-color="#86F6F8"/>
<stop offset="0.3168" stop-color="#4EF2F4"/>
<stop offset="0.4122" stop-color="#25EFF2"/>
<stop offset="0.4874" stop-color="#0CEDF1"/>
<stop offset="0.533" stop-color="#03ECF0"/>
<stop offset="0.6931" stop-color="#02DFE8"/>
<stop offset="0.987" stop-color="#00BED2"/>
<stop offset="1" stop-color="#00BCD1"/>
</linearGradient>
<linearGradient id="paint28_linear" x1="63.707" y1="33.4832" x2="61.1457" y2="37.3198" gradientUnits="userSpaceOnUse">
<stop stop-color="white"/>
<stop offset="0.0648773" stop-color="#F8FEFF"/>
<stop offset="0.1583" stop-color="#E5FDFD"/>
<stop offset="0.2689" stop-color="#C6FBFC"/>
<stop offset="0.3927" stop-color="#9AF7F9"/>
<stop offset="0.5276" stop-color="#62F3F6"/>
<stop offset="0.6695" stop-color="#1FEEF2"/>
<stop offset="0.7253" stop-color="#03ECF0"/>
<stop offset="0.8195" stop-color="#02DFE8"/>
<stop offset="0.9924" stop-color="#00BED2"/>
<stop offset="1" stop-color="#00BCD1"/>
</linearGradient>
<linearGradient id="paint29_linear" x1="34.6382" y1="12.7301" x2="35.4527" y2="21.1793" gradientUnits="userSpaceOnUse">
<stop stop-color="white"/>
<stop offset="0.1142" stop-color="#CDFBFC"/>
<stop offset="0.2895" stop-color="#86F6F8"/>
<stop offset="0.4475" stop-color="#4EF2F4"/>
<stop offset="0.5822" stop-color="#25EFF2"/>
<stop offset="0.6883" stop-color="#0CEDF1"/>
<stop offset="0.7527" stop-color="#03ECF0"/>
<stop offset="0.8375" stop-color="#02DFE8"/>
<stop offset="0.9931" stop-color="#00BED2"/>
<stop offset="1" stop-color="#00BCD1"/>
</linearGradient>
<linearGradient id="paint30_linear" x1="7.81608" y1="51.8702" x2="27.4884" y2="31.7334" gradientUnits="userSpaceOnUse">
<stop stop-color="#0AD7DF"/>
<stop offset="0.2204" stop-color="#08CAD5"/>
<stop offset="0.6246" stop-color="#04A9B9"/>
<stop offset="1" stop-color="#00849B"/>
</linearGradient>
<linearGradient id="paint31_linear" x1="33.3554" y1="64.8016" x2="37.5283" y2="59.9539" gradientUnits="userSpaceOnUse">
<stop stop-color="white"/>
<stop offset="0.0808299" stop-color="#CDFBFC"/>
<stop offset="0.205" stop-color="#86F6F8"/>
<stop offset="0.3168" stop-color="#4EF2F4"/>
<stop offset="0.4122" stop-color="#25EFF2"/>
<stop offset="0.4874" stop-color="#0CEDF1"/>
<stop offset="0.533" stop-color="#03ECF0"/>
<stop offset="0.6931" stop-color="#02DFE8"/>
<stop offset="0.987" stop-color="#00BED2"/>
<stop offset="1" stop-color="#00BCD1"/>
</linearGradient>
<linearGradient id="paint32_linear" x1="17.7483" y1="54.8922" x2="23.2713" y2="49.3354" gradientUnits="userSpaceOnUse">
<stop stop-color="white"/>
<stop offset="0.0808299" stop-color="#CDFBFC"/>
<stop offset="0.205" stop-color="#86F6F8"/>
<stop offset="0.3168" stop-color="#4EF2F4"/>
<stop offset="0.4122" stop-color="#25EFF2"/>
<stop offset="0.4874" stop-color="#0CEDF1"/>
<stop offset="0.533" stop-color="#03ECF0"/>
<stop offset="0.6931" stop-color="#02DFE8"/>
<stop offset="0.987" stop-color="#00BED2"/>
<stop offset="1" stop-color="#00BCD1"/>
</linearGradient>
<linearGradient id="paint33_linear" x1="29.8844" y1="16.4441" x2="20.3607" y2="23.8183" gradientUnits="userSpaceOnUse">
<stop stop-color="white"/>
<stop offset="0.1417" stop-color="#CDFBFC"/>
<stop offset="0.3593" stop-color="#86F6F8"/>
<stop offset="0.5553" stop-color="#4EF2F4"/>
<stop offset="0.7224" stop-color="#25EFF2"/>
<stop offset="0.8541" stop-color="#0CEDF1"/>
<stop offset="0.9341" stop-color="#03ECF0"/>
<stop offset="0.9567" stop-color="#02DFE8"/>
<stop offset="0.9982" stop-color="#00BED2"/>
<stop offset="1" stop-color="#00BCD1"/>
</linearGradient>
<linearGradient id="paint34_linear" x1="17.6505" y1="24.8948" x2="27.0946" y2="27.3211" gradientUnits="userSpaceOnUse">
<stop stop-color="white"/>
<stop offset="0.1517" stop-color="#CDFBFC"/>
<stop offset="0.3847" stop-color="#86F6F8"/>
<stop offset="0.5945" stop-color="#4EF2F4"/>
<stop offset="0.7734" stop-color="#25EFF2"/>
<stop offset="0.9144" stop-color="#0CEDF1"/>
<stop offset="1" stop-color="#00BCD1"/>
</linearGradient>
<linearGradient id="paint35_linear" x1="25.1786" y1="50.9458" x2="25.0575" y2="54.4204" gradientUnits="userSpaceOnUse">
<stop stop-color="white"/>
<stop offset="0.0808299" stop-color="#CDFBFC"/>
<stop offset="0.205" stop-color="#86F6F8"/>
<stop offset="0.3168" stop-color="#4EF2F4"/>
<stop offset="0.4122" stop-color="#25EFF2"/>
<stop offset="0.4874" stop-color="#0CEDF1"/>
<stop offset="0.533" stop-color="#03ECF0"/>
<stop offset="0.6931" stop-color="#02DFE8"/>
<stop offset="0.987" stop-color="#00BED2"/>
<stop offset="1" stop-color="#00BCD1"/>
</linearGradient>
<linearGradient id="paint36_linear" x1="65.4519" y1="26.4809" x2="52.2108" y2="24.0386" gradientUnits="userSpaceOnUse">
<stop stop-color="white"/>
<stop offset="0.1217" stop-color="#CDFBFC"/>
<stop offset="0.3086" stop-color="#86F6F8"/>
<stop offset="0.4769" stop-color="#4EF2F4"/>
<stop offset="0.6204" stop-color="#25EFF2"/>
<stop offset="0.7335" stop-color="#0CEDF1"/>
<stop offset="0.8022" stop-color="#03ECF0"/>
<stop offset="0.87" stop-color="#02DFE8"/>
<stop offset="0.9945" stop-color="#00BED2"/>
<stop offset="1" stop-color="#00BCD1"/>
</linearGradient>
<linearGradient id="paint37_linear" x1="53.2799" y1="19.3597" x2="49.4646" y2="26.3961" gradientUnits="userSpaceOnUse">
<stop stop-color="white"/>
<stop offset="0.1342" stop-color="#CDFBFC"/>
<stop offset="0.3403" stop-color="#86F6F8"/>
<stop offset="0.5259" stop-color="#4EF2F4"/>
<stop offset="0.6841" stop-color="#25EFF2"/>
<stop offset="0.8089" stop-color="#0CEDF1"/>
<stop offset="0.8846" stop-color="#03ECF0"/>
<stop offset="0.9242" stop-color="#02DFE8"/>
<stop offset="0.9968" stop-color="#00BED2"/>
<stop offset="1" stop-color="#00BCD1"/>
</linearGradient>
<linearGradient id="paint38_linear" x1="54.4428" y1="49.1468" x2="60.3445" y2="55.0112" gradientUnits="userSpaceOnUse">
<stop stop-color="#03ECF0"/>
<stop offset="0.3428" stop-color="#02DFE8"/>
<stop offset="0.9722" stop-color="#00BED2"/>
<stop offset="1" stop-color="#00BCD1"/>
</linearGradient>
<linearGradient id="paint39_linear" x1="49.1526" y1="54.7401" x2="54.9415" y2="60.4925" gradientUnits="userSpaceOnUse">
<stop stop-color="#0AD7DF"/>
<stop offset="0.2204" stop-color="#08CAD5"/>
<stop offset="0.6246" stop-color="#04A9B9"/>
<stop offset="1" stop-color="#00849B"/>
</linearGradient>
<linearGradient id="paint40_linear" x1="50.4737" y1="55.7752" x2="22.3741" y2="27.853" gradientUnits="userSpaceOnUse">
<stop stop-color="#00B0B0"/>
<stop offset="0.1257" stop-color="#00ABAB"/>
<stop offset="0.2795" stop-color="#009D9C"/>
<stop offset="0.448" stop-color="#008683"/>
<stop offset="0.627" stop-color="#006560"/>
<stop offset="0.8135" stop-color="#003C34"/>
<stop offset="1" stop-color="#000B00"/>
</linearGradient>
<linearGradient id="paint41_linear" x1="22.6799" y1="28.6271" x2="37.8924" y2="43.2175" gradientUnits="userSpaceOnUse">
<stop stop-color="#03ECF0"/>
<stop offset="0.3428" stop-color="#02DFE8"/>
<stop offset="0.9722" stop-color="#00BED2"/>
<stop offset="1" stop-color="#00BCD1"/>
</linearGradient>
<linearGradient id="paint42_linear" x1="50.1777" y1="22.6256" x2="40.6027" y2="34.1081" gradientUnits="userSpaceOnUse">
<stop stop-color="#03ECF0"/>
<stop offset="0.3428" stop-color="#02DFE8"/>
<stop offset="0.9722" stop-color="#00BED2"/>
<stop offset="1" stop-color="#00BCD1"/>
</linearGradient>
<linearGradient id="paint43_linear" x1="43.0153" y1="25.1731" x2="54.8161" y2="63.589" gradientUnits="userSpaceOnUse">
<stop stop-color="#03ECF0"/>
<stop offset="0.3428" stop-color="#02DFE8"/>
<stop offset="0.9722" stop-color="#00BED2"/>
<stop offset="1" stop-color="#00BCD1"/>
</linearGradient>
<linearGradient id="paint44_linear" x1="65.5328" y1="51.6911" x2="26.2942" y2="12.7002" gradientUnits="userSpaceOnUse">
<stop stop-color="#03ECF0"/>
<stop offset="0.3428" stop-color="#02DFE8"/>
<stop offset="0.9722" stop-color="#00BED2"/>
<stop offset="1" stop-color="#00BCD1"/>
</linearGradient>
<linearGradient id="paint45_linear" x1="55.7375" y1="70.5999" x2="34.8337" y2="43.708" gradientUnits="userSpaceOnUse">
<stop stop-color="#03ECF0"/>
<stop offset="0.3428" stop-color="#02DFE8"/>
<stop offset="0.9722" stop-color="#00BED2"/>
<stop offset="1" stop-color="#00BCD1"/>
</linearGradient>
<linearGradient id="paint46_linear" x1="7.78602" y1="35.5143" x2="30.6305" y2="43.7525" gradientUnits="userSpaceOnUse">
<stop stop-color="#03ECF0"/>
<stop offset="0.3428" stop-color="#02DFE8"/>
<stop offset="0.9722" stop-color="#00BED2"/>
<stop offset="1" stop-color="#00BCD1"/>
</linearGradient>
<linearGradient id="paint47_linear" x1="25.9573" y1="56.1464" x2="40.7656" y2="43.8831" gradientUnits="userSpaceOnUse">
<stop stop-color="#03ECF0"/>
<stop offset="0.3428" stop-color="#02DFE8"/>
<stop offset="0.9722" stop-color="#00BED2"/>
<stop offset="1" stop-color="#00BCD1"/>
</linearGradient>
<linearGradient id="paint48_linear" x1="63.7924" y1="53.8339" x2="24.2698" y2="14.5608" gradientUnits="userSpaceOnUse">
<stop stop-color="#03ECF0"/>
<stop offset="0.3428" stop-color="#02DFE8"/>
<stop offset="0.9722" stop-color="#00BED2"/>
<stop offset="1" stop-color="#00BCD1"/>
</linearGradient>
<linearGradient id="paint49_linear" x1="35.7505" y1="19.2057" x2="42.7345" y2="61.4569" gradientUnits="userSpaceOnUse">
<stop stop-color="white"/>
<stop offset="0.1217" stop-color="#CDFBFC"/>
<stop offset="0.3086" stop-color="#86F6F8"/>
<stop offset="0.4769" stop-color="#4EF2F4"/>
<stop offset="0.6204" stop-color="#25EFF2"/>
<stop offset="0.7335" stop-color="#0CEDF1"/>
<stop offset="0.8022" stop-color="#03ECF0"/>
<stop offset="0.87" stop-color="#02DFE8"/>
<stop offset="0.9945" stop-color="#00BED2"/>
<stop offset="1" stop-color="#00BCD1"/>
</linearGradient>
</defs>
</svg>
