<svg width="40" height="40" viewBox="0 0 40 40" fill="none" xmlns="http://www.w3.org/2000/svg">
	<circle cx="20" cy="20" r="20" fill="black" fill-opacity="0.15" />
	<path d="M9 15C8.2 14.6 6.66667 14.1667 6 14C5.83333 14.3333 5.6 15.4 6 17C6.4 18.6 7.5 20 8 20.5C7.66667 21 6.9 22.2 6.5 23C6.1 23.8 5.66667 26.3333 5.5 27.5C6.16667 27.5 7.8 27.3 9 26.5C10.2 25.7 10.8333 24.8333 11 24.5C13.3333 26.5 19.5 30.1 25.5 28.5C31.5 26.9 34.6667 22.5 35.5 20.5C34.1667 18.3333 30.1 13.8 24.5 13C18.9 12.2 13.1667 15.3333 11 17C10.6667 16.5 9.8 15.4 9 15Z" fill="url(#paint0_linear_224_34808)" />
	<path d="M19.5 10C23.1 11.2 23.6667 12.5 23.5 13C22.8333 12.8333 21.1 12.6 19.5 13C17.9 13.4 16.1667 14.1667 15.5 14.5L13.5 8.5C14 8.5 15.9 8.8 19.5 10Z" fill="#1DF975" />
	<path d="M19 31C20.6 30.6 21.6667 29.5 22 29L17 27.5C16.8333 27.6667 16.4 28.3 16 29.5C15.6 30.7 15.8333 31.3333 16 31.5C16.3333 31.5 17.4 31.4 19 31Z" fill="#1DF975" />
	<path fill-rule="evenodd" clip-rule="evenodd" d="M13.1435 8.04837C12.9533 8.12883 12.808 8.33024 12.7744 8.56025C12.7505 8.72343 12.8867 9.17611 13.3745 10.5546C13.7216 11.5353 14.1199 12.732 14.2595 13.2137C14.3992 13.6955 14.5248 14.1259 14.5388 14.1702C14.5549 14.2213 14.316 14.3743 13.8841 14.5894C13.0487 15.0056 12.0523 15.5785 11.5078 15.956L11.099 16.2394L10.8435 15.8841C9.9553 14.6486 8.54013 13.8009 6.80866 13.4671C6.52979 13.4133 6.11092 13.3638 5.87781 13.3571C5.03161 13.3329 4.89574 13.658 5.0617 15.3098C5.28415 17.5232 5.89937 19.2064 6.91087 20.3689C7.15421 20.6487 7.16928 20.6841 7.07749 20.7618C6.88078 20.9283 6.29468 21.7974 6.04589 22.2916C5.5445 23.2875 5.24903 24.3694 5.09058 25.7897C4.92456 27.2776 4.9799 27.7126 5.36117 27.9163C5.58156 28.0341 5.78372 28.0348 6.51356 27.9202C7.80793 27.7171 9.0064 27.2065 9.87392 26.4885C10.2939 26.141 10.4801 25.9347 11.0017 25.2387C11.1 25.1075 11.1013 25.1079 11.5769 25.4266C12.5138 26.0543 13.921 26.8111 15.2219 27.3868C15.8012 27.6432 15.9615 27.7395 15.9379 27.8172C15.9212 27.8724 15.8384 28.0879 15.754 28.2963C15.541 28.8217 15.4091 29.6383 15.3705 30.6716L15.3377 31.5487L15.5006 31.7488C15.7156 32.0129 15.9161 32.0442 16.8191 31.9552C19.1732 31.7232 21.1113 30.9434 22.3799 29.7179L22.7705 29.3407L23.3457 29.2981C27.2947 29.0059 30.518 27.5107 33.186 24.7334C33.5865 24.3166 34.0656 23.7785 34.2509 23.5376C35.0779 22.4619 36 20.9595 36 20.6875C36 20.3734 35.1513 18.9689 34.3043 17.8818C31.9142 14.8134 28.6929 12.8695 24.9459 12.2341L24.1422 12.0978L23.6918 11.6487C22.0436 10.0052 18.7556 8.76366 14.3241 8.1115C13.4237 7.97898 13.3206 7.97348 13.1435 8.04837ZM15.4693 9.65157C18.0042 10.1128 20.3891 10.9157 21.7346 11.7606L22.0912 11.9846L21.8859 12.0174C21.773 12.0355 21.5035 12.0675 21.2871 12.0887C20.2721 12.1879 18.4447 12.681 16.9013 13.2722C16.3114 13.4981 15.8075 13.683 15.7817 13.683C15.7558 13.683 15.6855 13.493 15.6254 13.2607C15.5082 12.8082 14.9567 11.101 14.6047 10.1009C14.4241 9.588 14.4055 9.4909 14.488 9.4909C14.542 9.4909 14.9836 9.56323 15.4693 9.65157ZM23.2865 13.369C25.3066 13.5043 26.9976 13.9643 28.671 14.8336C30.9512 16.018 32.9472 17.9173 34.3418 20.2296L34.6157 20.6836L34.1606 21.3911C33.529 22.3729 32.9966 23.0466 32.2171 23.8504C31.0737 25.0297 30.0054 25.8207 28.583 26.5412C26.6301 27.5306 24.7725 27.9774 22.6191 27.9759C21.4333 27.975 20.8786 27.9031 19.6826 27.5949C16.9739 26.8969 12.9856 25.0186 11.4863 23.7348C11.1412 23.4392 10.8983 23.3503 10.6762 23.4381C10.4993 23.5081 10.3921 23.6426 10.149 24.1007C9.73291 24.8846 9.15123 25.4766 8.36085 25.9207C7.86436 26.1996 7.12781 26.4718 6.61104 26.5672L6.31502 26.6219L6.35499 26.0843C6.50672 24.045 7.26029 22.2769 8.3577 21.3857C8.57858 21.2063 8.78874 20.9928 8.8247 20.9112C8.93635 20.6579 8.83596 20.337 8.58463 20.1437C7.66038 19.433 6.98304 18.3283 6.6375 16.9679C6.49043 16.389 6.33192 15.3639 6.33192 14.9919V14.7357L6.58924 14.7795C7.04195 14.8567 7.80152 15.1275 8.27481 15.3805C9.13797 15.8419 9.76197 16.4814 10.2092 17.3629C10.5576 18.0498 10.904 18.1017 11.5478 17.5635C12.7978 16.5184 15.8985 14.9617 18.3808 14.1329C19.6827 13.6983 20.7371 13.4571 21.6908 13.3759C22.0182 13.348 22.3133 13.3217 22.3466 13.3177C22.3799 13.3135 22.8029 13.3367 23.2865 13.369ZM22.0585 14.8085C21.864 14.9667 21.4165 15.8628 21.1678 16.5925C20.7176 17.9129 20.5294 19.1273 20.5326 20.6907C20.5357 22.1976 20.673 23.1417 21.0835 24.4761C21.2721 25.0894 21.4757 25.3208 21.8265 25.3208C22.0037 25.3208 22.1089 25.2749 22.2553 25.1336C22.4313 24.9637 22.4468 24.9189 22.4237 24.6487C22.4097 24.485 22.324 24.0976 22.2333 23.7879C21.9504 22.8219 21.8177 21.8427 21.8178 20.722C21.818 18.9397 22.1288 17.439 22.7725 16.1124C23.1073 15.4221 23.1287 15.1385 22.8659 14.867C22.648 14.6418 22.2951 14.6162 22.0585 14.8085ZM24.6379 14.8321C24.4123 15.0283 24.0976 15.6388 23.8112 16.436C22.7387 19.4216 22.8888 23.1128 24.1914 25.7901C24.4791 26.3813 24.5583 26.4945 24.753 26.5928C24.9435 26.689 25.0135 26.6958 25.191 26.6352C25.4611 26.5431 25.6464 26.2993 25.6464 26.0362C25.6464 25.9173 25.5332 25.596 25.3792 25.2781C24.613 23.6962 24.2684 21.709 24.4273 19.7894C24.5462 18.3529 24.8121 17.3004 25.3565 16.1101C25.613 15.5494 25.6571 15.4018 25.6264 15.2066C25.5774 14.8939 25.4132 14.7394 25.0904 14.7018C24.8664 14.6757 24.7936 14.6967 24.6379 14.8321ZM27.9678 17.3706C26.9634 17.625 26.6375 18.9368 27.4016 19.6502C28.2723 20.4632 29.607 19.7546 29.5088 18.5315C29.4469 17.7609 28.6871 17.1884 27.9678 17.3706ZM18.9682 28.7607C19.4411 28.8951 20.077 29.0523 20.3814 29.11L20.9347 29.2152L20.7628 29.336C20.2475 29.6982 19.3203 30.0944 18.4507 30.3238C17.9753 30.4493 16.692 30.6669 16.6551 30.6284C16.6161 30.5877 16.7551 29.4732 16.8448 29.1062C16.8953 28.8997 17.0029 28.6129 17.0839 28.4688L17.2311 28.2067L17.6697 28.3615C17.9109 28.4467 18.4952 28.6263 18.9682 28.7607Z" fill="black" />
	<defs>
		<linearGradient id="paint0_linear_224_34808" x1="20.5" y1="12.8716" x2="20.5" y2="28.8987" gradientUnits="userSpaceOnUse">
			<stop stop-color="#1DF9F9" />
			<stop offset="1" stop-color="#0E8EB7" />
		</linearGradient>
	</defs>
</svg>
