<svg width="41" height="38" viewBox="0 0 41 38" fill="none" xmlns="http://www.w3.org/2000/svg">
	<path d="M17.7772 13.5946C20.7172 11.2836 19.8155 16.4546 19.8155 16.4546C21.3442 17.7322 20.3251 13.0035 24.7261 13.9002C26.3825 14.2377 32.551 15.9053 34.2515 15.3678C36.1216 14.7767 37.9998 16 37.1407 17.7923C36.1912 19.7733 33.1931 19.3735 33.7811 20.1033C34.3691 20.8331 35.9926 21.0742 36.1216 21.8698C36.3134 23.052 38.1599 21.2788 39.6886 23.6431C40.9454 25.587 39.499 27.1216 37.4998 27C35.5007 26.8784 35.9406 26.1351 34.9998 26.5C34.059 26.8649 33.1575 28.0153 33.9807 27.8937C34.8039 27.7721 36.1216 28 36.4998 29.5C36.748 30.4843 36.5286 30.2972 34.9998 32C33.4711 33.7028 32.352 34.1082 30 33.5C27.648 32.8918 25.4992 35.0135 23.5 35.5C21.5008 35.9865 18.5 35.5 17 35C16.3306 34.7769 14.783 33.9348 13.5 33.1006C11.6709 31.9113 11.8977 33.2222 10.1337 33.1006C8.36978 32.9789 6.59048 32.2192 6.49981 31C6.40914 29.7808 5.49983 29.5 5.99983 28.5C6.49983 27.5 4.7241 27.2243 3.99983 26.5C3.49983 26 4.00465 25.125 4.49981 24C4.93997 23 5.55819 22.2433 4.49981 22C3.44143 21.7567 3.44149 20.9506 4.49987 20.2208C5.55825 19.491 6.79513 18.5221 9.49989 18.5221C12.2046 18.5221 15.4358 20.1033 16.6118 19.7384C17.7878 19.3735 17.1998 18.7654 16.259 18.5221C15.3182 18.2789 13.2015 18.0356 12.1431 17.7923C11.0847 17.5491 11.6727 16.9409 12.4959 16.4544C13.3191 15.9679 11.6727 16.4544 10.6143 16.2111C9.55592 15.9679 9.90871 14.5083 11.6727 14.2651C13.4367 14.0218 14.8373 15.9056 17.7772 13.5946Z" fill="url(#paint0_linear_224_35064)" stroke="#3D1803" />
	<path d="M17.2641 18.9993C19.7645 19.9994 20.2626 19.9994 21.7632 18.4993C23.2637 16.9992 22.7637 16.4992 21.7637 15.4992C21.0331 14.7686 19.7627 10.9991 23.7637 9.4995C28.0802 7.88161 30.7627 10.9995 32.7627 13.9995C34.7627 16.9995 30.7627 19.9993 31.2627 20.9993C31.7627 21.9993 33.7627 25.4995 30.7627 26.9995C27.7627 28.4995 25.2627 28.9995 23.2627 27.4995C21.2627 25.9995 20.7627 28.4995 17.7627 29.4995C14.7627 30.4995 10.2632 27.4995 8.76316 26.9995C7.26316 26.4995 5.26316 22.9993 7.76316 20.4993C10.2632 17.9993 14.7638 17.9992 17.2641 18.9993Z" fill="url(#paint1_linear_224_35064)" stroke="#3D1803" />
	<path d="M21.2645 25.4992C21.6648 26.2993 21.0973 27.4993 20.7636 27.9992C21.0972 27.6659 21.8645 26.9992 22.2645 26.9992C22.6645 26.9992 22.7645 27.3326 22.7645 27.4992C22.9312 27.1659 23.0645 26.2992 22.2645 25.4992C21.4645 24.6992 20.5979 24.1659 20.2645 23.9992C20.4311 24.1658 20.8643 24.6991 21.2645 25.4992Z" fill="#2F2003" />
	<path d="M28.7645 18.9992C30.3645 19.3992 30.7645 20.1659 30.7645 20.4992C29.7645 19.4988 29.3252 21.6453 28.2645 21.9988C26.7645 22.4988 25.7645 21.4988 25.7645 21.4988C25.7645 21.4988 27.7645 21.4988 28.2645 20.9988L28.7645 20.4988C28.5979 20.3322 27.5688 19.651 27.2645 19.4988C26.4645 19.0988 25.5979 19.3324 25.2645 19.4992C25.7645 19.1659 27.1645 18.5992 28.7645 18.9992Z" fill="#2F2003" />
	<path d="M29.7645 15.9988C31.3645 16.3988 32.4312 17.4988 32.7645 17.9988L32.2645 18.4993C31.9312 18.1659 30.9645 17.2993 29.7645 16.4993C28.5645 15.6993 26.2645 16.499 25.2645 16.9988C26.0979 16.4988 28.1645 15.5988 29.7645 15.9988Z" fill="#2F2003" />
	<path d="M13.2637 26.4993C12.8637 27.2992 12.9312 28.6659 13.2645 28.9993L11.2637 27.9993C11.2637 27.3326 11.8334 26.1194 12.7637 25.4993C14.2637 24.4993 15.597 24.4993 16.2637 24.4993C15.264 24.8326 13.6637 25.6993 13.2637 26.4993Z" fill="#2F2003" />
	<path d="M21.7637 21.4988C21.097 21.499 19.6637 21.2993 19.2637 20.4993C18.8637 19.6993 18.4303 19.4992 18.2637 19.4992C18.7637 19.4992 19.8637 19.6993 20.2637 20.4993C20.6637 21.2993 21.4303 21.499 21.7637 21.4988Z" fill="#2F2003" />
	<path d="M23.2637 13.4993C22.855 14.3166 22.7637 15.8326 22.7637 16.4993L21.7637 15.4993C21.7637 15.4993 21.9474 14.6317 22.2637 13.9993C22.7637 12.9993 24.097 11.8326 24.7637 11.4993C24.7637 11.4993 23.6723 12.682 23.2637 13.4993Z" fill="#2F2003" />
	<path d="M9.26367 23.4993C8.55932 24.908 8.76367 26.3326 8.76367 26.9993L7.26367 25.4993C7.26367 25.1659 7.24387 24.0191 8.26367 22.9993C9.26367 21.9993 10.9303 21.4993 11.7637 21.4993C11.097 21.8326 9.76367 22.4993 9.26367 23.4993Z" fill="#2F2003" />
	<path d="M33.4638 18.5791C32.6171 18.7997 32.0598 19.1443 31.887 19.2891C31.7141 19.4338 31.3368 19.8313 31.21 20.2633C31.0832 20.6952 31.4962 21.064 31.7186 21.1945C32.0218 20.8274 32.732 20.0063 33.1468 19.6589C33.5615 19.3115 34.7516 18.6313 35.2949 18.3346C35.0373 18.3242 34.3105 18.3584 33.4638 18.5791Z" fill="#36270B" />
	<path d="M34.2713 24.4851C33.4497 24.0876 32.7291 23.9673 32.4716 23.9568L32.2602 24.6767C32.5178 24.6872 33.2129 24.7609 33.9328 24.9722C34.6527 25.1835 35.6869 25.8781 36.114 26.199C35.8421 25.7933 35.0929 24.8827 34.2713 24.4851Z" fill="#36270B" />
	<path d="M19.6144 31.1296C19.9525 29.9778 19.5428 29.1537 19.2956 28.8857L18.5972 29.2671C18.802 29.4576 19.1946 30.029 19.1273 30.7911C19.0599 31.5533 17.8014 32.4219 17.1806 32.761C17.851 32.6971 19.2762 32.2814 19.6144 31.1296Z" fill="#36270B" />
	<path d="M13.0657 17.4782C13.2691 17.8507 13.0943 18.2685 12.9815 18.4309L14.167 18.3879L13.6584 17.4567C13.455 17.0842 12.8042 16.815 12.5043 16.7269C12.6067 16.8222 12.8623 17.1057 13.0657 17.4782Z" fill="#36270B" />
	<path d="M17.7507 11.0188C18.355 11.6515 18.9271 11.9711 19.1376 12.0518C19.5582 12.213 19.8789 12.269 20.318 12.1699C20.7571 12.0708 20.8787 11.5305 20.8846 11.2728C20.8846 11.2728 20.0299 11.8848 19.045 11.3547C17.7052 10.6337 16.567 9.55032 15.3732 8.49789C15.4895 8.70708 17.1464 10.3861 17.7507 11.0188Z" fill="#36270B" />
	<path d="M22.5198 7.44256C22.5717 8.35383 22.8167 9.04202 22.9328 9.27221L23.6646 9.10701C23.5486 8.87683 23.2752 8.23349 23.11 7.50162C22.9448 6.76976 23.0492 5.52838 23.122 4.99918C22.8996 5.43394 22.4679 6.53128 22.5198 7.44256Z" fill="#36270B" />
	<path d="M13.3922 16.091C13.6504 17.3529 13.6508 18.3872 13.6187 18.7466L12.8711 18.8103C12.9032 18.4509 12.9448 17.4666 12.8542 16.4043C12.7636 15.3421 12.2465 13.6921 11.9992 12.9998C12.356 13.5044 13.134 14.829 13.3922 16.091Z" fill="#36270B" />
	<path d="M34.0295 14.8448C32.9056 16.1944 31.8345 17.1505 31.4395 17.4599L30.8431 16.9883C31.2381 16.679 32.2872 15.7987 33.3232 14.7527C34.3592 13.7067 35.7014 11.8148 36.243 10.9995C35.9735 11.719 35.1534 13.4953 34.0295 14.8448Z" fill="#36270B" />
	<defs>
		<linearGradient id="paint0_linear_224_35064" x1="13.2016" y1="14.9947" x2="32.1317" y2="32.3585" gradientUnits="userSpaceOnUse">
			<stop stop-color="#CEE832" />
			<stop offset="1" stop-color="#78A811" />
		</linearGradient>
		<linearGradient id="paint1_linear_224_35064" x1="17.7267" y1="17.5898" x2="24.8864" y2="28.4407" gradientUnits="userSpaceOnUse">
			<stop stop-color="#C99329" />
			<stop offset="1" stop-color="#6C5424" />
		</linearGradient>
	</defs>
</svg>
